<svg width="40" height="40" fill="none" xmlns="http://www.w3.org/2000/svg"><path d="M22.524 19.582h0a22.291 22.291 0 00-2.19-.59l-.01-.003h0a34.263 34.263 0 01-1.447-.366l-.003-.001a4.983 4.983 0 01-.961-.382 2.604 2.604 0 01-.846-.665l-.008-.009-.007-.01a1.708 1.708 0 01-.364-1.086c.003-.714.408-1.246.966-1.621l4.87 4.733zm0 0l.007.002m-.006-.002l.006.002m0 0c.553.174 1.08.422 1.567.736.378.25.69.588.91.985.202.37.323.864.323 1.495h0v.008a3.334 3.334 0 01-.585 1.92c-.379.55-.956 1.015-1.754 1.357-.788.334-1.76.517-2.907.517-1.386 0-2.485-.25-3.305-.697a4.049 4.049 0 01-1.426-1.302l-.002-.003c-.372-.549-.527-1.048-.527-1.48h0v-.006a.6.6 0 01.19-.444l.002-.002a.74.74 0 01.532-.202l.023.001h.024a.563.563 0 01.374.128c.178.172.316.38.403.612l.004.008.003.009c.175.433.4.844.67 1.225l.01.014.01.013c.299.386.687.694 1.13.898.514.25 1.136.345 1.808.345.949 0 1.808-.206 2.493-.686h0l.005-.004c.656-.467 1.065-1.098 1.071-1.908m-1.046-3.537l1.046 3.537m-1.559-8.287h0c.455.356.825.84 1.116 1.407.203.358.349.539.447.626l.009.007h0c.028.026.122.09.377.09a.632.632 0 00.503-.213l.008-.008.008-.008a.704.704 0 00.204-.49c0-.248-.07-.532-.231-.843a3.025 3.025 0 00-.792-.914v-.001a4.43 4.43 0 00-1.446-.741 7.105 7.105 0 00-2.161-.294h-.014c-1.078 0-1.994.153-2.738.438-.755.289-1.297.691-1.655 1.17l-.001.003a2.73 2.73 0 00-.546 1.671v.01h0c0 .694.184 1.234.505 1.648l.001.002c.344.444.83.818 1.465 1.098.664.287 1.513.551 2.545.78.79.168 1.448.336 1.946.497m.45-5.935l-.448 5.936-.002-.001m.45-5.935c-.547-.428-1.336-.561-2.172-.561-.827 0-1.587.168-2.192.576l4.364-.015zm-.45 5.935c.532.17 1.008.43 1.385.793l.005.004h0a2.065 2.065 0 01.619 1.555m-2.009-2.352l2.009 2.352m-3.468 8.281c.589.001 1.176-.048 1.755-.145.887.444 1.882.69 2.93.69 3.713 0 6.685-3.09 6.687-6.855v0c0-1.001-.21-1.949-.583-2.806.133-.703.202-1.428.202-2.167 0-6.213-4.9-11.286-10.99-11.286-.537 0-1.072.04-1.593.119a6.523 6.523 0 00-3.313-.904c-3.715 0-6.689 3.095-6.69 6.861M20.11 31.402l.001-.75m0 .75s0 0 0 0v-.75m0 .75c-6.087 0-10.987-5.077-10.987-11.285 0-.684.06-1.35.172-1.996a6.932 6.932 0 01-.78-3.212M20.11 30.652a9.663 9.663 0 001.875-.18l-1.875.18zM8.515 14.91v.001h.75l-.75-.001s0 0 0 0zM.75 20C.75 9.368 9.368.75 20 .75S39.25 9.368 39.25 20 30.632 39.25 20 39.25.75 30.632.75 20z" stroke="#fff" stroke-width="1.5"/></svg>