<svg width="200" height="200" fill="none" xmlns="http://www.w3.org/2000/svg"><path d="M28.88 58.235v-.014l-1.827-45.082c.002-.056.027-.143.114-.265.09-.125.228-.263.415-.407.373-.29.895-.574 1.463-.81a8.15 8.15 0 011.673-.501c.256-.044.483-.064.67-.06.189.006.313.034.386.069l61.901 34.344h.001a1.3 1.3 0 01.677 1.16v45.645a.861.861 0 01-.117.378 2.893 2.893 0 01-.379.535 7.04 7.04 0 01-1.295 1.127c-.502.346-1.027.627-1.48.783a2.281 2.281 0 01-.587.132.6.6 0 01-.319-.047l-.002-.001-60.61-35.823h0l-.005-.003a1.3 1.3 0 01-.678-1.16zm78.649 91.257v-.014l-1.827-45.082c.003-.147.13-.392.48-.702.335-.296.804-.59 1.317-.836a6.88 6.88 0 011.521-.53c.485-.098.818-.081.98-.004l62.324 34.443.001.001a1.3 1.3 0 01.677 1.159v45.645c0 .087-.032.212-.118.377a2.852 2.852 0 01-.378.535 7.047 7.047 0 01-1.295 1.128c-.502.346-1.027.626-1.481.783a2.256 2.256 0 01-.587.131c-.161.01-.261-.015-.318-.046l-.002-.002-60.61-35.822h0l-.006-.003a1.301 1.301 0 01-.678-1.161z" fill="#fff" stroke="#3C3C3C" stroke-width=".7"/><path d="M89.512 95.218h0l-.006-.004L27.72 60.746l-.003-.001a1.329 1.329 0 01-.664-1.178v-46.17c0-.987 1.02-1.593 1.853-1.173L90.69 46.691c.423.247.664.675.664 1.177v46.17c0 1.085-1.03 1.653-1.841 1.18zm78.648 91.261h0l-.006-.003-61.786-34.468-.003-.002a1.327 1.327 0 01-.663-1.178v-46.169c0-.987 1.02-1.593 1.853-1.173l61.783 34.466c.422.248.664.676.664 1.178v46.17c0 1.085-1.031 1.652-1.842 1.179z" fill="#fff" stroke="#3C3C3C" stroke-width=".7"/><path d="M67.287 51.999h0c.106.184.166.383.166.554v19.272c0 .36-.252.505-.563.325l-17.32-10c-.313-.18-.564-.615-.564-.975v-26c0-.36.252-.505.563-.325l11.494 6.636c.15.086.294.24.4.422 0 0 0 0 0 0l5.824 10.09zm-1.529.385l.732.423-.517-.896-5.094-8.822-.517-.896v7.074l.303.176 5.093 2.94z" fill="#FFE604" stroke="#3C3C3C" stroke-width=".7"/><path d="M145.721 158.825v4.65l-16.715-9.65v-4.65c.002-1.762.609-3.102 1.689-3.725 1.08-.623 2.544-.479 4.07.4l5.196 3c1.527.884 2.991 2.43 4.071 4.3 1.079 1.87 1.687 3.911 1.689 5.675zm-13.147-19.895c-.632-1.459-.97-2.94-.97-4.255 0-1.764.607-3.105 1.687-3.728 1.08-.624 2.545-.479 4.072.403 1.139.658 2.252 1.69 3.2 2.968a13.778 13.778 0 012.121 4.209c.436 1.467.55 2.87.327 4.031-.222 1.162-.77 2.03-1.576 2.495-.805.465-1.831.506-2.949.118-1.117-.388-2.275-1.189-3.327-2.3a13.781 13.781 0 01-2.585-3.941z" fill="#FF625B" stroke="#3C3C3C" stroke-width=".7"/><path d="M171.629 10.808h0l-64.93 35.729c-.067.06-.148.119-.222.17-.07.049-.148.1-.224.151l-.077.052a5.054 5.054 0 00-.27.19 1.559 1.559 0 00-.115.098l-.008.01m65.846-36.4l-65.846 36.4h0m65.846-36.4l.011-.006m-.011.006l.011-.006m-65.857 36.405c-.034.048-.067.148-.079.33a3.801 3.801 0 00-.004.371l.002.19v46.998m.081-47.889l-.081 47.889m65.938-84.294c.168-.101.469-.144.886-.086.404.058.862.203 1.295.41.433.207.823.466 1.098.738.279.275.397.518.402.703l-3.343 47.183-.001.012m-.337-48.96l.337 48.96m0 0v.013m0-.013v.013m0 0c0 .47-.296.797-.733 1.234l-61.026 35.9-.002.002m61.761-37.136L110.216 96.91m0 0c-.203.121-.583.227-1.072.262a4.97 4.97 0 01-1.541-.134c-1.038-.264-1.843-.868-1.901-1.943m4.514 1.815l-4.514-1.815m-15.734 7.82h0l.012-.007c.173-.103.498-.156.95-.114a5.4 5.4 0 011.408.351c.474.185.9.423 1.2.679.307.259.426.487.43.655l-3.342 47.182v.025c0 .469-.297.797-.733 1.233L28.141 188.68l-.004.002c-.216.129-.56.24-.973.286a3.53 3.53 0 01-1.273-.087c-.416-.111-.785-.307-1.055-.603-.266-.291-.456-.698-.486-1.271V140.01c0-.263.094-.484.255-.706.136-.186.593-.718.798-.93l64.565-35.459z" fill="#fff" stroke="#3C3C3C" stroke-width=".7"/><path d="M173.802 11.957h0l.012-.007a1.155 1.155 0 011.253.022c.369.238.638.677.638 1.217v47.256c0 .478-.301.813-.742 1.255l-64.655 35.143-.006.004-.007.004c-.46.275-.938.281-1.286.107-.337-.17-.604-.535-.604-1.126V48.576c0-.48.301-.814.742-1.256l64.655-35.363zM92.45 103.871h0l.012-.007a1.155 1.155 0 011.253.022c.37.238.638.677.638 1.217v47.256c0 .479-.3.813-.742 1.255l-64.654 35.143-.007.004-.006.004c-.46.275-.938.281-1.286.107-.338-.17-.605-.535-.605-1.126V140.49c0-.479.301-.814.742-1.256l64.655-35.363z" fill="#fff" stroke="#3C3C3C" stroke-width=".7"/><path d="M150.215 43.907l.526-.303-.264-.373c-1.083-1.534-2.74-2.277-4.725-2.118l-.533.043.116.59a60.76 60.76 0 01.682 4.282l.035.283.265-.153 3.898-2.25zm-6.861-1.954l-.041-.225-.218.094a12.13 12.13 0 00-1.268.628c-.434.25-.855.538-1.268.836l-.218.157-.042.274c-.083.543-.469 3.134-.786 5.971l-.047.425.348-.2 4.025-2.324.347-.2-.047-.371a97.276 97.276 0 00-.785-5.065zm.765 13.874l.276-.16.026-.331c.081-1.053.134-2.059.134-2.911 0-.852-.053-1.797-.134-2.755l-.026-.302-.276.159-4.583 2.646-.276.16-.026.331a38.826 38.826 0 00-.134 2.911c0 .852.052 1.797.134 2.755l.026.302.276-.159 4.583-2.646zm-5.799-10.032l.116-.723-.533.573c-1.985 2.133-3.642 4.789-4.725 7.574l-.264.677.526-.303 3.898-2.25.265-.154.035-.324c.181-1.672.408-3.363.682-5.07zm-.938 7.998l.024-.39-.326.188-4.242 2.45-.391.225h-.001v.35l-.293.082c-.205 1.04-.328 2.075-.328 3.077 0 1.002.122 1.896.328 2.698l.059.228.235-.135 4.634-2.675.327-.19-.025-.362a38.729 38.729 0 01-.102-2.714c0-.907.041-1.867.101-2.832zm-3.942 10.3l-.526.303.264.373c1.083 1.534 2.74 2.277 4.725 2.118l.534-.043-.117-.59a60.328 60.328 0 01-.682-4.281l-.034-.284-.266.153-3.898 2.25zm6.86 1.953l.047.258.233-.135c.406-.176.821-.373 1.249-.62.434-.25.856-.536 1.268-.836l.218-.158.041-.273c.301-2.005.563-3.995.786-5.97l.048-.426-.349.201-4.025 2.324-.348.201.048.37c.22 1.72.482 3.408.784 5.064zm5.029-3.766l.317-.147.106.222c1.985-2.133 3.642-4.789 4.725-7.574l.264-.677-.526.303-3.898 2.25-.265.154-.035.324a100.816 100.816 0 01-.65 4.872l-.038.04v.233zm.944-8.073l-.024.39.326-.188 4.241-2.449.392-.226h.001v-.35l.292-.081c.207-1.041.329-2.076.329-3.078 0-1.002-.123-1.896-.331-2.697l-.059-.228-.234.136-4.632 2.673-.327.19.025.362c.063.893.102 1.807.102 2.714s-.041 1.867-.101 2.832zm-16.267 6.618c0-7.539 5.293-16.706 11.821-20.475 6.529-3.77 11.822-.714 11.822 6.825s-5.293 16.706-11.822 20.475c-6.528 3.77-11.821.714-11.821-6.825z" fill="#FFA9BB" stroke="#3C3C3C" stroke-width=".7"/><path d="M71.493 136.771h0l.006-.001a.274.274 0 01.256.074c.063.066.097.17.097.297 0 .126-.034.269-.097.409-.063.137-.15.264-.251.364l-7.133 6.673-.486.455.364.201 7.517 4.141c.096.058.15.18.15.34 0 .161-.054.346-.152.516v.001l-1.942 3.37s0 0 0 0c-.099.17-.232.31-.37.39-.138.079-.27.093-.369.036l-.002-.001-7.544-4.167-.355-.196-.146.634-2.225 9.66v.001a1.23 1.23 0 01-.184.408c-.087.126-.193.23-.302.296a.433.433 0 01-.306.073.269.269 0 01-.198-.176l-7.783-19.596v-.001a.63.63 0 01-.02-.329 1.213 1.213 0 01.403-.694c.097-.08.2-.131.293-.144h0l20.779-3.034z" fill="#14E731" stroke="#3C3C3C" stroke-width=".7"/></svg>