<svg width="200" height="200" fill="none" xmlns="http://www.w3.org/2000/svg"><path d="M30.871 109.656v-.017L26.35 20.992c.004-.412.315-.855.978-1.287.652-.424 1.561-.78 2.555-1.036.99-.255 2.044-.404 2.973-.426.94-.022 1.7.088 2.147.308l.005.003L156.18 84.675l.002.002a2.857 2.857 0 011.469 2.537v88.573c0 .508-.308 1.13-.886 1.788-.569.647-1.357 1.281-2.217 1.805-.861.524-1.777.929-2.593 1.13-.833.205-1.49.182-1.895-.048l-.001-.001-117.714-68.265-.002-.001a2.857 2.857 0 01-1.47-2.539z" fill="#fff" stroke="#3C3C3C" stroke-width=".7"/><path d="M149.511 180.275l-.006-.004-121.677-66.477-.003-.001a2.876 2.876 0 01-1.475-2.552V22.199c0-2.135 2.27-3.483 4.15-2.548l121.672 66.475.003.001a2.874 2.874 0 011.475 2.552v89.042c0 2.305-2.281 3.616-4.139 2.554z" fill="#fff" stroke="#3C3C3C" stroke-width=".7"/><path transform="matrix(.86603 .5 0 1 34.392 52.598)" fill="#FFA9BB" stroke="#3C3C3C" stroke-width=".7" d="M.303.525h78.3v53.3H.303z"/><circle r="8.15" transform="matrix(.86603 .5 0 1 51.713 81.5)" fill="#FFE604" stroke="#3C3C3C" stroke-width=".7"/><path d="M54.3 117.909l18.556-18.894 18.327 40.187L54.3 117.909z" fill="#14E731" stroke="#3C3C3C" stroke-width=".7"/><path d="M67.224 58.843l-.01-.006-.01-.006-32.047-18.338c-.295-.225-.455-.48-.455-.756v-1.66c0-.712.762-1.11 1.29-.757l.01.006.01.006 32.068 18.35.02.011.024.01c.153.06.24.142.294.24.059.104.097.256.097.483v1.66c0 .713-.762 1.11-1.29.757z" stroke="#3C3C3C" stroke-width=".7"/><path d="M67.224 66.609l-.01-.007-.01-.005-32.047-18.338c-.295-.226-.455-.48-.455-.756v-1.66c0-.713.762-1.11 1.29-.758l.01.007.01.006L68.08 63.447l.02.012.024.009c.153.061.24.143.294.24.059.104.097.257.097.484v1.66c0 .712-.762 1.11-1.29.757z" fill="#FFE604" stroke="#3C3C3C" stroke-width=".7"/><path d="M119.676 79.164l1.394 8.707 5.468-1.861-3.331 5.165 6.982 4.245-6.497-.793 5.229 8.365-6.624-6.38 1.03 8.571-3.651-8.984-3.652 4.768 1.031-7.382-6.625-1.268 5.23-2.327-6.498-6.71 6.982 3.818-3.33-9.012 5.467 8.175 1.395-7.097z" fill="#FF625B"/><path fill="#FFA9BB" d="M131 107l15.693 9.06v18.122L131 125.12z"/><circle r="10.5" transform="matrix(.86603 .5 0 1 118.093 132.75)" fill="#FFE604"/></svg>