<svg width="201" height="200" viewBox="0 0 201 200" fill="none" xmlns="http://www.w3.org/2000/svg">
<path d="M82.3271 108.939L70.3626 102.006L68.6957 96.711L80.5533 102.501L83.2088 108.237L82.3271 108.939Z" fill="#FFA9BB" stroke="#3C3C3C" stroke-width="0.7"/>
<path d="M72.5223 103.241L60.5192 95.3719L66.7373 91.8483L79.5814 99.2283L72.5223 103.241Z" fill="#FFE604" stroke="#3C3C3C" stroke-width="0.7"/>
<path d="M77.8047 91.7935C78.3835 94.1219 79.1266 96.9446 79.9418 99.5039L65.7639 91.6384C64.8859 88.9686 64.5255 86.7492 64.3575 85.1083C64.2759 84.3107 64.2396 83.6494 64.2113 83.1335C64.21 83.1096 64.2087 83.0861 64.2074 83.0628C64.1971 82.8743 64.1874 82.7033 64.1765 82.5536L76.6578 87.0627C76.7257 87.3175 76.8431 87.8079 77.0059 88.4918L77.0339 88.6097C77.2356 89.4571 77.4972 90.5564 77.8047 91.7935Z" fill="#FFA9BB" stroke="#3C3C3C" stroke-width="0.7"/>
<path d="M64.0416 81.7854C63.9498 81.4981 63.8787 81.2338 63.8175 80.9883L75.0282 87.0839C75.0083 87.1007 74.9877 87.1185 74.9673 87.1369C74.8756 87.22 74.7635 87.3386 74.6937 87.5054L64.0416 81.7854Z" fill="url(#paint0_linear)" stroke="#3C3C3C" stroke-width="0.7"/>
<path d="M62.707 120.204L50.8349 113.324L60.0335 77.6655L64.403 75.2592L72.8816 84.4496L65.4377 118.412L62.707 120.204Z" fill="#14E731" stroke="#3C3C3C" stroke-width="0.7"/>
<path d="M72.3692 84.6676V84.4675L72.1968 84.366L60.4302 77.438L66.6194 73.9307L78.6207 80.8847L79.824 84.4451L72.3692 86.8908V84.6676Z" fill="#FFE604" stroke="#3C3C3C" stroke-width="0.7"/>
<path d="M88.0125 105.647L82.5598 108.837L80.7392 103.054L80.6076 102.635L80.229 102.856L70.5818 108.484L70.4514 108.56L70.4172 108.707L68.4996 116.941L63.2635 119.905L72.3232 84.7845L78.7297 81.1542L88.0125 105.647ZM71.7948 102.507L71.6181 103.292L72.3126 102.887L79.2035 98.867L79.4491 98.7238L79.3592 98.454C78.4414 95.7005 77.7531 93.5209 77.2656 91.9437C77.0354 91.1991 76.849 90.5852 76.7041 90.1083C76.5437 89.58 76.4343 89.2199 76.3732 89.0365C76.2032 88.5266 76.0996 88.088 76.0075 87.6978C75.9782 87.5738 75.95 87.4546 75.9213 87.3396L75.241 87.3443C74.7812 89.2987 73.6323 94.3539 71.7948 102.507Z" fill="white" stroke="#3C3C3C" stroke-width="0.7"/>
<path d="M179.831 108.939L167.867 102.006L166.2 96.711L178.057 102.501L180.713 108.237L179.831 108.939Z" fill="#FFA9BB" stroke="#3C3C3C" stroke-width="0.7"/>
<path d="M170.026 103.241L158.023 95.3719L164.241 91.8483L177.085 99.2283L170.026 103.241Z" fill="#FFE604" stroke="#3C3C3C" stroke-width="0.7"/>
<path d="M175.309 91.7935C175.887 94.1219 176.63 96.9446 177.446 99.5039L163.268 91.6384C162.39 88.9686 162.029 86.7492 161.861 85.1083C161.78 84.3107 161.744 83.6494 161.715 83.1335C161.714 83.1096 161.713 83.0861 161.711 83.0628C161.701 82.8743 161.691 82.7033 161.68 82.5536L174.162 87.0627C174.23 87.3175 174.347 87.8079 174.51 88.4918L174.538 88.6097C174.739 89.4571 175.001 90.5564 175.309 91.7935Z" fill="#FFA9BB" stroke="#3C3C3C" stroke-width="0.7"/>
<path d="M161.545 81.7854C161.454 81.4981 161.383 81.2338 161.321 80.9883L172.532 87.0839C172.512 87.1007 172.492 87.1185 172.471 87.1369C172.38 87.22 172.267 87.3386 172.198 87.5054L161.545 81.7854Z" fill="url(#paint1_linear)" stroke="#3C3C3C" stroke-width="0.7"/>
<path d="M160.211 120.204L148.339 113.324L157.537 77.6655L161.907 75.2592L170.385 84.4496L162.942 118.412L160.211 120.204Z" fill="#14E731" stroke="#3C3C3C" stroke-width="0.7"/>
<path d="M169.873 84.6676V84.4675L169.701 84.366L157.934 77.438L164.123 73.9307L176.125 80.8847L177.328 84.4451L169.873 86.8908V84.6676Z" fill="#FFE604" stroke="#3C3C3C" stroke-width="0.7"/>
<path d="M185.516 105.647L180.064 108.837L178.243 103.054L178.111 102.635L177.733 102.856L168.086 108.484L167.955 108.56L167.921 108.707L166.004 116.941L160.767 119.905L169.827 84.7845L176.234 81.1542L185.516 105.647ZM169.299 102.507L169.122 103.292L169.817 102.887L176.707 98.867L176.953 98.7238L176.863 98.454C175.945 95.7005 175.257 93.5209 174.769 91.9437C174.539 91.1991 174.353 90.5852 174.208 90.1083C174.048 89.58 173.938 89.2199 173.877 89.0365C173.707 88.5266 173.604 88.088 173.511 87.6978C173.482 87.5738 173.454 87.4546 173.425 87.3396L172.745 87.3443C172.285 89.2987 171.136 94.3539 169.299 102.507Z" fill="white" stroke="#3C3C3C" stroke-width="0.7"/>
<path d="M21.3784 105.34L21.3783 105.339L21.2644 76.966L24.1055 75.6469L35.8391 82.9106L35.9531 111.312C35.9531 111.312 35.9531 111.313 35.9531 111.313C35.9531 113.132 35.7238 114.674 35.1862 115.75L35.186 115.75L35.1806 115.761C34.6354 116.961 33.882 117.82 32.6901 118.47L32.6901 118.47L32.684 118.473C32.5413 118.555 32.3811 118.696 32.222 118.852C32.0565 119.014 31.8684 119.217 31.6674 119.441C31.4078 119.731 31.1176 120.069 30.8179 120.417C30.6554 120.606 30.49 120.799 30.3252 120.988C29.8518 121.533 29.3791 122.062 28.9634 122.467C28.7554 122.67 28.5678 122.836 28.4065 122.956C28.3032 123.032 28.2223 123.081 28.1624 123.11L15.2914 117.514V114.196C16.1321 113.88 16.9905 113.547 17.7537 113.111C19.0846 112.384 19.9377 111.408 20.5404 110.085C21.149 108.864 21.3784 107.193 21.3784 105.34Z" fill="#14E731" stroke="#3C3C3C" stroke-width="0.7"/>
<path d="M15.2914 114.452L27.0526 121.377L27.1348 121.425H27.2302H28.9474V125.004L27.2338 125.956L15.2914 119.036V114.452Z" fill="#14E731" stroke="#3C3C3C" stroke-width="0.7"/>
<path d="M34.6377 84.5894L21.606 76.7508L26.5404 73.9312L38.4804 80.8496V83.8578L34.6377 84.5894Z" fill="#FFE604" stroke="#3C3C3C" stroke-width="0.7"/>
<path d="M36.5674 118.386L36.5673 118.386L36.5646 118.392C35.2242 121.073 33.0988 123.093 30.389 124.675C29.3255 125.255 28.3726 125.736 27.5805 126.004V121.349C28.5361 121.093 29.303 120.655 30.0309 120.239L30.0427 120.232C31.3737 119.505 32.2268 118.529 32.8295 117.206C33.4381 115.985 33.6674 114.314 33.6674 112.461L33.6674 112.46L33.5534 84.0668L38.4825 81.2502L38.5949 109.246C38.5949 109.246 38.5949 109.246 38.5949 109.246C38.5948 112.761 37.9148 115.804 36.5674 118.386Z" fill="white" stroke="#3C3C3C" stroke-width="0.7"/>
<path d="M127.454 105.259L127.452 105.267L127.45 105.275C127.11 107.091 126.608 108.767 126.174 110.17C126.135 110.297 126.096 110.423 126.057 110.547C125.886 111.098 125.728 111.605 125.603 112.052C125.515 112.363 125.441 112.653 125.387 112.916L112.471 105.153C112.541 104.507 112.699 103.646 112.919 102.536C112.989 102.182 113.065 101.803 113.146 101.399C113.346 100.402 113.577 99.2533 113.822 97.9464L118.721 76.9837L122.685 75.047L132.377 84.3795L127.454 105.259Z" fill="#FFA9BB" stroke="#3C3C3C" stroke-width="0.7"/>
<path d="M131.172 83.9785V83.7775L130.998 83.6762L119.123 76.7493L124.157 73.9301L136.033 80.8113L134.267 86.5682L131.172 87.3084V83.9785Z" fill="#FFE604" stroke="#3C3C3C" stroke-width="0.7"/>
<path d="M122.432 117.886L121.306 119.463L109.403 112.566L100.364 87.5948L104.295 85.5834L113.111 94.3264L122.432 117.886Z" fill="#14E731" stroke="#3C3C3C" stroke-width="0.7"/>
<path d="M112.652 94.5129L112.606 94.4119L112.51 94.3559L100.635 87.429L105.669 84.6098L117.664 91.5601L119.221 96.9124L114.763 99.1411L112.652 94.5129Z" fill="#FFE604" stroke="#3C3C3C" stroke-width="0.7"/>
<path d="M126.143 105.536C126.172 105.383 126.201 105.227 126.23 105.069L131.247 84.0911L135.912 81.3696L127.192 116.138L121.596 119.412L112.764 94.8162L117.881 91.8482L122.795 106.702C122.919 107.196 123.081 107.74 123.256 108.329C123.402 108.821 123.558 109.344 123.709 109.897C123.94 111.164 124.17 112.086 124.285 112.546L124.285 112.546L124.973 112.49C125.081 111.194 125.502 108.955 126.143 105.536Z" fill="white" stroke="#3C3C3C" stroke-width="0.7"/>
<path d="M46.6539 167.212L36.6547 155.251V148.984L46.6883 161.83C46.6874 162.787 46.6771 164.324 46.6668 165.645C46.6622 166.234 46.6576 166.78 46.6539 167.212Z" fill="#14E731" stroke="#3C3C3C" stroke-width="0.7"/>
<path d="M58.1288 161.962V154.305L57.0456 151.827L48.2256 149.254H41.9531L46.6977 158.435L58.1288 161.962Z" fill="#14E731" stroke="#3C3C3C" stroke-width="0.7"/>
<path d="M47.1446 167.656L47.1127 161.971L51.2202 159.079V165.024L47.1446 167.656Z" fill="#FFE604" stroke="#3C3C3C" stroke-width="0.7"/>
<path d="M51.329 158.768L46.9528 161.852L36.543 148.517L40.0647 146L61.1951 150.462L58.0939 154.338L43.9173 150.462L51.329 158.768Z" fill="white" stroke="#3C3C3C" stroke-width="0.7"/>
<path d="M58.3772 161.607L58.3305 154.564L58.3316 154.332L61.1221 150.86V159.215L58.3847 161.621L58.3772 161.607Z" fill="#FFE604" stroke="#3C3C3C" stroke-width="0.7"/>
<path d="M43.235 177.398L39.5609 175.014V167.923L43.1883 170.077L43.235 177.398Z" fill="#FFE604" stroke="#3C3C3C" stroke-width="0.7"/>
<path d="M43.6234 177.36V170.011L79.3186 158.77V165.505L43.6234 177.36Z" fill="white" stroke="#3C3C3C" stroke-width="0.7"/>
<path d="M39.437 167.628L43.3773 169.912L79.2568 158.544L79.4187 158.353L75.1645 156.371L39.4023 167.415L39.437 167.628Z" fill="#FFA9BB" stroke="#3C3C3C" stroke-width="0.7"/>
<path d="M71.0703 167.066L71.3173 167.031L79.38 175.664V176.106L71.0706 174.098L71.0703 167.066Z" fill="#14E731" stroke="#3C3C3C" stroke-width="0.7"/>
<path d="M86.3572 185.292V177.668L86.2353 177.578L82.9526 180.206L82.8594 180.317L82.8595 187.701L83.0521 187.762L86.3572 185.292Z" fill="#FFA9BB" stroke="#3C3C3C" stroke-width="0.7"/>
<path d="M60.1094 175.23L60.2623 175.141L82.8053 180.109L82.9266 180.26V187.738L60.1096 182.727L60.1094 175.23Z" fill="#FFE604" stroke="#3C3C3C" stroke-width="0.7"/>
<path d="M82.9052 180.263L60.3047 175.076L64.3728 171.92L78.8371 175.527L71.1529 166.959L75.673 164.027L86.2952 177.557L82.9052 180.263Z" fill="white" stroke="#3C3C3C" stroke-width="0.7"/>
<mask id="path-36-inside-1" fill="white">
<path fill-rule="evenodd" clip-rule="evenodd" d="M86.8214 32.0978C90.8825 33.1745 93.4012 32.5896 95.171 31.5756L98.32 29.7713C100.619 28.4543 103.118 28.0362 106.361 29.7554H106.742V25.7197C106.576 25.6514 106.408 25.582 106.238 25.5116C102.211 23.8493 97.0387 21.7137 91.6784 24.7849L89.4454 26.0643C87.2448 27.3252 85.3084 27.6475 82.9593 26.8018L84.1206 31.2148C84.4027 31.3228 84.6787 31.424 84.9488 31.5186C82.5512 32.792 79.0026 34.9864 79.0026 36.2714C79.0026 37.5298 79.6495 39.2699 80.5037 40.0354L79.8943 39.8688L71.7652 38.4051L69.1145 36.9978C69.1145 37.8935 69.091 38.6435 69.0709 39.2828C69.0244 40.7619 68.9966 41.649 69.3219 42.3785C69.8094 43.4717 71.09 44.2113 74.2893 46.059C74.9188 46.4226 75.6225 46.829 76.4091 47.2894L82.1553 43.6812V40.4868L81.1916 40.2234C82.8416 39.5943 85.9981 37.4631 86.8765 36.7673V32.1552L86.8214 32.0978Z"/>
</mask>
<path fill-rule="evenodd" clip-rule="evenodd" d="M86.8214 32.0978C90.8825 33.1745 93.4012 32.5896 95.171 31.5756L98.32 29.7713C100.619 28.4543 103.118 28.0362 106.361 29.7554H106.742V25.7197C106.576 25.6514 106.408 25.582 106.238 25.5116C102.211 23.8493 97.0387 21.7137 91.6784 24.7849L89.4454 26.0643C87.2448 27.3252 85.3084 27.6475 82.9593 26.8018L84.1206 31.2148C84.4027 31.3228 84.6787 31.424 84.9488 31.5186C82.5512 32.792 79.0026 34.9864 79.0026 36.2714C79.0026 37.5298 79.6495 39.2699 80.5037 40.0354L79.8943 39.8688L71.7652 38.4051L69.1145 36.9978C69.1145 37.8935 69.091 38.6435 69.0709 39.2828C69.0244 40.7619 68.9966 41.649 69.3219 42.3785C69.8094 43.4717 71.09 44.2113 74.2893 46.059C74.9188 46.4226 75.6225 46.829 76.4091 47.2894L82.1553 43.6812V40.4868L81.1916 40.2234C82.8416 39.5943 85.9981 37.4631 86.8765 36.7673V32.1552L86.8214 32.0978Z" fill="#14E731"/>
<path d="M87.1901 32.3107L87.2089 32.2727L86.5818 31.9618L86.5629 31.9998L87.1901 32.3107ZM95.171 31.5756L94.823 30.9683V30.9683L95.171 31.5756ZM86.8214 32.0978L87.0008 31.4211L84.5898 30.7819L86.3162 32.5823L86.8214 32.0978ZM98.32 29.7713L98.668 30.3787V30.3787L98.32 29.7713ZM106.361 29.7554L106.033 30.3739L106.187 30.4554H106.361V29.7554ZM106.742 29.7554V30.4554H107.442V29.7554H106.742ZM106.742 25.7197H107.442V25.2503L107.008 25.0721L106.742 25.7197ZM106.238 25.5116L106.505 24.8646V24.8646L106.238 25.5116ZM91.6784 24.7849L91.3304 24.1776V24.1776L91.6784 24.7849ZM89.4454 26.0643L89.7934 26.6717L89.4454 26.0643ZM82.9593 26.8018L83.1964 26.1431L81.9434 25.692L82.2823 26.9799L82.9593 26.8018ZM84.1206 31.2148L83.4437 31.3929L83.535 31.7401L83.8703 31.8685L84.1206 31.2148ZM84.9488 31.5186L85.2771 32.1369L86.6894 31.3868L85.1803 30.858L84.9488 31.5186ZM80.5037 40.0354L80.3191 40.7106L80.9708 39.5141L80.5037 40.0354ZM79.8943 39.8688L80.0788 39.1936L80.0489 39.1854L80.0183 39.1799L79.8943 39.8688ZM71.7652 38.4051L71.437 39.0234L71.5335 39.0747L71.6412 39.0941L71.7652 38.4051ZM69.1145 36.9978L69.4428 36.3796L68.4145 35.8337L68.4145 36.9978L69.1145 36.9978ZM69.0709 39.2828L69.7705 39.3048L69.0709 39.2828ZM69.3219 42.3785L69.9612 42.0934H69.9612L69.3219 42.3785ZM74.2893 46.059L74.6394 45.4529L74.2893 46.059ZM76.4091 47.2894L76.0554 47.8935L76.4218 48.108L76.7813 47.8822L76.4091 47.2894ZM82.1553 43.6812L82.5276 44.2741L82.8553 44.0683V43.6812H82.1553ZM82.1553 40.4868H82.8553V39.9524L82.3399 39.8116L82.1553 40.4868ZM81.1916 40.2234L80.9422 39.5693L78.9385 40.3333L81.007 40.8986L81.1916 40.2234ZM86.8765 36.7673L87.3112 37.316L87.5765 37.1059V36.7673H86.8765ZM86.8765 32.1552H87.5765V31.8739L87.3818 31.6708L86.8765 32.1552ZM94.823 30.9683C93.2376 31.8766 90.9131 32.4584 87.0008 31.4211L86.642 32.7744C90.8518 33.8905 93.5648 33.3026 95.519 32.183L94.823 30.9683ZM97.972 29.164L94.823 30.9683L95.519 32.183L98.668 30.3787L97.972 29.164ZM106.689 29.137C104.978 28.2298 103.42 27.8652 101.958 27.9254C100.498 27.9855 99.1892 28.4666 97.972 29.164L98.668 30.3787C99.7495 29.7591 100.84 29.3726 102.015 29.3242C103.188 29.2759 104.502 29.5618 106.033 30.3739L106.689 29.137ZM106.742 29.0554H106.361V30.4554H106.742V29.0554ZM106.042 25.7197V29.7554H107.442V25.7197H106.042ZM105.97 26.1586C106.141 26.2289 106.31 26.2987 106.477 26.3672L107.008 25.0721C106.843 25.0042 106.675 24.935 106.505 24.8646L105.97 26.1586ZM92.0264 25.3923C97.052 22.5128 101.903 24.4793 105.97 26.1586L106.505 24.8646C102.519 23.2192 97.0254 20.9145 91.3304 24.1776L92.0264 25.3923ZM89.7934 26.6717L92.0264 25.3923L91.3304 24.1776L89.0974 25.457L89.7934 26.6717ZM82.7222 27.4604C83.9861 27.9154 85.1689 28.0656 86.3454 27.9176C87.5163 27.7702 88.6396 27.3328 89.7934 26.6717L89.0974 25.457C88.0507 26.0567 87.1054 26.4109 86.1707 26.5285C85.2416 26.6454 84.2816 26.5338 83.1964 26.1431L82.7222 27.4604ZM84.7976 31.0366L83.6362 26.6236L82.2823 26.9799L83.4437 31.3929L84.7976 31.0366ZM85.1803 30.858C84.9167 30.7657 84.647 30.6668 84.371 30.5611L83.8703 31.8685C84.1584 31.9788 84.4407 32.0823 84.7173 32.1793L85.1803 30.858ZM84.6205 30.9004C83.4071 31.5448 81.888 32.4296 80.6632 33.3257C80.053 33.7722 79.4923 34.2384 79.077 34.6943C78.6935 35.1154 78.3026 35.6664 78.3026 36.2714H79.7026C79.7026 36.2717 79.7026 36.2572 79.7124 36.2248C79.7224 36.1922 79.7409 36.1464 79.7735 36.0871C79.8399 35.9659 79.9498 35.8151 80.112 35.6371C80.437 35.2804 80.9133 34.8775 81.4899 34.4556C82.6389 33.6149 84.0929 32.7658 85.2771 32.1369L84.6205 30.9004ZM78.3026 36.2714C78.3026 37.0066 78.4882 37.8434 78.7807 38.5927C79.0701 39.3343 79.4961 40.0724 80.0365 40.5567L80.9708 39.5141C80.6571 39.2329 80.3325 38.7183 80.0849 38.0838C79.8403 37.4571 79.7026 36.7946 79.7026 36.2714H78.3026ZM80.6882 39.3601L80.0788 39.1936L79.7097 40.5441L80.3191 40.7106L80.6882 39.3601ZM80.0183 39.1799L71.8892 37.7162L71.6412 39.0941L79.7702 40.5578L80.0183 39.1799ZM72.0935 37.7869L69.4428 36.3796L68.7863 37.6161L71.437 39.0234L72.0935 37.7869ZM68.4145 36.9978C68.4145 37.8814 68.3913 38.6216 68.3712 39.2608L69.7705 39.3048C69.7906 38.6654 69.8145 37.9056 69.8145 36.9979L68.4145 36.9978ZM68.3712 39.2608C68.3483 39.9897 68.3281 40.6158 68.3581 41.1509C68.3885 41.6946 68.4723 42.1921 68.6826 42.6636L69.9612 42.0934C69.8462 41.8354 69.7812 41.5245 69.7559 41.0726C69.7301 40.612 69.747 40.055 69.7705 39.3048L68.3712 39.2608ZM68.6826 42.6636C69.0019 43.3796 69.564 43.9269 70.3844 44.5073C71.1982 45.083 72.3527 45.7489 73.9392 46.6652L74.6394 45.4529C73.0266 44.5214 71.9411 43.8936 71.1929 43.3644C70.4514 42.8397 70.1294 42.4707 69.9612 42.0934L68.6826 42.6636ZM73.9392 46.6652C74.5688 47.0288 75.2709 47.4343 76.0554 47.8935L76.7627 46.6853C75.9741 46.2237 75.2688 45.8163 74.6394 45.4529L73.9392 46.6652ZM76.7813 47.8822L82.5276 44.2741L81.7831 43.0884L76.0368 46.6966L76.7813 47.8822ZM82.8553 43.6812V40.4868H81.4553V43.6812H82.8553ZM82.3399 39.8116L81.3761 39.5482L81.007 40.8986L81.9708 41.162L82.3399 39.8116ZM81.441 40.8775C82.3378 40.5355 83.5916 39.8109 84.6973 39.1121C85.8126 38.4074 86.8445 37.6857 87.3112 37.316L86.4419 36.2186C86.0301 36.5448 85.0445 37.2366 83.9494 37.9286C82.8448 38.6267 81.6953 39.2822 80.9422 39.5693L81.441 40.8775ZM87.5765 36.7673V32.1552H86.1765V36.7673H87.5765ZM87.3818 31.6708L87.3266 31.6133L86.3162 32.5823L86.3713 32.6397L87.3818 31.6708Z" fill="#3C3C3C" mask="url(#path-36-inside-1)"/>
<mask id="path-38-inside-2" fill="white">
<path fill-rule="evenodd" clip-rule="evenodd" d="M112.33 26.9414V23.4683L111.886 23.2266L106.421 26.4447L106.458 30.0652H106.815L112.33 26.9414ZM75.0859 26.5226L75.4674 32.3413L80.4819 29.9687L77.0064 26.4028L76.2799 25.8351L75.0859 26.5226Z"/>
</mask>
<path fill-rule="evenodd" clip-rule="evenodd" d="M112.33 26.9414V23.4683L111.886 23.2266L106.421 26.4447L106.458 30.0652H106.815L112.33 26.9414ZM75.0859 26.5226L75.4674 32.3413L80.4819 29.9687L77.0064 26.4028L76.2799 25.8351L75.0859 26.5226Z" fill="#FFE604"/>
<path d="M112.33 23.4683H113.03V23.0524L112.665 22.8535L112.33 23.4683ZM112.33 26.9414L112.675 27.5505L113.03 27.3495V26.9414H112.33ZM111.886 23.2266L112.221 22.6118L111.873 22.4222L111.531 22.6234L111.886 23.2266ZM106.421 26.4447L106.066 25.8415L105.717 26.047L105.721 26.4519L106.421 26.4447ZM106.458 30.0652L105.758 30.0724L105.766 30.7652H106.458V30.0652ZM106.815 30.0652V30.7652H106.999L107.16 30.6743L106.815 30.0652ZM75.4674 32.3413L74.7689 32.3871L74.8363 33.4143L75.7668 32.974L75.4674 32.3413ZM75.0859 26.5226L74.7367 25.916L74.3589 26.1334L74.3874 26.5684L75.0859 26.5226ZM80.4819 29.9687L80.7813 30.6014L81.6674 30.1821L80.9832 29.4801L80.4819 29.9687ZM77.0064 26.4028L77.5077 25.9142L77.4747 25.8803L77.4374 25.8512L77.0064 26.4028ZM76.2799 25.8351L76.7109 25.2835L76.3393 24.9932L75.9306 25.2285L76.2799 25.8351ZM111.63 23.4683V26.9414H113.03V23.4683H111.63ZM111.552 23.8414L111.996 24.0831L112.665 22.8535L112.221 22.6118L111.552 23.8414ZM106.776 27.0479L112.241 23.8297L111.531 22.6234L106.066 25.8415L106.776 27.0479ZM107.158 30.0581L107.121 26.4375L105.721 26.4519L105.758 30.0724L107.158 30.0581ZM106.815 29.3652H106.458V30.7652H106.815V29.3652ZM111.985 26.3324L106.47 29.4561L107.16 30.6743L112.675 27.5505L111.985 26.3324ZM76.1659 32.2955L75.7844 26.4768L74.3874 26.5684L74.7689 32.3871L76.1659 32.2955ZM80.1825 29.3359L75.1681 31.7085L75.7668 32.974L80.7813 30.6014L80.1825 29.3359ZM76.5051 26.8914L79.9806 30.4572L80.9832 29.4801L77.5077 25.9142L76.5051 26.8914ZM75.8489 26.3867L76.5755 26.9544L77.4374 25.8512L76.7109 25.2835L75.8489 26.3867ZM75.4352 27.1292L76.6292 26.4418L75.9306 25.2285L74.7367 25.916L75.4352 27.1292Z" fill="#3C3C3C" mask="url(#path-38-inside-2)"/>
<path d="M75.7328 26.2517L81.885 22.7118C83.5113 23.6229 84.9427 24.0771 86.3298 24.096C87.7692 24.1155 89.1214 23.6658 90.5536 22.8417L92.7772 21.5623C96.8129 19.2402 100.19 18.8888 103.273 19.5147C106.193 20.1075 108.869 21.579 111.628 23.1618L106.627 26.039C104.977 25.1118 103.702 24.7154 102.524 24.7421C101.305 24.7698 100.243 25.2508 99.0418 25.942L95.906 27.7463C93.8991 28.901 90.808 29.5178 85.2023 27.3621L85.0467 27.3023L84.9021 27.3854L84.218 27.7791L83.7898 28.0254L84.1642 28.3477C86.0453 29.9672 86.6177 31.1474 86.5748 31.9963C86.5327 32.8291 85.8856 33.5119 84.8451 34.1105L81.7093 35.9148C81.1113 36.2589 80.5943 36.5886 80.2187 36.9247C79.847 37.2572 79.5618 37.6417 79.5302 38.1021C79.4981 38.57 79.7344 39.0062 80.1449 39.4241C80.4695 39.7544 80.9299 40.1014 81.534 40.4772L76.5245 43.3596C75.1139 42.5478 73.7397 41.7512 72.5756 40.9414C71.3582 40.0944 70.4086 39.2578 69.8884 38.4095C69.3833 37.5858 69.2867 36.7627 69.755 35.8661C70.2419 34.934 71.3578 33.8866 73.3922 32.7161L75.6157 31.4367C76.3267 31.0276 76.8945 30.6203 77.2837 30.1987C77.675 29.7747 77.9109 29.3075 77.8897 28.7919C77.8688 28.2814 77.5988 27.8035 77.155 27.3484C76.8058 26.9901 76.3309 26.6271 75.7328 26.2517Z" fill="white" stroke="#3C3C3C" stroke-width="0.7"/>
<path d="M76.5351 43.5664L76.4062 47.0442" stroke="#3C3C3C" stroke-width="0.7"/>
<path d="M182.758 159.132L181.855 158.609L172.993 159.825L163.403 161.109L146.531 170.712L146.234 185.034L146.489 185.322C152.677 174.339 160.792 165.488 182.758 162.557V159.132Z" fill="#FFE604" stroke="#3C3C3C" stroke-width="0.7"/>
<path d="M138.832 180.734V175.578L144.584 176.507L146.339 179.881V185.306L138.832 180.734Z" fill="#FFA9BB" stroke="#3C3C3C" stroke-width="0.7"/>
<path d="M146.248 179.586L139.052 175.421C140.032 170.238 143.972 165.881 150.966 161.833C158.026 157.747 165.716 155.413 175.017 154.867L181.771 158.777C174.791 159.388 165.497 162.285 158.97 166.063C155.518 168.061 152.487 170.509 150.235 172.977C148.162 175.247 146.72 177.565 146.248 179.586Z" fill="white" stroke="#3C3C3C" stroke-width="0.7"/>
<defs>
<linearGradient id="paint0_linear" x1="63.2036" y1="84.6735" x2="76.0249" y2="84.6735" gradientUnits="userSpaceOnUse">
<stop stop-color="#E7E9ED"/>
<stop offset="1" stop-color="#D1D3D6"/>
</linearGradient>
<linearGradient id="paint1_linear" x1="160.708" y1="84.6735" x2="173.529" y2="84.6735" gradientUnits="userSpaceOnUse">
<stop stop-color="#E7E9ED"/>
<stop offset="1" stop-color="#D1D3D6"/>
</linearGradient>
</defs>
</svg>
