<svg width="200" height="200" viewBox="0 0 200 200" fill="none" xmlns="http://www.w3.org/2000/svg">
<path d="M30.8711 109.656V109.647L30.8706 109.639L26.35 20.9923C26.3541 20.5798 26.665 20.1371 27.3281 19.7054C27.98 19.2809 28.8893 18.9247 29.8831 18.6692C30.8738 18.4145 31.9274 18.2654 32.8563 18.2434C33.7953 18.2213 34.5568 18.3306 35.0031 18.5513C35.0049 18.5522 35.0067 18.553 35.0085 18.5539L156.179 84.6752C156.18 84.6757 156.181 84.6762 156.181 84.6767C157.118 85.2125 157.65 86.1425 157.65 87.2139V175.787C157.65 176.295 157.342 176.917 156.764 177.575C156.195 178.222 155.407 178.856 154.547 179.38C153.686 179.904 152.77 180.309 151.954 180.51C151.121 180.715 150.464 180.692 150.059 180.462C150.059 180.461 150.058 180.461 150.058 180.461L32.3444 112.196L32.3423 112.195C31.404 111.66 30.8711 110.729 30.8711 109.656Z" fill="white" stroke="#3C3C3C" stroke-width="0.7"/>
<path d="M149.511 180.275L149.505 180.271L27.8282 113.794C27.8272 113.794 27.8262 113.793 27.8252 113.793C26.8844 113.254 26.35 112.318 26.35 111.241V22.199C26.35 20.0637 28.6207 18.7164 30.5007 19.6515L152.172 86.1255C152.173 86.126 152.174 86.1266 152.175 86.1272C153.116 86.6661 153.65 87.6014 153.65 88.6793V177.721C153.65 180.026 151.369 181.337 149.511 180.275Z" fill="white" stroke="#3C3C3C" stroke-width="0.7"/>
<rect x="0.303109" y="0.525" width="78.3" height="53.3" transform="matrix(0.866025 0.5 -2.20305e-08 1 34.3922 52.5984)" fill="#FFA9BB" stroke="#3C3C3C" stroke-width="0.7"/>
<circle r="8.15" transform="matrix(0.866025 0.5 -2.20305e-08 1 51.7128 81.5)" fill="#FFE604" stroke="#3C3C3C" stroke-width="0.7"/>
<path d="M54.3005 117.909L72.8562 99.0146L91.1828 139.202L54.3005 117.909Z" fill="#14E731" stroke="#3C3C3C" stroke-width="0.7"/>
<path d="M67.2244 58.8434L67.2144 58.8368L67.2041 58.8309L35.1566 40.4931C34.8624 40.2677 34.7016 40.0139 34.7016 39.7371V38.077C34.7016 37.3645 35.4638 36.9674 35.9923 37.3197L36.0023 37.3263L36.0126 37.3322L68.0797 55.6812L68.1009 55.6934L68.1235 55.7024C68.2771 55.7638 68.3636 55.8453 68.4181 55.9422C68.4768 56.0467 68.5151 56.1993 68.5151 56.426V58.0861C68.5151 58.7986 67.7529 59.1957 67.2244 58.8434Z" stroke="#3C3C3C" stroke-width="0.7"/>
<path d="M67.2244 66.609L67.2144 66.6024L67.2041 66.5965L35.1566 48.2587C34.8624 48.0333 34.7016 47.7795 34.7016 47.5027V45.8426C34.7016 45.1301 35.4638 44.733 35.9923 45.0853L36.0023 45.0919L36.0126 45.0979L68.0797 63.4469L68.1009 63.459L68.1235 63.468C68.2771 63.5295 68.3636 63.6109 68.4181 63.7079C68.4768 63.8123 68.5151 63.965 68.5151 64.1916V65.8517C68.5151 66.5643 67.7529 66.9614 67.2244 66.609Z" fill="#FFE604" stroke="#3C3C3C" stroke-width="0.7"/>
<path d="M119.676 79.1636L121.07 87.8715L126.538 86.0096L123.207 91.1755L130.189 95.4203L123.692 94.6271L128.921 102.992L122.297 96.6112L123.327 105.183L119.676 96.1995L116.024 100.967L117.055 93.5846L110.43 92.3167L115.66 89.99L109.162 83.2803L116.144 87.0977L112.814 78.0858L118.281 86.261L119.676 79.1636Z" fill="#FF625B"/>
<rect width="18.1212" height="18.1212" transform="matrix(0.866025 0.5 -2.20305e-08 1 131 107)" fill="#FFA9BB"/>
<circle r="10.5" transform="matrix(0.866025 0.5 -2.20305e-08 1 118.093 132.75)" fill="#FFE604"/>
</svg>
