<svg width="40" height="40" viewBox="0 0 40 40" fill="none" xmlns="http://www.w3.org/2000/svg">
<mask id="path-1-inside-1" fill="white">
<path fill-rule="evenodd" clip-rule="evenodd" d="M20 40C31.0457 40 40 31.0457 40 20C40 8.9543 31.0457 0 20 0C8.9543 0 0 8.9543 0 20C0 31.0457 8.9543 40 20 40ZM18.0422 20.917V28.8H20.9824V20.917H23.8687L24 18.0787H20.9824V16.0062C20.9824 15.2237 21.143 14.7522 22.1454 14.7522C23.0716 14.7522 23.9203 14.7606 23.9203 14.7606L23.9859 12.1101C23.9859 12.1101 23.1537 12 22.0282 12C19.2486 12 18.0422 13.7494 18.0422 15.6544V18.0787H16V20.917H18.0422Z"/>
</mask>
<path d="M18.0422 28.8H16.5422V30.3H18.0422V28.8ZM18.0422 20.917H19.5422V19.417H18.0422V20.917ZM20.9824 28.8V30.3H22.4824V28.8H20.9824ZM20.9824 20.917V19.417H19.4824V20.917H20.9824ZM23.8687 20.917V22.417H25.3009L25.3671 20.9863L23.8687 20.917ZM24 18.0787L25.4984 18.148L25.571 16.5787H24V18.0787ZM20.9824 18.0787H19.4824V19.5787H20.9824V18.0787ZM23.9203 14.7606L23.9054 16.2605L25.3833 16.2752L25.4199 14.7977L23.9203 14.7606ZM23.9859 12.1101L25.4854 12.1472L25.5188 10.7999L24.1827 10.6231L23.9859 12.1101ZM18.0422 18.0787V19.5787H19.5422V18.0787H18.0422ZM16 18.0787V16.5787H14.5V18.0787H16ZM16 20.917H14.5V22.417H16V20.917ZM38.5 20C38.5 30.2173 30.2173 38.5 20 38.5V41.5C31.8741 41.5 41.5 31.8741 41.5 20H38.5ZM20 1.5C30.2173 1.5 38.5 9.78273 38.5 20H41.5C41.5 8.12588 31.8741 -1.5 20 -1.5V1.5ZM1.5 20C1.5 9.78273 9.78273 1.5 20 1.5V-1.5C8.12588 -1.5 -1.5 8.12588 -1.5 20H1.5ZM20 38.5C9.78273 38.5 1.5 30.2173 1.5 20H-1.5C-1.5 31.8741 8.12588 41.5 20 41.5V38.5ZM19.5422 28.8V20.917H16.5422V28.8H19.5422ZM20.9824 27.3H18.0422V30.3H20.9824V27.3ZM19.4824 20.917V28.8H22.4824V20.917H19.4824ZM23.8687 19.417H20.9824V22.417H23.8687V19.417ZM22.5016 18.0094L22.3703 20.8476L25.3671 20.9863L25.4984 18.148L22.5016 18.0094ZM20.9824 19.5787H24V16.5787H20.9824V19.5787ZM19.4824 16.0062V18.0787H22.4824V16.0062H19.4824ZM22.1454 13.2522C21.4532 13.2522 20.5808 13.4128 19.9978 14.1728C19.4963 14.8266 19.4824 15.6128 19.4824 16.0062H22.4824C22.4824 15.8496 22.4917 15.7863 22.4943 15.7731C22.4956 15.7665 22.4768 15.8702 22.3782 15.9987C22.3286 16.0634 22.2692 16.1204 22.2046 16.1662C22.1414 16.2111 22.0862 16.2359 22.051 16.2486C21.9899 16.2707 22.0009 16.2522 22.1454 16.2522V13.2522ZM23.9203 14.7606C23.9352 13.2607 23.9352 13.2607 23.9352 13.2607C23.9352 13.2607 23.9352 13.2607 23.9352 13.2607C23.9351 13.2607 23.9351 13.2607 23.935 13.2607C23.9349 13.2607 23.9347 13.2607 23.9345 13.2607C23.934 13.2607 23.9334 13.2606 23.9325 13.2606C23.9308 13.2606 23.9283 13.2606 23.9249 13.2606C23.9183 13.2605 23.9086 13.2604 23.8959 13.2603C23.8705 13.2601 23.8333 13.2597 23.7858 13.2593C23.691 13.2585 23.5549 13.2575 23.3898 13.2564C23.0599 13.2543 22.6127 13.2522 22.1454 13.2522V16.2522C22.6043 16.2522 23.0446 16.2542 23.3705 16.2563C23.5334 16.2574 23.6674 16.2584 23.7606 16.2592C23.8072 16.2596 23.8436 16.2599 23.8682 16.2602C23.8805 16.2603 23.8899 16.2604 23.8962 16.2604C23.8993 16.2605 23.9017 16.2605 23.9032 16.2605C23.904 16.2605 23.9046 16.2605 23.9049 16.2605C23.9051 16.2605 23.9052 16.2605 23.9053 16.2605C23.9054 16.2605 23.9054 16.2605 23.9054 16.2605C23.9054 16.2605 23.9054 16.2605 23.9054 16.2605C23.9054 16.2605 23.9054 16.2605 23.9203 14.7606ZM22.4864 12.073L22.4208 14.7235L25.4199 14.7977L25.4854 12.1472L22.4864 12.073ZM22.0282 13.5C22.5435 13.5 22.9926 13.5253 23.3111 13.5504C23.4697 13.5629 23.5945 13.5753 23.6772 13.5842C23.7185 13.5887 23.7492 13.5923 23.7682 13.5946C23.7777 13.5957 23.7843 13.5966 23.7878 13.597C23.7896 13.5972 23.7906 13.5974 23.7908 13.5974C23.7909 13.5974 23.7908 13.5974 23.7906 13.5974C23.7904 13.5973 23.7902 13.5973 23.79 13.5973C23.7899 13.5973 23.7897 13.5972 23.7896 13.5972C23.7895 13.5972 23.7894 13.5972 23.7894 13.5972C23.7892 13.5972 23.7891 13.5972 23.9859 12.1101C24.1827 10.6231 24.1825 10.6231 24.1824 10.6231C24.1824 10.623 24.1822 10.623 24.1821 10.623C24.1819 10.623 24.1817 10.623 24.1815 10.6229C24.181 10.6229 24.1806 10.6228 24.18 10.6227C24.1789 10.6226 24.1776 10.6224 24.1761 10.6222C24.1731 10.6218 24.1693 10.6214 24.1647 10.6208C24.1555 10.6196 24.1431 10.6181 24.1276 10.6162C24.0967 10.6125 24.0536 10.6075 23.9993 10.6016C23.8908 10.5899 23.7372 10.5747 23.5472 10.5597C23.1681 10.5298 22.6384 10.5 22.0282 10.5V13.5ZM19.5422 15.6544C19.5422 15.0106 19.7439 14.4961 20.0745 14.1521C20.3893 13.8245 20.966 13.5 22.0282 13.5V10.5C20.3108 10.5 18.8945 11.0502 17.9112 12.0735C16.9437 13.0805 16.5422 14.3932 16.5422 15.6544H19.5422ZM19.5422 18.0787V15.6544H16.5422V18.0787H19.5422ZM16 19.5787H18.0422V16.5787H16V19.5787ZM17.5 20.917V18.0787H14.5V20.917H17.5ZM18.0422 19.417H16V22.417H18.0422V19.417Z" fill="white" mask="url(#path-1-inside-1)"/>
</svg>
