<svg width="40" height="40" viewBox="0 0 40 40" fill="none" xmlns="http://www.w3.org/2000/svg">
<mask id="path-1-inside-1" fill="white">
<path fill-rule="evenodd" clip-rule="evenodd" d="M20 40C31.0457 40 40 31.0457 40 20C40 8.9543 31.0457 0 20 0C8.9543 0 0 8.9543 0 20C0 31.0457 8.9543 40 20 40ZM13.2804 11.36H26.7204C27.7764 11.36 28.6404 12.224 28.6404 13.28V26.72C28.6404 27.7769 27.7764 28.64 26.7204 28.64H13.2804C12.2244 28.64 11.3604 27.7769 11.3604 26.72V13.28C11.3604 12.224 12.2244 11.36 13.2804 11.36ZM23.7444 23.7443C22.7474 24.7415 21.3951 25.3018 19.985 25.3021C18.5748 25.3018 17.2224 24.7415 16.2253 23.7443C15.2281 22.7472 14.6678 21.3948 14.6676 19.9846C14.6676 19.6601 14.7088 19.3472 14.7674 19.04H13.2804V25.9673C13.2804 26.0546 13.2976 26.1409 13.331 26.2215C13.3645 26.3021 13.4136 26.3752 13.4754 26.4368C13.5372 26.4983 13.6106 26.547 13.6913 26.5802C13.772 26.6133 13.8584 26.6301 13.9456 26.6297H26.0551C26.1423 26.6301 26.2287 26.6133 26.3094 26.5802C26.3901 26.547 26.4635 26.4983 26.5253 26.4368C26.5871 26.3752 26.6362 26.3021 26.6697 26.2215C26.7031 26.1409 26.7204 26.0546 26.7204 25.9673V19.04H25.2026C25.2602 19.3472 25.3015 19.6601 25.3015 19.9846C25.3015 21.3947 24.7414 22.7471 23.7444 23.7443ZM16.9153 18.7131C16.7484 19.1162 16.6624 19.5483 16.6624 19.9846C16.6624 20.8658 17.0125 21.7109 17.6356 22.334C18.2587 22.9571 19.1038 23.3072 19.985 23.3072C20.8662 23.3072 21.7113 22.9571 22.3344 22.334C22.9575 21.7109 23.3076 20.8658 23.3076 19.9846C23.3076 19.5483 23.2216 19.1162 23.0546 18.7131C22.8877 18.31 22.6429 17.9437 22.3344 17.6352C22.0259 17.3267 21.6596 17.082 21.2565 16.915C20.8534 16.748 20.4213 16.6621 19.985 16.6621C19.5487 16.6621 19.1166 16.748 18.7135 16.915C18.3104 17.082 17.9441 17.3267 17.6356 17.6352C17.3271 17.9437 17.0823 18.31 16.9153 18.7131ZM24.5047 16.16H26.0551C26.4227 16.16 26.7204 15.8605 26.7204 15.4947V13.9433C26.7204 13.5766 26.4228 13.28 26.0541 13.28H24.5037C24.138 13.28 23.8404 13.5766 23.8404 13.9433V15.4957C23.8409 15.6717 23.911 15.8404 24.0355 15.9649C24.16 16.0893 24.3286 16.1595 24.5047 16.16Z"/>
</mask>
<path d="M19.985 25.3021L19.9847 26.8021H19.9853L19.985 25.3021ZM23.7444 23.7443L22.6836 22.6837H22.6836L23.7444 23.7443ZM16.2253 23.7443L17.2859 22.6837V22.6837L16.2253 23.7443ZM14.6676 19.9846H13.1676V19.9849L14.6676 19.9846ZM14.7674 19.04L16.2409 19.3209L16.5803 17.54H14.7674V19.04ZM13.2804 19.04V17.54H11.7804V19.04H13.2804ZM13.2804 25.9673L14.7804 25.9674V25.9673H13.2804ZM13.331 26.2215L14.7162 25.646L14.7162 25.646L13.331 26.2215ZM13.4754 26.4368L14.5337 25.3738L14.5337 25.3738L13.4754 26.4368ZM13.9456 26.6297V25.1297L13.9391 25.1298L13.9456 26.6297ZM26.0551 26.6297L26.0616 25.1297H26.0551V26.6297ZM26.3094 26.5802L25.7399 25.1925L25.7399 25.1925L26.3094 26.5802ZM26.5253 26.4368L25.467 25.3738L25.4669 25.3738L26.5253 26.4368ZM26.6697 26.2215L25.2845 25.646L25.2845 25.646L26.6697 26.2215ZM26.7204 19.04H28.2204V17.54H26.7204V19.04ZM25.2026 19.04V17.54H23.3952L23.7283 19.3164L25.2026 19.04ZM16.9153 18.7131L18.3012 19.2872L18.3012 19.2872L16.9153 18.7131ZM22.3344 22.334L21.2737 21.2734L21.2737 21.2734L22.3344 22.334ZM23.0546 18.7131L21.6688 19.2872V19.2872L23.0546 18.7131ZM21.2565 16.915L20.6825 18.3008L20.6825 18.3008L21.2565 16.915ZM18.7135 16.915L19.2875 18.3008L19.2875 18.3008L18.7135 16.915ZM17.6356 17.6352L16.5749 16.5746L16.5749 16.5746L17.6356 17.6352ZM24.5047 16.16L24.5004 17.66H24.5047V16.16ZM23.8404 15.4957H22.3403L22.3404 15.5L23.8404 15.4957ZM24.0355 15.9649L22.9748 17.0255L22.9748 17.0255L24.0355 15.9649ZM38.5 20C38.5 30.2173 30.2173 38.5 20 38.5V41.5C31.8741 41.5 41.5 31.8741 41.5 20H38.5ZM20 1.5C30.2173 1.5 38.5 9.78273 38.5 20H41.5C41.5 8.12588 31.8741 -1.5 20 -1.5V1.5ZM1.5 20C1.5 9.78273 9.78273 1.5 20 1.5V-1.5C8.12588 -1.5 -1.5 8.12588 -1.5 20H1.5ZM20 38.5C9.78273 38.5 1.5 30.2173 1.5 20H-1.5C-1.5 31.8741 8.12588 41.5 20 41.5V38.5ZM26.7204 9.85999H13.2804V12.86H26.7204V9.85999ZM30.1404 13.28C30.1404 11.3956 28.6048 9.85999 26.7204 9.85999V12.86C26.9479 12.86 27.1404 13.0524 27.1404 13.28H30.1404ZM30.1404 26.72V13.28H27.1404V26.72H30.1404ZM26.7204 30.14C28.6043 30.14 30.1404 28.6059 30.1404 26.72H27.1404C27.1404 26.948 26.9484 27.14 26.7204 27.14V30.14ZM13.2804 30.14H26.7204V27.14H13.2804V30.14ZM9.86035 26.72C9.86035 28.6059 11.3964 30.14 13.2804 30.14V27.14C13.0523 27.14 12.8604 26.948 12.8604 26.72H9.86035ZM9.86035 13.28V26.72H12.8604V13.28H9.86035ZM13.2804 9.85999C11.3959 9.85999 9.86035 11.3956 9.86035 13.28H12.8604C12.8604 13.0524 13.0528 12.86 13.2804 12.86V9.85999ZM19.9853 26.8021C21.7931 26.8017 23.5269 26.0833 24.8051 24.8048L22.6836 22.6837C21.9679 23.3996 20.997 23.8019 19.9847 23.8021L19.9853 26.8021ZM15.1646 24.805C16.443 26.0834 18.1768 26.8017 19.9847 26.8021L19.9853 23.8021C18.9728 23.8019 18.0019 23.3996 17.2859 22.6837L15.1646 24.805ZM13.1676 19.9849C13.1679 21.7928 13.8862 23.5266 15.1646 24.805L17.2859 22.6837C16.57 21.9678 16.1677 20.9968 16.1676 19.9844L13.1676 19.9849ZM13.2939 18.7591C13.2249 19.121 13.1676 19.5339 13.1676 19.9846H16.1676C16.1676 19.7864 16.1927 19.5734 16.2409 19.3209L13.2939 18.7591ZM13.2804 20.54H14.7674V17.54H13.2804V20.54ZM14.7804 25.9673V19.04H11.7804V25.9673H14.7804ZM14.7162 25.646C14.7586 25.7478 14.7804 25.8571 14.7804 25.9674L11.7804 25.9673C11.7803 26.2521 11.8366 26.5341 11.9459 26.797L14.7162 25.646ZM14.5337 25.3738C14.6119 25.4516 14.6739 25.5441 14.7162 25.646L11.9459 26.797C12.0551 27.06 12.2152 27.2988 12.417 27.4997L14.5337 25.3738ZM14.2608 25.1925C14.3628 25.2343 14.4556 25.296 14.5337 25.3738L12.417 27.4997C12.6188 27.7006 12.8583 27.8597 13.1217 27.9678L14.2608 25.1925ZM13.9391 25.1298C14.0494 25.1293 14.1587 25.1506 14.2608 25.1925L13.1217 27.9678C13.3852 28.076 13.6674 28.131 13.9522 28.1297L13.9391 25.1298ZM26.0551 25.1297H13.9456V28.1297H26.0551V25.1297ZM25.7399 25.1925C25.842 25.1506 25.9513 25.1293 26.0616 25.1298L26.0485 28.1297C26.3333 28.131 26.6155 28.076 26.879 27.9678L25.7399 25.1925ZM25.4669 25.3738C25.5451 25.296 25.6379 25.2343 25.7399 25.1925L26.8789 27.9678C27.1424 27.8597 27.3819 27.7006 27.5837 27.4997L25.4669 25.3738ZM25.2845 25.646C25.3268 25.5441 25.3888 25.4516 25.467 25.3738L27.5837 27.4997C27.7855 27.2988 27.9456 27.06 28.0549 26.797L25.2845 25.646ZM25.2204 25.9673C25.2204 25.8571 25.2421 25.7478 25.2845 25.646L28.0548 26.797C28.1641 26.534 28.2204 26.2521 28.2204 25.9673H25.2204ZM25.2204 19.04V25.9673H28.2204V19.04H25.2204ZM25.2026 20.54H26.7204V17.54H25.2026V20.54ZM26.8015 19.9846C26.8015 19.5342 26.7441 19.1222 26.6769 18.7636L23.7283 19.3164C23.7762 19.5722 23.8015 19.786 23.8015 19.9846H26.8015ZM24.8051 24.8048C26.0834 23.5264 26.8015 21.7925 26.8015 19.9846H23.8015C23.8015 20.997 23.3994 21.9678 22.6836 22.6837L24.8051 24.8048ZM18.1624 19.9846C18.1624 19.7453 18.2096 19.5083 18.3012 19.2872L15.5295 18.1391C15.2872 18.7242 15.1624 19.3513 15.1624 19.9846H18.1624ZM18.6962 21.2734C18.3545 20.9316 18.1624 20.468 18.1624 19.9846H15.1624C15.1624 21.2636 15.6705 22.4903 16.5749 23.3947L18.6962 21.2734ZM19.985 21.8072C19.5016 21.8072 19.038 21.6152 18.6962 21.2734L16.5749 23.3947C17.4793 24.2991 18.706 24.8072 19.985 24.8072V21.8072ZM21.2737 21.2734C20.9319 21.6152 20.4684 21.8072 19.985 21.8072V24.8072C21.264 24.8072 22.4907 24.2991 23.3951 23.3947L21.2737 21.2734ZM21.8076 19.9846C21.8076 20.468 21.6155 20.9316 21.2737 21.2734L23.3951 23.3947C24.2995 22.4903 24.8076 21.2636 24.8076 19.9846H21.8076ZM21.6688 19.2872C21.7604 19.5083 21.8076 19.7453 21.8076 19.9846H24.8076C24.8076 19.3513 24.6828 18.7242 24.4405 18.1391L21.6688 19.2872ZM21.2737 18.6959C21.443 18.8651 21.5772 19.066 21.6688 19.2872L24.4405 18.1391C24.1981 17.554 23.8429 17.0224 23.3951 16.5746L21.2737 18.6959ZM20.6825 18.3008C20.9036 18.3924 21.1045 18.5266 21.2737 18.6959L23.3951 16.5746C22.9472 16.1267 22.4156 15.7715 21.8305 15.5292L20.6825 18.3008ZM19.985 18.1621C20.2243 18.1621 20.4613 18.2092 20.6825 18.3008L21.8305 15.5292C21.2454 15.2868 20.6183 15.1621 19.985 15.1621V18.1621ZM19.2875 18.3008C19.5086 18.2092 19.7456 18.1621 19.985 18.1621V15.1621C19.3517 15.1621 18.7246 15.2868 18.1395 15.5292L19.2875 18.3008ZM18.6962 18.6959C18.8655 18.5266 19.0664 18.3924 19.2875 18.3008L18.1395 15.5292C17.5544 15.7715 17.0227 16.1267 16.5749 16.5746L18.6962 18.6959ZM18.3012 19.2872C18.3928 19.066 18.527 18.8651 18.6962 18.6959L16.5749 16.5746C16.1271 17.0224 15.7719 17.554 15.5295 18.1391L18.3012 19.2872ZM26.0551 14.66H24.5047V17.66H26.0551V14.66ZM25.2204 15.4947C25.2204 15.0349 25.5915 14.66 26.0551 14.66V17.66C27.254 17.66 28.2204 16.6861 28.2204 15.4947H25.2204ZM25.2204 13.9433V15.4947H28.2204V13.9433H25.2204ZM26.0541 14.78C25.6 14.78 25.2204 14.4107 25.2204 13.9433H28.2204C28.2204 12.7426 27.2455 11.78 26.0541 11.78V14.78ZM24.5037 14.78H26.0541V11.78H24.5037V14.78ZM25.3404 13.9433C25.3404 14.4065 24.965 14.78 24.5037 14.78V11.78C23.3109 11.78 22.3404 12.7468 22.3404 13.9433H25.3404ZM25.3404 15.4957V13.9433H22.3404V15.4957H25.3404ZM25.0961 14.9042C25.2519 15.06 25.3397 15.2711 25.3403 15.4914L22.3404 15.5C22.342 16.0723 22.5701 16.6208 22.9748 17.0255L25.0961 14.9042ZM24.509 14.66C24.7293 14.6606 24.9404 14.7484 25.0961 14.9042L22.9748 17.0255C23.3795 17.4302 23.928 17.6583 24.5004 17.66L24.509 14.66Z" fill="white" mask="url(#path-1-inside-1)"/>
</svg>
