<svg width="40" height="40" viewBox="0 0 40 40" fill="none" xmlns="http://www.w3.org/2000/svg">
<mask id="path-1-inside-1" fill="white">
<path fill-rule="evenodd" clip-rule="evenodd" d="M40 20C40 31.0457 31.0457 40 20 40C8.9543 40 0 31.0457 0 20C0 8.9543 8.9543 0 20 0C31.0457 0 40 8.9543 40 20ZM16.3554 12.9778C16.3554 13.9218 15.7242 14.7342 14.5767 14.7342C13.4967 14.7342 12.7998 13.968 12.7998 13.024C12.7998 12.0551 13.4754 11.2 14.5776 11.2C15.6798 11.2 16.334 12.0089 16.3554 12.9778ZM12.7998 27.2V15.6445H16.3554V27.2H12.7998ZM18.0425 16.0827C18.0878 17.0738 18.1331 18.2214 18.1331 19.5947V27.2H21.6887V20.8542C21.6887 20.5387 21.7109 20.224 21.8016 19.9982C22.0496 19.368 22.5225 18.6036 23.4665 18.6036C24.7047 18.6036 25.2443 19.6845 25.2443 21.1014V27.2H28.7998V20.5849C28.7998 17.3431 27.1109 15.8365 24.8603 15.8365C23.0149 15.8365 21.9127 16.8934 21.4629 17.6143H21.3954L21.2371 16.0827H18.0425Z"/>
</mask>
<path d="M16.3554 12.9778H17.8554V12.9613L17.855 12.9448L16.3554 12.9778ZM12.7998 15.6445V14.1445H11.2998V15.6445H12.7998ZM12.7998 27.2H11.2998V28.7H12.7998V27.2ZM16.3554 15.6445H17.8554V14.1445H16.3554V15.6445ZM16.3554 27.2V28.7H17.8554V27.2H16.3554ZM18.0425 16.0827V14.5827H16.4723L16.544 16.1512L18.0425 16.0827ZM18.1331 27.2H16.6331V28.7H18.1331V27.2ZM21.6887 27.2V28.7H23.1887V27.2H21.6887ZM21.8016 19.9982L23.1936 20.5572L23.1974 20.5475L21.8016 19.9982ZM25.2443 27.2H23.7443V28.7H25.2443V27.2ZM28.7998 27.2V28.7H30.2998V27.2H28.7998ZM21.4629 17.6143V19.1143H22.2951L22.7355 18.4083L21.4629 17.6143ZM21.3954 17.6143L19.9033 17.7684L20.0423 19.1143H21.3954V17.6143ZM21.2371 16.0827L22.7292 15.9286L22.5902 14.5827H21.2371V16.0827ZM20 41.5C31.8741 41.5 41.5 31.8741 41.5 20H38.5C38.5 30.2173 30.2173 38.5 20 38.5V41.5ZM-1.5 20C-1.5 31.8741 8.12588 41.5 20 41.5V38.5C9.78273 38.5 1.5 30.2173 1.5 20H-1.5ZM20 -1.5C8.12588 -1.5 -1.5 8.12588 -1.5 20H1.5C1.5 9.78273 9.78273 1.5 20 1.5V-1.5ZM41.5 20C41.5 8.12588 31.8741 -1.5 20 -1.5V1.5C30.2173 1.5 38.5 9.78273 38.5 20H41.5ZM14.5767 16.2342C15.5257 16.2342 16.3798 15.8871 16.9904 15.2362C17.5855 14.6018 17.8554 13.7797 17.8554 12.9778H14.8554C14.8554 13.1199 14.8096 13.176 14.8024 13.1838C14.7982 13.1882 14.7899 13.1963 14.767 13.2058C14.7433 13.2155 14.6849 13.2342 14.5767 13.2342V16.2342ZM11.2998 13.024C11.2998 14.7949 12.6667 16.2342 14.5767 16.2342V13.2342C14.4854 13.2342 14.429 13.2184 14.3989 13.2064C14.3688 13.1944 14.3531 13.1817 14.3445 13.173C14.3318 13.1604 14.2998 13.1211 14.2998 13.024H11.2998ZM14.5776 9.70001C12.5254 9.70001 11.2998 11.3537 11.2998 13.024H14.2998C14.2998 12.8832 14.3487 12.7977 14.3816 12.7617C14.3972 12.7447 14.4138 12.7327 14.4349 12.7235C14.4553 12.7146 14.4989 12.7 14.5776 12.7V9.70001ZM17.855 12.9448C17.8372 12.1366 17.5526 11.3235 16.9646 10.6981C16.3615 10.0566 15.5192 9.70001 14.5776 9.70001V12.7C14.6674 12.7 14.7161 12.7159 14.7367 12.7246C14.757 12.7331 14.769 12.7424 14.779 12.7531C14.799 12.7743 14.8522 12.8501 14.8557 13.0108L17.855 12.9448ZM11.2998 15.6445V27.2H14.2998V15.6445H11.2998ZM16.3554 14.1445H12.7998V17.1445H16.3554V14.1445ZM17.8554 27.2V15.6445H14.8554V27.2H17.8554ZM12.7998 28.7H16.3554V25.7H12.7998V28.7ZM19.6331 19.5947C19.6331 18.1876 19.5866 17.0137 19.5409 16.0142L16.544 16.1512C16.589 17.1339 16.6331 18.2551 16.6331 19.5947H19.6331ZM19.6331 27.2V19.5947H16.6331V27.2H19.6331ZM21.6887 25.7H18.1331V28.7H21.6887V25.7ZM20.1887 20.8542V27.2H23.1887V20.8542H20.1887ZM20.4096 19.4393C20.2013 19.9581 20.1887 20.5323 20.1887 20.8542H23.1887C23.1887 20.7268 23.1935 20.632 23.2013 20.5646C23.205 20.5324 23.2084 20.5154 23.2094 20.5109C23.2106 20.5057 23.2071 20.5235 23.1935 20.5572L20.4096 19.4393ZM23.4665 17.1036C21.5089 17.1036 20.686 18.7368 20.4058 19.449L23.1974 20.5475C23.2386 20.4428 23.2823 20.3504 23.3277 20.273C23.3734 20.195 23.4123 20.1469 23.4389 20.12C23.4635 20.0952 23.4705 20.0953 23.459 20.1005C23.4436 20.1075 23.4399 20.1036 23.4665 20.1036V17.1036ZM26.7443 21.1014C26.7443 20.2382 26.5856 19.2886 26.0788 18.5058C25.5181 17.6399 24.6041 17.1036 23.4665 17.1036V20.1036C23.5515 20.1036 23.5643 20.1202 23.5443 20.1092C23.5255 20.0989 23.5335 20.0946 23.5606 20.1364C23.6331 20.2484 23.7443 20.5476 23.7443 21.1014H26.7443ZM26.7443 27.2V21.1014H23.7443V27.2H26.7443ZM28.7998 25.7H25.2443V28.7H28.7998V25.7ZM27.2998 20.5849V27.2H30.2998V20.5849H27.2998ZM24.8603 17.3365C25.6398 17.3365 26.1891 17.5873 26.559 17.9984C26.9441 18.4263 27.2998 19.2133 27.2998 20.5849H30.2998C30.2998 18.7148 29.8111 17.1275 28.7891 15.9917C27.7519 14.839 26.3313 14.3365 24.8603 14.3365V17.3365ZM22.7355 18.4083C22.9821 18.0131 23.6534 17.3365 24.8603 17.3365V14.3365C22.3764 14.3365 20.8433 15.7736 20.1903 16.8202L22.7355 18.4083ZM21.3954 19.1143H21.4629V16.1143H21.3954V19.1143ZM19.7451 16.2368L19.9033 17.7684L22.8874 17.4601L22.7292 15.9286L19.7451 16.2368ZM18.0425 17.5827H21.2371V14.5827H18.0425V17.5827Z" fill="white" mask="url(#path-1-inside-1)"/>
</svg>
