<svg width="40" height="40" viewBox="0 0 40 40" fill="none" xmlns="http://www.w3.org/2000/svg">
<mask id="path-1-inside-1" fill="white">
<path fill-rule="evenodd" clip-rule="evenodd" d="M20 40C31.0457 40 40 31.0457 40 20C40 8.9543 31.0457 0 20 0C8.9543 0 0 8.9543 0 20C0 31.0457 8.9543 40 20 40ZM30.2044 24.4634C29.7724 23.6878 28.0261 22.0117 28.0261 22.0117C26.419 20.5424 26.419 20.4448 27.9364 18.5095C28.1535 18.2325 28.4008 17.9155 28.6827 17.5492C30.3567 15.3495 30.4626 14.6222 30.374 14.384C30.3211 14.237 30.05 14.1783 29.6504 14.1783H25.9838C25.8951 14.1763 25.8073 14.1965 25.7289 14.237C25.6188 14.3 25.528 14.4564 25.4978 14.512C25.4622 14.6117 24.9438 15.9372 24.2742 17.0612C22.7481 19.6063 22.1854 19.6063 21.9975 19.6063C21.9147 19.6063 21.8335 19.5838 21.7632 19.5412C21.2248 19.1983 21.2476 18.3669 21.2681 17.6246L21.2685 17.6091C21.2685 17.5403 21.27 17.4722 21.2713 17.4061C21.2726 17.3441 21.2739 17.284 21.2739 17.2271C21.2739 16.6761 21.2923 16.208 21.3096 15.7924C21.369 14.3378 21.356 13.9106 20.6778 13.7532C20.3408 13.6703 20.101 13.6126 19.1744 13.6H18.7003C17.846 13.6 16.9852 13.6336 16.5089 13.8644C16.3178 13.9537 16.1687 14.1048 16.0985 14.2034C16.361 14.2517 16.7952 14.384 17.05 14.724C17.4064 15.1984 17.4075 16.1797 17.4075 16.2762C17.4399 16.7737 17.5695 19.1875 16.874 19.559C16.7872 19.6075 16.6889 19.6328 16.5889 19.6325C16.0564 19.6325 15.3901 18.88 14.3057 17.0308C13.7069 16.0143 13.3171 15.0976 13.1626 14.7344C13.1444 14.6915 13.1294 14.6563 13.1177 14.6295C13.0227 14.4091 12.8866 14.1636 12.4687 14.1636H9.35178C9.00618 14.1636 8.6865 14.3609 8.83878 14.7229C8.83957 14.7246 8.84302 14.7323 8.84906 14.7458C9.02515 15.1403 11.4002 20.4607 14.0347 23.1578C16.2584 25.4363 18.7662 25.6 19.2478 25.6H20.6616C20.9218 25.6 21.2934 25.3397 21.2934 24.8821C21.2934 23.4202 21.7966 22.8713 22.193 22.7495C22.2555 22.7286 22.3212 22.7179 22.3874 22.718C22.9093 22.718 23.4248 23.2994 24.0203 23.9712L24.0268 23.9785C24.4275 24.4329 24.8412 24.8979 25.257 25.1802C25.8013 25.5454 26.2484 25.6 26.4633 25.6H29.55C29.7174 25.5884 30.2109 25.4509 30.3567 25.177C30.4431 25.0112 30.3999 24.7866 30.2239 24.5001C30.2194 24.4869 30.2128 24.4746 30.2044 24.4634Z"/>
</mask>
<path d="M28.0261 22.0117L29.0647 20.9295L29.0516 20.9169L29.0382 20.9047L28.0261 22.0117ZM30.2044 24.4634L28.894 25.1933L28.9438 25.2826L29.0052 25.3643L30.2044 24.4634ZM27.9364 18.5095L29.1169 19.4351L29.1172 19.4346L27.9364 18.5095ZM28.6827 17.5492L29.8715 18.4641L29.8764 18.4576L28.6827 17.5492ZM30.374 14.384L28.9628 14.8923L28.9653 14.8994L28.968 14.9066L30.374 14.384ZM25.9838 14.1783L25.9503 15.6779L25.967 15.6783H25.9838V14.1783ZM25.7289 14.237L25.04 12.9046L25.012 12.9191L24.9845 12.9348L25.7289 14.237ZM25.4978 14.512L24.18 13.7955L24.1244 13.8976L24.0853 14.0071L25.4978 14.512ZM24.2742 17.0612L25.5606 17.8326L25.5628 17.8289L24.2742 17.0612ZM21.9975 19.6063V18.1063H21.9968L21.9975 19.6063ZM21.7632 19.5412L20.9574 20.8064L20.9718 20.8156L20.9864 20.8244L21.7632 19.5412ZM21.2681 17.6246L19.7687 17.5832L19.7687 17.5833L21.2681 17.6246ZM21.2685 17.6091L22.7679 17.6505L22.7685 17.6298V17.6091H21.2685ZM21.2713 17.4061L19.7717 17.3745V17.3745L21.2713 17.4061ZM21.3096 15.7924L22.8083 15.8547L22.8083 15.8536L21.3096 15.7924ZM20.6778 13.7532L20.3194 15.2098L20.329 15.2121L20.3386 15.2144L20.6778 13.7532ZM19.1744 13.6L19.1948 12.1001L19.1846 12.1H19.1744V13.6ZM16.5089 13.8644L17.1433 15.2237L17.1533 15.219L17.1633 15.2142L16.5089 13.8644ZM16.0985 14.2034L14.8764 13.3338L13.511 15.2526L15.8272 15.6787L16.0985 14.2034ZM17.05 14.724L15.8498 15.6237L15.8508 15.625L17.05 14.724ZM17.4075 16.2762H15.9075V16.325L15.9107 16.3737L17.4075 16.2762ZM16.874 19.559L16.1673 18.236L16.1551 18.2425L16.143 18.2492L16.874 19.559ZM16.5889 19.6325L16.5931 18.1325H16.5889V19.6325ZM14.3057 17.0308L15.5997 16.2721L15.5981 16.2694L14.3057 17.0308ZM13.1626 14.7344L14.543 14.1474L14.543 14.1473L13.1626 14.7344ZM13.1177 14.6295L11.7403 15.2235L11.7425 15.2285L13.1177 14.6295ZM8.83878 14.7229L7.45609 15.3045L7.47085 15.3395L7.48736 15.3738L8.83878 14.7229ZM8.84906 14.7458L7.47932 15.3572L7.47934 15.3573L8.84906 14.7458ZM14.0347 23.1578L15.1081 22.1101L15.1077 22.1096L14.0347 23.1578ZM22.193 22.7495L22.6334 24.1834L22.6518 24.1778L22.6701 24.1716L22.193 22.7495ZM22.3874 22.718L22.3843 24.218H22.3874V22.718ZM24.0203 23.9712L25.1427 22.9761L25.1427 22.9761L24.0203 23.9712ZM24.0268 23.9785L25.152 22.9865L25.1492 22.9834L24.0268 23.9785ZM25.257 25.1802L24.4144 26.4212L24.4212 26.4258L25.257 25.1802ZM29.55 25.6V27.1H29.6016L29.6532 27.0964L29.55 25.6ZM30.3567 25.177L31.6809 25.8818L31.687 25.8702L30.3567 25.177ZM30.2239 24.5001L28.8038 24.9833L28.8579 25.1423L28.9458 25.2854L30.2239 24.5001ZM38.5 20C38.5 30.2173 30.2173 38.5 20 38.5V41.5C31.8741 41.5 41.5 31.8741 41.5 20H38.5ZM20 1.5C30.2173 1.5 38.5 9.78273 38.5 20H41.5C41.5 8.12588 31.8741 -1.5 20 -1.5V1.5ZM1.5 20C1.5 9.78273 9.78273 1.5 20 1.5V-1.5C8.12588 -1.5 -1.5 8.12588 -1.5 20H1.5ZM20 38.5C9.78273 38.5 1.5 30.2173 1.5 20H-1.5C-1.5 31.8741 8.12588 41.5 20 41.5V38.5ZM28.0261 22.0117C26.9874 23.094 26.9874 23.0939 26.9873 23.0939C26.9873 23.0939 26.9873 23.0938 26.9873 23.0938C26.9873 23.0938 26.9873 23.0938 26.9873 23.0938C26.9873 23.0939 26.9875 23.094 26.9878 23.0943C26.9883 23.0948 26.9892 23.0957 26.9906 23.097C26.9933 23.0996 26.9975 23.1037 27.0033 23.1093C27.0149 23.1204 27.0324 23.1374 27.0552 23.1597C27.1009 23.2041 27.1674 23.2693 27.2489 23.3502C27.4124 23.5126 27.6336 23.7356 27.8662 23.9803C28.3861 24.5271 28.7874 25.0019 28.894 25.1933L31.5149 23.7335C31.1895 23.1493 30.5016 22.3982 30.0403 21.9131C29.7824 21.6418 29.54 21.3974 29.3625 21.2213C29.2736 21.1329 29.2003 21.0611 29.1487 21.0109C29.1229 20.9857 29.1025 20.966 29.0883 20.9522C29.0812 20.9453 29.0756 20.9399 29.0716 20.9361C29.0696 20.9342 29.0681 20.9327 29.0669 20.9316C29.0663 20.9311 29.0659 20.9306 29.0655 20.9303C29.0653 20.9301 29.0652 20.9299 29.065 20.9298C29.065 20.9297 29.0649 20.9297 29.0649 20.9296C29.0648 20.9296 29.0647 20.9295 28.0261 22.0117ZM26.756 17.584C26.3908 18.0498 26.0496 18.4881 25.8088 18.8773C25.5725 19.2591 25.2934 19.8056 25.3101 20.4727C25.3276 21.1791 25.6645 21.7075 25.9621 22.0695C26.2455 22.4141 26.633 22.7705 27.0139 23.1188L29.0382 20.9047C28.6156 20.5183 28.4005 20.3115 28.2793 20.1641C28.1724 20.0341 28.3027 20.1416 28.3091 20.398C28.3145 20.6152 28.2195 20.6826 28.3598 20.4559C28.4956 20.2365 28.7234 19.937 29.1169 19.4351L26.756 17.584ZM27.494 16.6344C27.2157 16.996 26.9713 17.3093 26.7557 17.5844L29.1172 19.4346C29.3358 19.1557 29.586 18.835 29.8715 18.4641L27.494 16.6344ZM28.968 14.9066C28.8692 14.6408 28.8992 14.4443 28.9046 14.4131C28.9105 14.3793 28.906 14.4322 28.8275 14.6023C28.6689 14.9456 28.298 15.5778 27.489 16.6409L29.8764 18.4576C30.7414 17.3209 31.2604 16.4896 31.5512 15.8598C31.8028 15.3147 32.0478 14.5818 31.78 13.8613L28.968 14.9066ZM29.6504 15.6783C29.8015 15.6783 29.818 15.6919 29.7568 15.6756C29.7237 15.6668 29.605 15.6331 29.4604 15.5363C29.3054 15.4326 29.0842 15.2294 28.9628 14.8923L31.7853 13.8756C31.4927 13.0633 30.7475 12.8348 30.5276 12.7764C30.2177 12.694 29.8989 12.6783 29.6504 12.6783V15.6783ZM25.9838 15.6783H29.6504V12.6783H25.9838V15.6783ZM26.4178 15.5695C26.2717 15.645 26.1109 15.6815 25.9503 15.6779L26.0173 12.6786C25.6792 12.6711 25.3428 12.748 25.04 12.9046L26.4178 15.5695ZM26.8156 15.2285C26.8144 15.2307 26.8058 15.2472 26.7856 15.2743C26.7747 15.289 26.7498 15.321 26.7094 15.3612C26.672 15.3985 26.5941 15.4702 26.4733 15.5393L24.9845 12.9348C24.6607 13.1199 24.4621 13.3718 24.3812 13.4802C24.2805 13.6152 24.2115 13.7376 24.18 13.7955L26.8156 15.2285ZM25.5628 17.8289C26.2987 16.5936 26.8551 15.1713 26.9103 15.0169L24.0853 14.0071C24.0889 13.997 24.0612 14.0713 23.9984 14.2239C23.9397 14.3667 23.857 14.5618 23.7556 14.7874C23.5501 15.2445 23.2796 15.7999 22.9855 16.2935L25.5628 17.8289ZM21.9975 21.1063C22.1183 21.1063 22.403 21.1029 22.7581 20.9659C23.0762 20.8431 23.3643 20.6479 23.6352 20.4051C24.1578 19.9367 24.7717 19.1482 25.5606 17.8326L22.9877 16.2899C22.2505 17.5193 21.8201 18.0033 21.6328 18.1712C21.5488 18.2465 21.5657 18.2104 21.6778 18.1671C21.7372 18.1442 21.8071 18.1256 21.8835 18.1151C21.9563 18.1052 22.0152 18.1063 21.9975 18.1063V21.1063ZM20.9864 20.8244C21.2931 21.0101 21.6436 21.1065 21.9983 21.1063L21.9968 18.1063C22.1857 18.1062 22.3738 18.1574 22.5399 18.258L20.9864 20.8244ZM19.7687 17.5833C19.7594 17.9177 19.7387 18.4686 19.8277 18.9867C19.918 19.5121 20.1706 20.3053 20.9574 20.8064L22.5689 18.276C22.8173 18.4342 22.8122 18.6403 22.7844 18.4787C22.7726 18.4102 22.7635 18.3089 22.7609 18.1619C22.7582 18.0142 22.7622 17.8574 22.7675 17.6659L19.7687 17.5833ZM19.7691 17.5677L19.7687 17.5832L22.7675 17.666L22.7679 17.6505L19.7691 17.5677ZM19.7717 17.3745C19.7703 17.4382 19.7685 17.522 19.7685 17.6091H22.7685C22.7685 17.5587 22.7696 17.5062 22.771 17.4377L19.7717 17.3745ZM19.7739 17.2271C19.7739 17.2653 19.7731 17.3091 19.7717 17.3745L22.771 17.4377C22.7722 17.3791 22.7739 17.3027 22.7739 17.2271H19.7739ZM19.8109 15.7301C19.7935 16.1485 19.7739 16.6429 19.7739 17.2271H22.7739C22.7739 16.7093 22.7911 16.2675 22.8083 15.8547L19.8109 15.7301ZM20.3386 15.2144C20.3765 15.2231 20.2371 15.1992 20.0752 15.0555C19.8943 14.8949 19.8329 14.7187 19.819 14.6657C19.813 14.6428 19.8285 14.6934 19.8314 14.9032C19.8342 15.103 19.8259 15.3625 19.8108 15.7312L22.8083 15.8536C22.823 15.4949 22.8352 15.1556 22.8311 14.8612C22.8271 14.577 22.8081 14.2382 22.7215 13.907C22.6271 13.5457 22.439 13.1423 22.0667 12.8118C21.7135 12.4983 21.3182 12.362 21.0169 12.292L20.3386 15.2144ZM19.154 15.0998C19.5942 15.1058 19.8255 15.1222 19.967 15.1394C20.0902 15.1543 20.1614 15.1709 20.3194 15.2098L21.0361 12.2966C20.5753 12.1832 20.2209 12.1141 19.1948 12.1001L19.154 15.0998ZM18.7003 15.1H19.1744V12.1H18.7003V15.1ZM17.1633 15.2142C17.1546 15.2184 17.2711 15.1715 17.6087 15.1385C17.9147 15.1086 18.2839 15.1 18.7003 15.1V12.1C18.2624 12.1 17.774 12.1081 17.3171 12.1527C16.8916 12.1943 16.3396 12.2796 15.8546 12.5147L17.1633 15.2142ZM17.3207 15.0731C17.2995 15.103 17.2831 15.1218 17.274 15.1319C17.264 15.1428 17.2552 15.1513 17.2468 15.1587C17.2337 15.1702 17.2016 15.1965 17.1433 15.2237L15.8746 12.5052C15.4039 12.7248 15.0656 13.0679 14.8764 13.3338L17.3207 15.0731ZM18.2503 13.8243C17.6436 13.0149 16.7267 12.7938 16.3699 12.7282L15.8272 15.6787C15.8463 15.6822 15.8686 15.6873 15.8907 15.694C15.9132 15.7007 15.929 15.7071 15.9378 15.7113C15.9469 15.7155 15.9413 15.714 15.9261 15.7025C15.9102 15.6905 15.8811 15.6654 15.8498 15.6237L18.2503 13.8243ZM18.9075 16.2762C18.9075 16.2038 18.9071 15.8522 18.8476 15.4316C18.7974 15.0766 18.6705 14.3837 18.2493 13.823L15.8508 15.625C15.8005 15.558 15.8034 15.5331 15.8249 15.6017C15.8434 15.6608 15.8622 15.7461 15.8772 15.852C15.9073 16.0648 15.9075 16.2521 15.9075 16.2762H18.9075ZM17.5807 20.8821C18.3225 20.4859 18.5895 19.7354 18.6931 19.3869C18.8233 18.949 18.8815 18.473 18.91 18.0709C18.9679 17.2539 18.9216 16.4436 18.9043 16.1787L15.9107 16.3737C15.9258 16.6063 15.9605 17.2516 15.9175 17.8588C15.8955 18.1688 15.8576 18.397 15.8176 18.5317C15.798 18.5974 15.7921 18.5918 15.8197 18.5468C15.8461 18.5039 15.9473 18.3535 16.1673 18.236L17.5807 20.8821ZM16.5846 21.1325C16.9401 21.1335 17.2919 21.0436 17.605 20.8689L16.143 18.2492C16.2826 18.1713 16.4377 18.1321 16.5931 18.1325L16.5846 21.1325ZM13.0118 17.7895C13.5646 18.7323 14.0609 19.4846 14.5278 20.0156C14.933 20.4764 15.6211 21.1325 16.5889 21.1325V18.1325C16.8232 18.1325 16.9611 18.2178 16.9726 18.2252C16.9773 18.2282 16.9141 18.1863 16.7807 18.0346C16.5103 17.7271 16.1312 17.1785 15.5997 16.2721L13.0118 17.7895ZM11.7822 15.3214C11.942 15.697 12.3628 16.6878 13.0133 17.7922L15.5981 16.2694C15.051 15.3407 14.6922 14.4983 14.543 14.1474L11.7822 15.3214ZM11.7425 15.2285C11.751 15.2479 11.7629 15.276 11.7822 15.3214L14.543 14.1473C14.5258 14.1069 14.5078 14.0647 14.493 14.0306L11.7425 15.2285ZM12.4687 15.6636C12.4252 15.6636 12.3358 15.6569 12.2219 15.6156C12.1039 15.5728 11.9961 15.5061 11.907 15.4254C11.7502 15.2832 11.7043 15.1398 11.7404 15.2235L14.4951 14.0356C14.4362 13.8989 14.2747 13.5225 13.9216 13.2024C13.516 12.8349 13.0051 12.6636 12.4687 12.6636V15.6636ZM9.35178 15.6636H12.4687V12.6636H9.35178V15.6636ZM10.2215 14.1414C10.276 14.271 10.333 14.498 10.2767 14.7784C10.2194 15.0633 10.0697 15.2792 9.91737 15.4176C9.65521 15.6558 9.40901 15.6636 9.35178 15.6636V12.6636C8.94896 12.6636 8.37012 12.77 7.89978 13.1974C7.64339 13.4304 7.42071 13.7634 7.33552 14.1871C7.25123 14.6064 7.32547 14.9939 7.45609 15.3045L10.2215 14.1414ZM10.2188 14.1344C10.216 14.1282 10.2131 14.1216 10.2107 14.1164C10.2096 14.1139 10.2079 14.1101 10.2061 14.106C10.2051 14.104 10.2036 14.1006 10.2018 14.0966C10.2007 14.0942 10.1961 14.0844 10.1902 14.0721L7.48736 15.3738C7.48405 15.367 7.48148 15.3615 7.48013 15.3586C7.47862 15.3554 7.47742 15.3528 7.47665 15.3511C7.47516 15.3479 7.47407 15.3455 7.47369 15.3446C7.4729 15.3429 7.47258 15.3422 7.47317 15.3435C7.47429 15.346 7.47608 15.35 7.47932 15.3572L10.2188 14.1344ZM15.1077 22.1096C13.9385 20.9126 12.7654 19.0566 11.834 17.3649C10.9182 15.7015 10.2999 14.3161 10.2188 14.1344L7.47934 15.3573C7.57433 15.5701 8.2316 17.0421 9.20596 18.8118C10.1647 20.5531 11.4964 22.7059 12.9616 24.2059L15.1077 22.1096ZM19.2478 24.1C18.9976 24.1 16.9483 23.9955 15.1081 22.1101L12.9612 24.2055C15.5685 26.877 18.5347 27.1 19.2478 27.1V24.1ZM20.6616 24.1H19.2478V27.1H20.6616V24.1ZM19.7934 24.8821C19.7934 24.6766 19.8859 24.4771 20.028 24.3386C20.1353 24.2339 20.3389 24.1 20.6616 24.1V27.1C21.7141 27.1 22.7934 26.2038 22.7934 24.8821H19.7934ZM21.7526 21.3156C20.3992 21.7313 19.7934 23.1838 19.7934 24.8821H22.7934C22.7934 24.3097 22.8938 24.0656 22.9236 24.0086C22.9476 23.9627 22.8837 24.1066 22.6334 24.1834L21.7526 21.3156ZM22.3905 21.218C22.1616 21.2176 21.9336 21.2544 21.7159 21.3274L22.6701 24.1716C22.5774 24.2027 22.4809 24.2182 22.3843 24.218L22.3905 21.218ZM25.1427 22.9761C24.8664 22.6644 24.5147 22.2631 24.1503 21.952C23.8088 21.6604 23.2003 21.218 22.3874 21.218V24.218C22.2329 24.218 22.1344 24.174 22.1123 24.1631C22.0958 24.1549 22.1238 24.1664 22.2022 24.2334C22.3749 24.3809 22.5787 24.6062 22.898 24.9663L25.1427 22.9761ZM25.1492 22.9834L25.1427 22.9761L22.898 24.9663L22.9044 24.9736L25.1492 22.9834ZM26.0996 23.9392C25.8724 23.7849 25.5883 23.4813 25.1519 22.9865L22.9017 24.9705C23.2667 25.3845 23.81 26.0108 24.4144 26.4212L26.0996 23.9392ZM26.4633 24.1C26.5115 24.1 26.3627 24.1157 26.0927 23.9346L24.4212 26.4258C25.2399 26.9751 25.9853 27.1 26.4633 27.1V24.1ZM29.55 24.1H26.4633V27.1H29.55V24.1ZM29.0326 24.4722C29.1329 24.2837 29.2541 24.1857 29.2977 24.1533C29.3464 24.1171 29.3748 24.1063 29.3677 24.1094C29.364 24.111 29.355 24.1142 29.3478 24.116C29.3291 24.1209 29.3642 24.1092 29.4468 24.1035L29.6532 27.0964C29.9388 27.0767 30.2705 26.9871 30.5551 26.8644C30.7959 26.7606 31.3592 26.4861 31.6808 25.8818L29.0326 24.4722ZM28.9458 25.2854C28.9791 25.3394 28.9408 25.2958 28.9165 25.1713C28.8882 25.0262 28.8804 24.7643 29.0265 24.4839L31.687 25.8702C32.1605 24.9613 31.7389 24.1006 31.5019 23.7148L28.9458 25.2854ZM29.0052 25.3643C28.9192 25.2498 28.8508 25.1214 28.8038 24.9833L31.6439 24.0169C31.588 23.8525 31.5065 23.6993 31.4037 23.5624L29.0052 25.3643Z" fill="white" mask="url(#path-1-inside-1)"/>
</svg>
