<svg width="200" height="200" viewBox="0 0 200 200" fill="none" xmlns="http://www.w3.org/2000/svg">
<path d="M28.8808 58.2348V58.2277L28.8806 58.2206L27.0532 13.1391C27.0547 13.0832 27.08 12.9957 27.1675 12.8738C27.2569 12.7495 27.3955 12.6115 27.5822 12.4667C27.9552 12.1771 28.477 11.893 29.045 11.6575C29.6115 11.4227 30.2063 11.2436 30.7177 11.1557C30.9735 11.1118 31.2008 11.092 31.3889 11.0968C31.5766 11.1016 31.7012 11.1305 31.7738 11.1647L93.6753 45.5089C93.6756 45.5092 93.676 45.5094 93.6764 45.5096C94.11 45.7557 94.3531 46.1787 94.3531 46.6694V92.3143C94.3531 92.4012 94.3218 92.5268 94.2356 92.6917C94.1508 92.8539 94.0231 93.0349 93.8571 93.2265C93.525 93.6099 93.0633 94.0091 92.5621 94.3543C92.0603 94.7 91.5351 94.9806 91.0814 95.1372C90.8544 95.2155 90.6564 95.2589 90.495 95.2687C90.3332 95.2786 90.2333 95.2533 90.1764 95.2219C90.1757 95.2215 90.175 95.2211 90.1742 95.2207L29.5643 59.3984L29.5643 59.3984L29.5587 59.3952C29.1244 59.1492 28.8808 58.7259 28.8808 58.2348Z" fill="white" stroke="#3C3C3C" stroke-width="0.7"/>
<path d="M107.529 149.492V149.485L107.529 149.478L105.702 104.396C105.705 104.249 105.832 104.004 106.182 103.694C106.517 103.398 106.986 103.104 107.499 102.858C108.012 102.613 108.552 102.424 109.02 102.328C109.505 102.23 109.838 102.247 110 102.324L172.324 136.767C172.324 136.767 172.325 136.767 172.325 136.768C172.759 137.014 173.002 137.437 173.002 137.927V183.572C173.002 183.659 172.97 183.784 172.884 183.949C172.799 184.112 172.672 184.293 172.506 184.484C172.173 184.868 171.712 185.267 171.211 185.612C170.709 185.958 170.184 186.238 169.73 186.395C169.503 186.473 169.305 186.517 169.143 186.526C168.982 186.536 168.882 186.511 168.825 186.48C168.824 186.479 168.823 186.479 168.823 186.478L108.213 150.656L108.213 150.656L108.207 150.653C107.773 150.407 107.529 149.984 107.529 149.492Z" fill="white" stroke="#3C3C3C" stroke-width="0.7"/>
<path d="M89.5117 95.2175L89.5118 95.2174L89.5059 95.2141L27.7197 60.7462C27.7188 60.7457 27.7179 60.7451 27.717 60.7446C27.2947 60.497 27.0531 60.0689 27.0531 59.5667V13.397C27.0531 12.4098 28.0736 11.8039 28.9064 12.2242L90.6894 46.6905C91.1116 46.9381 91.3531 47.3662 91.3531 47.8683V94.038C91.3531 95.1234 90.3225 95.6905 89.5117 95.2175Z" fill="white" stroke="#3C3C3C" stroke-width="0.7"/>
<path d="M168.16 186.479L168.16 186.479L168.154 186.476L106.368 152.008C106.367 152.007 106.366 152.007 106.365 152.006C105.943 151.759 105.702 151.331 105.702 150.828V104.659C105.702 103.672 106.722 103.066 107.555 103.486L169.338 137.952C169.76 138.2 170.002 138.628 170.002 139.13V185.3C170.002 186.385 168.971 186.952 168.16 186.479Z" fill="white" stroke="#3C3C3C" stroke-width="0.7"/>
<path d="M67.2869 51.9987L67.287 51.9987C67.3932 52.1828 67.4526 52.3815 67.4526 52.5531L67.4526 71.825C67.4526 72.1848 67.2013 72.3299 66.8897 72.15L49.5691 62.15C49.2575 61.9701 49.0062 61.5348 49.0062 61.175L49.0062 35.175C49.0062 34.8152 49.2575 34.6701 49.5692 34.85L61.0629 41.4859C61.2125 41.5723 61.3573 41.7253 61.4629 41.908C61.4629 41.9081 61.4629 41.9081 61.4629 41.9081L67.2869 51.9987ZM65.7584 52.3844L66.4902 52.8069L65.9727 51.9106L60.8794 43.0888L60.362 42.1925L60.362 43.0375L60.362 48.9187L60.362 49.2688L60.6651 49.4438L65.7584 52.3844Z" fill="#FFE604" stroke="#3C3C3C" stroke-width="0.7"/>
<path d="M145.721 158.825L145.721 163.475L129.006 153.825L129.006 149.175C129.008 147.413 129.615 146.073 130.695 145.45C131.775 144.827 133.239 144.971 134.765 145.85L139.961 148.85C141.488 149.734 142.952 151.28 144.032 153.15C145.111 155.02 145.719 157.061 145.721 158.825Z" fill="#FF625B" stroke="#3C3C3C" stroke-width="0.7"/>
<path d="M132.574 138.93C131.942 137.471 131.604 135.99 131.604 134.675C131.604 132.911 132.211 131.57 133.291 130.947C134.371 130.323 135.836 130.468 137.363 131.35C138.502 132.008 139.615 133.04 140.563 134.318C141.51 135.596 142.248 137.06 142.684 138.527C143.12 139.994 143.234 141.397 143.011 142.558C142.789 143.72 142.241 144.588 141.435 145.053C140.63 145.518 139.604 145.559 138.486 145.171C137.369 144.783 136.211 143.982 135.159 142.871C134.107 141.76 133.207 140.389 132.574 138.93Z" fill="#FF625B" stroke="#3C3C3C" stroke-width="0.7"/>
<path d="M171.629 10.8083L171.629 10.8081L106.699 46.5368C106.632 46.5966 106.551 46.6555 106.477 46.7075C106.407 46.7559 106.329 46.8078 106.253 46.8581C106.227 46.8757 106.201 46.893 106.176 46.91C106.074 46.978 105.981 47.0414 105.906 47.0992C105.869 47.1278 105.839 47.1525 105.816 47.1733C105.805 47.1835 105.797 47.1918 105.791 47.1982C105.785 47.2043 105.783 47.2073 105.783 47.2073M171.629 10.8083L105.783 47.2073L105.783 47.2073M171.629 10.8083L171.64 10.8018M171.629 10.8083L171.64 10.8018M105.783 47.2073C105.749 47.2549 105.716 47.3554 105.704 47.5379C105.695 47.6609 105.697 47.7806 105.7 47.9085C105.701 47.9696 105.702 48.0325 105.702 48.0985V95.096M105.783 47.2073L105.702 95.096M171.64 10.8018C171.808 10.701 172.109 10.6575 172.526 10.7164C172.93 10.7735 173.388 10.9192 173.821 11.1258C174.254 11.3328 174.644 11.5921 174.919 11.8641C175.198 12.139 175.316 12.3824 175.321 12.5674L171.978 59.7498L171.977 59.7621M171.64 10.8018L171.977 59.7621M171.977 59.7621V59.7745M171.977 59.7621V59.7745M171.977 59.7745C171.977 60.2441 171.681 60.5722 171.244 61.009L110.218 96.9092L110.216 96.9106M171.977 59.7745L110.216 96.9106M110.216 96.9106C110.013 97.0322 109.633 97.1379 109.144 97.1726C108.664 97.2067 108.118 97.1696 107.603 97.0387C106.565 96.7749 105.76 96.1706 105.702 95.096M110.216 96.9106L105.702 95.096" fill="white" stroke="#3C3C3C" stroke-width="0.7"/>
<path d="M89.9683 102.915L89.9684 102.915L89.9796 102.908C90.1531 102.805 90.4784 102.752 90.9304 102.794C91.3675 102.836 91.8666 102.96 92.3383 103.145C92.8115 103.33 93.2377 103.568 93.5388 103.824C93.8446 104.083 93.9642 104.311 93.9689 104.479L90.6262 151.661L90.6253 151.673V151.686C90.6253 152.155 90.3295 152.483 89.8934 152.919L28.1409 188.68L28.1366 188.682C27.9213 188.811 27.5768 188.922 27.1644 188.968C26.7561 189.013 26.3069 188.992 25.8909 188.881C25.4752 188.77 25.1061 188.574 24.8356 188.278C24.5703 187.987 24.3804 187.58 24.35 187.007V140.01C24.35 139.747 24.4438 139.526 24.6052 139.304C24.7407 139.118 25.198 138.586 25.4026 138.374L89.9683 102.915Z" fill="white" stroke="#3C3C3C" stroke-width="0.7"/>
<path d="M173.802 11.9571L173.802 11.9573L173.814 11.9502C174.24 11.6947 174.702 11.7356 175.067 11.9715C175.436 12.2099 175.705 12.6492 175.705 13.1886V60.4447C175.705 60.9235 175.404 61.2582 174.963 61.7L110.308 96.8432L110.302 96.8467L110.295 96.8505C109.835 97.1263 109.357 97.1323 109.009 96.9577C108.672 96.7882 108.405 96.4225 108.405 95.8319V48.5758C108.405 48.0969 108.706 47.7621 109.147 47.3202L173.802 11.9571Z" fill="white" stroke="#3C3C3C" stroke-width="0.7"/>
<path d="M92.4504 103.871L92.4505 103.871L92.4624 103.864C92.8888 103.609 93.3504 103.65 93.7154 103.886C94.0843 104.124 94.3531 104.563 94.3531 105.103V152.359C94.3531 152.838 94.0522 153.172 93.6113 153.614L28.9566 188.757L28.9502 188.761L28.9439 188.765C28.4836 189.04 28.0056 189.046 27.6579 188.872C27.3204 188.702 27.0531 188.337 27.0531 187.746V140.49C27.0531 140.011 27.3542 139.676 27.7953 139.234L92.4504 103.871Z" fill="white" stroke="#3C3C3C" stroke-width="0.7"/>
<path d="M150.215 43.9074L150.741 43.6038L150.477 43.2305C149.394 41.6966 147.737 40.9541 145.752 41.1129L145.219 41.1556L145.335 41.7451C145.609 43.1361 145.836 44.5644 146.017 46.0275L146.052 46.3112L146.317 46.1579L150.215 43.9074ZM143.354 41.9528L143.313 41.7277L143.095 41.8219C142.683 41.9999 142.262 42.1992 141.827 42.45C141.393 42.7008 140.972 42.9876 140.559 43.2858L140.341 43.4433L140.299 43.7167C140.216 44.2604 139.83 46.8509 139.513 49.6884L139.466 50.1134L139.814 49.9127L143.839 47.5887L144.186 47.3882L144.139 47.018C143.825 44.5441 143.437 42.4005 143.354 41.9528ZM144.119 55.827L144.395 55.6677L144.421 55.3355C144.502 54.283 144.555 53.2773 144.555 52.425C144.555 51.5727 144.502 50.6282 144.421 49.6701L144.395 49.3677L144.119 49.527L139.536 52.173L139.26 52.3323L139.234 52.6645C139.152 53.717 139.1 54.7227 139.1 55.575C139.1 56.4273 139.152 57.3718 139.234 58.3299L139.26 58.6323L139.536 58.473L144.119 55.827ZM138.32 45.7953L138.436 45.0718L137.903 45.6446C135.918 47.7779 134.261 50.4336 133.178 53.2186L132.914 53.8962L133.44 53.5926L137.338 51.3421L137.603 51.1888L137.638 50.8647C137.819 49.1933 138.046 47.5025 138.32 45.7953ZM137.382 53.7928L137.406 53.4026L137.08 53.5912L132.838 56.0401L132.447 56.2659L132.446 56.2666L132.446 56.6162L132.153 56.698C131.948 57.7373 131.825 58.7729 131.825 59.775C131.825 60.7768 131.947 61.6713 132.153 62.4732L132.212 62.7013L132.447 62.5659L137.081 59.8905L137.408 59.7013L137.383 59.3389C137.32 58.4463 137.281 57.5321 137.281 56.625C137.281 55.7182 137.322 54.7575 137.382 53.7928ZM133.44 64.0926L132.914 64.3962L133.178 64.7695C134.261 66.3034 135.918 67.0459 137.903 66.8871L138.437 66.8444L138.32 66.2547C138.145 65.3712 137.865 63.825 137.638 61.9728L137.604 61.6887L137.338 61.8421L133.44 64.0926ZM140.3 66.0465L140.347 66.3038L140.58 66.1692C140.986 65.9933 141.401 65.7963 141.829 65.5493C142.263 65.2988 142.685 65.0128 143.097 64.7134L143.315 64.5551L143.356 64.2821C143.657 62.2772 143.919 60.2866 144.142 58.3122L144.19 57.8863L143.841 58.0873L139.816 60.4113L139.468 60.6121L139.516 60.9825C139.736 62.7017 139.998 64.3902 140.3 66.0465ZM145.329 62.2796L145.646 62.1333L145.752 62.3554C147.737 60.2221 149.394 57.5664 150.477 54.7814L150.741 54.1038L150.215 54.4074L146.317 56.6579L146.052 56.8112L146.017 57.1352C145.843 58.7423 145.626 60.3672 145.367 62.0073L145.329 62.0479L145.329 62.2782L145.329 62.2796ZM146.273 54.2072L146.249 54.5974L146.575 54.4088L150.816 51.9603L151.208 51.7341L151.209 51.7334L151.209 51.3838L151.501 51.3026C151.708 50.2618 151.83 49.2268 151.83 48.225C151.83 47.2229 151.707 46.3289 151.499 45.5278L151.44 45.3003L151.206 45.4355L146.574 48.1095L146.247 48.2987L146.272 48.6611C146.335 49.5537 146.374 50.4679 146.374 51.375C146.374 52.2818 146.333 53.2425 146.273 54.2072ZM130.006 60.825C130.006 53.2861 135.299 44.1194 141.827 40.35C148.356 36.5806 153.649 39.6361 153.649 47.175C153.649 54.7139 148.356 63.8806 141.827 67.65C135.299 71.4194 130.006 68.3639 130.006 60.825Z" fill="#FFA9BB" stroke="#3C3C3C" stroke-width="0.7"/>
<path d="M71.4927 136.771L71.4927 136.771L71.4994 136.77C71.6023 136.752 71.6916 136.778 71.7549 136.844C71.8182 136.91 71.8523 137.014 71.8523 137.141C71.8523 137.267 71.8182 137.41 71.7549 137.55C71.6925 137.687 71.6047 137.814 71.5036 137.914L64.3706 144.587L63.8847 145.042L64.2485 145.243L71.7655 149.384C71.8623 149.442 71.9167 149.564 71.9167 149.724C71.9167 149.885 71.8618 150.07 71.7643 150.24C71.7642 150.24 71.7641 150.241 71.764 150.241L69.8215 153.611C69.8214 153.611 69.8213 153.611 69.8212 153.611C69.723 153.781 69.5904 153.921 69.4523 154.001C69.3141 154.08 69.1813 154.094 69.0831 154.037L69.0811 154.036L61.5374 149.869L61.1816 149.673L61.0356 150.307L58.8113 159.967C58.8112 159.967 58.8111 159.968 58.811 159.968C58.778 160.108 58.7135 160.25 58.6267 160.376C58.5396 160.502 58.4343 160.606 58.3254 160.672C58.2166 160.738 58.1095 160.764 58.0191 160.745C57.9286 160.727 57.8593 160.665 57.821 160.569L50.0382 140.973C50.0381 140.973 50.038 140.973 50.0379 140.972C50.0036 140.883 49.997 140.769 50.0188 140.643C50.0407 140.517 50.0902 140.384 50.1614 140.261C50.2327 140.138 50.3225 140.03 50.4204 139.949C50.5183 139.869 50.6202 139.818 50.7139 139.805L50.7144 139.805L71.4927 136.771Z" fill="#14E731" stroke="#3C3C3C" stroke-width="0.7"/>
</svg>
