<svg width="200" height="200" viewBox="0 0 200 200" fill="none" xmlns="http://www.w3.org/2000/svg">
<path d="M143.292 172.028L38.344 114.715L13.0747 130.091C12.7521 130.307 12.537 130.522 12.2145 130.629C10.494 132.135 10.6015 133.963 12.537 135.038L109.636 188.157C111.894 189.34 115.657 189.125 118.238 187.62L143.507 172.243L143.292 172.028Z" fill="url(#paint0_linear)"/>
<path d="M143.615 172.245L180.282 149.879C182.755 148.374 182.97 146.116 180.82 144.933L83.721 91.8137C81.4629 90.6309 77.6994 90.8459 75.1187 92.3513L38.3438 114.717L143.615 172.245Z" fill="white"/>
<path d="M54.0426 156.869L69.8494 165.578C70.2795 165.794 70.2795 166.224 69.8494 166.439L52.4297 156.976C52.8598 156.654 53.6125 156.654 54.0426 156.869Z" fill="#524C7C"/>
<path d="M89.9609 96.6491L172.113 141.489L173.188 140.844L91.1438 96.0039L89.9609 96.6491Z" fill="#524C7C"/>
<path d="M83.7822 91.5051L83.7822 91.5051L83.7761 91.5019C82.5546 90.8646 81.5992 90.2268 80.9236 89.1885C80.2471 88.1486 79.8235 86.6626 79.7705 84.2774L79.7705 84.2769L78.05 11.8023L78.05 11.8023L78.0499 11.8006C77.9967 9.93708 78.4068 9.03817 78.94 8.68949C79.4677 8.34449 80.2994 8.42179 81.406 9.00085C81.4069 9.00133 81.4078 9.00181 81.4087 9.0023L178.499 62.117C178.499 62.1172 178.5 62.1175 178.5 62.1177C179.81 62.8513 180.776 63.6729 181.433 64.7854C182.092 65.9005 182.461 67.3415 182.514 69.3473C182.514 69.3475 182.514 69.3477 182.514 69.3478L184.234 141.822L184.234 141.824C184.287 143.569 183.882 144.481 183.336 144.859C182.802 145.229 181.969 145.194 180.878 144.623C180.877 144.622 180.876 144.622 180.875 144.622L83.7822 91.5051Z" fill="#FFE604" stroke="#3C3C3C" stroke-width="0.7"/>
<path d="M180.285 135.145L178.673 66.9714C178.673 66.7564 178.565 66.5413 178.35 66.4338L82.9717 14.2822C82.5415 14.0671 82.0039 14.3897 82.0039 14.9274L83.6168 83.1008C83.6168 83.3158 83.7244 83.5309 83.9394 83.6384L179.318 135.79C179.748 136.005 180.285 135.682 180.285 135.145Z" fill="url(#paint1_linear)"/>
<path opacity="0.2" d="M156.522 54.4981L112.435 30.4116L82.9717 14.2822C82.5415 14.0671 82.0039 14.3897 82.0039 14.9274L83.6168 83.1008C83.6168 83.3159 83.7244 83.5309 83.9394 83.6384L96.9504 90.7354L156.522 54.4981Z" fill="white"/>
<path opacity="0.4" d="M55.9805 144.284L68.9915 136.327C69.7442 135.897 71.0346 135.789 71.8948 136.219L104.369 153.961C105.121 154.392 105.229 155.144 104.369 155.574L91.3575 163.531L55.9805 144.284Z" fill="#6C7195"/>
<g opacity="0.4">
<path opacity="0.4" d="M73.401 154.5L90.8207 164.07L83.7238 168.371C82.9711 168.801 81.6808 168.909 80.8205 168.479L64.9062 159.769L73.401 154.5Z" fill="#5C5C5C"/>
<path opacity="0.4" d="M72.8623 154.177L64.3675 159.339L48.4532 150.629C47.7005 150.199 47.5929 149.446 48.4532 149.016L55.5501 144.715L72.8623 154.177Z" fill="#5C5C5C"/>
</g>
<path opacity="0.6" d="M104.472 154.823L71.9984 137.081C71.2457 136.651 69.9554 136.651 69.0951 137.189L56.6217 144.716L55.9766 144.393L68.9876 136.436C69.7403 136.006 71.0307 135.898 71.8909 136.328L104.365 154.071C104.902 154.393 105.117 154.823 104.902 155.254C104.795 155.039 104.687 154.931 104.472 154.823Z" fill="#9FAED4"/>
<path opacity="0.6" d="M73.3971 155.253L65.5475 159.984L64.9023 159.661L73.3971 154.5L90.8168 163.963L90.2792 164.393L73.3971 155.253Z" fill="#9FAED4"/>
<path opacity="0.6" d="M55.4395 145.362L48.3426 149.663C48.1275 149.771 47.9124 149.986 47.9124 150.093C47.6974 149.663 47.8049 149.233 48.3426 148.911L55.4395 144.609L72.8592 154.179L72.214 154.502L55.4395 145.362Z" fill="#9FAED4"/>
<path d="M158.996 150.412L163.834 153.1C164.157 153.315 164.695 153.208 165.017 152.992L169.533 150.197C169.856 149.982 169.856 149.659 169.641 149.552L164.802 146.863C164.48 146.648 163.942 146.756 163.619 146.971L159.103 149.767C158.673 149.982 158.673 150.197 158.996 150.412Z" fill="#524C7C"/>
<path d="M152.437 146.759L157.276 149.448C157.598 149.663 158.136 149.555 158.459 149.34L162.975 146.544C163.297 146.329 163.297 146.007 163.082 145.899L158.244 143.211C157.921 142.996 157.383 143.103 157.061 143.319L152.545 146.114C152.114 146.329 152.114 146.652 152.437 146.759Z" fill="#524C7C"/>
<path d="M145.874 143.209L150.713 145.897C151.036 146.112 151.574 146.004 151.896 145.789L156.412 142.994C156.735 142.779 156.735 142.456 156.52 142.348L151.681 139.66C151.358 139.445 150.821 139.553 150.498 139.768L145.982 142.563C145.552 142.779 145.552 143.101 145.874 143.209Z" fill="#524C7C"/>
<path d="M139.208 139.662L144.047 142.35C144.37 142.565 144.908 142.458 145.23 142.242L149.746 139.447C150.069 139.232 150.069 138.909 149.854 138.802L145.015 136.113C144.692 135.898 144.155 136.006 143.832 136.221L139.316 139.017C138.993 139.124 138.993 139.447 139.208 139.662Z" fill="#524C7C"/>
<path d="M132.652 136.006L137.491 138.694C137.813 138.909 138.351 138.801 138.673 138.586L143.19 135.79C143.512 135.575 143.512 135.253 143.297 135.145L138.458 132.457C138.136 132.242 137.598 132.35 137.276 132.565L132.759 135.36C132.437 135.575 132.329 135.898 132.652 136.006Z" fill="#524C7C"/>
<path d="M126.089 132.455L130.928 135.143C131.251 135.358 131.788 135.25 132.111 135.035L136.627 132.24C136.95 132.025 136.95 131.702 136.735 131.595L131.896 128.906C131.573 128.691 131.036 128.799 130.713 129.014L126.197 131.81C125.874 131.917 125.767 132.24 126.089 132.455Z" fill="#524C7C"/>
<path d="M119.531 128.799L124.37 131.487C124.692 131.702 125.23 131.594 125.552 131.379L130.069 128.583C130.391 128.368 130.391 128.046 130.176 127.938L125.337 125.25C125.015 125.035 124.477 125.143 124.154 125.358L119.638 128.153C119.208 128.368 119.208 128.691 119.531 128.799Z" fill="#524C7C"/>
<path d="M112.972 125.252L117.811 127.94C118.134 128.155 118.671 128.047 118.994 127.832L123.51 125.037C123.833 124.822 123.833 124.499 123.617 124.391L118.779 121.703C118.456 121.488 117.918 121.596 117.596 121.811L113.08 124.606C112.65 124.822 112.65 125.037 112.972 125.252Z" fill="#524C7C"/>
<path d="M106.414 121.595L111.252 124.284C111.575 124.499 112.113 124.391 112.435 124.176L116.951 121.38C117.274 121.165 117.274 120.843 117.059 120.735L112.22 118.047C111.898 117.832 111.36 117.939 111.037 118.154L106.521 120.95C106.091 121.165 106.091 121.488 106.414 121.595Z" fill="#524C7C"/>
<path d="M99.7475 118.049L104.586 120.737C104.909 120.952 105.447 120.844 105.769 120.629L110.285 117.833C110.608 117.618 110.608 117.296 110.393 117.188L105.554 114.5C105.232 114.285 104.694 114.393 104.371 114.608L99.8551 117.403C99.5325 117.618 99.5325 117.941 99.7475 118.049Z" fill="#524C7C"/>
<path d="M93.187 114.498L98.0258 117.186C98.3484 117.401 98.886 117.293 99.2086 117.078L103.725 114.283C104.047 114.068 104.047 113.745 103.832 113.637L98.9935 110.949C98.6709 110.734 98.1333 110.842 97.8107 111.057L93.2945 113.853C92.9719 113.96 92.8644 114.283 93.187 114.498Z" fill="#524C7C"/>
<path d="M86.6284 110.841L91.4672 113.53C91.7898 113.745 92.3274 113.637 92.65 113.422L97.1662 110.626C97.4888 110.411 97.4888 110.089 97.2737 109.981L92.4349 107.293C92.1123 107.078 91.5747 107.185 91.2521 107.401L86.7359 110.196C86.4133 110.411 86.3058 110.734 86.6284 110.841Z" fill="#524C7C"/>
<path d="M80.0698 107.295L84.9086 109.983C85.2312 110.198 85.7688 110.09 86.0914 109.875L90.6077 107.08C90.9302 106.864 90.9302 106.542 90.7152 106.434L85.8764 103.746C85.5538 103.531 85.0161 103.639 84.6936 103.854L80.1773 106.649C79.7472 106.757 79.7472 107.08 80.0698 107.295Z" fill="#524C7C"/>
<path d="M70.4995 102.025L78.3491 106.326C78.6717 106.541 79.2093 106.434 79.5319 106.219L84.0481 103.423C84.3707 103.208 84.3707 102.885 84.1557 102.778L76.306 98.4766C75.9834 98.2615 75.4458 98.3691 75.1232 98.5841L70.607 101.38C70.2844 101.595 70.1769 101.918 70.4995 102.025Z" fill="#524C7C"/>
<path d="M74.7992 105.036L69.9603 102.348C69.6378 102.133 69.1001 102.24 68.7775 102.455L64.2613 105.251C63.9387 105.466 63.9387 105.789 64.1538 105.896L68.9926 108.584C69.3152 108.799 69.8528 108.692 70.1754 108.477L74.6916 105.681C75.0142 105.574 75.0142 105.251 74.7992 105.036Z" fill="#524C7C"/>
<path d="M81.3617 108.692L76.5228 106.004C76.2003 105.789 75.6626 105.896 75.34 106.111L70.8238 108.907C70.5012 109.122 70.5012 109.445 70.7163 109.552L75.5551 112.241C75.8777 112.456 76.4153 112.348 76.7379 112.133L81.2541 109.337C81.5767 109.122 81.5767 108.8 81.3617 108.692Z" fill="#524C7C"/>
<path d="M87.9164 112.239L83.0775 109.551C82.755 109.336 82.2173 109.443 81.8947 109.658L77.3785 112.454C77.0559 112.669 77.0559 112.992 77.271 113.099L82.1098 115.787C82.4324 116.003 82.97 115.895 83.2926 115.68L87.8088 112.884C88.1314 112.777 88.2389 112.454 87.9164 112.239Z" fill="#524C7C"/>
<path d="M94.4789 115.895L89.6401 113.207C89.3175 112.992 88.7798 113.1 88.4572 113.315L83.941 116.11C83.6184 116.325 83.6184 116.648 83.8335 116.756L88.6723 119.444C88.9949 119.659 89.5325 119.551 89.8551 119.336L94.3713 116.54C94.8015 116.325 94.8015 116.003 94.4789 115.895Z" fill="#524C7C"/>
<path d="M101.037 119.446L96.1986 116.758C95.876 116.543 95.3384 116.65 95.0158 116.865L90.4996 119.661C90.177 119.876 90.177 120.199 90.3921 120.306L95.2309 122.995C95.5535 123.21 96.0911 123.102 96.4137 122.887L100.93 120.091C101.36 119.876 101.36 119.661 101.037 119.446Z" fill="#524C7C"/>
<path d="M107.596 123.098L102.757 120.41C102.435 120.195 101.897 120.303 101.574 120.518L97.0582 123.313C96.7356 123.529 96.7356 123.851 96.9507 123.959L101.789 126.647C102.112 126.862 102.65 126.754 102.972 126.539L107.488 123.744C107.919 123.529 107.919 123.206 107.596 123.098Z" fill="#524C7C"/>
<path d="M114.26 126.649L109.421 123.961C109.099 123.746 108.561 123.853 108.238 124.069L103.722 126.864C103.4 127.079 103.4 127.402 103.615 127.509L108.454 130.198C108.776 130.413 109.314 130.305 109.636 130.09L114.153 127.294C114.475 127.079 114.475 126.864 114.26 126.649Z" fill="#524C7C"/>
<path d="M120.823 130.196L115.984 127.508C115.661 127.293 115.124 127.4 114.801 127.615L110.285 130.411C109.962 130.626 109.962 130.949 110.177 131.056L115.016 133.745C115.339 133.96 115.876 133.852 116.199 133.637L120.715 130.841C121.038 130.734 121.038 130.411 120.823 130.196Z" fill="#524C7C"/>
<path d="M127.381 133.852L122.542 131.164C122.22 130.949 121.682 131.057 121.36 131.272L116.843 134.067C116.521 134.282 116.521 134.605 116.736 134.713L121.575 137.401C121.897 137.616 122.435 137.508 122.757 137.293L127.274 134.498C127.596 134.282 127.704 133.96 127.381 133.852Z" fill="#524C7C"/>
<path d="M133.94 137.403L129.101 134.715C128.778 134.5 128.241 134.607 127.918 134.822L123.402 137.618C123.079 137.833 123.079 138.156 123.294 138.263L128.133 140.952C128.456 141.167 128.993 141.059 129.316 140.844L133.832 138.048C134.262 137.941 134.262 137.618 133.94 137.403Z" fill="#524C7C"/>
<path d="M140.498 141.059L135.66 138.371C135.337 138.156 134.799 138.264 134.477 138.479L129.961 141.274C129.638 141.489 129.638 141.812 129.853 141.92L134.692 144.608C135.014 144.823 135.552 144.715 135.875 144.5L140.391 141.705C140.821 141.489 140.821 141.167 140.498 141.059Z" fill="#524C7C"/>
<path d="M147.057 144.606L142.218 141.918C141.896 141.703 141.358 141.81 141.035 142.026L136.519 144.821C136.197 145.036 136.197 145.359 136.412 145.466L141.25 148.155C141.573 148.37 142.111 148.262 142.433 148.047L146.949 145.251C147.38 145.036 147.38 144.821 147.057 144.606Z" fill="#524C7C"/>
<path d="M153.729 148.262L148.89 145.574C148.567 145.359 148.03 145.467 147.707 145.682L143.191 148.478C142.868 148.693 142.868 149.015 143.083 149.123L147.922 151.811C148.245 152.026 148.783 151.918 149.105 151.703L153.621 148.908C153.944 148.693 153.944 148.37 153.729 148.262Z" fill="#524C7C"/>
<path d="M163.189 153.422L155.339 149.121C155.017 148.906 154.479 149.014 154.156 149.229L149.64 152.024C149.318 152.239 149.318 152.562 149.533 152.67L157.382 156.971C157.705 157.186 158.243 157.078 158.565 156.863L163.081 154.067C163.511 153.852 163.511 153.637 163.189 153.422Z" fill="#524C7C"/>
<path d="M73.1867 111.597L63.6166 106.328C63.294 106.113 62.7564 106.221 62.4338 106.436L57.9176 109.231C57.595 109.446 57.595 109.769 57.81 109.877L67.3801 115.146C67.7027 115.361 68.2404 115.253 68.5629 115.038L73.0791 112.242C73.4017 112.027 73.4017 111.705 73.1867 111.597Z" fill="#524C7C"/>
<path d="M156.847 157.296L147.277 152.027C146.954 151.812 146.417 151.92 146.094 152.135L141.578 154.931C141.255 155.146 141.255 155.468 141.47 155.576L151.04 160.845C151.363 161.06 151.901 160.952 152.223 160.737L156.739 157.941C157.062 157.726 157.062 157.404 156.847 157.296Z" fill="#524C7C"/>
<path d="M79.7484 115.145L74.9096 112.457C74.587 112.242 74.0493 112.35 73.7267 112.565L69.2105 115.36C68.888 115.575 68.8879 115.898 69.103 116.006L73.9418 118.694C74.2644 118.909 74.8021 118.801 75.1246 118.586L79.6408 115.79C79.9634 115.575 79.9634 115.36 79.7484 115.145Z" fill="#524C7C"/>
<path d="M86.307 118.692L81.4682 116.004C81.1456 115.789 80.6079 115.896 80.2853 116.111L75.7691 118.907C75.4465 119.122 75.4466 119.445 75.6616 119.552L80.5004 122.241C80.823 122.456 81.3606 122.348 81.6832 122.133L86.1994 119.337C86.522 119.23 86.6296 118.907 86.307 118.692Z" fill="#524C7C"/>
<path d="M92.8656 122.348L88.0268 119.66C87.7042 119.445 87.1665 119.553 86.844 119.768L82.3277 122.563C82.0051 122.779 82.0051 123.101 82.2202 123.209L87.059 125.897C87.3816 126.112 87.9192 126.004 88.2418 125.789L92.7581 122.994C93.0806 122.779 93.1882 122.456 92.8656 122.348Z" fill="#524C7C"/>
<path d="M99.4242 125.899L94.5853 123.211C94.2628 122.996 93.7251 123.103 93.4026 123.319L88.8863 126.114C88.5637 126.329 88.5637 126.652 88.7788 126.759L93.6176 129.448C93.9402 129.663 94.4778 129.555 94.8004 129.34L99.3167 126.544C99.7468 126.437 99.7467 126.114 99.4242 125.899Z" fill="#524C7C"/>
<path d="M105.983 129.555L101.144 126.867C100.821 126.652 100.284 126.76 99.9611 126.975L95.4449 129.771C95.1223 129.986 95.1223 130.308 95.3374 130.416L100.176 133.104C100.499 133.319 101.036 133.211 101.359 132.996L105.875 130.201C106.305 129.986 106.305 129.663 105.983 129.555Z" fill="#524C7C"/>
<path d="M112.651 133.102L107.812 130.414C107.489 130.199 106.952 130.307 106.629 130.522L102.113 133.317C101.79 133.532 101.79 133.855 102.005 133.963L106.844 136.651C107.167 136.866 107.704 136.758 108.027 136.543L112.543 133.748C112.866 133.532 112.866 133.317 112.651 133.102Z" fill="#524C7C"/>
<path d="M119.209 136.759L114.371 134.07C114.048 133.855 113.51 133.963 113.188 134.178L108.671 136.974C108.349 137.189 108.349 137.511 108.564 137.619L113.403 140.307C113.725 140.522 114.263 140.415 114.586 140.2L119.102 137.404C119.424 137.189 119.424 136.866 119.209 136.759Z" fill="#524C7C"/>
<path d="M125.768 140.305L120.929 137.617C120.607 137.402 120.069 137.51 119.746 137.725L115.23 140.521C114.907 140.736 114.907 141.058 115.123 141.166L119.961 143.854C120.284 144.069 120.822 143.961 121.144 143.746L125.66 140.951C125.983 140.736 126.09 140.521 125.768 140.305Z" fill="#524C7C"/>
<path d="M132.33 143.856L127.492 141.168C127.169 140.953 126.631 141.06 126.309 141.276L121.793 144.071C121.47 144.286 121.47 144.609 121.685 144.716L126.524 147.405C126.846 147.62 127.384 147.512 127.707 147.297L132.223 144.501C132.545 144.394 132.653 144.071 132.33 143.856Z" fill="#524C7C"/>
<path d="M138.885 147.512L134.046 144.824C133.724 144.609 133.186 144.717 132.864 144.932L128.347 147.728C128.025 147.943 128.025 148.265 128.24 148.373L133.079 151.061C133.401 151.276 133.939 151.168 134.261 150.953L138.778 148.158C139.208 147.943 139.208 147.62 138.885 147.512Z" fill="#524C7C"/>
<path d="M145.448 151.059L140.609 148.371C140.286 148.156 139.749 148.264 139.426 148.479L134.91 151.274C134.587 151.489 134.587 151.812 134.802 151.92L139.641 154.608C139.964 154.823 140.501 154.715 140.824 154.5L145.34 151.705C145.77 151.597 145.77 151.274 145.448 151.059Z" fill="#524C7C"/>
<path d="M70.067 117.189L57.1635 110.199C56.8409 109.984 56.3032 110.092 55.9806 110.307L51.4644 113.103C51.1419 113.318 51.1419 113.64 51.3569 113.748L64.2604 120.737C64.583 120.952 65.1206 120.845 65.4432 120.63L69.9594 117.834C70.282 117.619 70.282 117.404 70.067 117.189Z" fill="#524C7C"/>
<path d="M76.6234 120.845L71.7846 118.156C71.462 117.941 70.9243 118.049 70.6018 118.264L66.0855 121.06C65.7629 121.275 65.763 121.597 65.978 121.705L70.8168 124.393C71.1394 124.608 71.677 124.5 71.9996 124.285L76.5159 121.49C76.8384 121.275 76.946 120.952 76.6234 120.845Z" fill="#524C7C"/>
<path d="M83.1859 124.391L78.3471 121.703C78.0245 121.488 77.4869 121.596 77.1643 121.811L72.648 124.606C72.3255 124.822 72.3254 125.144 72.5405 125.252L77.3793 127.94C77.7019 128.155 78.2396 128.047 78.5621 127.832L83.0784 125.037C83.5085 124.822 83.5085 124.606 83.1859 124.391Z" fill="#524C7C"/>
<path d="M89.7445 128.048L84.9057 125.359C84.5831 125.144 84.0455 125.252 83.7229 125.467L79.2066 128.263C78.884 128.478 78.884 128.8 79.0991 128.908L83.9379 131.596C84.2605 131.811 84.7981 131.704 85.1207 131.489L89.637 128.693C90.0671 128.478 90.0671 128.155 89.7445 128.048Z" fill="#524C7C"/>
<path d="M96.3031 131.598L91.4643 128.91C91.1417 128.695 90.604 128.803 90.2814 129.018L85.7652 131.813C85.4426 132.029 85.4426 132.351 85.6577 132.459L90.4965 135.147C90.8191 135.362 91.3567 135.254 91.6793 135.039L96.1955 132.244C96.6256 132.029 96.6256 131.706 96.3031 131.598Z" fill="#524C7C"/>
<path d="M102.971 135.145L98.1322 132.457C97.8096 132.242 97.272 132.35 96.9494 132.565L92.4332 135.36C92.1106 135.575 92.1106 135.898 92.3257 136.006L97.1645 138.694C97.4871 138.909 98.0247 138.801 98.3473 138.586L102.864 135.79C103.186 135.683 103.186 135.36 102.971 135.145Z" fill="#524C7C"/>
<path d="M109.53 138.802L104.691 136.113C104.368 135.898 103.831 136.006 103.508 136.221L98.9918 139.017C98.6692 139.232 98.6692 139.554 98.8843 139.662L103.723 142.35C104.046 142.565 104.583 142.458 104.906 142.242L109.422 139.447C109.745 139.232 109.745 138.909 109.53 138.802Z" fill="#524C7C"/>
<path d="M116.088 142.352L111.249 139.664C110.927 139.449 110.389 139.557 110.067 139.772L105.55 142.567C105.228 142.782 105.228 143.105 105.443 143.213L110.282 145.901C110.604 146.116 111.142 146.008 111.464 145.793L115.981 142.997C116.303 142.782 116.411 142.567 116.088 142.352Z" fill="#524C7C"/>
<path d="M122.651 146.009L117.812 143.32C117.489 143.105 116.952 143.213 116.629 143.428L112.113 146.224C111.79 146.439 111.79 146.761 112.005 146.869L116.844 149.557C117.167 149.772 117.704 149.665 118.027 149.449L122.543 146.654C122.973 146.439 122.973 146.116 122.651 146.009Z" fill="#524C7C"/>
<path d="M129.209 149.555L124.371 146.867C124.048 146.652 123.51 146.76 123.188 146.975L118.671 149.771C118.349 149.986 118.349 150.308 118.564 150.416L123.403 153.104C123.725 153.319 124.263 153.211 124.586 152.996L129.102 150.201C129.532 149.986 129.532 149.771 129.209 149.555Z" fill="#524C7C"/>
<path d="M135.768 153.212L130.929 150.523C130.606 150.308 130.069 150.416 129.746 150.631L125.23 153.427C124.907 153.642 124.907 153.964 125.123 154.072L129.961 156.76C130.284 156.975 130.822 156.868 131.144 156.653L135.66 153.857C136.09 153.642 136.09 153.319 135.768 153.212Z" fill="#524C7C"/>
<path d="M150.501 161.167L137.597 154.07C137.274 153.855 136.737 153.963 136.414 154.178L131.898 156.974C131.575 157.189 131.575 157.511 131.791 157.619L144.694 164.716C145.017 164.931 145.554 164.823 145.877 164.608L150.393 161.812C150.716 161.597 150.716 161.275 150.501 161.167Z" fill="#524C7C"/>
<path d="M116.304 149.876L85.1205 132.887C84.7979 132.672 84.2603 132.779 83.9377 132.994L79.4215 135.79C79.0989 136.005 79.0989 136.328 79.3139 136.435L110.497 153.425C110.82 153.64 111.358 153.532 111.68 153.317L116.196 150.522C116.519 150.306 116.627 149.984 116.304 149.876Z" fill="#524C7C"/>
<path d="M75.4437 127.512L70.6049 124.824C70.2823 124.609 69.7446 124.717 69.4221 124.932L64.9059 127.728C64.5833 127.943 64.5833 128.265 64.7983 128.373L69.6371 131.061C69.9597 131.276 70.4974 131.168 70.82 130.953L75.3362 128.158C75.6587 127.943 75.6587 127.62 75.4437 127.512Z" fill="#524C7C"/>
<path d="M83.4022 131.921L77.058 128.481C76.7354 128.265 76.1978 128.373 75.8752 128.588L71.359 131.384C71.0364 131.599 71.0364 131.921 71.2514 132.029L77.5956 135.47C77.9182 135.685 78.4559 135.577 78.7785 135.362L83.2947 132.567C83.7248 132.352 83.7248 132.029 83.4022 131.921Z" fill="#524C7C"/>
<path d="M125.982 155.145L130.821 157.833C131.143 158.048 131.036 158.263 130.713 158.478L126.197 161.274C125.874 161.489 125.337 161.489 125.014 161.382L120.175 158.693C119.853 158.478 119.96 158.263 120.283 158.048L124.799 155.252C125.229 155.037 125.767 155.037 125.982 155.145Z" fill="#524C7C"/>
<path d="M118.029 150.739L124.373 154.18C124.695 154.395 124.588 154.61 124.265 154.825L119.749 157.62C119.427 157.836 118.889 157.836 118.566 157.728L112.222 154.287C111.9 154.072 112.007 153.857 112.33 153.642L116.846 150.846C117.168 150.631 117.706 150.631 118.029 150.739Z" fill="#524C7C"/>
<path d="M55.6585 116.759L50.8197 114.07C50.4971 113.855 49.9595 113.963 49.6369 114.178L45.1207 116.974C44.7981 117.189 44.7981 117.511 45.0132 117.619L49.852 120.307C50.1746 120.522 50.7122 120.415 51.0348 120.2L55.551 117.404C55.9811 117.189 55.9811 116.866 55.6585 116.759Z" fill="#524C7C"/>
<path d="M62.2211 120.305L57.3823 117.617C57.0597 117.402 56.522 117.51 56.1994 117.725L51.6832 120.52C51.3606 120.736 51.3606 121.058 51.5757 121.166L56.4145 123.854C56.7371 124.069 57.2747 123.961 57.5973 123.746L62.1135 120.951C62.5436 120.736 62.5437 120.413 62.2211 120.305Z" fill="#524C7C"/>
<path d="M68.7757 123.856L63.9369 121.168C63.6143 120.953 63.0767 121.06 62.7541 121.276L58.2379 124.071C57.9153 124.286 57.9153 124.609 58.1303 124.716L62.9692 127.405C63.2917 127.62 63.8294 127.512 64.152 127.297L68.6682 124.501C69.0983 124.394 69.0983 124.071 68.7757 123.856Z" fill="#524C7C"/>
<path d="M144.048 165.037L132.542 158.801C132.22 158.586 131.682 158.693 131.36 158.908L126.843 161.704C126.521 161.919 126.521 162.242 126.736 162.349L138.349 168.478C138.672 168.693 139.209 168.586 139.532 168.371L144.048 165.575C144.371 165.468 144.371 165.145 144.048 165.037Z" fill="#524C7C"/>
<path d="M165.339 146.541L170.178 149.229C170.501 149.445 171.038 149.337 171.361 149.122L173.619 147.724C173.942 147.509 173.942 147.186 173.727 147.079L168.888 144.391C168.565 144.176 168.028 144.283 167.705 144.498L165.447 145.896C165.124 146.111 165.017 146.326 165.339 146.541Z" fill="#524C7C"/>
<path d="M158.781 142.885L163.62 145.573C163.942 145.788 164.48 145.681 164.802 145.466L167.06 144.068C167.383 143.853 167.383 143.53 167.168 143.423L162.329 140.734C162.007 140.519 161.469 140.627 161.146 140.842L158.888 142.24C158.458 142.455 158.458 142.777 158.781 142.885Z" fill="#524C7C"/>
<path d="M152.222 139.338L157.061 142.026C157.384 142.241 157.921 142.134 158.244 141.919L160.502 140.521C160.824 140.306 160.824 139.983 160.609 139.876L155.771 137.188C155.448 136.972 154.91 137.08 154.588 137.295L152.33 138.693C151.9 138.908 151.9 139.123 152.222 139.338Z" fill="#524C7C"/>
<path d="M145.664 135.791L150.502 138.479C150.825 138.695 151.363 138.587 151.685 138.372L153.943 136.974C154.266 136.759 154.266 136.436 154.051 136.329L149.212 133.641C148.889 133.426 148.352 133.533 148.029 133.748L145.771 135.146C145.341 135.254 145.341 135.576 145.664 135.791Z" fill="#524C7C"/>
<path d="M138.994 132.135L143.832 134.823C144.155 135.038 144.693 134.931 145.015 134.716L147.273 133.318C147.596 133.103 147.596 132.78 147.381 132.673L142.542 129.984C142.22 129.769 141.682 129.877 141.359 130.092L139.101 131.49C138.779 131.705 138.779 132.027 138.994 132.135Z" fill="#524C7C"/>
<path d="M132.437 128.584L137.276 131.272C137.598 131.487 138.136 131.38 138.459 131.165L140.717 129.767C141.039 129.552 141.039 129.229 140.824 129.122L135.985 126.434C135.663 126.219 135.125 126.326 134.803 126.541L132.544 127.939C132.222 128.047 132.114 128.369 132.437 128.584Z" fill="#524C7C"/>
<path d="M125.878 124.928L130.717 127.616C131.04 127.831 131.577 127.724 131.9 127.509L134.158 126.111C134.481 125.896 134.481 125.573 134.266 125.466L129.427 122.777C129.104 122.562 128.567 122.67 128.244 122.885L125.986 124.283C125.663 124.498 125.556 124.82 125.878 124.928Z" fill="#524C7C"/>
<path d="M119.316 121.381L124.155 124.069C124.477 124.284 125.015 124.177 125.338 123.962L127.596 122.564C127.918 122.349 127.918 122.026 127.703 121.919L122.864 119.231C122.542 119.015 122.004 119.123 121.682 119.338L119.423 120.736C118.993 120.951 118.993 121.166 119.316 121.381Z" fill="#524C7C"/>
<path d="M112.757 117.725L117.596 120.413C117.919 120.628 118.456 120.521 118.779 120.306L121.037 118.908C121.36 118.693 121.36 118.37 121.145 118.262L116.306 115.574C115.983 115.359 115.446 115.467 115.123 115.682L112.865 117.08C112.435 117.295 112.435 117.617 112.757 117.725Z" fill="#524C7C"/>
<path d="M106.199 114.178L111.037 116.866C111.36 117.081 111.898 116.974 112.22 116.759L114.478 115.361C114.801 115.146 114.801 114.823 114.586 114.716L109.747 112.027C109.425 111.812 108.887 111.92 108.564 112.135L106.306 113.533C105.876 113.748 105.876 113.963 106.199 114.178Z" fill="#524C7C"/>
<path d="M99.5327 110.627L104.371 113.315C104.694 113.53 105.232 113.423 105.554 113.208L107.812 111.81C108.135 111.595 108.135 111.272 107.92 111.165L103.081 108.477C102.759 108.262 102.221 108.369 101.898 108.584L99.6402 109.982C99.3176 110.09 99.3176 110.412 99.5327 110.627Z" fill="#524C7C"/>
<path d="M92.9721 106.971L97.8109 109.659C98.1335 109.874 98.6712 109.767 98.9938 109.552L101.252 108.154C101.574 107.939 101.574 107.616 101.359 107.509L96.5206 104.82C96.198 104.605 95.6604 104.713 95.3378 104.928L93.0797 106.326C92.7571 106.541 92.6495 106.863 92.9721 106.971Z" fill="#524C7C"/>
<path d="M86.4135 103.424L91.2523 106.112C91.5749 106.327 92.1126 106.22 92.4351 106.005L94.6933 104.607C95.0158 104.392 95.0158 104.069 94.8008 103.962L89.962 101.273C89.6394 101.058 89.1017 101.166 88.7792 101.381L86.521 102.779C86.1985 102.886 86.0909 103.209 86.4135 103.424Z" fill="#524C7C"/>
<path d="M76.8432 98.1545L84.6929 102.456C85.0154 102.671 85.5531 102.563 85.8757 102.348L88.1338 100.95C88.4563 100.735 88.4564 100.413 88.2413 100.305L80.3917 96.0039C80.0691 95.7889 79.5315 95.8964 79.2089 96.1115L76.9507 97.5093C76.6282 97.7244 76.5206 98.047 76.8432 98.1545Z" fill="#524C7C"/>
<path d="M184.185 141.715L184.185 141.707L182.545 69.6337L182.545 69.6325C182.49 67.5524 182.106 65.9828 181.367 64.7323C180.627 63.4796 179.55 62.581 178.172 61.8092L178.168 61.8072L80.7187 8.77003C80.7182 8.76978 80.7178 8.76952 80.7173 8.76927C80.1708 8.46611 79.5626 8.39987 79.0451 8.4476C79.2643 8.20576 79.4989 7.96255 79.7161 7.76786C79.9462 7.56155 80.117 7.44673 80.2116 7.41427C80.4797 7.32221 80.8286 7.32837 81.2499 7.43721C81.6679 7.54519 82.1274 7.74662 82.5959 8.00692L82.5959 8.00693L82.5986 8.00838L179.915 60.9804C179.915 60.9806 179.916 60.9809 179.916 60.9812C181.226 61.7147 182.192 62.5364 182.849 63.6488C183.508 64.7639 183.877 66.2049 183.93 68.2107C183.93 68.2109 183.93 68.211 183.93 68.2112L185.65 140.677C185.65 140.678 185.65 140.679 185.65 140.681C185.65 141.619 185.528 142.274 185.328 142.758C185.131 143.233 184.851 143.562 184.499 143.838C184.497 143.839 184.496 143.84 184.494 143.842L184.21 144.049C184.214 143.983 184.217 143.918 184.219 143.852C184.228 143.563 184.219 143.236 184.208 142.883L184.206 142.818C184.196 142.479 184.185 142.113 184.185 141.715Z" fill="white" stroke="#3C3C3C" stroke-width="0.7"/>
<path d="M181.978 148.391L182.039 150.484V150.485V150.486V150.486V150.487V150.488V150.488V150.489V150.49V150.49V150.491V150.491V150.492V150.493V150.493V150.494V150.495V150.495V150.496V150.496V150.497V150.498V150.498V150.499V150.5V150.5V150.501V150.501V150.502V150.503V150.503V150.504V150.505V150.505V150.506V150.507V150.507V150.508V150.508V150.509V150.51V150.51V150.511V150.512V150.512V150.513V150.513V150.514V150.515V150.515V150.516V150.517V150.517V150.518V150.519V150.519V150.52V150.52V150.521V150.522V150.522V150.523V150.524V150.524V150.525V150.525V150.526V150.527V150.527V150.528V150.529V150.529V150.53V150.53V150.531V150.532V150.532V150.533V150.534V150.534V150.535V150.536V150.536V150.537V150.537V150.538V150.539V150.539V150.54V150.541V150.541V150.542V150.542V150.543V150.544V150.544V150.545V150.546V150.546V150.547V150.547V150.548V150.549V150.549V150.55V150.551V150.551V150.552V150.553V150.553V150.554V150.554V150.555V150.556V150.556V150.557V150.558V150.558V150.559V150.559V150.56V150.561V150.561V150.562V150.563V150.563V150.564V150.564V150.565V150.566V150.566V150.567V150.568V150.568V150.569V150.57V150.57V150.571V150.571V150.572V150.573V150.573V150.574V150.575V150.575V150.576V150.576V150.577V150.578V150.578V150.579V150.58V150.58V150.581V150.582V150.582V150.583V150.583V150.584V150.585V150.585V150.586V150.587V150.587V150.588V150.588V150.589V150.59V150.59V150.591V150.592V150.592V150.593V150.593V150.594V150.595V150.595V150.596V150.597V150.597V150.598V150.599V150.599V150.6V150.6V150.601V150.602V150.602V150.603V150.604V150.604V150.605V150.605V150.606V150.607V150.607V150.608V150.609V150.609V150.61V150.61V150.611V150.612V150.612V150.613V150.614V150.614V150.615V150.616V150.616V150.617V150.617V150.618V150.619V150.619V150.62V150.621V150.621V150.622V150.622V150.623V150.624V150.624V150.625V150.626V150.626V150.627V150.627V150.628V150.629V150.629V150.63V150.631V150.631V150.632V150.633V150.633V150.634V150.634V150.635V150.636V150.636V150.637V150.638V150.638V150.639V150.639V150.64V150.641V150.641V150.642V150.643V150.643V150.644V150.645V150.645V150.646V150.646V150.647V150.648V150.648V150.649V150.65V150.65V150.651V150.651V150.652V150.653V150.653V150.654V150.655V150.655V150.656V150.656V150.657V150.658V150.658V150.659V150.66V150.66V150.661V150.662V150.662V150.663V150.663V150.664V150.665V150.665V150.666V150.667V150.667V150.668V150.668V150.669V150.67V150.67V150.671V150.672V150.672V150.673V150.673V150.674V150.675V150.675V150.676V150.677V150.677V150.678V150.679V150.679V150.68V150.68V150.681V150.682V150.682V150.683V150.684V150.684V150.685V150.685V150.686V150.687V150.687V150.688V150.689V150.689V150.69V150.69V150.691V150.692V150.692V150.693V150.694V150.694V150.695V150.696V150.696V150.697V150.697V150.698V150.699V150.699V150.7V150.701V150.701V150.702V150.702V150.703V150.704V150.704V150.705V150.706V150.706V150.707V150.708V150.708V150.709V150.709V150.71V150.711V150.711V150.712V150.713V150.713V150.714V150.714V150.715V150.716V150.716V150.717V150.718V150.718V150.719V150.719V150.72V150.721V150.721V150.722V150.723V150.723V150.724V150.725V150.725V150.726V150.726V150.727V150.728V150.728V150.729V150.73V150.73V150.731V150.731V150.732V150.733V150.733V150.734V150.735V150.735V150.736V150.736V150.737V150.738V150.738V150.739V150.74V150.74V150.741V150.742V150.742V150.743V150.743V150.744V150.745V150.745V150.746V150.747V150.747V150.748V150.748V150.749V150.75V150.75V150.751V150.752V150.752V150.753V150.753V150.754V150.755V150.755V150.756V150.757V150.757V150.758V150.759V150.759V150.76V150.76V150.761V150.762V150.762V150.763V150.764V150.764V150.765V150.765V150.766V150.767V150.767V150.768V150.769V150.769V150.77V150.771V150.771V150.772V150.772V150.773V150.774V150.774V150.775V150.776V150.776V150.777V150.777V150.778V150.779V150.779V150.78V150.781V150.781V150.782V150.782V150.783V150.784V150.784V150.785V150.786V150.786V150.787V150.788V150.788V150.789V150.789V150.79V150.791V150.791V150.792V150.793V150.793V150.794V150.794V150.795V150.796V150.796V150.797V150.798V150.798V150.799V150.799V150.8V150.801V150.801V150.802V150.803V150.803V150.804V150.805V150.805V150.806V150.806V150.807C182.039 151.197 181.888 151.612 181.578 152.059C181.27 152.501 180.82 152.957 180.251 153.424L118.341 191.151C118.34 191.151 118.339 191.152 118.338 191.152C117.102 191.872 115.572 192.289 114.074 192.381C112.572 192.472 111.136 192.235 110.08 191.682C110.079 191.682 110.078 191.681 110.077 191.681L12.9977 138.572C12.0764 137.954 11.6606 137.297 11.6606 136.721H11.6608L11.6605 136.711L11.5956 134.309C11.8566 134.558 12.1764 134.782 12.5385 134.984L12.5385 134.984L12.5404 134.985L109.526 188.101C109.527 188.101 109.528 188.102 109.529 188.103C110.737 188.792 112.343 189.036 113.944 188.926C115.55 188.815 117.192 188.345 118.484 187.558L118.484 187.558L180.421 149.816L180.427 149.812L180.433 149.808C181.097 149.365 181.612 148.885 181.978 148.391Z" fill="#FFE604" stroke="#3C3C3C" stroke-width="0.7"/>
<path d="M38.7356 114.885L143.113 171.993L143.125 172.068L118.062 187.319C118.061 187.319 118.06 187.32 118.059 187.32C116.823 188.04 115.293 188.457 113.795 188.549C112.293 188.64 110.857 188.403 109.801 187.85C109.8 187.85 109.799 187.849 109.798 187.849L12.707 134.733C12.7067 134.733 12.7065 134.733 12.7062 134.733C11.8083 134.234 11.3971 133.599 11.3539 132.972C11.3111 132.351 11.6222 131.632 12.3964 130.937C12.5709 130.87 12.7155 130.78 12.8453 130.689C12.9179 130.638 12.9755 130.595 13.0309 130.554C13.1025 130.501 13.1706 130.45 13.2629 130.388L38.7356 114.885Z" fill="white" stroke="#3C3C3C" stroke-width="0.7"/>
<path d="M39.044 114.701L143.605 171.841L180.1 149.581L180.1 149.58C181.284 148.86 181.858 148.001 181.937 147.249C182.013 146.522 181.636 145.782 180.652 145.24L39.044 114.701ZM39.044 114.701L75.2951 92.6536C75.296 92.6531 75.2969 92.6526 75.2978 92.652C76.5333 91.932 78.0634 91.515 79.5621 91.4238C81.0636 91.3324 82.4995 91.5698 83.5559 92.1223C83.5568 92.1227 83.5577 92.1232 83.5586 92.1237L180.651 145.24L39.044 114.701Z" fill="white" stroke="#3C3C3C" stroke-width="0.7"/>
<path d="M54.0426 156.869L69.8494 165.578C70.2795 165.794 70.2795 166.224 69.8494 166.439L52.4297 156.976C52.8598 156.654 53.6125 156.654 54.0426 156.869Z" fill="#524C7C"/>
<path d="M89.957 96.653L172.109 141.493L173.185 140.847L91.1399 96.0078L89.957 96.653Z" fill="#403F47"/>
<path d="M178.322 66.9754L178.323 66.9836L179.935 135.149C179.935 135.15 179.935 135.151 179.935 135.152C179.933 135.441 179.661 135.57 179.479 135.483L84.1073 83.3353L84.1074 83.3351L84.0959 83.3293C84.0159 83.2893 83.9668 83.2066 83.9669 83.1047L83.9667 83.0964L82.3539 14.9313C82.3539 14.9301 82.3539 14.9289 82.3539 14.9277C82.3561 14.6393 82.6279 14.51 82.8106 14.5969L178.182 66.7448L178.182 66.745L178.193 66.7508C178.273 66.7908 178.323 66.8734 178.322 66.9754Z" fill="white" stroke="#3C3C3C" stroke-width="0.7"/>
<path d="M104.212 155.265L104.199 155.272L104.186 155.28L91.3473 163.131L56.6803 144.27L69.1694 136.632C69.4879 136.451 69.9406 136.328 70.4207 136.304C70.9006 136.279 71.3718 136.354 71.7328 136.533L104.198 154.271C104.513 154.452 104.618 154.657 104.624 154.788C104.629 154.897 104.568 155.087 104.212 155.265Z" stroke="#3C3C3C" stroke-width="0.7"/>
<path d="M65.6007 159.754L73.4117 154.909L90.1209 164.089L83.5464 168.073C83.2279 168.254 82.775 168.377 82.2946 168.402C81.8148 168.427 81.3436 168.351 80.9826 168.172L65.6007 159.754Z" stroke="#3C3C3C" stroke-width="0.7"/>
<path d="M48.6097 149.333L48.6224 149.327L48.6346 149.319L55.5591 145.123L72.1619 154.197L64.3584 158.939L48.6242 150.327C48.3085 150.146 48.2039 149.942 48.198 149.81C48.193 149.701 48.2539 149.511 48.6097 149.333Z" stroke="#3C3C3C" stroke-width="0.7"/>
<path d="M158.996 150.416L163.834 153.104C164.157 153.319 164.695 153.211 165.017 152.996L169.533 150.201C169.856 149.986 169.856 149.663 169.641 149.555L164.802 146.867C164.48 146.652 163.942 146.76 163.619 146.975L159.103 149.771C158.673 149.986 158.673 150.201 158.996 150.416Z" fill="#403F47"/>
<path d="M152.437 146.759L157.276 149.448C157.598 149.663 158.136 149.555 158.459 149.34L162.975 146.544C163.297 146.329 163.297 146.007 163.082 145.899L158.244 143.211C157.921 142.996 157.383 143.103 157.061 143.319L152.545 146.114C152.114 146.329 152.114 146.652 152.437 146.759Z" fill="#403F47"/>
<path d="M145.874 143.213L150.713 145.901C151.036 146.116 151.574 146.008 151.896 145.793L156.412 142.997C156.735 142.782 156.735 142.46 156.52 142.352L151.681 139.664C151.358 139.449 150.821 139.557 150.498 139.772L145.982 142.567C145.552 142.782 145.552 143.105 145.874 143.213Z" fill="#403F47"/>
<path d="M139.208 139.666L144.047 142.354C144.37 142.569 144.908 142.461 145.23 142.246L149.746 139.451C150.069 139.236 150.069 138.913 149.854 138.805L145.015 136.117C144.692 135.902 144.155 136.01 143.832 136.225L139.316 139.021C138.993 139.128 138.993 139.451 139.208 139.666Z" fill="#403F47"/>
<path d="M132.652 136.009L137.491 138.698C137.813 138.913 138.351 138.805 138.673 138.59L143.19 135.794C143.512 135.579 143.512 135.257 143.297 135.149L138.458 132.461C138.136 132.246 137.598 132.353 137.276 132.569L132.759 135.364C132.437 135.579 132.329 135.902 132.652 136.009Z" fill="#403F47"/>
<path d="M126.089 132.459L130.928 135.147C131.251 135.362 131.788 135.254 132.111 135.039L136.627 132.244C136.95 132.029 136.95 131.706 136.735 131.598L131.896 128.91C131.573 128.695 131.036 128.803 130.713 129.018L126.197 131.813C125.874 131.921 125.767 132.244 126.089 132.459Z" fill="#403F47"/>
<path d="M119.531 128.802L124.37 131.491C124.692 131.706 125.23 131.598 125.552 131.383L130.069 128.587C130.391 128.372 130.391 128.05 130.176 127.942L125.337 125.254C125.015 125.039 124.477 125.146 124.154 125.361L119.638 128.157C119.208 128.372 119.208 128.695 119.531 128.802Z" fill="#403F47"/>
<path d="M112.972 125.256L117.811 127.944C118.134 128.159 118.671 128.051 118.994 127.836L123.51 125.04C123.833 124.825 123.833 124.503 123.617 124.395L118.779 121.707C118.456 121.492 117.918 121.6 117.596 121.815L113.08 124.61C112.65 124.825 112.65 125.04 112.972 125.256Z" fill="#403F47"/>
<path d="M106.414 121.599L111.252 124.287C111.575 124.503 112.113 124.395 112.435 124.18L116.951 121.384C117.274 121.169 117.274 120.847 117.059 120.739L112.22 118.051C111.898 117.836 111.36 117.943 111.037 118.158L106.521 120.954C106.091 121.169 106.091 121.492 106.414 121.599Z" fill="#403F47"/>
<path d="M99.7475 118.049L104.586 120.737C104.909 120.952 105.447 120.844 105.769 120.629L110.285 117.833C110.608 117.618 110.608 117.296 110.393 117.188L105.554 114.5C105.232 114.285 104.694 114.393 104.371 114.608L99.8551 117.403C99.5325 117.618 99.5325 117.941 99.7475 118.049Z" fill="#403F47"/>
<path d="M93.187 114.502L98.0258 117.19C98.3484 117.405 98.886 117.297 99.2086 117.082L103.725 114.287C104.047 114.072 104.047 113.749 103.832 113.641L98.9935 110.953C98.6709 110.738 98.1333 110.846 97.8107 111.061L93.2945 113.856C92.9719 113.964 92.8644 114.287 93.187 114.502Z" fill="#403F47"/>
<path d="M86.6284 110.845L91.4672 113.534C91.7898 113.749 92.3274 113.641 92.65 113.426L97.1662 110.63C97.4888 110.415 97.4888 110.093 97.2737 109.985L92.4349 107.297C92.1123 107.082 91.5747 107.189 91.2521 107.404L86.7359 110.2C86.4133 110.415 86.3058 110.738 86.6284 110.845Z" fill="#403F47"/>
<path d="M80.0698 107.299L84.9086 109.987C85.2312 110.202 85.7688 110.094 86.0914 109.879L90.6077 107.083C90.9302 106.868 90.9302 106.546 90.7152 106.438L85.8764 103.75C85.5538 103.535 85.0161 103.643 84.6936 103.858L80.1773 106.653C79.7472 106.761 79.7472 107.083 80.0698 107.299Z" fill="#403F47"/>
<path d="M70.4995 102.029L78.3491 106.33C78.6717 106.545 79.2093 106.438 79.5319 106.223L84.0481 103.427C84.3707 103.212 84.3707 102.889 84.1557 102.782L76.306 98.4805C75.9834 98.2654 75.4458 98.373 75.1232 98.588L70.607 101.384C70.2844 101.599 70.1769 101.921 70.4995 102.029Z" fill="#403F47"/>
<path d="M74.7992 105.04L69.9603 102.352C69.6378 102.137 69.1001 102.244 68.7775 102.459L64.2613 105.255C63.9387 105.47 63.9387 105.793 64.1538 105.9L68.9926 108.588C69.3152 108.803 69.8528 108.696 70.1754 108.481L74.6916 105.685C75.0142 105.577 75.0142 105.255 74.7992 105.04Z" fill="#403F47"/>
<path d="M81.3617 108.696L76.5228 106.008C76.2003 105.793 75.6626 105.9 75.34 106.115L70.8238 108.911C70.5012 109.126 70.5012 109.449 70.7163 109.556L75.5551 112.245C75.8777 112.46 76.4153 112.352 76.7379 112.137L81.2541 109.341C81.5767 109.126 81.5767 108.804 81.3617 108.696Z" fill="#403F47"/>
<path d="M87.9164 112.243L83.0775 109.555C82.755 109.34 82.2173 109.447 81.8947 109.662L77.3785 112.458C77.0559 112.673 77.0559 112.996 77.271 113.103L82.1098 115.791C82.4324 116.006 82.97 115.899 83.2926 115.684L87.8088 112.888C88.1314 112.781 88.2389 112.458 87.9164 112.243Z" fill="#403F47"/>
<path d="M94.4789 115.899L89.6401 113.211C89.3175 112.996 88.7798 113.103 88.4572 113.319L83.941 116.114C83.6184 116.329 83.6184 116.652 83.8335 116.759L88.6723 119.448C88.9949 119.663 89.5325 119.555 89.8551 119.34L94.3713 116.544C94.8015 116.329 94.8015 116.007 94.4789 115.899Z" fill="#403F47"/>
<path d="M101.037 119.45L96.1986 116.762C95.876 116.547 95.3384 116.654 95.0158 116.869L90.4996 119.665C90.177 119.88 90.177 120.203 90.3921 120.31L95.2309 122.998C95.5535 123.214 96.0911 123.106 96.4137 122.891L100.93 120.095C101.36 119.88 101.36 119.665 101.037 119.45Z" fill="#403F47"/>
<path d="M107.596 123.102L102.757 120.414C102.435 120.199 101.897 120.307 101.574 120.522L97.0582 123.317C96.7356 123.532 96.7356 123.855 96.9507 123.963L101.789 126.651C102.112 126.866 102.65 126.758 102.972 126.543L107.488 123.748C107.919 123.532 107.919 123.21 107.596 123.102Z" fill="#403F47"/>
<path d="M114.26 126.653L109.421 123.965C109.099 123.75 108.561 123.857 108.238 124.072L103.722 126.868C103.4 127.083 103.4 127.406 103.615 127.513L108.454 130.202C108.776 130.417 109.314 130.309 109.636 130.094L114.153 127.298C114.475 127.083 114.475 126.868 114.26 126.653Z" fill="#403F47"/>
<path d="M120.823 130.2L115.984 127.512C115.661 127.297 115.124 127.404 114.801 127.619L110.285 130.415C109.962 130.63 109.962 130.953 110.177 131.06L115.016 133.748C115.339 133.964 115.876 133.856 116.199 133.641L120.715 130.845C121.038 130.738 121.038 130.415 120.823 130.2Z" fill="#403F47"/>
<path d="M127.381 133.856L122.542 131.168C122.22 130.953 121.682 131.06 121.36 131.276L116.843 134.071C116.521 134.286 116.521 134.609 116.736 134.716L121.575 137.405C121.897 137.62 122.435 137.512 122.757 137.297L127.274 134.501C127.596 134.286 127.704 133.964 127.381 133.856Z" fill="#403F47"/>
<path d="M133.94 137.407L129.101 134.719C128.778 134.504 128.241 134.611 127.918 134.826L123.402 137.622C123.079 137.837 123.079 138.16 123.294 138.267L128.133 140.955C128.456 141.171 128.993 141.063 129.316 140.848L133.832 138.052C134.262 137.945 134.262 137.622 133.94 137.407Z" fill="#403F47"/>
<path d="M140.498 141.063L135.66 138.375C135.337 138.16 134.799 138.268 134.477 138.483L129.961 141.278C129.638 141.493 129.638 141.816 129.853 141.923L134.692 144.612C135.014 144.827 135.552 144.719 135.875 144.504L140.391 141.708C140.821 141.493 140.821 141.171 140.498 141.063Z" fill="#403F47"/>
<path d="M147.057 144.61L142.218 141.922C141.896 141.707 141.358 141.814 141.035 142.029L136.519 144.825C136.197 145.04 136.197 145.363 136.412 145.47L141.25 148.159C141.573 148.374 142.111 148.266 142.433 148.051L146.949 145.255C147.38 145.04 147.38 144.825 147.057 144.61Z" fill="#403F47"/>
<path d="M153.729 148.266L148.89 145.578C148.567 145.363 148.03 145.471 147.707 145.686L143.191 148.481C142.868 148.696 142.868 149.019 143.083 149.127L147.922 151.815C148.245 152.03 148.783 151.922 149.105 151.707L153.621 148.912C153.944 148.696 153.944 148.374 153.729 148.266Z" fill="#403F47"/>
<path d="M163.189 153.426L155.339 149.125C155.017 148.91 154.479 149.018 154.156 149.233L149.64 152.028C149.318 152.243 149.318 152.566 149.533 152.673L157.382 156.975C157.705 157.19 158.243 157.082 158.565 156.867L163.081 154.071C163.511 153.856 163.511 153.641 163.189 153.426Z" fill="#403F47"/>
<path d="M73.1867 111.601L63.6166 106.332C63.294 106.117 62.7564 106.225 62.4338 106.44L57.9176 109.235C57.595 109.45 57.595 109.773 57.81 109.881L67.3801 115.149C67.7027 115.364 68.2404 115.257 68.5629 115.042L73.0791 112.246C73.4017 112.031 73.4017 111.709 73.1867 111.601Z" fill="#403F47"/>
<path d="M156.847 157.3L147.277 152.031C146.954 151.816 146.417 151.924 146.094 152.139L141.578 154.935C141.255 155.15 141.255 155.472 141.47 155.58L151.04 160.849C151.363 161.064 151.901 160.956 152.223 160.741L156.739 157.945C157.062 157.73 157.062 157.408 156.847 157.3Z" fill="#403F47"/>
<path d="M79.7484 115.149L74.9096 112.461C74.587 112.246 74.0493 112.353 73.7267 112.569L69.2105 115.364C68.888 115.579 68.8879 115.902 69.103 116.009L73.9418 118.698C74.2644 118.913 74.8021 118.805 75.1246 118.59L79.6408 115.794C79.9634 115.579 79.9634 115.364 79.7484 115.149Z" fill="#403F47"/>
<path d="M86.307 118.696L81.4682 116.008C81.1456 115.793 80.6079 115.9 80.2853 116.115L75.7691 118.911C75.4465 119.126 75.4466 119.449 75.6616 119.556L80.5004 122.245C80.823 122.46 81.3606 122.352 81.6832 122.137L86.1994 119.341C86.522 119.234 86.6296 118.911 86.307 118.696Z" fill="#403F47"/>
<path d="M92.8656 122.352L88.0268 119.664C87.7042 119.449 87.1665 119.557 86.844 119.772L82.3277 122.567C82.0051 122.782 82.0051 123.105 82.2202 123.213L87.059 125.901C87.3816 126.116 87.9192 126.008 88.2418 125.793L92.7581 122.998C93.0806 122.782 93.1882 122.46 92.8656 122.352Z" fill="#403F47"/>
<path d="M99.4242 125.903L94.5853 123.215C94.2628 123 93.7251 123.107 93.4026 123.322L88.8863 126.118C88.5637 126.333 88.5637 126.656 88.7788 126.763L93.6176 129.452C93.9402 129.667 94.4778 129.559 94.8004 129.344L99.3167 126.548C99.7468 126.441 99.7467 126.118 99.4242 125.903Z" fill="#403F47"/>
<path d="M105.983 129.559L101.144 126.871C100.821 126.656 100.284 126.764 99.9611 126.979L95.4449 129.774C95.1223 129.989 95.1223 130.312 95.3374 130.42L100.176 133.108C100.499 133.323 101.036 133.215 101.359 133L105.875 130.205C106.305 129.989 106.305 129.667 105.983 129.559Z" fill="#403F47"/>
<path d="M112.651 133.106L107.812 130.418C107.489 130.203 106.952 130.31 106.629 130.526L102.113 133.321C101.79 133.536 101.79 133.859 102.005 133.966L106.844 136.655C107.167 136.87 107.704 136.762 108.027 136.547L112.543 133.751C112.866 133.536 112.866 133.321 112.651 133.106Z" fill="#403F47"/>
<path d="M119.209 136.762L114.371 134.074C114.048 133.859 113.51 133.967 113.188 134.182L108.671 136.978C108.349 137.193 108.349 137.515 108.564 137.623L113.403 140.311C113.725 140.526 114.263 140.418 114.586 140.203L119.102 137.408C119.424 137.193 119.424 136.87 119.209 136.762Z" fill="#403F47"/>
<path d="M125.768 140.313L120.929 137.625C120.607 137.41 120.069 137.518 119.746 137.733L115.23 140.528C114.907 140.743 114.907 141.066 115.123 141.174L119.961 143.862C120.284 144.077 120.822 143.969 121.144 143.754L125.66 140.958C125.983 140.743 126.09 140.528 125.768 140.313Z" fill="#403F47"/>
<path d="M132.33 143.86L127.492 141.172C127.169 140.957 126.631 141.064 126.309 141.279L121.793 144.075C121.47 144.29 121.47 144.613 121.685 144.72L126.524 147.409C126.846 147.624 127.384 147.516 127.707 147.301L132.223 144.505C132.545 144.398 132.653 144.075 132.33 143.86Z" fill="#403F47"/>
<path d="M138.885 147.516L134.046 144.828C133.724 144.613 133.186 144.721 132.864 144.936L128.347 147.731C128.025 147.947 128.025 148.269 128.24 148.377L133.079 151.065C133.401 151.28 133.939 151.172 134.261 150.957L138.778 148.162C139.208 147.947 139.208 147.624 138.885 147.516Z" fill="#403F47"/>
<path d="M145.448 151.063L140.609 148.375C140.286 148.16 139.749 148.268 139.426 148.483L134.91 151.278C134.587 151.493 134.587 151.816 134.802 151.924L139.641 154.612C139.964 154.827 140.501 154.719 140.824 154.504L145.34 151.708C145.77 151.601 145.77 151.278 145.448 151.063Z" fill="#403F47"/>
<path d="M70.067 117.193L57.1635 110.203C56.8409 109.988 56.3032 110.096 55.9806 110.311L51.4644 113.106C51.1419 113.322 51.1419 113.644 51.3569 113.752L64.2604 120.741C64.583 120.956 65.1206 120.849 65.4432 120.633L69.9594 117.838C70.282 117.623 70.282 117.408 70.067 117.193Z" fill="#403F47"/>
<path d="M76.6234 120.848L71.7846 118.16C71.462 117.945 70.9243 118.053 70.6018 118.268L66.0855 121.063C65.7629 121.279 65.763 121.601 65.978 121.709L70.8168 124.397C71.1394 124.612 71.677 124.504 71.9996 124.289L76.5159 121.494C76.8384 121.279 76.946 120.956 76.6234 120.848Z" fill="#403F47"/>
<path d="M83.1859 124.399L78.3471 121.711C78.0245 121.496 77.4869 121.603 77.1643 121.819L72.648 124.614C72.3255 124.829 72.3254 125.152 72.5405 125.259L77.3793 127.948C77.7019 128.163 78.2396 128.055 78.5621 127.84L83.0784 125.044C83.5085 124.829 83.5085 124.614 83.1859 124.399Z" fill="#403F47"/>
<path d="M89.7445 128.052L84.9057 125.363C84.5831 125.148 84.0455 125.256 83.7229 125.471L79.2066 128.267C78.884 128.482 78.884 128.804 79.0991 128.912L83.9379 131.6C84.2605 131.815 84.7981 131.708 85.1207 131.492L89.637 128.697C90.0671 128.482 90.0671 128.159 89.7445 128.052Z" fill="#403F47"/>
<path d="M96.3031 131.602L91.4643 128.914C91.1417 128.699 90.604 128.807 90.2814 129.022L85.7652 131.817C85.4426 132.032 85.4426 132.355 85.6577 132.463L90.4965 135.151C90.8191 135.366 91.3567 135.258 91.6793 135.043L96.1955 132.247C96.6256 132.032 96.6256 131.71 96.3031 131.602Z" fill="#403F47"/>
<path d="M102.971 135.149L98.1322 132.461C97.8096 132.246 97.272 132.353 96.9494 132.569L92.4332 135.364C92.1106 135.579 92.1106 135.902 92.3257 136.009L97.1645 138.698C97.4871 138.913 98.0247 138.805 98.3473 138.59L102.864 135.794C103.186 135.687 103.186 135.364 102.971 135.149Z" fill="#403F47"/>
<path d="M109.53 138.805L104.691 136.117C104.368 135.902 103.831 136.01 103.508 136.225L98.9918 139.021C98.6692 139.236 98.6692 139.558 98.8843 139.666L103.723 142.354C104.046 142.569 104.583 142.461 104.906 142.246L109.422 139.451C109.745 139.236 109.745 138.913 109.53 138.805Z" fill="#403F47"/>
<path d="M116.088 142.352L111.249 139.664C110.927 139.449 110.389 139.557 110.067 139.772L105.55 142.567C105.228 142.782 105.228 143.105 105.443 143.213L110.282 145.901C110.604 146.116 111.142 146.008 111.464 145.793L115.981 142.997C116.303 142.782 116.411 142.567 116.088 142.352Z" fill="#403F47"/>
<path d="M122.651 146.009L117.812 143.32C117.489 143.105 116.952 143.213 116.629 143.428L112.113 146.224C111.79 146.439 111.79 146.761 112.005 146.869L116.844 149.557C117.167 149.772 117.704 149.665 118.027 149.449L122.543 146.654C122.973 146.439 122.973 146.116 122.651 146.009Z" fill="#403F47"/>
<path d="M129.209 149.559L124.371 146.871C124.048 146.656 123.51 146.764 123.188 146.979L118.671 149.774C118.349 149.989 118.349 150.312 118.564 150.42L123.403 153.108C123.725 153.323 124.263 153.215 124.586 153L129.102 150.205C129.532 149.989 129.532 149.774 129.209 149.559Z" fill="#403F47"/>
<path d="M135.768 153.216L130.929 150.527C130.606 150.312 130.069 150.42 129.746 150.635L125.23 153.431C124.907 153.646 124.907 153.968 125.123 154.076L129.961 156.764C130.284 156.979 130.822 156.872 131.144 156.657L135.66 153.861C136.09 153.646 136.09 153.323 135.768 153.216Z" fill="#403F47"/>
<path d="M150.501 161.171L137.597 154.074C137.274 153.859 136.737 153.967 136.414 154.182L131.898 156.978C131.575 157.193 131.575 157.515 131.791 157.623L144.694 164.72C145.017 164.935 145.554 164.827 145.877 164.612L150.393 161.816C150.716 161.601 150.716 161.279 150.501 161.171Z" fill="#403F47"/>
<path d="M116.304 149.88L85.1205 132.891C84.7979 132.676 84.2603 132.783 83.9377 132.998L79.4215 135.794C79.0989 136.009 79.0989 136.332 79.3139 136.439L110.497 153.429C110.82 153.644 111.358 153.536 111.68 153.321L116.196 150.525C116.519 150.31 116.627 149.988 116.304 149.88Z" fill="#403F47"/>
<path d="M75.4437 127.516L70.6049 124.828C70.2823 124.613 69.7446 124.721 69.4221 124.936L64.9059 127.731C64.5833 127.947 64.5833 128.269 64.7983 128.377L69.6371 131.065C69.9597 131.28 70.4974 131.172 70.82 130.957L75.3362 128.162C75.6587 127.947 75.6587 127.624 75.4437 127.516Z" fill="#403F47"/>
<path d="M83.4022 131.925L77.058 128.484C76.7354 128.269 76.1978 128.377 75.8752 128.592L71.359 131.388C71.0364 131.603 71.0364 131.925 71.2514 132.033L77.5956 135.474C77.9182 135.689 78.4559 135.581 78.7785 135.366L83.2947 132.571C83.7248 132.355 83.7248 132.033 83.4022 131.925Z" fill="#403F47"/>
<path d="M125.982 155.149L130.821 157.837C131.143 158.052 131.036 158.267 130.713 158.482L126.197 161.278C125.874 161.493 125.337 161.493 125.014 161.385L120.175 158.697C119.853 158.482 119.96 158.267 120.283 158.052L124.799 155.256C125.229 155.041 125.767 155.041 125.982 155.149Z" fill="#403F47"/>
<path d="M118.029 150.743L124.373 154.183C124.695 154.399 124.588 154.614 124.265 154.829L119.749 157.624C119.427 157.839 118.889 157.839 118.566 157.732L112.222 154.291C111.9 154.076 112.007 153.861 112.33 153.646L116.846 150.85C117.168 150.635 117.706 150.635 118.029 150.743Z" fill="#403F47"/>
<path d="M55.6585 116.762L50.8197 114.074C50.4971 113.859 49.9595 113.967 49.6369 114.182L45.1207 116.978C44.7981 117.193 44.7981 117.515 45.0132 117.623L49.852 120.311C50.1746 120.526 50.7122 120.418 51.0348 120.203L55.551 117.408C55.9811 117.193 55.9811 116.87 55.6585 116.762Z" fill="#403F47"/>
<path d="M62.2211 120.309L57.3823 117.621C57.0597 117.406 56.522 117.514 56.1994 117.729L51.6832 120.524C51.3606 120.739 51.3606 121.062 51.5757 121.17L56.4145 123.858C56.7371 124.073 57.2747 123.965 57.5973 123.75L62.1135 120.955C62.5436 120.739 62.5437 120.417 62.2211 120.309Z" fill="#403F47"/>
<path d="M68.7757 123.86L63.9369 121.172C63.6143 120.957 63.0767 121.064 62.7541 121.279L58.2379 124.075C57.9153 124.29 57.9153 124.613 58.1303 124.72L62.9692 127.409C63.2917 127.624 63.8294 127.516 64.152 127.301L68.6682 124.505C69.0983 124.398 69.0983 124.075 68.7757 123.86Z" fill="#403F47"/>
<path d="M144.048 165.041L132.542 158.805C132.22 158.59 131.682 158.697 131.36 158.912L126.843 161.708C126.521 161.923 126.521 162.246 126.736 162.353L138.349 168.482C138.672 168.697 139.209 168.59 139.532 168.375L144.048 165.579C144.371 165.472 144.371 165.149 144.048 165.041Z" fill="#403F47"/>
<path d="M165.339 146.545L170.178 149.233C170.501 149.448 171.038 149.341 171.361 149.126L173.619 147.728C173.942 147.513 173.942 147.19 173.727 147.083L168.888 144.395C168.565 144.18 168.028 144.287 167.705 144.502L165.447 145.9C165.124 146.115 165.017 146.33 165.339 146.545Z" fill="#403F47"/>
<path d="M158.781 142.893L163.62 145.581C163.942 145.796 164.48 145.689 164.802 145.474L167.06 144.076C167.383 143.861 167.383 143.538 167.168 143.43L162.329 140.742C162.007 140.527 161.469 140.635 161.146 140.85L158.888 142.248C158.458 142.463 158.458 142.785 158.781 142.893Z" fill="#403F47"/>
<path d="M152.222 139.342L157.061 142.03C157.384 142.245 157.921 142.138 158.244 141.923L160.502 140.525C160.824 140.31 160.824 139.987 160.609 139.88L155.771 137.191C155.448 136.976 154.91 137.084 154.588 137.299L152.33 138.697C151.9 138.912 151.9 139.127 152.222 139.342Z" fill="#403F47"/>
<path d="M145.664 135.795L150.502 138.483C150.825 138.698 151.363 138.591 151.685 138.376L153.943 136.978C154.266 136.763 154.266 136.44 154.051 136.333L149.212 133.645C148.889 133.43 148.352 133.537 148.029 133.752L145.771 135.15C145.341 135.257 145.341 135.58 145.664 135.795Z" fill="#403F47"/>
<path d="M138.994 132.139L143.832 134.827C144.155 135.042 144.693 134.935 145.015 134.72L147.273 133.322C147.596 133.107 147.596 132.784 147.381 132.677L142.542 129.988C142.22 129.773 141.682 129.881 141.359 130.096L139.101 131.494C138.779 131.709 138.779 132.031 138.994 132.139Z" fill="#524C7C"/>
<path d="M132.437 128.588L137.276 131.276C137.598 131.491 138.136 131.384 138.459 131.169L140.717 129.771C141.039 129.556 141.039 129.233 140.824 129.126L135.985 126.438C135.663 126.222 135.125 126.33 134.803 126.545L132.544 127.943C132.222 128.05 132.114 128.373 132.437 128.588Z" fill="#524C7C"/>
<path d="M125.878 124.932L130.717 127.62C131.04 127.835 131.577 127.728 131.9 127.513L134.158 126.115C134.481 125.9 134.481 125.577 134.266 125.47L129.427 122.781C129.104 122.566 128.567 122.674 128.244 122.889L125.986 124.287C125.663 124.502 125.556 124.824 125.878 124.932Z" fill="#524C7C"/>
<path d="M119.316 121.385L124.155 124.073C124.477 124.288 125.015 124.181 125.338 123.966L127.596 122.568C127.918 122.353 127.918 122.03 127.703 121.923L122.864 119.234C122.542 119.019 122.004 119.127 121.682 119.342L119.423 120.74C118.993 120.955 118.993 121.17 119.316 121.385Z" fill="#524C7C"/>
<path d="M112.757 117.729L117.596 120.417C117.919 120.632 118.456 120.525 118.779 120.309L121.037 118.912C121.36 118.697 121.36 118.374 121.145 118.266L116.306 115.578C115.983 115.363 115.446 115.471 115.123 115.686L112.865 117.084C112.435 117.299 112.435 117.621 112.757 117.729Z" fill="#524C7C"/>
<path d="M106.199 114.182L111.037 116.87C111.36 117.085 111.898 116.978 112.22 116.763L114.478 115.365C114.801 115.15 114.801 114.827 114.586 114.72L109.747 112.031C109.425 111.816 108.887 111.924 108.564 112.139L106.306 113.537C105.876 113.752 105.876 113.967 106.199 114.182Z" fill="#524C7C"/>
<path d="M99.5327 110.631L104.371 113.319C104.694 113.534 105.232 113.427 105.554 113.212L107.812 111.814C108.135 111.599 108.135 111.276 107.92 111.169L103.081 108.481C102.759 108.265 102.221 108.373 101.898 108.588L99.6402 109.986C99.3176 110.093 99.3176 110.416 99.5327 110.631Z" fill="#524C7C"/>
<path d="M92.9721 106.975L97.8109 109.663C98.1335 109.878 98.6712 109.771 98.9938 109.556L101.252 108.158C101.574 107.943 101.574 107.62 101.359 107.512L96.5206 104.824C96.198 104.609 95.6604 104.717 95.3378 104.932L93.0797 106.33C92.7571 106.545 92.6495 106.867 92.9721 106.975Z" fill="#524C7C"/>
<path d="M86.4135 103.428L91.2523 106.116C91.5749 106.331 92.1126 106.224 92.4351 106.009L94.6933 104.611C95.0158 104.396 95.0158 104.073 94.8008 103.966L89.962 101.277C89.6394 101.062 89.1017 101.17 88.7792 101.385L86.521 102.783C86.1985 102.89 86.0909 103.213 86.4135 103.428Z" fill="#524C7C"/>
<path d="M76.8432 98.1584L84.6929 102.46C85.0154 102.675 85.5531 102.567 85.8757 102.352L88.1338 100.954C88.4563 100.739 88.4564 100.417 88.2413 100.309L80.3917 96.0079C80.0691 95.7928 79.5315 95.9003 79.2089 96.1154L76.9507 97.5133C76.6282 97.7283 76.5206 98.0509 76.8432 98.1584Z" fill="#524C7C"/>
<path d="M98.7581 36.2847L98.749 36.2786L98.7395 36.2731L92.7431 32.798C92.5252 32.63 92.4203 32.4521 92.4203 32.2696V30.9709C92.4203 30.4676 92.9543 30.2036 93.3116 30.4418L93.3207 30.4479L93.3302 30.4534L99.3454 33.9395L99.3548 33.9449L99.3644 33.9497C99.5087 34.0219 99.6494 34.2356 99.6494 34.4569V35.7557C99.6494 36.259 99.1154 36.5229 98.7581 36.2847Z" fill="#14E731" stroke="#3C3C3C" stroke-width="0.7"/>
<path d="M123.688 63.2847L123.679 63.2786L123.669 63.2731L117.673 59.798C117.455 59.63 117.35 59.4521 117.35 59.2696V57.9709C117.35 57.4676 117.884 57.2036 118.241 57.4418L118.25 57.4479L118.26 57.4534L124.275 60.9395L124.284 60.9449L124.294 60.9497C124.438 61.0219 124.579 61.2356 124.579 61.4569V62.7557C124.579 63.259 124.045 63.5229 123.688 63.2847Z" fill="#FF625B" stroke="#3C3C3C" stroke-width="0.7"/>
<path d="M123.688 87.5699L123.679 87.5638L123.669 87.5583L117.673 84.0831C117.455 83.9152 117.35 83.7373 117.35 83.5548V82.256C117.35 81.7527 117.884 81.4888 118.241 81.727L118.25 81.7331L118.26 81.7386L124.275 85.2247L124.284 85.2301L124.294 85.2349C124.438 85.3071 124.579 85.5207 124.579 85.7421V87.0408C124.579 87.5441 124.045 87.8081 123.688 87.5699Z" fill="#FFA9BB" stroke="#3C3C3C" stroke-width="0.7"/>
<path d="M133.688 69.2847L133.679 69.2786L133.669 69.2731L127.673 65.798C127.455 65.63 127.35 65.4521 127.35 65.2696V63.9709C127.35 63.4676 127.884 63.2036 128.241 63.4418L128.25 63.4479L128.26 63.4534L134.275 66.9395L134.284 66.9449L134.294 66.9497C134.438 67.0219 134.579 67.2356 134.579 67.4569V68.7557C134.579 69.259 134.045 69.5229 133.688 69.2847Z" fill="#FFE604" stroke="#3C3C3C" stroke-width="0.7"/>
<path d="M156.688 75.2847L156.679 75.2786L156.669 75.2731L150.673 71.798C150.455 71.63 150.35 71.4521 150.35 71.2696V69.9709C150.35 69.4676 150.884 69.2036 151.241 69.4418L151.25 69.4479L151.26 69.4534L157.275 72.9395L157.284 72.9449L157.294 72.9497C157.438 73.0219 157.579 73.2356 157.579 73.4569V74.7557C157.579 75.259 157.045 75.5229 156.688 75.2847Z" fill="#14E731" stroke="#3C3C3C" stroke-width="0.7"/>
<path d="M150.688 91.2847L150.679 91.2786L150.669 91.2731L144.673 87.798C144.455 87.63 144.35 87.4521 144.35 87.2696V85.9709C144.35 85.4676 144.884 85.2036 145.241 85.4418L145.25 85.4479L145.26 85.4534L151.275 88.9395L151.284 88.9449L151.294 88.9497C151.438 89.0219 151.579 89.2356 151.579 89.4569V90.7557C151.579 91.259 151.045 91.5229 150.688 91.2847Z" fill="#14E731" stroke="#3C3C3C" stroke-width="0.7"/>
<path d="M117.759 53.5789L117.749 53.5722L117.738 53.5663L92.6721 39.2232C92.4546 39.0554 92.35 38.8777 92.35 38.6954V37.3966C92.35 36.8934 92.884 36.6294 93.2413 36.8676L93.2512 36.8742L93.2616 36.8802L118.348 51.2346L118.369 51.2467L118.392 51.2558C118.498 51.2982 118.551 51.3511 118.584 51.41C118.621 51.4764 118.65 51.5815 118.65 51.7511V53.0498C118.65 53.5531 118.116 53.8171 117.759 53.5789Z" stroke="#3C3C3C" stroke-width="0.7"/>
<path d="M117.759 90.1531L117.749 90.1465L117.738 90.1405L92.6721 75.7974C92.4546 75.6296 92.35 75.4519 92.35 75.2696V73.9709C92.35 73.4676 92.884 73.2036 93.2413 73.4418L93.2512 73.4485L93.2616 73.4544L118.348 87.8088L118.369 87.821L118.392 87.83C118.498 87.8724 118.551 87.9253 118.584 87.9842C118.621 88.0506 118.65 88.1558 118.65 88.3253V89.624C118.65 90.1273 118.116 90.3913 117.759 90.1531Z" fill="#FFE604" stroke="#3C3C3C" stroke-width="0.7"/>
<path d="M140.237 85.148L140.228 85.1416L140.217 85.1358L92.6724 57.7976C92.4547 57.6298 92.35 57.452 92.35 57.2696V55.9709C92.35 55.4676 92.884 55.2036 93.2413 55.4418L93.2509 55.4483L93.261 55.454L140.826 82.8034L140.847 82.8158L140.87 82.825C140.976 82.8674 141.029 82.9203 141.062 82.9792C141.1 83.0456 141.128 83.1507 141.128 83.3203V84.619C141.128 85.1223 140.594 85.3862 140.237 85.148Z" stroke="#3C3C3C" stroke-width="0.7"/>
<path d="M146.759 70.1531L146.749 70.1465L146.738 70.1405L121.672 55.7974C121.455 55.6296 121.35 55.4519 121.35 55.2696V53.9709C121.35 53.4676 121.884 53.2036 122.241 53.4418L122.251 53.4485L122.262 53.4544L147.348 67.8088L147.369 67.821L147.392 67.83C147.498 67.8724 147.551 67.9253 147.584 67.9842C147.621 68.0506 147.65 68.1558 147.65 68.3253V69.624C147.65 70.1273 147.116 70.3913 146.759 70.1531Z" fill="#FFA9BB" stroke="#3C3C3C" stroke-width="0.7"/>
<path d="M146.759 106.727L146.749 106.721L146.738 106.715L121.672 92.3716C121.455 92.2038 121.35 92.0261 121.35 91.8438V90.5451C121.35 90.0418 121.884 89.7778 122.241 90.016L122.251 90.0227L122.262 90.0286L147.348 104.383L147.369 104.395L147.392 104.404C147.498 104.447 147.551 104.5 147.584 104.558C147.621 104.625 147.65 104.73 147.65 104.9V106.198C147.65 106.702 147.116 106.965 146.759 106.727Z" stroke="#3C3C3C" stroke-width="0.7"/>
<path d="M107.437 60.2785L107.427 60.272L107.417 60.2662L92.6723 51.8015C92.4547 51.6336 92.35 51.4559 92.35 51.2735V49.9748C92.35 49.4715 92.884 49.2075 93.2413 49.4457L93.251 49.4522L93.2612 49.4581L108.023 57.9322C108.15 58.0089 108.221 58.0869 108.262 58.1609C108.304 58.2355 108.328 58.3277 108.328 58.4507V59.7495C108.328 60.2527 107.795 60.5167 107.437 60.2785Z" stroke="#3C3C3C" stroke-width="0.7"/>
<path d="M113.933 57.6806L113.923 57.6741L113.913 57.6683L92.7426 45.5124C92.525 45.3446 92.4203 45.1668 92.4203 44.9844V43.6857C92.4203 43.1824 92.9543 42.9185 93.3116 43.1567L93.3213 43.1632L93.3315 43.169L114.521 55.3361L114.53 55.3411L114.539 55.3456C114.683 55.4178 114.824 55.6314 114.824 55.8528V57.1515C114.824 57.6548 114.29 57.9188 113.933 57.6806Z" fill="#FF625B" stroke="#3C3C3C" stroke-width="0.7"/>
<path d="M113.933 81.9657L113.923 81.9593L113.913 81.9534L92.7426 69.7976C92.525 69.6297 92.4203 69.452 92.4203 69.2696V67.9709C92.4203 67.4676 92.9543 67.2036 93.3116 67.4418L93.3213 67.4483L93.3315 67.4541L114.521 79.6212L114.53 79.6262L114.539 79.6308C114.683 79.7029 114.824 79.9166 114.824 80.138V81.4367C114.824 81.94 114.29 82.2039 113.933 81.9657Z" stroke="#3C3C3C" stroke-width="0.7"/>
<path d="M113.933 75.9657L113.923 75.9593L113.913 75.9534L92.7426 63.7976C92.525 63.6297 92.4203 63.452 92.4203 63.2696V61.9709C92.4203 61.4676 92.9543 61.2036 93.3116 61.4418L93.3213 61.4483L93.3315 61.4541L114.521 73.6212L114.53 73.6262L114.539 73.6308C114.683 73.7029 114.824 73.9166 114.824 74.138V75.4367C114.824 75.94 114.29 76.2039 113.933 75.9657Z" fill="#14E731" stroke="#3C3C3C" stroke-width="0.7"/>
<defs>
<linearGradient id="paint0_linear" x1="106.625" y1="292.569" x2="58.458" y2="62.6556" gradientUnits="userSpaceOnUse">
<stop stop-color="#1AE5FF"/>
<stop offset="0.2589" stop-color="#64E8F9"/>
<stop offset="0.7043" stop-color="#EAEEEE"/>
</linearGradient>
<linearGradient id="paint1_linear" x1="167.094" y1="166.07" x2="107.749" y2="15.7278" gradientUnits="userSpaceOnUse">
<stop stop-color="#00EBFF"/>
<stop offset="0.1333" stop-color="#25D0F8"/>
<stop offset="0.5654" stop-color="#997AE0"/>
<stop offset="0.863" stop-color="#E244D2"/>
<stop offset="1" stop-color="#FF2FCC"/>
</linearGradient>
</defs>
</svg>
