<svg width="200" height="200" viewBox="0 0 200 200" fill="none" xmlns="http://www.w3.org/2000/svg">
<path d="M41.778 130.136L41.7778 130.127L38.85 13.97C38.85 13.9688 38.85 13.9676 38.85 13.9663C38.851 13.872 38.8882 13.7465 38.99 13.5886C39.0923 13.4298 39.248 13.2571 39.4532 13.0777C39.8637 12.719 40.4363 12.3651 41.06 12.07C41.6827 11.7755 42.3389 11.5478 42.9094 11.4326C43.1945 11.375 43.4504 11.3472 43.6653 11.3502C43.8801 11.3533 44.0321 11.3869 44.1292 11.4339L118.811 52.0578C118.812 52.0583 118.813 52.0589 118.814 52.0594C119.349 52.3647 119.65 52.8908 119.65 53.5001V170.767C119.65 170.875 119.608 171.019 119.497 171.2C119.387 171.378 119.221 171.572 119.005 171.774C118.573 172.178 117.973 172.581 117.323 172.92C116.674 173.258 115.992 173.523 115.404 173.658C115.11 173.726 114.849 173.76 114.632 173.758C114.413 173.756 114.265 173.718 114.175 173.667C114.174 173.666 114.174 173.666 114.173 173.666L42.621 131.581L42.6166 131.578C42.0804 131.273 41.7779 130.747 41.778 130.136Z" fill="white" stroke="#3C3C3C" stroke-width="0.7"/>
<path d="M113.332 173.408L113.326 173.405L39.1819 132.9C39.181 132.9 39.1801 132.899 39.1792 132.899C38.6495 132.595 38.35 132.071 38.35 131.463L38.3501 14.918C38.3501 13.7228 39.622 12.9631 40.6795 13.487L114.818 53.9882C114.819 53.9887 114.82 53.9893 114.821 53.9898C115.351 54.2936 115.65 54.8177 115.65 55.4256L115.65 171.971C115.65 173.276 114.368 174 113.332 173.408Z" fill="white" stroke="#3C3C3C" stroke-width="0.7"/>
<path d="M25.778 137.136L25.7778 137.127L22.85 20.97C22.85 20.9688 22.85 20.9676 22.85 20.9663C22.851 20.872 22.8882 20.7465 22.99 20.5886C23.0923 20.4298 23.248 20.2571 23.4532 20.0777C23.8637 19.719 24.4363 19.3651 25.06 19.07C25.6827 18.7755 26.3389 18.5478 26.9094 18.4326C27.1945 18.375 27.4504 18.3472 27.6653 18.3502C27.8801 18.3533 28.0321 18.3869 28.1292 18.4339L102.811 59.0578C102.812 59.0583 102.813 59.0589 102.814 59.0594C103.349 59.3647 103.65 59.8908 103.65 60.5001V177.767C103.65 177.875 103.608 178.019 103.497 178.2C103.387 178.378 103.221 178.572 103.005 178.774C102.573 179.178 101.973 179.581 101.323 179.92C100.674 180.258 99.992 180.523 99.4041 180.658C99.1101 180.726 98.8489 180.76 98.6322 180.758C98.4131 180.756 98.2651 180.718 98.1748 180.667C98.1742 180.666 98.1736 180.666 98.1731 180.666L26.621 138.581L26.6166 138.578C26.0804 138.273 25.7779 137.747 25.778 137.136Z" fill="white" stroke="#3C3C3C" stroke-width="0.7"/>
<path d="M97.3323 180.408L97.3264 180.405L23.1819 139.9C23.181 139.9 23.1801 139.899 23.1792 139.899C22.6495 139.595 22.35 139.071 22.35 138.463L22.3501 21.918C22.3501 20.7228 23.622 19.9631 24.6795 20.487L98.8182 60.9882C98.8191 60.9887 98.82 60.9893 98.821 60.9898C99.3506 61.2936 99.65 61.8177 99.65 62.4256L99.6499 178.971C99.6499 180.276 98.368 181 97.3323 180.408Z" fill="white" stroke="#3C3C3C" stroke-width="0.7"/>
<path d="M11.778 145.167L11.7778 145.159L8.85 29.0013C8.85 29 8.85001 28.9988 8.85002 28.9976C8.85096 28.9033 8.88822 28.7777 8.98997 28.6199C9.0923 28.4611 9.24804 28.2883 9.45324 28.109C9.8637 27.7503 10.4363 27.3963 11.06 27.1013C11.6827 26.8067 12.3389 26.5791 12.9094 26.4639C13.1945 26.4063 13.4504 26.3784 13.6653 26.3815C13.8801 26.3845 14.0321 26.4182 14.1292 26.4652L88.8113 67.089C88.8123 67.0896 88.8133 67.0901 88.8142 67.0907C89.3486 67.396 89.65 67.9221 89.65 68.5314V185.798C89.65 185.907 89.6081 186.051 89.4972 186.231C89.3873 186.409 89.2214 186.604 89.0054 186.805C88.5732 187.209 87.9729 187.612 87.323 187.951C86.6736 188.289 85.992 188.554 85.4041 188.69C85.1101 188.758 84.8489 188.791 84.6322 188.789C84.4131 188.787 84.2651 188.749 84.1748 188.698C84.1742 188.698 84.1736 188.697 84.1731 188.697L12.621 146.612L12.6166 146.61C12.0804 146.305 11.7779 145.778 11.778 145.167Z" fill="white" stroke="#3C3C3C" stroke-width="0.7"/>
<path d="M83.3323 188.439L83.3264 188.436L9.18186 147.932C9.18099 147.931 9.18011 147.931 9.17923 147.93C8.64951 147.626 8.35 147.102 8.35 146.494L8.35006 29.9492C8.35006 28.7541 9.62197 27.9944 10.6795 28.5183L84.8182 69.0195C84.8191 69.02 84.82 69.0205 84.821 69.021C85.3506 69.3249 85.65 69.849 85.65 70.4568L85.6499 187.002C85.6499 188.308 84.368 189.031 83.3323 188.439Z" fill="white" stroke="#3C3C3C" stroke-width="0.7"/>
<rect x="0.301492" y="0.52777" width="53.8619" height="37.1859" transform="matrix(0.861407 0.507915 -2.15715e-08 1 35.0418 66.8469)" fill="#FFA9BB" stroke="#3C3C3C" stroke-width="0.7"/>
<path d="M45.8728 61.0075L45.8629 61.0009L45.8525 60.9949L13.805 42.6571C13.5109 42.4317 13.35 42.178 13.35 41.9012V40.241C13.35 39.5285 14.1123 39.1314 14.6408 39.4837L14.6507 39.4904L14.6611 39.4963L46.7281 57.8453L46.7493 57.8574L46.772 57.8665C46.9255 57.9279 47.012 58.0093 47.0665 58.1063C47.1253 58.2107 47.1636 58.3634 47.1636 58.59V60.2502C47.1636 60.9627 46.4013 61.3598 45.8728 61.0075Z" fill="#FF625B" stroke="#3C3C3C" stroke-width="0.7"/>
<path d="M45.8728 119.007L45.8629 119.001L45.8525 118.995L13.805 100.657C13.5109 100.432 13.35 100.178 13.35 99.9012V98.241C13.35 97.5285 14.1123 97.1314 14.6408 97.4837L14.6507 97.4904L14.6611 97.4963L46.7281 115.845L46.7493 115.857L46.772 115.866C46.9255 115.928 47.012 116.009 47.0665 116.106C47.1253 116.211 47.1636 116.363 47.1636 116.59V118.25C47.1636 118.963 46.4013 119.36 45.8728 119.007Z" stroke="#3C3C3C" stroke-width="0.7"/>
<path d="M45.8728 145.007L45.8629 145.001L45.8525 144.995L13.805 126.657C13.5109 126.432 13.35 126.178 13.35 125.901V124.241C13.35 123.529 14.1123 123.131 14.6408 123.484L14.6507 123.49L14.6611 123.496L46.7281 141.845L46.7493 141.857L46.772 141.866C46.9255 141.928 47.012 142.009 47.0665 142.106C47.1253 142.211 47.1636 142.363 47.1636 142.59V144.25C47.1636 144.963 46.4013 145.36 45.8728 145.007Z" fill="#FFE604" stroke="#3C3C3C" stroke-width="0.7"/>
<path d="M45.8728 69.0075L45.8629 69.0009L45.8525 68.9949L13.805 50.6571C13.5109 50.4317 13.35 50.178 13.35 49.9012V48.241C13.35 47.5285 14.1123 47.1314 14.6408 47.4837L14.6507 47.4904L14.6611 47.4963L46.7281 65.8453L46.7493 65.8574L46.772 65.8665C46.9255 65.9279 47.012 66.0093 47.0665 66.1063C47.1253 66.2107 47.1636 66.3634 47.1636 66.59V68.2502C47.1636 68.9627 46.4013 69.3598 45.8728 69.0075Z" stroke="#3C3C3C" stroke-width="0.7"/>
<path d="M45.8728 127.007L45.8629 127.001L45.8525 126.995L13.805 108.657C13.5109 108.432 13.35 108.178 13.35 107.901V106.241C13.35 105.529 14.1123 105.131 14.6408 105.484L14.6507 105.49L14.6611 105.496L46.7281 123.845L46.7493 123.857L46.772 123.866C46.9255 123.928 47.012 124.009 47.0665 124.106C47.1253 124.211 47.1636 124.363 47.1636 124.59V126.25C47.1636 126.963 46.4013 127.36 45.8728 127.007Z" stroke="#3C3C3C" stroke-width="0.7"/>
<path d="M45.8728 153.007L45.8629 153.001L45.8525 152.995L13.805 134.657C13.5109 134.432 13.35 134.178 13.35 133.901V132.241C13.35 131.529 14.1123 131.131 14.6408 131.484L14.6507 131.49L14.6611 131.496L46.7281 149.845L46.7493 149.857L46.772 149.866C46.9255 149.928 47.012 150.009 47.0665 150.106C47.1253 150.211 47.1636 150.363 47.1636 150.59V152.25C47.1636 152.963 46.4013 153.36 45.8728 153.007Z" stroke="#3C3C3C" stroke-width="0.7"/>
<path d="M45.8728 160.007L45.8629 160.001L45.8525 159.995L13.805 141.657C13.5109 141.432 13.35 141.178 13.35 140.901V139.241C13.35 138.529 14.1123 138.131 14.6408 138.484L14.6507 138.49L14.6611 138.496L46.7281 156.845L46.7493 156.857L46.772 156.866C46.9255 156.928 47.012 157.009 47.0665 157.106C47.1253 157.211 47.1636 157.363 47.1636 157.59V159.25C47.1636 159.963 46.4013 160.36 45.8728 160.007Z" stroke="#3C3C3C" stroke-width="0.7"/>
<path d="M31.6941 68.2088L31.6861 68.2034L31.6778 68.1985L13.8068 57.6585C13.5115 57.4327 13.35 57.1785 13.35 56.9012V55.241C13.35 54.5285 14.1123 54.1314 14.6408 54.4837L14.6488 54.4891L14.6571 54.494L32.5455 65.0443L32.5685 65.0579L32.5933 65.0678C32.7468 65.1292 32.8333 65.2106 32.8879 65.3076C32.9466 65.412 32.9849 65.5647 32.9849 65.7913V67.4515C32.9849 68.164 32.2226 68.5611 31.6941 68.2088Z" stroke="#3C3C3C" stroke-width="0.7"/>
<path d="M31.6941 89.2088L31.6861 89.2034L31.6778 89.1985L13.8068 78.6585C13.5115 78.4327 13.35 78.1785 13.35 77.9012V76.241C13.35 75.5285 14.1123 75.1314 14.6408 75.4837L14.6488 75.4891L14.6571 75.494L32.5455 86.0443L32.5685 86.0579L32.5933 86.0678C32.7468 86.1292 32.8333 86.2106 32.8879 86.3076C32.9466 86.412 32.9849 86.5647 32.9849 86.7913V88.4515C32.9849 89.164 32.2226 89.5611 31.6941 89.2088Z" stroke="#3C3C3C" stroke-width="0.7"/>
<path d="M31.6941 75.2088L31.6861 75.2034L31.6778 75.1985L13.8068 64.6585C13.5115 64.4327 13.35 64.1785 13.35 63.9012V62.241C13.35 61.5285 14.1123 61.1314 14.6408 61.4837L14.6488 61.4891L14.6571 61.494L32.5455 72.0443L32.5685 72.0579L32.5933 72.0678C32.7468 72.1292 32.8333 72.2106 32.8879 72.3076C32.9466 72.412 32.9849 72.5647 32.9849 72.7913V74.4515C32.9849 75.164 32.2226 75.5611 31.6941 75.2088Z" stroke="#3C3C3C" stroke-width="0.7"/>
<path d="M31.6941 96.2088L31.6861 96.2034L31.6778 96.1985L13.8068 85.6585C13.5115 85.4327 13.35 85.1785 13.35 84.9012V83.241C13.35 82.5285 14.1123 82.1314 14.6408 82.4837L14.6488 82.4891L14.6571 82.494L32.5455 93.0443L32.5685 93.0579L32.5933 93.0678C32.7468 93.1292 32.8333 93.2106 32.8879 93.3076C32.9466 93.412 32.9849 93.5647 32.9849 93.7913V95.4515C32.9849 96.164 32.2226 96.5611 31.6941 96.2088Z" stroke="#3C3C3C" stroke-width="0.7"/>
<path d="M68.6941 132.209L68.6861 132.203L68.6778 132.199L50.8068 121.658C50.5115 121.433 50.35 121.179 50.35 120.901V119.241C50.35 118.529 51.1123 118.131 51.6408 118.484L51.6488 118.489L51.6571 118.494L69.5455 129.044L69.5685 129.058L69.5933 129.068C69.7468 129.129 69.8333 129.211 69.8879 129.308C69.9466 129.412 69.9849 129.565 69.9849 129.791V131.451C69.9849 132.164 69.2226 132.561 68.6941 132.209Z" stroke="#3C3C3C" stroke-width="0.7"/>
<path d="M68.6941 166.209L68.6861 166.203L68.6778 166.199L50.8068 155.658C50.5115 155.433 50.35 155.179 50.35 154.901V153.241C50.35 152.529 51.1123 152.131 51.6408 152.484L51.6488 152.489L51.6571 152.494L69.5455 163.044L69.5685 163.058L69.5933 163.068C69.7468 163.129 69.8333 163.211 69.8879 163.308C69.9466 163.412 69.9849 163.565 69.9849 163.791V165.451C69.9849 166.164 69.2226 166.561 68.6941 166.209Z" stroke="#3C3C3C" stroke-width="0.7"/>
<path d="M31.6941 82.2088L31.6861 82.2034L31.6778 82.1985L13.8068 71.6585C13.5115 71.4327 13.35 71.1785 13.35 70.9012V69.241C13.35 68.5285 14.1123 68.1314 14.6408 68.4837L14.6488 68.4891L14.6571 68.494L32.5455 79.0443L32.5685 79.0579L32.5933 79.0678C32.7468 79.1292 32.8333 79.2106 32.8879 79.3076C32.9466 79.412 32.9849 79.5647 32.9849 79.7913V81.4515C32.9849 82.164 32.2226 82.5611 31.6941 82.2088Z" stroke="#3C3C3C" stroke-width="0.7"/>
<path d="M31.6941 103.209L31.6861 103.203L31.6778 103.199L13.8068 92.6585C13.5115 92.4327 13.35 92.1785 13.35 91.9012V90.241C13.35 89.5285 14.1123 89.1314 14.6408 89.4837L14.6488 89.4891L14.6571 89.494L32.5455 100.044L32.5685 100.058L32.5933 100.068C32.7468 100.129 32.8333 100.211 32.8879 100.308C32.9466 100.412 32.9849 100.565 32.9849 100.791V102.451C32.9849 103.164 32.2226 103.561 31.6941 103.209Z" stroke="#3C3C3C" stroke-width="0.7"/>
<path d="M68.6941 139.209L68.6861 139.203L68.6778 139.199L50.8068 128.658C50.5115 128.433 50.35 128.179 50.35 127.901V126.241C50.35 125.529 51.1123 125.131 51.6408 125.484L51.6488 125.489L51.6571 125.494L69.5455 136.044L69.5685 136.058L69.5933 136.068C69.7468 136.129 69.8333 136.211 69.8879 136.308C69.9466 136.412 69.9849 136.565 69.9849 136.791V138.451C69.9849 139.164 69.2226 139.561 68.6941 139.209Z" stroke="#3C3C3C" stroke-width="0.7"/>
<path d="M68.6941 173.209L68.6861 173.203L68.6778 173.199L50.8068 162.658C50.5115 162.433 50.35 162.179 50.35 161.901V160.241C50.35 159.529 51.1123 159.131 51.6408 159.484L51.6488 159.489L51.6571 159.494L69.5455 170.044L69.5685 170.058L69.5933 170.068C69.7468 170.129 69.8333 170.211 69.8879 170.308C69.9466 170.412 69.9849 170.565 69.9849 170.791V172.451C69.9849 173.164 69.2226 173.561 68.6941 173.209Z" stroke="#3C3C3C" stroke-width="0.7"/>
</svg>
