<svg width="200" height="200" viewBox="0 0 200 200" fill="none" xmlns="http://www.w3.org/2000/svg">
<path d="M89.3517 8.4779L89.3586 8.47417L89.3653 8.47014C89.5803 8.34111 89.9594 8.32915 90.4971 8.50845C91.0166 8.68167 91.6044 9.00809 92.1609 9.41949C92.7165 9.83014 93.2244 10.3133 93.5898 10.7871C93.9635 11.2718 94.1486 11.6955 94.15 11.9977C94.15 11.9988 94.15 12 94.15 12.0011L91.5337 140.195V140.202C91.5337 140.865 91.1103 141.322 90.5441 141.889L10.3208 189.7L10.3199 189.701C10.0591 189.857 9.6456 189.93 9.13329 189.871C8.62821 189.812 8.06286 189.629 7.52924 189.32C6.46541 188.703 5.56302 187.61 5.48312 186.065L4.35 55.5863C4.35 55.5858 4.35 55.5854 4.35 55.5849C4.35035 55.2164 4.48308 54.9085 4.70056 54.6086C4.87413 54.3692 5.09254 54.1466 5.33429 53.9046L89.3517 8.4779Z" fill="white" stroke="#3C3C3C" stroke-width="0.7"/>
<path d="M8.49291 188.402L8.49291 188.402L8.42031 58.0065C8.42031 58.0065 8.42031 58.0064 8.42031 58.0063C8.42035 57.3455 8.84148 56.8892 9.40532 56.3242L91.9007 11.1481L91.9008 11.1483L91.9126 11.1412C92.4907 10.7944 93.119 10.8505 93.6129 11.1701C94.1107 11.4922 94.4707 12.0839 94.4707 12.8064V12.8066L94.5434 143.202C94.5434 143.862 94.1225 144.319 93.5587 144.884L11.0637 189.779L11.0573 189.783L11.051 189.786C10.439 190.153 9.79438 190.166 9.3178 189.927C8.85136 189.692 8.49291 189.189 8.49291 188.402Z" fill="white" stroke="#3C3C3C" stroke-width="0.7"/>
<path d="M33.4651 88.3529L33.4761 88.3466L33.4867 88.3396C34.0897 87.9376 34.9076 88.3201 34.9076 89.1714V90.8559C34.9076 91.2469 34.7403 91.4385 34.4822 91.6979L26.1013 96.447L26.0903 96.4533L26.0797 96.4603C25.4766 96.8624 24.6586 96.4799 24.6586 95.6286V93.9441C24.6586 93.6405 24.664 93.5068 24.7038 93.4073C24.7303 93.3409 24.7884 93.2533 25.0266 93.1342L25.0348 93.1301L25.0427 93.1256L33.4651 88.3529Z" stroke="#3C3C3C" stroke-width="0.7"/>
<path d="M33.4651 95.5404L33.4761 95.5341L33.4867 95.5271C34.0897 95.1251 34.9076 95.5076 34.9076 96.3589V98.0434C34.9076 98.4344 34.7403 98.626 34.4822 98.8854L26.1013 103.635L26.0903 103.641L26.0797 103.648C25.4766 104.05 24.6586 103.667 24.6586 102.816V101.132C24.6586 100.828 24.664 100.694 24.7038 100.595C24.7303 100.528 24.7884 100.441 25.0266 100.322L25.0348 100.318L25.0427 100.313L33.4651 95.5404Z" stroke="#3C3C3C" stroke-width="0.7"/>
<path d="M33.4651 103.462L33.4761 103.456L33.4867 103.449C34.0897 103.047 34.9076 103.429 34.9076 104.281V105.965C34.9076 106.356 34.7403 106.548 34.4822 106.807L26.1013 111.556L26.0903 111.563L26.0797 111.57C25.4766 111.972 24.6586 111.589 24.6586 110.738V109.053C24.6586 108.75 24.664 108.616 24.7038 108.517C24.7303 108.45 24.7884 108.363 25.0266 108.244L25.0348 108.239L25.0427 108.235L33.4651 103.462Z" fill="#FFA9BB" stroke="#3C3C3C" stroke-width="0.7"/>
<path d="M33.4651 111.38L33.4761 111.374L33.4867 111.367C34.0897 110.965 34.9076 111.347 34.9076 112.199V113.883C34.9076 114.274 34.7403 114.466 34.4822 114.725L26.1013 119.474L26.0903 119.481L26.0797 119.488C25.4766 119.89 24.6586 119.507 24.6586 118.656V116.971C24.6586 116.668 24.664 116.534 24.7038 116.435C24.7303 116.368 24.7884 116.281 25.0266 116.162L25.0348 116.157L25.0427 116.153L33.4651 111.38Z" fill="#FFA9BB" stroke="#3C3C3C" stroke-width="0.7"/>
<path d="M60.1328 64.2117L60.1432 64.2057L60.1532 64.199C60.7563 63.7969 61.5742 64.1794 61.5742 65.0307V66.7152C61.5742 66.7707 61.5356 66.9204 61.4357 67.1202C61.3501 67.2915 61.2432 67.4522 61.1452 67.5595L25.815 87.748L25.8046 87.754L25.7946 87.7607C25.1914 88.1628 24.3734 87.7802 24.3734 86.9289V85.2444C24.3734 84.9408 24.3788 84.8071 24.4186 84.7077C24.4452 84.6413 24.5032 84.5536 24.7415 84.4345L24.7502 84.4302L24.7586 84.4254L60.1328 64.2117Z" fill="#FFE604" stroke="#3C3C3C" stroke-width="0.7"/>
<path d="M60.1328 106.098L60.1432 106.092L60.1532 106.086C60.7563 105.684 61.5742 106.066 61.5742 106.917V108.602C61.5742 108.657 61.5356 108.807 61.4357 109.007C61.3501 109.178 61.2432 109.339 61.1452 109.446L25.815 129.635L25.8046 129.641L25.7946 129.647C25.1914 130.049 24.3734 129.667 24.3734 128.816V127.131C24.3734 126.828 24.3788 126.694 24.4186 126.594C24.4452 126.528 24.5032 126.44 24.7415 126.321L24.7502 126.317L24.7586 126.312L60.1328 106.098Z" fill="#FFE604" stroke="#3C3C3C" stroke-width="0.7"/>
<path d="M60.1328 115.337L60.1432 115.331L60.1532 115.324C60.7563 114.922 61.5742 115.304 61.5742 116.156V117.84C61.5742 117.896 61.5356 118.045 61.4357 118.245C61.3501 118.417 61.2432 118.577 61.1452 118.684L25.815 138.873L25.8046 138.879L25.7946 138.886C25.1914 139.288 24.3734 138.905 24.3734 138.054V136.369C24.3734 136.066 24.3788 135.932 24.4186 135.833C24.4452 135.766 24.5032 135.679 24.7415 135.56L24.7502 135.555L24.7586 135.55L60.1328 115.337Z" fill="#FFA9BB" stroke="#3C3C3C" stroke-width="0.7"/>
<path d="M60.1328 124.579L60.1432 124.573L60.1532 124.566C60.7563 124.164 61.5742 124.547 61.5742 125.398V127.082C61.5742 127.138 61.5356 127.288 61.4357 127.487C61.3501 127.659 61.2432 127.819 61.1452 127.927L25.815 148.115L25.8046 148.121L25.7946 148.128C25.1914 148.53 24.3734 148.147 24.3734 147.296V145.612C24.3734 145.308 24.3788 145.174 24.4186 145.075C24.4452 145.008 24.5032 144.921 24.7415 144.802L24.7502 144.797L24.7586 144.793L60.1328 124.579Z" stroke="#3C3C3C" stroke-width="0.7"/>
<path d="M60.1328 132.497L60.1432 132.491L60.1532 132.484C60.7563 132.082 61.5742 132.465 61.5742 133.316V135C61.5742 135.056 61.5356 135.206 61.4357 135.405C61.3501 135.577 61.2432 135.737 61.1452 135.845L25.815 156.033L25.8046 156.039L25.7946 156.046C25.1914 156.448 24.3734 156.065 24.3734 155.214V153.53C24.3734 153.226 24.3788 153.092 24.4186 152.993C24.4452 152.926 24.5032 152.839 24.7415 152.72L24.7502 152.715L24.7586 152.711L60.1328 132.497Z" stroke="#3C3C3C" stroke-width="0.7"/>
<path d="M45.5369 54.6653L45.5479 54.6591L45.5583 54.6521C46.1614 54.25 46.9794 54.6326 46.9794 55.4839V57.1684C46.9794 57.4663 46.9628 57.8026 46.6114 57.9784L46.6031 57.9825L46.5951 57.987L36.2075 63.8827L25.8198 69.7783L25.8089 69.7845L25.7985 69.7915C25.1953 70.1936 24.3773 69.811 24.3773 68.9597V67.2752C24.3773 66.9716 24.3827 66.8379 24.4225 66.7385C24.4491 66.6721 24.5071 66.5845 24.7454 66.4653L24.7536 66.4612L24.7616 66.4567L45.5369 54.6653Z" fill="#FF625B" stroke="#3C3C3C" stroke-width="0.7"/>
<path d="M54.7998 58.3127L54.8098 58.307L54.8194 58.3006C55.4225 57.8985 56.2405 58.281 56.2405 59.1323V60.8168C56.2405 61.2082 56.0728 61.3997 55.8141 61.6596L26.0954 78.762L26.0854 78.7677L26.0758 78.7741C25.4727 79.1762 24.6547 78.7936 24.6547 77.9423V76.2579C24.6547 75.9542 24.6601 75.8205 24.6999 75.7211C24.7264 75.6547 24.7845 75.5671 25.0227 75.4479L25.0319 75.4433L25.0408 75.4382L54.7998 58.3127Z" stroke="#3C3C3C" stroke-width="0.7"/>
<rect width="39.5939" height="26.0345" transform="matrix(0.866025 -0.5 2.20305e-08 1 51.3359 80.3203)" fill="#FFE604"/>
<path fill-rule="evenodd" clip-rule="evenodd" d="M59.1254 82.0069C60.266 80.3234 61.1606 77.925 62.5395 77.2306C64.0517 76.469 65.7335 76.684 66.641 78.2218C67.5336 79.7341 67.069 82.5239 67.048 84.8701C67.03 86.8962 67.0845 88.8874 66.5276 90.9322C65.9384 93.0956 65.1343 95.4344 63.8437 96.6354C62.5834 97.8082 61.3058 97.0398 60.0277 96.981C58.861 96.9272 57.6683 97.1009 56.715 96.3071C55.6193 95.3947 54.2839 94.3576 54.2606 92.1787C54.2374 89.9998 55.6553 87.9757 56.6051 85.9898C57.3381 84.4571 58.2367 83.3186 59.1254 82.0069Z" fill="#14E731"/>
<path fill-rule="evenodd" clip-rule="evenodd" d="M78.6945 66.5974C79.98 65.8077 80.7968 66.8914 81.7892 67.2497C82.7074 67.5811 83.9448 67.4885 84.2649 68.6082C84.582 69.7172 83.6848 71.442 83.4064 72.9063C83.095 74.5444 83.5081 76.1098 82.5388 77.6868C81.562 79.2759 80.0217 79.877 78.6945 80.5721C77.4283 81.2353 76.0548 81.9869 75.1046 81.5804C74.1841 81.1866 74.0066 79.7728 73.8304 78.4913C73.6799 77.3973 73.8389 76.1465 74.1753 74.8222C74.5077 73.5137 75.0428 72.2373 75.7424 70.9641C76.6117 69.382 77.4082 67.3875 78.6945 66.5974Z" fill="#FFA9BB"/>
<path fill-rule="evenodd" clip-rule="evenodd" d="M70.4945 74.9519C71.8732 74.1957 73.4982 72.5431 74.5192 72.9627C75.5468 73.3851 74.8899 75.6375 75.2359 76.9006C75.5491 78.0439 76.6407 78.5191 76.4425 79.9836C76.2338 81.525 75.1882 83.1936 74.1793 84.7063C73.0984 86.327 71.9002 87.8983 70.4945 88.9023C68.9645 89.9951 67.2712 90.8551 66.0683 90.4997C64.8833 90.1496 64.7805 88.372 64.3074 87.0744C63.8327 85.7725 62.9251 84.7488 63.3058 82.9232C63.6945 81.0589 64.913 79.0147 66.3113 77.4641C67.596 76.0396 69.0653 75.7357 70.4945 74.9519Z" fill="#FF625B"/>
</svg>
