<svg width="67" height="33" fill="none" xmlns="http://www.w3.org/2000/svg"><g opacity=".9"><path d="M15.438 17.794L18.67 4.198l4.206 15.378L19.4 32.392H9.651L0 0h10.697l4.74 17.794zM38.24 32.392H27.985L19.133 0h10.843l8.265 32.392zM38.338 0h9.795l-8.752 30.707-4.373-17.258L38.338 0z" fill="url(#paint0_linear)"/><path d="M15.438 17.794L18.67 4.198l4.206 15.378L19.4 32.392H9.651L0 0h10.697l4.74 17.794zM38.24 32.392H27.985L19.133 0h10.843l8.265 32.392zM38.338 0h9.795l-8.752 30.707-4.373-17.258L38.338 0zm7.942 11.978h8.325L56.661.008h9.763l-5.652 32.246H40.73l2.723-8.255h9.044l.72-4.334h-8.325l1.387-7.687z" fill="#fff"/></g><defs><linearGradient id="paint0_linear" x1="4.702" y1="16.196" x2="42.318" y2="16.196" gradientUnits="userSpaceOnUse"><stop offset=".167"/><stop offset=".75" stop-color="#fff"/></linearGradient></defs></svg>