<svg width="69" height="69" viewBox="0 0 69 69" fill="none" xmlns="http://www.w3.org/2000/svg">
<circle cx="34.5" cy="34.5" r="34.5" fill="#29C23E"/>
<path d="M28.9617 48.755L15.2495 35.1026C15.1704 35.0239 15.1077 34.9303 15.0649 34.8272C15.022 34.7241 15 34.6136 15 34.502C15 34.3903 15.022 34.2798 15.0649 34.1767C15.1077 34.0736 15.1704 33.9801 15.2495 33.9013L18.7112 30.4324C19.042 30.1013 19.5767 30.1013 19.9074 30.4324L28.9348 39.4147C29.2656 39.7458 29.8041 39.7419 30.1349 39.4108L50.082 19.2517C50.4128 18.9167 50.9512 18.9167 51.2859 19.2479L54.7514 22.7168C55.0822 23.0479 55.0822 23.5831 54.7553 23.9142L33.0235 45.8636L33.0273 45.8675L30.1618 48.7512C29.831 49.0823 29.2925 49.0823 28.9617 48.755Z" fill="white"/>
</svg>
