<svg width="67" height="33" viewBox="0 0 67 33" fill="none" xmlns="http://www.w3.org/2000/svg">
<g opacity="0.9">
<path d="M15.4376 17.7942L18.6711 4.198L22.8769 19.5764L19.4001 32.3919H9.6514L0 0H10.6968L15.4376 17.7942ZM38.2411 32.3919H27.9847L19.1329 0H29.9756L38.2411 32.3919ZM38.3384 0.00066902H48.1331L39.3812 30.708L35.0076 13.4497L38.3384 0.00066902Z" fill="url(#paint0_linear)"/>
<path d="M15.4376 17.7942L18.6711 4.198L22.8769 19.5764L19.4001 32.3919H9.6514L0 0H10.6968L15.4376 17.7942ZM38.2411 32.3919H27.9847L19.1329 0H29.9756L38.2411 32.3919ZM38.3384 0.00066902H48.1331L39.3812 30.708L35.0076 13.4497L38.3384 0.00066902Z" fill="white"/>
<path d="M46.2802 11.9783H54.605L56.6605 0.0078125H66.4239L60.7716 32.2538H40.7305L43.4537 23.999H52.4981L53.2177 19.6645H44.8929L46.2802 11.9783Z" fill="white"/>
</g>
<defs>
<linearGradient id="paint0_linear" x1="4.70205" y1="16.1959" x2="42.3184" y2="16.1959" gradientUnits="userSpaceOnUse">
<stop offset="0.166667"/>
<stop offset="0.75" stop-color="white"/>
</linearGradient>
</defs>
</svg>
