<svg width="17" height="18" viewBox="0 0 17 18" fill="none" xmlns="http://www.w3.org/2000/svg">
<g opacity="0.75">
<path fill-rule="evenodd" clip-rule="evenodd" d="M12.1028 7.52424C12.1028 10.3486 9.90447 12.5485 7.30142 12.5485C4.69837 12.5485 2.5 10.3486 2.5 7.52424C2.5 4.69987 4.69837 2.5 7.30142 2.5C9.90447 2.5 12.1028 4.69987 12.1028 7.52424ZM10.9538 12.8414C9.92352 13.6014 8.6629 14.0485 7.30142 14.0485C3.82124 14.0485 1 11.1275 1 7.52424C1 3.921 3.82124 1 7.30142 1C10.7816 1 13.6028 3.921 13.6028 7.52424C13.6028 9.16722 13.0163 10.6683 12.0481 11.8154L16.0012 15.9654L14.9151 17L10.9538 12.8414Z" fill="white"/>
<path d="M10.9538 12.8414L11.3159 12.4965L11.0118 12.1773L10.657 12.439L10.9538 12.8414ZM12.0481 11.8154L11.666 11.4929L11.3768 11.8356L11.6861 12.1603L12.0481 11.8154ZM16.0012 15.9654L16.346 16.3275L16.7081 15.9826L16.3632 15.6206L16.0012 15.9654ZM14.9151 17L14.553 17.3449L14.8979 17.7069L15.2599 17.3621L14.9151 17ZM7.30142 13.0485C10.1954 13.0485 12.6028 10.6098 12.6028 7.52424H11.6028C11.6028 10.0875 9.61357 12.0485 7.30142 12.0485V13.0485ZM2 7.52424C2 10.6098 4.40748 13.0485 7.30142 13.0485V12.0485C4.98927 12.0485 3 10.0875 3 7.52424H2ZM7.30142 2C4.40748 2 2 4.43871 2 7.52424H3C3 4.96103 4.98927 3 7.30142 3V2ZM12.6028 7.52424C12.6028 4.43871 10.1954 2 7.30142 2V3C9.61357 3 11.6028 4.96103 11.6028 7.52424H12.6028ZM7.30142 14.5485C8.77457 14.5485 10.1384 14.0643 11.2507 13.2438L10.657 12.439C9.70869 13.1386 8.55122 13.5485 7.30142 13.5485V14.5485ZM0.5 7.52424C0.5 11.3871 3.52886 14.5485 7.30142 14.5485V13.5485C4.11362 13.5485 1.5 10.8679 1.5 7.52424H0.5ZM7.30142 0.5C3.52886 0.5 0.5 3.66138 0.5 7.52424H1.5C1.5 4.18063 4.11362 1.5 7.30142 1.5V0.5ZM14.1028 7.52424C14.1028 3.66138 11.074 0.5 7.30142 0.5V1.5C10.4892 1.5 13.1028 4.18063 13.1028 7.52424H14.1028ZM12.4302 12.1379C13.4729 10.9026 14.1028 9.2878 14.1028 7.52424H13.1028C13.1028 9.04664 12.5597 10.4341 11.666 11.4929L12.4302 12.1379ZM11.6861 12.1603L15.6391 16.3103L16.3632 15.6206L12.4102 11.4705L11.6861 12.1603ZM15.6563 15.6034L14.5702 16.638L15.2599 17.3621L16.346 16.3275L15.6563 15.6034ZM15.2771 16.6552L11.3159 12.4965L10.5918 13.1863L14.553 17.3449L15.2771 16.6552Z" fill="black"/>
</g>
</svg>
