<svg width="140" height="140" viewBox="0 0 140 140" fill="none" xmlns="http://www.w3.org/2000/svg">
<path d="M72.4168 116.228L72.3976 116.236L72.3795 116.246C65.9786 119.729 57.1004 118.15 48.1442 112.658C39.2048 107.177 30.2746 97.8435 23.8407 86.0085C17.4036 74.1675 14.2364 62.0192 14.3047 51.9601C14.3731 41.8871 17.6789 33.9965 24.0807 30.5122C24.845 30.0963 25.6986 29.5647 26.6409 28.9779C29.7717 27.0284 33.881 24.4696 38.9432 23.516C47.5845 21.8884 67.5992 26.4605 83.7087 53.7163C97.7661 77.5001 95.8841 96.9503 87.6013 106.994C87.2139 107.464 86.2464 108.215 84.9219 109.112C83.6127 109.998 81.9957 111.002 80.3491 111.974C77.0471 113.924 73.6622 115.73 72.4168 116.228Z" fill="#FFA9BB" stroke="#3C3C3C" stroke-width="0.7"/>
<path d="M72.362 116.089L72.3346 116.1L72.3087 116.114C65.9781 119.56 57.1621 118.012 48.2234 112.531C39.3087 107.064 30.396 97.7518 23.9733 85.9374C17.5459 74.1144 14.3873 61.9909 14.4555 51.9618C14.5237 41.9126 17.8213 34.0908 24.1531 30.6447C30.488 27.1968 39.7596 28.6757 49.1548 34.0872C58.5216 39.4824 67.8803 48.7207 74.2976 60.5252C80.7245 72.3473 83.9359 84.8122 83.6709 95.0457C83.4053 105.297 79.6687 113.166 72.362 116.089Z" fill="#FFE604" stroke="#3C3C3C"/>
<path d="M68.1604 108.567L68.1412 108.575L68.1231 108.585C62.8836 111.444 55.605 110.159 48.2457 105.641C40.9033 101.133 33.5673 93.4523 28.284 83.7079C22.9974 73.9574 20.401 63.9548 20.4622 55.675C20.5234 47.3811 23.244 40.9032 28.4843 38.0435C33.7268 35.1826 41.38 36.4094 49.1143 40.8695C56.8289 45.3182 64.5326 52.9375 69.8121 62.6751C75.0983 72.4249 77.7383 82.7093 77.5147 91.1584C77.2908 99.6196 74.2074 106.141 68.1604 108.567Z" fill="white" stroke="#3C3C3C" stroke-width="0.7"/>
<path d="M38.417 81.5143L36.7539 78.6778L47.7305 72.1705V53.5078L50.2252 54.1429V74.8402L38.417 81.5143Z" fill="#2C2C2C" stroke="#3C3C3C" stroke-width="0.7"/>
<ellipse rx="1.4978" ry="2.3344" transform="matrix(0.891749 -0.452531 0.4502 0.892928 48.953 46.7348)" fill="#2C2C2C"/>
<ellipse rx="1.4978" ry="2.3344" transform="matrix(0.891749 -0.452531 0.4502 0.892928 60.5976 57.0785)" fill="#2C2C2C"/>
<ellipse rx="1.4978" ry="2.3344" transform="matrix(0.891749 -0.452531 0.4502 0.892928 68.578 71.4301)" fill="#2C2C2C"/>
<ellipse rx="1.4978" ry="2.3344" transform="matrix(0.891749 -0.452531 0.4502 0.892928 71.5741 86.4457)" fill="#2C2C2C"/>
<ellipse rx="1.4978" ry="2.3344" transform="matrix(0.891749 -0.452531 0.4502 0.892928 68.578 97.4574)" fill="#2C2C2C"/>
<ellipse rx="1.4978" ry="2.3344" transform="matrix(0.891749 -0.452531 0.4502 0.892928 60.5976 102.465)" fill="#2C2C2C"/>
<ellipse rx="1.4978" ry="2.3344" transform="matrix(0.891749 -0.452531 0.4502 0.892928 48.953 99.7934)" fill="#2C2C2C"/>
<ellipse rx="1.4978" ry="2.3344" transform="matrix(0.891749 -0.452531 0.4502 0.892928 37.6444 89.4496)" fill="#2C2C2C"/>
<ellipse rx="1.4978" ry="2.3344" transform="matrix(0.891749 -0.452531 0.4502 0.892928 29.328 75.0981)" fill="#2C2C2C"/>
<ellipse rx="1.4978" ry="2.3344" transform="matrix(0.892234 -0.451574 0.451156 0.892445 26.3388 60.0827)" fill="#2C2C2C"/>
<ellipse rx="1.4978" ry="2.3344" transform="matrix(0.891749 -0.452531 0.4502 0.892928 29.328 48.7387)" fill="#2C2C2C"/>
<ellipse rx="1.4978" ry="2.3344" transform="matrix(0.891855 -0.452321 0.450409 0.892822 37.6451 43.7309)" fill="#2C2C2C"/>
</svg>
