<svg width="140" height="140" viewBox="0 0 140 140" fill="none" xmlns="http://www.w3.org/2000/svg">
<path d="M37.959 56.1875L64.5276 59.5562L23.6653 36.6445L17.543 39.3312L17.6661 39.4718L37.959 56.1875Z" fill="#FFE604" stroke="#3C3C3C" stroke-width="0.7"/>
<path d="M50.048 29.7715L56.0834 27.0586L63.6766 59.2446L88.8905 73.7007L82.9929 76.4136L82.157 76.616L57.1766 62.2446L49.6094 31.0292L50.048 29.7715Z" fill="#FFE604"/>
<path d="M62.1766 81.7446L68.4045 80.1677L74.6848 109.065L68.7872 111.778L59.1766 81.2446L62.1766 81.7446Z" fill="#FFE604"/>
<path d="M57.1766 62.2446L63.6766 59.2446M57.1766 62.2446L49.6094 31.0292L50.048 29.7715L56.0834 27.0586L63.6766 59.2446M57.1766 62.2446L82.157 76.616L82.9929 76.4136L88.8905 73.7007L63.6766 59.2446M68.4045 80.1677L62.1766 81.7446L59.1766 81.2446L68.7872 111.778L74.6848 109.065L68.4045 80.1677ZM68.4045 80.1677L72.9004 77.9049" stroke="#3C3C3C" stroke-width="0.7"/>
<path d="M49.7515 30.6277L57.3379 61.968L57.4059 62.2491L57.6262 62.3763L82.1761 76.5502L62.3148 81.7457L62.1401 81.7913L62.2029 82.066L68.977 111.704L68.5839 111.704L49.9297 85.2844L49.7515 85.032L49.5734 85.0787L29.7121 90.2741L37.2984 67.6938L37.3668 67.4904L37.1874 67.2376L17.5836 39.6024L17.8462 39.6024L41.879 53.2847L42.0977 53.4091L42.1652 53.208L49.7515 30.6277Z" fill="white" stroke="#3C3C3C" stroke-width="0.7"/>
</svg>
