<svg width="140" height="140" viewBox="0 0 140 140" fill="none" xmlns="http://www.w3.org/2000/svg">
<rect x="0.308999" y="0.514376" width="52.0245" height="74.5381" transform="matrix(0.882855 0.469647 -2.39101e-08 1 55.0362 9.85488)" fill="white" stroke="#3C3C3C" stroke-width="0.7"/>
<rect x="0.308999" y="0.514376" width="52.0245" height="74.5381" transform="matrix(0.882855 0.469647 -2.39101e-08 1 51.0362 12.8549)" fill="white" stroke="#3C3C3C" stroke-width="0.7"/>
<rect x="0.308999" y="0.514376" width="52.0245" height="74.5381" transform="matrix(0.882855 0.469647 -2.39101e-08 1 47.0362 15.8549)" fill="white" stroke="#3C3C3C" stroke-width="0.7"/>
<rect x="0.308999" y="0.514376" width="52.0245" height="74.5381" transform="matrix(0.882855 0.469647 -2.39101e-08 1 43.0362 18.8549)" fill="white" stroke="#3C3C3C" stroke-width="0.7"/>
<rect x="0.308999" y="0.514376" width="52.0245" height="74.5381" transform="matrix(0.882855 0.469647 -2.39101e-08 1 39.0362 21.8549)" fill="white" stroke="#3C3C3C" stroke-width="0.7"/>
<rect x="0.308999" y="0.514376" width="52.0245" height="74.5381" transform="matrix(0.882855 0.469647 -2.39101e-08 1 34.0362 24.8549)" fill="white" stroke="#3C3C3C" stroke-width="0.7"/>
<rect x="0.308999" y="0.514376" width="52.0245" height="74.5381" transform="matrix(0.882855 0.469647 -2.39101e-08 1 29.0362 27.8549)" fill="white" stroke="#3C3C3C" stroke-width="0.7"/>
<rect x="0.308999" y="0.514376" width="52.0245" height="74.5381" transform="matrix(0.882855 0.469647 -2.39101e-08 1 24.0362 30.2377)" fill="white" stroke="#3C3C3C" stroke-width="0.7"/>
<path d="M34.0547 54.2336C34.0547 53.7815 34.5358 53.4918 34.9354 53.7034L60.6215 67.3036C60.8179 67.4075 60.9407 67.6116 60.9407 67.8338V69.8734C60.9407 70.3223 60.4659 70.6122 60.0666 70.4071L34.3806 57.2139C34.1805 57.1112 34.0547 56.9051 34.0547 56.6802L34.0547 54.2336Z" fill="#FFA9BB"/>
<path d="M34.3806 57.2139L34.2206 57.5253L34.3806 57.2139ZM60.9407 69.8734H60.5907H60.9407ZM60.0666 70.4071L60.2265 70.0958L60.0666 70.4071ZM60.6215 67.3036L60.7853 66.9942L60.6215 67.3036ZM60.9407 67.8338H60.5907H60.9407ZM34.7717 54.0127L60.4577 67.6129L60.7853 66.9942L35.0992 53.3941L34.7717 54.0127ZM60.5907 67.8338V69.8734H61.2907L61.2907 67.8338H60.5907ZM60.2265 70.0958L34.5405 56.9026L34.2206 57.5253L59.9067 70.7184L60.2265 70.0958ZM34.4047 56.6802L34.4047 54.2336H33.7047L33.7047 56.6802L34.4047 56.6802ZM34.5405 56.9026C34.4571 56.8598 34.4047 56.7739 34.4047 56.6802L33.7047 56.6802C33.7047 57.0363 33.9039 57.3626 34.2206 57.5253L34.5405 56.9026ZM60.5907 69.8734C60.5907 70.0604 60.3929 70.1812 60.2265 70.0958L59.9067 70.7184C60.5389 71.0432 61.2907 70.5841 61.2907 69.8734H60.5907ZM60.4577 67.6129C60.5395 67.6562 60.5907 67.7412 60.5907 67.8338H61.2907C61.2907 67.4819 61.0962 67.1589 60.7853 66.9942L60.4577 67.6129ZM35.0992 53.3941C34.4665 53.0591 33.7047 53.5177 33.7047 54.2336H34.4047C34.4047 54.0452 34.6052 53.9245 34.7717 54.0127L35.0992 53.3941Z" fill="#3C3C3C"/>
<path fill-rule="evenodd" clip-rule="evenodd" d="M34.1908 62.8079C34.1908 62.3557 34.672 62.066 35.0716 62.2776L53.2818 71.9195C53.4782 72.0235 53.601 72.2275 53.601 72.4498V73.5172C53.601 73.9698 53.1189 74.2594 52.7193 74.0469L34.5091 64.3615C34.3132 64.2573 34.1908 64.0536 34.1908 63.8317L34.1908 62.8079ZM34.1908 67.8935C34.1908 67.4414 34.672 67.1517 35.0716 67.3633L53.2818 77.0052C53.4782 77.1092 53.601 77.3132 53.601 77.5354V78.6029C53.601 79.0555 53.1189 79.3451 52.7193 79.1326L34.5091 69.4472C34.3132 69.343 34.1908 69.1393 34.1908 68.9174L34.1908 67.8935ZM53.601 82.6209C53.601 82.3987 53.4782 82.1946 53.2818 82.0906L35.0716 72.4487C34.672 72.2372 34.1908 72.5268 34.1908 72.979L34.1908 74.0029C34.1908 74.2247 34.3132 74.4284 34.5091 74.5326L52.7193 84.218C53.1189 84.4306 53.601 84.141 53.601 83.6883V82.6209ZM34.1908 78.0647C34.1908 77.6125 34.672 77.3229 35.0716 77.5344L53.2818 87.1763C53.4782 87.2803 53.601 87.4844 53.601 87.7066V88.774C53.601 89.2266 53.1189 89.5163 52.7193 89.3037L34.5091 79.6183C34.3132 79.5141 34.1908 79.3104 34.1908 79.0886L34.1908 78.0647ZM53.601 92.792C53.601 92.5698 53.4782 92.3658 53.2818 92.2618L35.0716 82.6199C34.672 82.4083 34.1908 82.698 34.1908 83.1501L34.1908 84.174C34.1908 84.3959 34.3132 84.5996 34.5091 84.7038L52.7193 94.3892C53.1189 94.6017 53.601 94.3121 53.601 93.8594V92.792ZM33.8501 97.7486C33.959 97.3866 34.3714 97.2142 34.7054 97.3911L42.2948 101.409C42.5481 101.544 42.6712 101.838 42.5886 102.113L42.3121 103.032C42.2029 103.395 41.7887 103.567 41.4545 103.388L33.8757 99.335C33.6238 99.2003 33.5018 98.9067 33.5841 98.6332L33.8501 97.7486ZM42.5886 106.874C42.6712 106.6 42.5481 106.305 42.2948 106.171L34.7054 102.153C34.3714 101.976 33.959 102.148 33.8501 102.51L33.5841 103.395C33.5018 103.668 33.6238 103.962 33.8757 104.097L41.4545 108.15C41.7887 108.329 42.2029 108.157 42.3121 107.794L42.5886 106.874Z" fill="white"/>
<path d="M41.4545 108.15L41.6196 107.842L41.4545 108.15ZM42.3121 107.794L41.9769 107.693L42.3121 107.794ZM33.5841 103.395L33.9193 103.496L33.5841 103.395ZM33.8757 104.097L34.0408 103.788L33.8757 104.097ZM42.2948 106.171L42.4586 105.862L42.2948 106.171ZM42.5886 106.874L42.9238 106.975L42.5886 106.874ZM34.7054 102.153L34.5417 102.462L34.7054 102.153ZM33.8501 102.51L34.1853 102.611L33.8501 102.51ZM33.8757 99.335L34.0408 99.0264L33.8757 99.335ZM33.5841 98.6332L33.2489 98.5324L33.5841 98.6332ZM42.3121 103.032L42.6472 103.133L42.3121 103.032ZM41.4545 103.388L41.6196 103.08L41.4545 103.388ZM34.7054 97.3911L34.5417 97.7004L34.7054 97.3911ZM33.8501 97.7486L34.1853 97.8494L33.8501 97.7486ZM42.2948 101.409L42.4586 101.1L42.2948 101.409ZM42.5886 102.113L42.2535 102.012L42.5886 102.113ZM52.7193 94.3892L52.5549 94.6982L52.7193 94.3892ZM34.5091 84.7038L34.3447 85.0128L34.5091 84.7038ZM53.2818 92.2618L53.4456 91.9525L53.2818 92.2618ZM35.0716 82.6199L35.2353 82.3106L35.0716 82.6199ZM52.7193 89.3037L52.8836 88.9947L52.7193 89.3037ZM35.0716 77.5344L34.9078 77.8437L35.0716 77.5344ZM53.2818 87.1763L53.4455 86.867L53.2818 87.1763ZM52.7193 84.218L52.8836 83.909L52.7193 84.218ZM34.1908 74.0029H33.8408H34.1908ZM34.5091 74.5326L34.3447 74.8416L34.5091 74.5326ZM53.2818 82.0906L53.4456 81.7813L53.2818 82.0906ZM35.0716 72.4487L34.9078 72.7581L35.0716 72.4487ZM52.7193 79.1326L52.8836 78.8236L52.7193 79.1326ZM53.2818 77.0052L53.4455 76.6959L53.2818 77.0052ZM52.7193 74.0469L52.5549 74.3559L52.7193 74.0469ZM53.2818 71.9195L53.118 72.2288L53.2818 71.9195ZM53.4455 71.6102L35.2353 61.9683L34.9078 62.5869L53.118 72.2288L53.4455 71.6102ZM53.951 73.5172V72.4498H53.251V73.5172H53.951ZM34.3447 64.6705L52.5549 74.3559L52.8836 73.7379L34.6734 64.0525L34.3447 64.6705ZM33.8408 62.8079L33.8408 63.8317L34.5408 63.8317L34.5408 62.8079L33.8408 62.8079ZM53.4455 76.6959L35.2353 67.054L34.9078 67.6726L53.118 77.3145L53.4455 76.6959ZM53.951 78.6029V77.5354H53.251V78.6029H53.951ZM34.3447 69.7562L52.5549 79.4416L52.8836 78.8236L34.6734 69.1382L34.3447 69.7562ZM33.8408 67.8935L33.8408 68.9174H34.5408L34.5408 67.8935H33.8408ZM34.9078 72.7581L53.118 82.4L53.4456 81.7813L35.2353 72.1394L34.9078 72.7581ZM34.5408 74.0029L34.5408 72.979L33.8408 72.979L33.8408 74.0029H34.5408ZM52.8836 83.909L34.6734 74.2236L34.3447 74.8416L52.5549 84.527L52.8836 83.909ZM53.251 82.6209V83.6883H53.951V82.6209H53.251ZM53.4455 86.867L35.2353 77.2251L34.9078 77.8437L53.118 87.4856L53.4455 86.867ZM53.951 88.774V87.7066H53.251V88.774H53.951ZM34.3447 79.9273L52.5549 89.6127L52.8836 88.9947L34.6734 79.3093L34.3447 79.9273ZM33.8408 78.0647L33.8408 79.0886H34.5408L34.5408 78.0647H33.8408ZM34.9078 82.9292L53.118 92.5711L53.4456 91.9525L35.2353 82.3106L34.9078 82.9292ZM34.5408 84.174L34.5408 83.1501H33.8408L33.8408 84.174H34.5408ZM52.8836 94.0802L34.6734 84.3947L34.3447 85.0128L52.5549 94.6982L52.8836 94.0802ZM53.251 92.792V93.8594H53.951V92.792H53.251ZM42.4586 101.1L34.8692 97.0818L34.5417 97.7004L42.131 101.719L42.4586 101.1ZM42.6472 103.133L42.9238 102.213L42.2535 102.012L41.9769 102.931L42.6472 103.133ZM33.7106 99.6437L41.2895 103.697L41.6196 103.08L34.0408 99.0264L33.7106 99.6437ZM33.5149 97.6478L33.2489 98.5324L33.9193 98.734L34.1853 97.8494L33.5149 97.6478ZM34.5417 102.462L42.131 106.481L42.4586 105.862L34.8692 101.844L34.5417 102.462ZM33.9193 103.496L34.1853 102.611L33.5149 102.409L33.2489 103.294L33.9193 103.496ZM41.6196 107.842L34.0408 103.788L33.7106 104.405L41.2895 108.459L41.6196 107.842ZM42.2535 106.773L41.9769 107.693L42.6472 107.895L42.9238 106.975L42.2535 106.773ZM41.2895 108.459C41.8186 108.742 42.4744 108.469 42.6472 107.895L41.9769 107.693C41.9314 107.844 41.7589 107.916 41.6196 107.842L41.2895 108.459ZM33.2489 103.294C33.1187 103.727 33.3118 104.192 33.7106 104.405L34.0408 103.788C33.9358 103.732 33.885 103.61 33.9193 103.496L33.2489 103.294ZM42.131 106.481C42.2366 106.536 42.2879 106.659 42.2535 106.773L42.9238 106.975C43.0545 106.541 42.8596 106.074 42.4586 105.862L42.131 106.481ZM34.8692 101.844C34.3403 101.563 33.6873 101.836 33.5149 102.409L34.1853 102.611C34.2306 102.46 34.4025 102.388 34.5417 102.462L34.8692 101.844ZM34.0408 99.0264C33.9358 98.9703 33.885 98.8479 33.9193 98.734L33.2489 98.5324C33.1187 98.9655 33.3118 99.4304 33.7106 99.6437L34.0408 99.0264ZM41.9769 102.931C41.9314 103.083 41.7589 103.154 41.6196 103.08L41.2895 103.697C41.8186 103.98 42.4744 103.708 42.6472 103.133L41.9769 102.931ZM34.8692 97.0818C34.3403 96.8017 33.6873 97.0746 33.5149 97.6478L34.1853 97.8494C34.2306 97.6985 34.4025 97.6267 34.5417 97.7004L34.8692 97.0818ZM42.131 101.719C42.2366 101.775 42.2879 101.897 42.2535 102.012L42.9238 102.213C43.0545 101.779 42.8596 101.313 42.4586 101.1L42.131 101.719ZM52.5549 94.6982C53.1877 95.0347 53.951 94.5761 53.951 93.8594H53.251C53.251 94.048 53.0501 94.1687 52.8836 94.0802L52.5549 94.6982ZM33.8408 84.174C33.8408 84.5253 34.0346 84.8478 34.3447 85.0128L34.6734 84.3947C34.5918 84.3513 34.5408 84.2665 34.5408 84.174H33.8408ZM53.118 92.5711C53.1998 92.6144 53.251 92.6994 53.251 92.792H53.951C53.951 92.4402 53.7565 92.1171 53.4456 91.9525L53.118 92.5711ZM35.2353 82.3106C34.6026 81.9756 33.8408 82.4342 33.8408 83.1501H34.5408C34.5408 82.9617 34.7413 82.841 34.9078 82.9292L35.2353 82.3106ZM34.6734 79.3093C34.5918 79.2659 34.5408 79.181 34.5408 79.0886H33.8408C33.8408 79.4398 34.0346 79.7624 34.3447 79.9273L34.6734 79.3093ZM53.251 88.774C53.251 88.9626 53.0501 89.0833 52.8836 88.9947L52.5549 89.6127C53.1877 89.9493 53.951 89.4907 53.951 88.774H53.251ZM35.2353 77.2251C34.6026 76.8901 33.8408 77.3488 33.8408 78.0647H34.5408C34.5408 77.8763 34.7413 77.7556 34.9078 77.8437L35.2353 77.2251ZM53.118 87.4856C53.1998 87.529 53.251 87.614 53.251 87.7066H53.951C53.951 87.3547 53.7565 87.0317 53.4455 86.867L53.118 87.4856ZM52.5549 84.527C53.1877 84.8636 53.951 84.405 53.951 83.6883H53.251C53.251 83.8769 53.0501 83.9976 52.8836 83.909L52.5549 84.527ZM33.8408 74.0029C33.8408 74.3541 34.0346 74.6767 34.3447 74.8416L34.6734 74.2236C34.5918 74.1802 34.5408 74.0953 34.5408 74.0029H33.8408ZM53.118 82.4C53.1998 82.4433 53.251 82.5283 53.251 82.6209H53.951C53.951 82.269 53.7565 81.946 53.4456 81.7813L53.118 82.4ZM35.2353 72.1394C34.6026 71.8044 33.8408 72.2631 33.8408 72.979L34.5408 72.979C34.5408 72.7906 34.7413 72.6699 34.9078 72.7581L35.2353 72.1394ZM34.6734 69.1382C34.5918 69.0948 34.5408 69.0099 34.5408 68.9174H33.8408C33.8408 69.2687 34.0346 69.5912 34.3447 69.7562L34.6734 69.1382ZM53.251 78.6029C53.251 78.7915 53.0501 78.9121 52.8836 78.8236L52.5549 79.4416C53.1877 79.7781 53.951 79.3195 53.951 78.6029H53.251ZM35.2353 67.054C34.6026 66.719 33.8408 67.1776 33.8408 67.8935H34.5408C34.5408 67.7051 34.7413 67.5844 34.9078 67.6726L35.2353 67.054ZM53.118 77.3145C53.1998 77.3578 53.251 77.4428 53.251 77.5354H53.951C53.951 77.1836 53.7565 76.8605 53.4455 76.6959L53.118 77.3145ZM34.6734 64.0525C34.5918 64.0091 34.5408 63.9242 34.5408 63.8317L33.8408 63.8317C33.8408 64.183 34.0346 64.5056 34.3447 64.6705L34.6734 64.0525ZM53.251 73.5172C53.251 73.7058 53.0501 73.8264 52.8836 73.7379L52.5549 74.3559C53.1877 74.6925 53.951 74.2339 53.951 73.5172H53.251ZM35.2353 61.9683C34.6026 61.6333 33.8408 62.0919 33.8408 62.8079L34.5408 62.8079C34.5408 62.6195 34.7413 62.4988 34.9078 62.5869L35.2353 61.9683ZM53.118 72.2288C53.1998 72.2721 53.251 72.3572 53.251 72.4498H53.951C53.951 72.0979 53.7565 71.7748 53.4455 71.6102L53.118 72.2288Z" fill="#3C3C3C"/>
</svg>
