<svg width="140" height="140" viewBox="0 0 140 140" fill="none" xmlns="http://www.w3.org/2000/svg">
<path d="M39.3856 33.1396V43.7415L59.5883 55.2771V60.7295L33.7267 45.5574L32.9414 31.0078L39.3856 33.1396Z" fill="#FFE604"/>
<path d="M33.7267 45.5574L39.3856 43.7415M33.7267 45.5574L32.9414 31.0078C32.9414 31.0078 37.2375 32.429 39.3856 33.1396C39.3856 33.1396 39.3856 40.2075 39.3856 43.7415M33.7267 45.5574L59.5883 60.7295V55.2771L39.3856 43.7415" stroke="#3C3C3C" stroke-width="0.7"/>
<path d="M32.5003 19.25L71.6705 41.9439V69.9817L66.3171 71.8649L65.2841 71.248L64.9143 43.7599L27.2701 22.2416L27.0859 20.9699L32.5003 19.25Z" fill="#FFE604"/>
<path d="M66.0116 43.7599L71.6705 41.9439M71.6705 41.9439L32.5003 19.25L27.0859 20.9699L27.2701 22.2416L64.9143 43.7599L65.2841 71.248L66.3171 71.8649L71.6705 69.9817V41.9439Z" stroke="#3C3C3C" stroke-width="0.7"/>
<path d="M56.5551 110.435L51.3813 112.261L50.1706 111.565L49.2305 61.1328L56.5551 63.027V110.435Z" fill="#FFA9BB" stroke="#3C3C3C" stroke-width="0.7"/>
<path d="M40.3234 90.6953L35.4031 92.4538L35.4023 95.1983L44.6035 99.3994V91.5043L40.3234 90.6953Z" fill="#FFA9BB" stroke="#3C3C3C" stroke-width="0.7"/>
<path d="M40.3207 83.1641L35.4453 84.8103L35.5332 85.1924L41.6156 89.3393L46.7835 86.835L40.3207 83.1641Z" fill="#FFA9BB" stroke="#3C3C3C" stroke-width="0.7"/>
<path fill-rule="evenodd" clip-rule="evenodd" d="M41.9375 57.8389L41.9375 88.9108L35.345 85.1046L35.345 89.9595L41.9375 93.7658L41.9375 96.5816L35.345 92.7754L35.345 100.835L41.9375 104.641L41.9375 106.874L51.0336 112.126L51.0336 63.0905L65.9711 71.7147L65.9711 43.75L27 21.25L27 49.2147L41.9375 57.8389ZM33.6762 31.9014L59.2119 46.6444L59.2119 60.4326L33.6762 45.6895L33.6762 31.9014Z" fill="white"/>
<path d="M41.9375 88.9108L41.9375 89.2608L42.2407 89.4358L42.2407 89.0858L41.9375 88.9108ZM41.9375 57.8389L42.2407 58.0139L42.2407 57.6639L41.9375 57.4889L41.9375 57.8389ZM35.345 85.1046L35.345 84.7546L35.0419 84.5796L35.0419 84.9296L35.345 85.1046ZM35.345 89.9595L35.0419 89.7845L35.0419 90.1345L35.345 90.3095L35.345 89.9595ZM41.9375 93.7658L42.2407 93.9408L42.2407 93.5908L41.9375 93.4158L41.9375 93.7658ZM41.9375 96.5816L41.9375 96.9316L42.2407 97.1066L42.2407 96.7566L41.9375 96.5816ZM35.345 92.7754L35.345 92.4254L35.0419 92.2504L35.0419 92.6004L35.345 92.7754ZM35.345 100.835L35.0419 100.66L35.0419 101.01L35.345 101.185L35.345 100.835ZM41.9375 104.641L42.2407 104.816L42.2407 104.466L41.9375 104.291L41.9375 104.641ZM41.9375 106.874L41.6344 106.699L41.6344 107.049L41.9375 107.224L41.9375 106.874ZM51.0336 112.126L51.0336 112.476L51.3367 112.651L51.3367 112.301L51.0336 112.126ZM51.0336 63.0905L51.0336 62.7405L50.7305 62.5655L50.7305 62.9155L51.0336 63.0905ZM65.9711 71.7147L65.9711 72.0647L66.2742 72.2397L66.2742 71.8897L65.9711 71.7147ZM65.9711 43.75L66.2743 43.925L66.2743 43.575L65.9711 43.4L65.9711 43.75ZM27 21.25L27 20.9L26.6969 20.725L26.6969 21.075L27 21.25ZM27 49.2147L26.6969 49.0397L26.6969 49.3897L27 49.5647L27 49.2147ZM59.2119 46.6444L59.515 46.8194L59.515 46.4694L59.2119 46.2944L59.2119 46.6444ZM33.6762 31.9014L33.6762 31.5514L33.3731 31.3764L33.3731 31.7264L33.6762 31.9014ZM59.2119 60.4326L59.2119 60.7826L59.515 60.9576L59.515 60.6076L59.2119 60.4326ZM33.6762 45.6895L33.3731 45.5145L33.3731 45.8645L33.6762 46.0395L33.6762 45.6895ZM42.2407 89.0858L42.2407 58.0139L41.6344 57.6639L41.6344 88.7358L42.2407 89.0858ZM35.345 85.4546L41.9375 89.2608L41.9375 88.5608L35.345 84.7546L35.345 85.4546ZM35.6481 90.1345L35.6481 85.2796L35.0419 84.9296L35.0419 89.7845L35.6481 90.1345ZM41.9375 93.4158L35.345 89.6095L35.345 90.3095L41.9375 94.1158L41.9375 93.4158ZM42.2407 96.7566L42.2407 93.9408L41.6344 93.5908L41.6344 96.4066L42.2407 96.7566ZM35.345 93.1254L41.9375 96.9316L41.9375 96.2316L35.345 92.4254L35.345 93.1254ZM35.6481 101.01L35.6481 92.9504L35.0419 92.6004L35.0419 100.66L35.6481 101.01ZM41.9375 104.291L35.345 100.485L35.345 101.185L41.9375 104.991L41.9375 104.291ZM42.2407 107.049L42.2407 104.816L41.6344 104.466L41.6344 106.699L42.2407 107.049ZM51.0336 111.776L41.9375 106.524L41.9375 107.224L51.0336 112.476L51.0336 111.776ZM50.7305 62.9155L50.7305 111.951L51.3367 112.301L51.3367 63.2655L50.7305 62.9155ZM65.9711 71.3647L51.0336 62.7405L51.0336 63.4405L65.9711 72.0647L65.9711 71.3647ZM65.668 43.575L65.668 71.5397L66.2742 71.8897L66.2743 43.925L65.668 43.575ZM27 21.6L65.9711 44.1L65.9711 43.4L27 20.9L27 21.6ZM27.3031 49.3897L27.3031 21.425L26.6969 21.075L26.6969 49.0397L27.3031 49.3897ZM41.9375 57.4889L27 48.8647L27 49.5647L41.9375 58.1889L41.9375 57.4889ZM59.2119 46.2944L33.6762 31.5514L33.6762 32.2514L59.2119 46.9944L59.2119 46.2944ZM59.515 60.6076L59.515 46.8194L58.9088 46.4694L58.9088 60.2576L59.515 60.6076ZM33.6762 46.0395L59.2119 60.7826L59.2119 60.0826L33.6762 45.3395L33.6762 46.0395ZM33.3731 31.7264L33.3731 45.5145L33.9793 45.8645L33.9793 32.0764L33.3731 31.7264Z" fill="#3C3C3C"/>
</svg>
