<svg width="140" height="140" viewBox="0 0 140 140" fill="none" xmlns="http://www.w3.org/2000/svg">
<rect x="0.308999" y="0.514376" width="52.0245" height="38.3181" transform="matrix(0.882855 0.469647 -2.39101e-08 1 52.0362 17.8549)" fill="white" stroke="#3C3C3C" stroke-width="0.7"/>
<rect x="0.308999" y="0.514376" width="23.5983" height="17.2817" transform="matrix(0.882855 0.469647 -2.39101e-08 1 56.0362 34.4721)" fill="#FFE604" stroke="#3C3C3C" stroke-width="0.7"/>
<rect x="0.308999" y="0.514376" width="9.49421" height="17.2817" transform="matrix(0.882855 0.469647 -2.39101e-08 1 79.0362 46.4721)" fill="white" stroke="#3C3C3C" stroke-width="0.7"/>
<path d="M57 27.2227L83.886 41.4582L83.886 44.8417L57 31.0322L57 27.2227Z" fill="#C4C4C4"/>
<rect x="0.308999" y="0.514376" width="52.0245" height="38.3181" transform="matrix(0.882855 0.469647 -2.39101e-08 1 52.0362 57.4721)" fill="white" stroke="#3C3C3C" stroke-width="0.7"/>
<rect x="0.308999" y="0.514376" width="23.5983" height="17.2817" transform="matrix(0.882855 0.469647 -2.39101e-08 1 56.0362 74.0932)" fill="#FFA9BB" stroke="#3C3C3C" stroke-width="0.7"/>
<rect x="0.308999" y="0.514376" width="9.49421" height="17.2817" transform="matrix(0.882855 0.469647 -2.39101e-08 1 79.0362 86.0932)" fill="white" stroke="#3C3C3C" stroke-width="0.7"/>
<path d="M57 66.8438L83.886 81.0793L83.886 84.4628L57 70.6533L57 66.8438Z" fill="#C4C4C4"/>
<rect x="0.308999" y="0.514376" width="52.0245" height="38.3181" transform="matrix(0.882855 0.469647 -2.39101e-08 1 43.0362 17.8549)" fill="white" stroke="#3C3C3C" stroke-width="0.7"/>
<rect x="0.308999" y="0.514376" width="23.5983" height="17.2817" transform="matrix(0.882855 0.469647 -2.39101e-08 1 47.0362 34.4721)" fill="#FFE604" stroke="#3C3C3C" stroke-width="0.7"/>
<rect x="0.308999" y="0.514376" width="9.49421" height="17.2817" transform="matrix(0.882855 0.469647 -2.39101e-08 1 70.0362 46.4721)" fill="white" stroke="#3C3C3C" stroke-width="0.7"/>
<path d="M48 27.2227L74.886 41.4582L74.886 44.8417L48 31.0322L48 27.2227Z" fill="#C4C4C4"/>
<rect x="0.308999" y="0.514376" width="52.0245" height="38.3181" transform="matrix(0.882855 0.469647 -2.39101e-08 1 43.0362 57.4721)" fill="white" stroke="#3C3C3C" stroke-width="0.7"/>
<rect x="0.308999" y="0.514376" width="23.5983" height="17.2817" transform="matrix(0.882855 0.469647 -2.39101e-08 1 47.0362 74.0932)" fill="#FFA9BB" stroke="#3C3C3C" stroke-width="0.7"/>
<rect x="0.308999" y="0.514376" width="9.49421" height="17.2817" transform="matrix(0.882855 0.469647 -2.39101e-08 1 70.0362 86.0932)" fill="white" stroke="#3C3C3C" stroke-width="0.7"/>
<path d="M48 66.8438L74.886 81.0793L74.886 84.4628L48 70.6533L48 66.8438Z" fill="#C4C4C4"/>
<rect x="0.308999" y="0.514376" width="52.0245" height="38.3181" transform="matrix(0.882855 0.469647 -2.39101e-08 1 34.0362 17.8549)" fill="white" stroke="#3C3C3C" stroke-width="0.7"/>
<rect x="0.308999" y="0.514376" width="23.5983" height="17.2817" transform="matrix(0.882855 0.469647 -2.39101e-08 1 38.0362 34.4721)" fill="#FFE604" stroke="#3C3C3C" stroke-width="0.7"/>
<rect x="0.308999" y="0.514376" width="9.49421" height="17.2817" transform="matrix(0.882855 0.469647 -2.39101e-08 1 61.0362 46.4721)" fill="white" stroke="#3C3C3C" stroke-width="0.7"/>
<path d="M39 27.2227L65.886 41.4582L65.886 44.8417L39 31.0322L39 27.2227Z" fill="#C4C4C4"/>
<rect x="0.308999" y="0.514376" width="52.0245" height="38.3181" transform="matrix(0.882855 0.469647 -2.39101e-08 1 34.0362 57.4721)" fill="white" stroke="#3C3C3C" stroke-width="0.7"/>
<rect x="0.308999" y="0.514376" width="23.5983" height="17.2817" transform="matrix(0.882855 0.469647 -2.39101e-08 1 38.0362 74.0932)" fill="#FFA9BB" stroke="#3C3C3C" stroke-width="0.7"/>
<rect x="0.308999" y="0.514376" width="9.49421" height="17.2817" transform="matrix(0.882855 0.469647 -2.39101e-08 1 61.0362 86.0932)" fill="white" stroke="#3C3C3C" stroke-width="0.7"/>
<path d="M39 66.8438L65.886 81.0793L65.886 84.4628L39 70.6533L39 66.8438Z" fill="#C4C4C4"/>
<rect x="0.308999" y="0.514376" width="52.0245" height="38.3181" transform="matrix(0.882855 0.469647 -2.39101e-08 1 25.0362 17.8549)" fill="white" stroke="#3C3C3C" stroke-width="0.7"/>
<rect x="0.308999" y="0.514376" width="23.5983" height="17.2817" transform="matrix(0.882855 0.469647 -2.39101e-08 1 29.0362 34.4721)" fill="#FFE604" stroke="#3C3C3C" stroke-width="0.7"/>
<rect x="0.308999" y="0.514376" width="9.49421" height="17.2817" transform="matrix(0.882855 0.469647 -2.39101e-08 1 52.0362 46.4721)" fill="white" stroke="#3C3C3C" stroke-width="0.7"/>
<path d="M30 27.2227L56.886 41.4582L56.886 44.8417L30 31.0322L30 27.2227Z" fill="#C4C4C4"/>
<rect x="0.308999" y="0.514376" width="52.0245" height="38.3181" transform="matrix(0.882855 0.469647 -2.39101e-08 1 25.0362 57.4721)" fill="white" stroke="#3C3C3C" stroke-width="0.7"/>
<rect x="0.308999" y="0.514376" width="23.5983" height="17.2817" transform="matrix(0.882855 0.469647 -2.39101e-08 1 29.0362 74.0932)" fill="#FFA9BB" stroke="#3C3C3C" stroke-width="0.7"/>
<rect x="0.308999" y="0.514376" width="9.49421" height="17.2817" transform="matrix(0.882855 0.469647 -2.39101e-08 1 52.0362 86.0932)" fill="white" stroke="#3C3C3C" stroke-width="0.7"/>
<path d="M30 66.8438L56.886 81.0793L56.886 84.4628L30 70.6533L30 66.8438Z" fill="#C4C4C4"/>
<rect x="0.308999" y="0.514376" width="52.0245" height="38.3181" transform="matrix(0.882855 0.469647 -2.39101e-08 1 16.0362 17.8549)" fill="white" stroke="#3C3C3C" stroke-width="0.7"/>
<rect x="0.308999" y="0.514376" width="23.5983" height="17.2817" transform="matrix(0.882855 0.469647 -2.39101e-08 1 20.0362 34.4721)" fill="#FFE604" stroke="#3C3C3C" stroke-width="0.7"/>
<rect x="0.308999" y="0.514376" width="9.49421" height="17.2817" transform="matrix(0.882855 0.469647 -2.39101e-08 1 43.0362 46.4721)" fill="white" stroke="#3C3C3C" stroke-width="0.7"/>
<path d="M21 27.2227L47.886 41.4582L47.886 44.8417L21 31.0322L21 27.2227Z" fill="#FF625B"/>
<rect x="0.308999" y="0.514376" width="52.0245" height="38.3181" transform="matrix(0.882855 0.469647 -2.39101e-08 1 16.0362 57.4721)" fill="white" stroke="#3C3C3C" stroke-width="0.7"/>
<rect x="0.308999" y="0.514376" width="23.5983" height="17.2817" transform="matrix(0.882855 0.469647 -2.39101e-08 1 20.0362 74.0932)" fill="#FFA9BB" stroke="#3C3C3C" stroke-width="0.7"/>
<rect x="0.308999" y="0.514376" width="9.49421" height="17.2817" transform="matrix(0.882855 0.469647 -2.39101e-08 1 43.0362 86.0932)" fill="white" stroke="#3C3C3C" stroke-width="0.7"/>
<path d="M21 66.8438L47.886 81.0793L47.886 84.4628L21 70.6533L21 66.8438Z" fill="#14E731"/>
</svg>
