<svg width="141" height="140" viewBox="0 0 141 140" fill="none" xmlns="http://www.w3.org/2000/svg">
<path d="M26.6367 33.9637L52.4763 23.2383L62.8007 43.5997L83.2006 35.4339L99.9086 53.1171V116.759L83.2006 99.0759L62.8007 107.242L52.4763 86.8802L39.5565 92.243L26.6367 97.6057V33.9637Z" fill="white"/>
<path d="M52.4763 23.2383L26.6367 33.9637V97.6057L39.5565 92.243L52.4763 86.8802M52.4763 23.2383V86.8802M52.4763 23.2383L62.8007 43.5997M52.4763 86.8802L62.8007 107.242M62.8007 107.242V43.5997M62.8007 107.242L83.2006 99.0759M62.8007 43.5997L83.2006 35.4339M83.2006 99.0759V35.4339M83.2006 99.0759L99.9086 116.759M83.2006 35.4339L99.9086 53.1171M99.9086 53.1171C99.9086 79.1698 99.9086 116.759 99.9086 116.759M99.9086 53.1171V116.759" stroke="#3C3C3C" stroke-width="0.7"/>
<path d="M91.2871 76.5059L89.2891 74.2969V77.2L91.2871 79.0306V76.5059Z" stroke="#3C3C3C" stroke-width="0.7" stroke-linecap="round" stroke-linejoin="round"/>
<path d="M35.7188 55.9725L37.2327 59.1013M37.2327 55.3555L35.7188 59.7151" stroke="#3C3C3C" stroke-width="0.7"/>
<path d="M52.4395 76.1543L52.1548 76.3579L52.3384 76.6147L52.6127 76.4584L52.4395 76.1543ZM62.9348 70.1735L63.1729 69.9171L62.9847 69.7423L62.7615 69.8694L62.9348 70.1735ZM83.0567 88.8582L82.8186 89.1147L83.1232 89.3975L83.35 89.0492L83.0567 88.8582ZM38.8403 57.7387L39.3951 58.5145L39.9645 58.1074L39.4097 57.3316L38.8403 57.7387ZM40.5046 60.0661L41.6141 61.6177L42.1835 61.2106L41.074 59.659L40.5046 60.0661ZM42.7237 63.1693L43.8332 64.7209L44.4026 64.3137L43.2931 62.7622L42.7237 63.1693ZM44.9428 66.2725L46.0523 67.8241L46.6217 67.4169L45.5122 65.8653L44.9428 66.2725ZM47.1618 69.3757L48.2714 70.9273L48.8408 70.5201L47.7312 68.9685L47.1618 69.3757ZM49.3809 72.4789L50.4904 74.0305L51.0598 73.6233L49.9503 72.0717L49.3809 72.4789ZM51.6 75.5821L52.1548 76.3579L52.7242 75.9507L52.1694 75.1749L51.6 75.5821ZM52.6127 76.4584L53.4874 75.96L53.1408 75.3518L52.2662 75.8502L52.6127 76.4584ZM55.2366 74.9632L56.9858 73.9664L56.6392 73.3582L54.89 74.355L55.2366 74.9632ZM58.735 72.9696L60.4842 71.9728L60.1377 71.3646L58.3884 72.3614L58.735 72.9696ZM62.2335 70.976L63.1081 70.4776L62.7615 69.8694L61.8869 70.3678L62.2335 70.976ZM62.6966 70.43L63.4153 71.0973L63.8916 70.5844L63.1729 69.9171L62.6966 70.43ZM64.8525 72.4319L66.2898 73.7666L66.7661 73.2536L65.3289 71.919L64.8525 72.4319ZM67.7271 75.1012L69.1644 76.4358L69.6407 75.9228L68.2034 74.5882L67.7271 75.1012ZM70.6017 77.7704L72.039 79.105L72.5153 78.5921L71.078 77.2575L70.6017 77.7704ZM73.4762 80.4397L74.9135 81.7743L75.3898 81.2613L73.9526 79.9267L73.4762 80.4397ZM76.3508 83.1089L77.7881 84.4435L78.2644 83.9306L76.8271 82.5959L76.3508 83.1089ZM79.2254 85.7781L80.6627 87.1128L81.139 86.5998L79.7017 85.2652L79.2254 85.7781ZM82.0999 88.4474L82.8186 89.1147L83.2949 88.6017L82.5762 87.9344L82.0999 88.4474ZM83.35 89.0492L83.8924 88.2162L83.3058 87.8342L82.7634 88.6672L83.35 89.0492ZM84.9773 86.5502L86.0621 84.8843L85.4755 84.5023L84.3907 86.1683L84.9773 86.5502ZM87.1469 83.2183L88.2317 81.5523L87.6451 81.1704L86.5603 82.8363L87.1469 83.2183ZM89.3165 79.8864L89.8589 79.0534L89.2723 78.6714L88.7299 79.5044L89.3165 79.8864Z" fill="#3C3C3C"/>
<path d="M36.4747 36.1641C34.0827 37.5451 32.1445 40.8931 32.1445 43.6541C32.1445 48.4281 36.4747 52.1541 36.4747 52.1541C36.4747 52.1541 40.8048 43.4271 40.8048 38.6541C40.8048 35.8941 38.8666 34.7831 36.4747 36.1641ZM36.4747 43.9151C35.8545 44.2731 35.2598 44.332 34.8213 44.0788C34.3827 43.8257 34.1364 43.2811 34.1364 42.5651C34.1364 41.849 34.3827 41.02 34.8213 40.2605C35.2598 39.5009 35.8545 38.8731 36.4747 38.5151C37.0948 38.157 37.6896 38.0981 38.1281 38.3513C38.5666 38.6045 38.8129 39.149 38.8129 39.8651C38.8129 40.5811 38.5666 41.4101 38.1281 42.1697C37.6896 42.9292 37.0948 43.557 36.4747 43.9151Z" fill="#FFA9BB" stroke="#3C3C3C" stroke-width="0.7"/>
</svg>
