<svg width="81" height="82" viewBox="0 0 81 82" fill="none" xmlns="http://www.w3.org/2000/svg">
<path d="M77.8471 25.1126C75.8146 20.212 72.8577 15.7578 69.1412 11.9981C65.4358 8.23182 61.0342 5.23742 56.1864 3.1849C51.2202 1.07205 45.8844 -0.0110036 40.4958 8.42817e-05H40.3146C34.8337 0.0275396 29.534 1.12575 24.5424 3.28557C19.7362 5.35914 15.3759 8.35884 11.7054 12.117C8.02488 15.8683 5.10183 20.307 3.09907 25.1858C1.02011 30.2592 -0.0333138 35.7014 0.000802937 41.1922C0.0279808 47.5436 1.53182 53.8491 4.3402 59.4866L0.181988 77.7902C0.181988 80.1147 2.0482 82 4.3402 82L22.2504 77.6071C27.8569 80.4651 34.0438 81.9689 40.3236 82H40.5139C45.9313 82 51.1766 80.9384 56.123 78.8609C60.9463 76.8329 65.3314 73.8734 69.0325 70.1485C72.7649 66.4054 75.7001 62.0308 77.7566 57.1529C79.8855 52.1011 80.9726 46.7291 80.9998 41.1831C81.0179 35.6096 79.9489 30.2009 77.8471 25.1126ZM22.4134 45.3929C20.0218 45.3929 18.0741 43.4253 18.0741 41C18.0741 38.5748 20.0218 36.6072 22.4134 36.6072C24.8051 36.6072 26.7528 38.5748 26.7528 41C26.7528 43.4253 24.8142 45.3929 22.4134 45.3929ZM40.4958 45.3929C38.1041 45.3929 36.1564 43.4253 36.1564 41C36.1564 38.5748 38.1041 36.6072 40.4958 36.6072C42.8874 36.6072 44.8352 38.5748 44.8352 41C44.8352 43.4253 42.8874 45.3929 40.4958 45.3929ZM58.5781 45.3929C56.1864 45.3929 54.2387 43.4253 54.2387 41C54.2387 38.5748 56.1864 36.6072 58.5781 36.6072C60.9697 36.6072 62.9175 38.5748 62.9175 41C62.9175 43.4253 60.9697 45.3929 58.5781 45.3929Z" fill="white"/>
</svg>
