<svg width="17" height="18" fill="none" xmlns="http://www.w3.org/2000/svg"><g opacity=".75"><path fill-rule="evenodd" clip-rule="evenodd" d="M12.103 7.524c0 2.825-2.199 5.025-4.802 5.025-2.603 0-4.801-2.2-4.801-5.025C2.5 4.7 4.698 2.5 7.301 2.5s4.802 2.2 4.802 5.024zm-1.15 5.317a6.128 6.128 0 01-3.652 1.208C3.821 14.049 1 11.128 1 7.524 1 3.921 3.821 1 7.301 1s6.302 2.921 6.302 6.524a6.633 6.633 0 01-1.555 4.291l3.953 4.15L14.915 17l-3.961-4.159z" fill="#fff"/><path d="M10.954 12.841l.362-.345-.304-.319-.355.262.297.402zm1.094-1.026l-.382-.322-.29.343.31.324.362-.345zm3.953 4.15l.345.363.362-.345-.345-.362-.362.344zM14.915 17l-.362.345.345.362.362-.345-.345-.362zm-7.614-3.951c2.894 0 5.302-2.44 5.302-5.525h-1c0 2.564-1.99 4.525-4.302 4.525v1zM2 7.524c0 3.086 2.407 5.525 5.301 5.525v-1C4.99 12.049 3 10.088 3 7.524H2zM7.301 2C4.407 2 2 4.439 2 7.524h1C3 4.961 4.99 3 7.301 3V2zm5.302 5.524C12.603 4.44 10.195 2 7.3 2v1c2.313 0 4.302 1.961 4.302 4.524h1zM7.3 14.55a6.628 6.628 0 003.95-1.305l-.594-.805A5.628 5.628 0 017.3 13.55v1zM.5 7.524c0 3.863 3.029 7.025 6.801 7.025v-1c-3.187 0-5.801-2.681-5.801-6.025h-1zM7.301.5C3.53.5.5 3.661.5 7.524h1C1.5 4.181 4.114 1.5 7.301 1.5v-1zm6.802 7.024C14.103 3.661 11.074.5 7.3.5v1c3.188 0 5.802 2.68 5.802 6.024h1zm-1.673 4.614a7.133 7.133 0 001.673-4.614h-1c0 1.523-.543 2.91-1.437 3.969l.764.645zm-.744.022l3.953 4.15.724-.69-3.953-4.15-.724.69zm3.97 3.443l-1.086 1.035.69.724 1.086-1.034-.69-.725zm-.379 1.052l-3.961-4.159-.724.69 3.961 4.159.724-.69z" fill="#000"/></g></svg>