<svg width="201" height="200" fill="none" xmlns="http://www.w3.org/2000/svg"><path d="M82.327 108.939l-11.964-6.933-1.667-5.295 11.857 5.79 2.656 5.736-.882.702z" fill="#FFA9BB" stroke="#3C3C3C" stroke-width=".7"/><path d="M72.522 103.241l-12.003-7.87 6.218-3.523 12.844 7.38-7.059 4.013z" fill="#FFE604" stroke="#3C3C3C" stroke-width=".7"/><path d="M77.805 91.793c.578 2.329 1.322 5.152 2.137 7.71l-14.178-7.865a30.72 30.72 0 01-1.406-6.53 39.932 39.932 0 01-.15-2.045c-.01-.189-.02-.36-.031-.51l12.48 4.51c.069.254.186.745.349 1.429l.028.118c.202.847.463 1.946.77 3.183z" fill="#FFA9BB" stroke="#3C3C3C" stroke-width=".7"/><path d="M64.042 81.785a12.574 12.574 0 01-.224-.797l11.21 6.096-.06.053a1.045 1.045 0 00-.274.368l-10.652-5.72z" fill="url(#paint0_linear)" stroke="#3C3C3C" stroke-width=".7"/><path d="M62.707 120.204l-11.872-6.88 9.198-35.659 4.37-2.406 8.479 9.19-7.444 33.963-2.731 1.792z" fill="#14E731" stroke="#3C3C3C" stroke-width=".7"/><path d="M72.37 84.668v-.2l-.173-.102-11.767-6.928 6.19-3.507 12 6.954 1.204 3.56-7.455 2.446v-2.223z" fill="#FFE604" stroke="#3C3C3C" stroke-width=".7"/><path d="M88.013 105.647l-5.453 3.19-1.82-5.783-.132-.419-.379.221-9.647 5.628-.13.076-.035.147-1.917 8.234-5.236 2.964 9.06-35.12 6.406-3.63 9.282 24.492zm-16.218-3.14l-.177.785.695-.405 6.89-4.02.246-.143-.09-.27a308.854 308.854 0 01-2.093-6.51c-.23-.745-.417-1.359-.562-1.836-.16-.528-.27-.888-.33-1.072-.17-.51-.274-.948-.367-1.338a21.488 21.488 0 00-.086-.358l-.68.004c-.46 1.955-1.609 7.01-3.446 15.163z" fill="#fff" stroke="#3C3C3C" stroke-width=".7"/><path d="M179.831 108.939l-11.964-6.933-1.667-5.295 11.857 5.79 2.656 5.736-.882.702z" fill="#FFA9BB" stroke="#3C3C3C" stroke-width=".7"/><path d="M170.026 103.241l-12.003-7.87 6.218-3.523 12.844 7.38-7.059 4.013z" fill="#FFE604" stroke="#3C3C3C" stroke-width=".7"/><path d="M175.309 91.793c.578 2.329 1.321 5.152 2.137 7.71l-14.178-7.865a30.727 30.727 0 01-1.407-6.53c-.081-.797-.117-1.459-.146-1.975a25.766 25.766 0 00-.035-.58l12.482 4.51c.068.254.185.745.348 1.429l.028.118c.201.847.463 1.946.771 3.183z" fill="#FFA9BB" stroke="#3C3C3C" stroke-width=".7"/><path d="M161.545 81.785a13.735 13.735 0 01-.224-.797l11.211 6.096-.061.053a1.043 1.043 0 00-.273.368l-10.653-5.72z" fill="url(#paint1_linear)" stroke="#3C3C3C" stroke-width=".7"/><path d="M160.211 120.204l-11.872-6.88 9.198-35.659 4.37-2.406 8.478 9.19-7.443 33.963-2.731 1.792z" fill="#14E731" stroke="#3C3C3C" stroke-width=".7"/><path d="M169.873 84.668v-.2l-.172-.102-11.767-6.928 6.189-3.507 12.002 6.954 1.203 3.56-7.455 2.446v-2.223z" fill="#FFE604" stroke="#3C3C3C" stroke-width=".7"/><path d="M185.516 105.647l-5.452 3.19-1.821-5.783-.132-.419-.378.221-9.647 5.628-.131.076-.034.147-1.917 8.234-5.237 2.964 9.06-35.12 6.407-3.63 9.282 24.492zm-16.217-3.14l-.177.785.695-.405 6.89-4.02.246-.143-.09-.27a311.098 311.098 0 01-2.094-6.51c-.23-.745-.416-1.359-.561-1.836a57.37 57.37 0 00-.331-1.072c-.17-.51-.273-.948-.366-1.338a21.523 21.523 0 00-.086-.358l-.68.004c-.46 1.955-1.609 7.01-3.446 15.163z" fill="#fff" stroke="#3C3C3C" stroke-width=".7"/><path d="M21.378 105.34v-.001l-.114-28.373 2.841-1.32 11.734 7.265.114 28.401v.001c0 1.819-.23 3.361-.767 4.437h0l-.005.011c-.546 1.2-1.299 2.059-2.49 2.709h0l-.007.003a2.537 2.537 0 00-.462.379c-.166.162-.354.365-.555.589-.26.29-.55.628-.85.976-.162.189-.327.382-.492.571a25.658 25.658 0 01-1.362 1.479 5.76 5.76 0 01-.556.489 1.634 1.634 0 01-.245.154l-12.87-5.596v-3.318c.84-.316 1.699-.649 2.462-1.085 1.33-.727 2.184-1.703 2.786-3.026.609-1.221.838-2.892.838-4.745z" fill="#14E731" stroke="#3C3C3C" stroke-width=".7"/><path d="M15.291 114.452l11.762 6.925.082.048h1.812v3.579l-1.713.952-11.943-6.92v-4.584z" fill="#14E731" stroke="#3C3C3C" stroke-width=".7"/><path d="M34.638 84.59l-13.032-7.84 4.934-2.819 11.94 6.919v3.008l-3.842.731z" fill="#FFE604" stroke="#3C3C3C" stroke-width=".7"/><path d="M36.567 118.386h0l-.002.006c-1.34 2.681-3.466 4.701-6.176 6.283-1.063.58-2.016 1.061-2.808 1.329v-4.655c.955-.256 1.722-.694 2.45-1.11l.012-.007c1.33-.727 2.184-1.703 2.787-3.026.608-1.221.837-2.892.837-4.745v-.001l-.114-28.393 4.93-2.817.112 27.996s0 0 0 0c0 3.515-.68 6.558-2.028 9.14z" fill="#fff" stroke="#3C3C3C" stroke-width=".7"/><path d="M127.454 105.259l-.002.008-.002.008c-.34 1.816-.842 3.492-1.276 4.895a58.41 58.41 0 01-.117.377c-.171.551-.329 1.058-.454 1.505-.088.311-.162.601-.216.864l-12.916-7.763c.07-.646.228-1.507.448-2.617l.227-1.137c.2-.997.431-2.146.676-3.453l4.899-20.962 3.964-1.937 9.692 9.332-4.923 20.88z" fill="#FFA9BB" stroke="#3C3C3C" stroke-width=".7"/><path d="M131.172 83.978v-.2l-.174-.102-11.875-6.927 5.034-2.819 11.876 6.881-1.766 5.757-3.095.74v-3.33z" fill="#FFE604" stroke="#3C3C3C" stroke-width=".7"/><path d="M122.432 117.886l-1.126 1.577-11.903-6.897-9.039-24.971 3.931-2.012 8.816 8.743 9.321 23.56z" fill="#14E731" stroke="#3C3C3C" stroke-width=".7"/><path d="M112.652 94.513l-.046-.101-.096-.056-11.875-6.927 5.034-2.82 11.995 6.951 1.557 5.352-4.458 2.23-2.111-4.63z" fill="#FFE604" stroke="#3C3C3C" stroke-width=".7"/><path d="M126.143 105.536l.087-.467 5.017-20.978 4.665-2.721-8.72 34.768-5.596 3.274-8.832-24.596 5.117-2.968 4.914 14.854c.124.494.286 1.038.461 1.627.146.492.302 1.015.453 1.568a40.03 40.03 0 00.576 2.649h0l.688-.056c.108-1.296.529-3.535 1.17-6.954z" fill="#fff" stroke="#3C3C3C" stroke-width=".7"/><path d="M46.654 167.212l-10-11.961v-6.267l10.034 12.846a656.83 656.83 0 01-.034 5.382zm11.475-5.25v-7.657l-1.083-2.478-8.82-2.573h-6.273l4.745 9.181 11.43 3.527z" fill="#14E731" stroke="#3C3C3C" stroke-width=".7"/><path d="M47.145 167.656l-.032-5.685 4.107-2.892v5.945l-4.075 2.632z" fill="#FFE604" stroke="#3C3C3C" stroke-width=".7"/><path d="M51.329 158.768l-4.376 3.084-10.41-13.335L40.065 146l21.13 4.462-3.101 3.876-14.177-3.876 7.412 8.306z" fill="#fff" stroke="#3C3C3C" stroke-width=".7"/><path d="M58.377 161.607l-.047-7.043.002-.232 2.79-3.472v8.355l-2.737 2.406-.008-.014zm-15.142 15.791l-3.674-2.384v-7.091l3.627 2.154.047 7.321z" fill="#FFE604" stroke="#3C3C3C" stroke-width=".7"/><path d="M43.623 177.36v-7.349L79.32 158.77v6.735L43.623 177.36z" fill="#fff" stroke="#3C3C3C" stroke-width=".7"/><path d="M39.437 167.628l3.94 2.284 35.88-11.368.162-.191-4.254-1.982-35.763 11.044.035.213z" fill="#FFA9BB" stroke="#3C3C3C" stroke-width=".7"/><path d="M71.07 167.066l.247-.035 8.063 8.633v.442l-8.31-2.008v-7.032z" fill="#14E731" stroke="#3C3C3C" stroke-width=".7"/><path d="M86.357 185.292v-7.624l-.122-.09-3.282 2.628-.094.111v7.384l.193.061 3.305-2.47z" fill="#FFA9BB" stroke="#3C3C3C" stroke-width=".7"/><path d="M60.11 175.23l.152-.089 22.543 4.968.122.151v7.478l-22.817-5.011v-7.497z" fill="#FFE604" stroke="#3C3C3C" stroke-width=".7"/><path d="M82.905 180.263l-22.6-5.187 4.068-3.156 14.464 3.607-7.684-8.568 4.52-2.932 10.622 13.53-3.39 2.706z" fill="#fff" stroke="#3C3C3C" stroke-width=".7"/><mask id="a" fill="#fff"><path fill-rule="evenodd" clip-rule="evenodd" d="M86.821 32.098c4.061 1.077 6.58.492 8.35-.522l3.149-1.805c2.299-1.317 4.798-1.735 8.041-.016h.381V25.72l-.504-.208c-4.027-1.663-9.2-3.798-14.56-.727l-2.233 1.28c-2.2 1.26-4.137 1.582-6.486.737l1.162 4.413c.282.108.558.209.828.304-2.398 1.273-5.946 3.467-5.946 4.752 0 1.259.647 2.999 1.5 3.764l-.609-.166-8.129-1.464-2.65-1.407c0 .896-.024 1.646-.044 2.285-.047 1.479-.074 2.366.25 3.096.488 1.093 1.769 1.832 4.968 3.68.63.364 1.334.77 2.12 1.23l5.746-3.608v-3.194l-.963-.264c1.65-.629 4.806-2.76 5.684-3.456v-4.612l-.055-.057z"/></mask><path fill-rule="evenodd" clip-rule="evenodd" d="M86.821 32.098c4.061 1.077 6.58.492 8.35-.522l3.149-1.805c2.299-1.317 4.798-1.735 8.041-.016h.381V25.72l-.504-.208c-4.027-1.663-9.2-3.798-14.56-.727l-2.233 1.28c-2.2 1.26-4.137 1.582-6.486.737l1.162 4.413c.282.108.558.209.828.304-2.398 1.273-5.946 3.467-5.946 4.752 0 1.259.647 2.999 1.5 3.764l-.609-.166-8.129-1.464-2.65-1.407c0 .896-.024 1.646-.044 2.285-.047 1.479-.074 2.366.25 3.096.488 1.093 1.769 1.832 4.968 3.68.63.364 1.334.77 2.12 1.23l5.746-3.608v-3.194l-.963-.264c1.65-.629 4.806-2.76 5.684-3.456v-4.612l-.055-.057z" fill="#14E731"/><path d="M87.19 32.31l.019-.037-.627-.311-.02.038.628.31zm7.981-.734l-.348-.608.348.608zm-8.35.522l.18-.677-2.411-.64 1.726 1.801.505-.484zM98.32 29.77l.348.608-.348-.608zm8.041-.016l-.328.619.154.081h.174v-.7zm.381 0v.7h.7v-.7h-.7zm0-4.035h.7v-.47l-.434-.178-.266.648zm-.504-.208l.267-.647-.267.647zm-14.56-.727l-.348-.607.348.607zm-2.233 1.28l.348.607-.348-.608zm-6.486.737l.237-.659-1.253-.451.34 1.288.676-.178zm1.162 4.413l-.677.178.091.347.335.129.25-.654zm.828.304l.328.618 1.412-.75-1.509-.529-.231.66zm-4.445 8.516l-.185.676.652-1.197-.467.521zm-.61-.166l.185-.675-.03-.009-.03-.005-.125.689zm-8.129-1.464l-.328.618.097.052.107.02.124-.69zm-2.65-1.407l.328-.618-1.028-.546v1.164h.7zm-.044 2.285l.7.022-.7-.022zm.25 3.096l.64-.286-.64.285zm4.968 3.68l.35-.606-.35.606zm2.12 1.23l-.354.605.367.214.36-.226-.373-.593zm5.746-3.608l.373.593.327-.206v-.387h-.7zm0-3.194h.7v-.535l-.515-.14-.185.675zm-.963-.264l-.25-.654-2.003.764 2.068.566.185-.676zm5.684-3.456l.435.549.265-.21v-.339h-.7zm0-4.612h.7v-.281l-.194-.203-.506.484zm7.947-1.187c-1.585.909-3.91 1.49-7.822.453l-.359 1.353c4.21 1.117 6.923.529 8.877-.591l-.696-1.215zm3.149-1.804l-3.149 1.804.696 1.215 3.149-1.804-.696-1.215zm8.717-.027c-1.711-.907-3.269-1.272-4.731-1.212-1.46.06-2.769.542-3.986 1.239l.696 1.215c1.081-.62 2.172-1.006 3.347-1.055 1.173-.048 2.487.238 4.018 1.05l.656-1.237zm.053-.082h-.381v1.4h.381v-1.4zm-.7-3.335v4.035h1.4V25.72h-1.4zm-.072.439l.507.208.531-1.295-.503-.207-.535 1.294zm-13.944-.767c5.026-2.88 9.877-.913 13.944.767l.535-1.294c-3.986-1.646-9.48-3.95-15.175-.687l.696 1.214zm-2.233 1.28l2.233-1.28-.696-1.214-2.233 1.279.696 1.215zm-7.07.788c1.263.455 2.446.606 3.622.458 1.171-.148 2.295-.585 3.448-1.246l-.696-1.215c-1.046.6-1.992.954-2.926 1.072-.93.116-1.89.005-2.975-.386l-.474 1.317zm2.075 3.577l-1.162-4.413-1.354.356 1.162 4.413 1.354-.356zm.382-.179a29.806 29.806 0 01-.809-.297l-.5 1.308c.287.11.57.213.846.31l.463-1.321zm-.56.042c-1.213.645-2.732 1.53-3.957 2.426-.61.446-1.17.912-1.586 1.368-.383.421-.774.972-.774 1.577h1.4s0-.014.01-.046a.75.75 0 01.06-.138c.067-.121.177-.272.339-.45.325-.357.801-.76 1.378-1.181 1.149-.841 2.603-1.69 3.787-2.32l-.656-1.236zm-6.317 5.371c0 .736.185 1.572.478 2.322.29.741.715 1.48 1.255 1.964l.935-1.043c-.314-.281-.639-.796-.886-1.43-.245-.627-.382-1.29-.382-1.813h-1.4zm2.385 3.09l-.61-.167-.368 1.35.61.167.368-1.35zm-.67-.181l-8.129-1.464-.248 1.378 8.13 1.464.247-1.378zm-7.924-1.393l-2.651-1.407-.657 1.236 2.651 1.407.657-1.236zm-3.68-.79c0 .884-.023 1.625-.043 2.264l1.4.044c.02-.64.043-1.4.043-2.307h-1.4zm-.043 2.264c-.023.729-.043 1.355-.013 1.89.03.544.114 1.041.325 1.513l1.278-.57c-.115-.259-.18-.57-.205-1.021-.026-.461-.009-1.018.014-1.768l-1.399-.044zm.312 3.403c.319.716.881 1.263 1.701 1.843.814.576 1.969 1.242 3.555 2.158l.7-1.212c-1.612-.932-2.698-1.56-3.446-2.089-.742-.524-1.064-.893-1.232-1.27l-1.278.57zm5.256 4.001c.63.364 1.332.77 2.116 1.229l.708-1.209c-.789-.461-1.494-.869-2.124-1.232l-.7 1.212zm2.842 1.217l5.747-3.608-.745-1.186-5.746 3.609.744 1.185zm6.074-4.2v-3.195h-1.4v3.194h1.4zm-.515-3.87l-.964-.264-.369 1.35.964.264.369-1.35zm-.899 1.066c.897-.343 2.15-1.067 3.256-1.766 1.116-.705 2.147-1.426 2.614-1.796l-.87-1.097c-.41.326-1.397 1.018-2.492 1.71-1.104.698-2.254 1.353-3.007 1.64l.499 1.308zm6.135-4.11v-4.613h-1.4v4.612h1.4zm-.194-5.097l-.055-.058-1.01.97.054.057 1.01-.97z" fill="#3C3C3C" mask="url(#a)"/><mask id="b" fill="#fff"><path fill-rule="evenodd" clip-rule="evenodd" d="M112.33 26.941v-3.473l-.444-.241-5.465 3.218.037 3.62h.357l5.515-3.124zm-37.244-.418l.381 5.818 5.015-2.372-3.476-3.566-.726-.568-1.194.688z"/></mask><path fill-rule="evenodd" clip-rule="evenodd" d="M112.33 26.941v-3.473l-.444-.241-5.465 3.218.037 3.62h.357l5.515-3.124zm-37.244-.418l.381 5.818 5.015-2.372-3.476-3.566-.726-.568-1.194.688z" fill="#FFE604"/><path d="M112.33 23.468h.7v-.416l-.365-.198-.335.614zm0 3.473l.345.61.355-.201v-.409h-.7zm-.444-3.714l.335-.615-.348-.19-.342.201.355.604zm-5.465 3.218l-.355-.604-.349.206.004.405.7-.007zm.037 3.62l-.7.007.008.693h.692v-.7zm.357 0v.7h.184l.161-.09-.345-.61zm-31.348 2.276l-.698.046.067 1.027.93-.44-.299-.633zm-.381-5.818l-.35-.607-.377.217.028.435.699-.045zm5.396 3.446l.3.632.885-.419-.684-.702-.501.489zm-3.476-3.566l.502-.489-.033-.034-.038-.029-.43.552zm-.726-.568l.43-.552-.37-.29-.41.236.35.606zm35.35-2.367v3.473h1.4v-3.473h-1.4zm-.078.373l.444.242.669-1.23-.444-.241-.669 1.23zm-4.776 3.207l5.465-3.218-.71-1.207-5.465 3.218.71 1.207zm.382 3.01l-.037-3.62-1.4.014.037 3.62 1.4-.014zm-.343-.693h-.357v1.4h.357v-1.4zm5.17-3.033l-5.515 3.124.69 1.218 5.515-3.123-.69-1.219zm-35.82 5.963l-.38-5.818-1.398.091.382 5.82 1.397-.093zm4.017-2.96l-5.014 2.373.599 1.266 5.014-2.373-.599-1.265zm-3.677-2.444l3.476 3.566 1.002-.977-3.475-3.566-1.003.977zm-.656-.504l.727.567.861-1.103-.726-.567-.862 1.103zm-.414.742l1.194-.687-.698-1.213-1.194.687.698 1.213z" fill="#3C3C3C" mask="url(#b)"/><path d="M75.733 26.252l6.152-3.54c1.626.91 3.058 1.365 4.445 1.384 1.44.02 2.791-.43 4.224-1.254l2.223-1.28c4.036-2.322 7.413-2.673 10.496-2.047 2.92.593 5.596 2.064 8.355 3.647l-5.001 2.877c-1.65-.927-2.925-1.324-4.103-1.297-1.219.028-2.281.509-3.482 1.2l-3.136 1.804c-2.007 1.155-5.098 1.772-10.704-.384l-.155-.06-.145.083-.684.394-.428.246.374.323c1.881 1.62 2.454 2.8 2.41 3.648-.041.833-.688 1.516-1.729 2.115l-3.136 1.804c-.598.344-1.115.674-1.49 1.01-.372.332-.657.717-.689 1.177-.032.468.204.904.615 1.322.325.33.785.677 1.389 1.053l-5.01 2.883c-1.41-.812-2.784-1.609-3.948-2.419-1.218-.847-2.167-1.683-2.688-2.532-.505-.823-.601-1.646-.133-2.543.487-.932 1.603-1.98 3.637-3.15l2.224-1.28c.71-.408 1.278-.816 1.668-1.237.391-.424.627-.892.606-1.407-.021-.51-.291-.989-.735-1.444-.35-.358-.824-.72-1.422-1.096z" fill="#fff" stroke="#3C3C3C" stroke-width=".7"/><path d="M76.535 43.566l-.129 3.478" stroke="#3C3C3C" stroke-width=".7"/><path d="M182.758 159.132l-.903-.523-8.862 1.216-9.59 1.284-16.872 9.603-.297 14.322.255.288c6.188-10.983 14.303-19.834 36.269-22.765v-3.425z" fill="#FFE604" stroke="#3C3C3C" stroke-width=".7"/><path d="M138.832 180.734v-5.156l5.752.929 1.755 3.374v5.425l-7.507-4.572z" fill="#FFA9BB" stroke="#3C3C3C" stroke-width=".7"/><path d="M146.248 179.586l-7.196-4.165c.98-5.183 4.92-9.54 11.914-13.588 7.06-4.086 14.75-6.42 24.051-6.966l6.754 3.91c-6.98.611-16.274 3.508-22.801 7.286-3.452 1.998-6.483 4.446-8.735 6.914-2.073 2.27-3.515 4.588-3.987 6.609z" fill="#fff" stroke="#3C3C3C" stroke-width=".7"/><defs><linearGradient id="paint0_linear" x1="63.204" y1="84.674" x2="76.025" y2="84.674" gradientUnits="userSpaceOnUse"><stop stop-color="#E7E9ED"/><stop offset="1" stop-color="#D1D3D6"/></linearGradient><linearGradient id="paint1_linear" x1="160.708" y1="84.674" x2="173.529" y2="84.674" gradientUnits="userSpaceOnUse"><stop stop-color="#E7E9ED"/><stop offset="1" stop-color="#D1D3D6"/></linearGradient></defs></svg>