<svg width="200" height="200" fill="none" xmlns="http://www.w3.org/2000/svg"><path d="M143.292 172.028L38.344 114.715l-25.27 15.376c-.322.216-.537.431-.86.538-1.72 1.506-1.613 3.334.323 4.409l97.099 53.119c2.258 1.183 6.021.968 8.602-.537l25.269-15.377-.215-.215z" fill="url(#paint0_linear)"/><path d="M143.615 172.245l36.667-22.366c2.473-1.505 2.688-3.763.538-4.946l-97.099-53.12c-2.258-1.182-6.022-.967-8.602.538l-36.775 22.366 105.271 57.528z" fill="#fff"/><path d="M54.043 156.869l15.806 8.709c.43.216.43.646 0 .861l-17.42-9.463c.43-.322 1.183-.322 1.614-.107zM89.96 96.65l82.153 44.839 1.075-.645-82.044-44.84-1.183.645z" fill="#524C7C"/><path d="M83.782 91.505h0l-.006-.003c-1.221-.637-2.177-1.275-2.852-2.313-.677-1.04-1.1-2.526-1.154-4.912h0l-1.72-72.475h0v-.001c-.053-1.864.357-2.763.89-3.112.528-.345 1.36-.267 2.466.312l.003.001 97.09 53.115h.001c1.31.734 2.276 1.556 2.933 2.668.659 1.115 1.028 2.556 1.081 4.562 0 0 0 0 0 0l1.72 72.475v.002c.053 1.745-.352 2.657-.898 3.035-.534.37-1.367.335-2.458-.236l-.003-.001-97.093-53.117z" fill="#FFE604" stroke="#3C3C3C" stroke-width=".7"/><path d="M180.285 135.145l-1.612-68.174a.592.592 0 00-.323-.537L82.972 14.282c-.43-.215-.968.108-.968.645l1.613 68.174c0 .215.107.43.322.537l95.379 52.152c.43.215.967-.108.967-.645z" fill="url(#paint1_linear)"/><path opacity=".2" d="M156.522 54.498l-44.087-24.086-29.463-16.13c-.43-.215-.968.108-.968.645l1.613 68.174c0 .215.107.43.322.537l13.011 7.097 59.572-36.237z" fill="#fff"/><path opacity=".4" d="M55.98 144.284l13.012-7.957c.752-.43 2.043-.538 2.903-.108l32.474 17.742c.752.431.86 1.183 0 1.613l-13.011 7.957-35.378-19.247z" fill="#6C7195"/><path opacity=".4" d="M73.401 154.5l17.42 9.57-7.097 4.301c-.753.43-2.043.538-2.904.108l-15.914-8.71 8.495-5.269zm-.539-.323l-8.494 5.162-15.915-8.71c-.753-.43-.86-1.183 0-1.613l7.097-4.301 17.312 9.462z" fill="#5C5C5C"/><path opacity=".6" d="M104.472 154.823l-32.474-17.742c-.752-.43-2.043-.43-2.903.108l-12.473 7.527-.645-.323 13.01-7.957c.753-.43 2.044-.538 2.904-.108l32.474 17.743c.537.322.752.752.537 1.183a.841.841 0 00-.43-.431zm-31.075.43l-7.85 4.731-.645-.323 8.495-5.161 17.42 9.463-.538.43-16.882-9.14zm-17.957-9.891l-7.097 4.301c-.216.108-.43.323-.43.43-.216-.43-.108-.86.43-1.182l7.096-4.302 17.42 9.57-.645.323-16.774-9.14z" fill="#9FAED4"/><path d="M158.996 150.412l4.838 2.688c.323.215.861.108 1.183-.108l4.516-2.795c.323-.215.323-.538.108-.645l-4.839-2.689c-.322-.215-.86-.107-1.183.108l-4.516 2.796c-.43.215-.43.43-.107.645zm-6.559-3.653l4.839 2.689c.322.215.86.107 1.183-.108l4.516-2.796c.322-.215.322-.537.107-.645l-4.838-2.688c-.323-.215-.861-.108-1.183.108l-4.516 2.795c-.431.215-.431.538-.108.645zm-6.563-3.55l4.839 2.688c.323.215.861.107 1.183-.108l4.516-2.795c.323-.215.323-.538.108-.646l-4.839-2.688c-.323-.215-.86-.107-1.183.108l-4.516 2.795c-.43.216-.43.538-.108.646zm-6.666-3.547l4.839 2.688c.323.215.861.108 1.183-.108l4.516-2.795c.323-.215.323-.538.108-.645l-4.839-2.689c-.323-.215-.86-.107-1.183.108l-4.516 2.796c-.323.107-.323.43-.108.645zm-6.556-3.656l4.839 2.688c.322.215.86.107 1.182-.108l4.517-2.796c.322-.215.322-.537.107-.645l-4.839-2.688c-.322-.215-.86-.107-1.182.108l-4.517 2.795c-.322.215-.43.538-.107.646zm-6.563-3.551l4.839 2.688c.323.215.86.107 1.183-.108l4.516-2.795c.323-.215.323-.538.108-.645l-4.839-2.689c-.323-.215-.86-.107-1.183.108l-4.516 2.796c-.323.107-.43.43-.108.645zm-6.558-3.656l4.839 2.688c.322.215.86.107 1.182-.108l4.517-2.796c.322-.215.322-.537.107-.645l-4.839-2.688c-.322-.215-.86-.107-1.183.108l-4.516 2.795c-.43.215-.43.538-.107.646zm-6.559-3.547l4.839 2.688c.323.215.86.107 1.183-.108l4.516-2.795c.323-.215.323-.538.107-.646l-4.838-2.688c-.323-.215-.861-.107-1.183.108l-4.516 2.795c-.43.216-.43.431-.108.646zm-6.558-3.657l4.838 2.689c.323.215.861.107 1.183-.108l4.516-2.796c.323-.215.323-.537.108-.645l-4.839-2.688c-.322-.215-.86-.108-1.183.107l-4.516 2.796c-.43.215-.43.538-.107.645zm-6.666-3.546l4.838 2.688c.323.215.861.107 1.183-.108l4.516-2.796c.323-.215.323-.537.108-.645l-4.839-2.688c-.322-.215-.86-.107-1.183.108l-4.516 2.795c-.323.215-.323.538-.108.646zm-6.561-3.551l4.839 2.688c.322.215.86.107 1.183-.108l4.516-2.795c.322-.215.322-.538.107-.646l-4.838-2.688c-.323-.215-.86-.107-1.183.108l-4.517 2.796c-.322.107-.43.43-.107.645zm-6.559-3.657l4.84 2.689c.322.215.86.107 1.182-.108l4.516-2.796c.323-.215.323-.537.108-.645l-4.84-2.688c-.322-.215-.86-.108-1.182.108l-4.516 2.795c-.323.215-.43.538-.108.645zm-6.558-3.546l4.839 2.688c.322.215.86.107 1.182-.108l4.517-2.795c.322-.216.322-.538.107-.646l-4.839-2.688c-.322-.215-.86-.107-1.182.108l-4.517 2.795c-.43.108-.43.431-.107.646zm-9.57-5.27l7.85 4.301c.322.215.86.108 1.182-.107l4.516-2.796c.323-.215.323-.538.108-.645l-7.85-4.301c-.323-.216-.86-.108-1.183.107l-4.516 2.796c-.323.215-.43.538-.108.645zm4.3 3.011l-4.84-2.688c-.322-.215-.86-.108-1.182.107l-4.517 2.796c-.322.215-.322.538-.107.645l4.839 2.688c.322.215.86.108 1.182-.107l4.517-2.796c.322-.107.322-.43.107-.645zm6.562 3.656l-4.84-2.688c-.322-.215-.86-.108-1.182.107l-4.516 2.796c-.323.215-.323.538-.108.645l4.84 2.689c.322.215.86.107 1.182-.108l4.516-2.796c.323-.215.323-.537.108-.645zm6.554 3.547l-4.838-2.688c-.323-.215-.86-.108-1.183.107l-4.516 2.796c-.323.215-.323.538-.108.645l4.839 2.688c.322.216.86.108 1.183-.107l4.516-2.796c.322-.107.43-.43.107-.645zm6.563 3.656l-4.839-2.688c-.323-.215-.86-.107-1.183.108l-4.516 2.795c-.323.215-.323.538-.108.646l4.84 2.688c.322.215.86.107 1.182-.108l4.516-2.796c.43-.215.43-.537.108-.645zm6.558 3.551l-4.838-2.688c-.323-.215-.86-.108-1.183.107l-4.516 2.796c-.323.215-.323.538-.108.645l4.839 2.689c.323.215.86.107 1.183-.108l4.516-2.796c.43-.215.43-.43.107-.645zm6.559 3.652l-4.839-2.688c-.322-.215-.86-.107-1.183.108l-4.516 2.795c-.322.216-.322.538-.107.646l4.838 2.688c.323.215.861.107 1.183-.108l4.516-2.795c.431-.215.431-.538.108-.646zm6.664 3.551l-4.839-2.688c-.322-.215-.86-.108-1.183.108l-4.516 2.795c-.322.215-.322.538-.107.645l4.839 2.689c.322.215.86.107 1.182-.108l4.517-2.796c.322-.215.322-.43.107-.645zm6.563 3.547l-4.839-2.688c-.323-.215-.86-.108-1.183.107l-4.516 2.796c-.323.215-.323.538-.108.645l4.839 2.689c.323.215.86.107 1.183-.108l4.516-2.796c.323-.107.323-.43.108-.645zm6.558 3.656l-4.839-2.688c-.322-.215-.86-.107-1.182.108l-4.517 2.795c-.322.215-.322.538-.107.646l4.839 2.688c.322.215.86.107 1.182-.108l4.517-2.795c.322-.216.43-.538.107-.646zm6.559 3.551l-4.839-2.688c-.323-.215-.86-.108-1.183.107l-4.516 2.796c-.323.215-.323.538-.108.645l4.839 2.689c.323.215.86.107 1.183-.108l4.516-2.796c.43-.107.43-.43.108-.645zm6.558 3.656l-4.838-2.688c-.323-.215-.861-.107-1.183.108l-4.516 2.795c-.323.215-.323.538-.108.646l4.839 2.688c.322.215.86.107 1.183-.108l4.516-2.795c.43-.216.43-.538.107-.646zm6.559 3.547l-4.839-2.688c-.322-.215-.86-.108-1.183.108l-4.516 2.795c-.322.215-.322.538-.107.645l4.838 2.689c.323.215.861.107 1.183-.108l4.516-2.796c.431-.215.431-.43.108-.645zm6.672 3.656l-4.839-2.688c-.323-.215-.86-.107-1.183.108l-4.516 2.796c-.323.215-.323.537-.108.645l4.839 2.688c.323.215.861.107 1.183-.108l4.516-2.795c.323-.215.323-.538.108-.646zm9.46 5.16l-7.85-4.301c-.322-.215-.86-.107-1.183.108l-4.516 2.795c-.322.215-.322.538-.107.646l7.849 4.301c.323.215.861.107 1.183-.108l4.516-2.796c.43-.215.43-.43.108-.645zm-90.002-41.825l-9.57-5.269c-.323-.215-.86-.107-1.183.108l-4.516 2.795c-.323.215-.323.538-.108.646l9.57 5.269c.323.215.86.107 1.183-.108l4.516-2.796c.323-.215.323-.537.108-.645zm83.66 45.699l-9.57-5.269c-.323-.215-.86-.107-1.183.108l-4.516 2.796c-.323.215-.323.537-.108.645l9.57 5.269c.323.215.861.107 1.183-.108l4.516-2.796c.323-.215.323-.537.108-.645zm-77.099-42.151l-4.838-2.688c-.323-.215-.86-.107-1.183.108l-4.517 2.795c-.322.215-.322.538-.107.646l4.839 2.688c.322.215.86.107 1.183-.108l4.516-2.796c.322-.215.322-.43.107-.645zm6.559 3.547l-4.839-2.688c-.322-.215-.86-.108-1.183.107l-4.516 2.796c-.323.215-.322.538-.107.645l4.838 2.689c.323.215.86.107 1.183-.108l4.516-2.796c.323-.107.43-.43.108-.645zm6.559 3.656l-4.84-2.688c-.322-.215-.86-.107-1.182.108l-4.516 2.795c-.323.216-.323.538-.108.646l4.839 2.688c.323.215.86.107 1.183-.108l4.516-2.795c.323-.215.43-.538.108-.646zm6.558 3.551l-4.839-2.688c-.322-.215-.86-.108-1.182.108l-4.517 2.795c-.322.215-.322.538-.107.645l4.839 2.689c.322.215.86.107 1.182-.108l4.517-2.796c.43-.107.43-.43.107-.645zm6.559 3.656l-4.839-2.688c-.323-.215-.86-.107-1.183.108l-4.516 2.796c-.323.215-.323.537-.108.645l4.839 2.688c.323.215.86.107 1.183-.108l4.516-2.795c.43-.215.43-.538.108-.646zm6.668 3.547l-4.839-2.688c-.323-.215-.86-.107-1.183.108l-4.516 2.795c-.323.215-.323.538-.108.646l4.839 2.688c.323.215.86.107 1.183-.108l4.516-2.795c.323-.216.323-.431.108-.646zm6.558 3.657l-4.838-2.689c-.323-.215-.861-.107-1.183.108l-4.517 2.796c-.322.215-.322.537-.107.645l4.839 2.688c.322.215.86.108 1.183-.107l4.516-2.796c.322-.215.322-.538.107-.645zm6.559 3.546l-4.839-2.688c-.322-.215-.86-.107-1.183.108l-4.516 2.796c-.323.215-.323.537-.107.645l4.838 2.688c.323.215.861.107 1.183-.108l4.516-2.795c.323-.215.43-.43.108-.646zm6.562 3.551l-4.838-2.688c-.323-.215-.861-.108-1.183.108l-4.516 2.795c-.323.215-.323.538-.108.645l4.839 2.689c.322.215.86.107 1.183-.108l4.516-2.796c.322-.107.43-.43.107-.645zm6.555 3.656l-4.839-2.688c-.322-.215-.86-.107-1.182.108l-4.517 2.796c-.322.215-.322.537-.107.645l4.839 2.688c.322.215.86.107 1.182-.108l4.517-2.795c.43-.215.43-.538.107-.646zm6.563 3.547l-4.839-2.688c-.323-.215-.86-.107-1.183.108l-4.516 2.795c-.323.215-.323.538-.108.646l4.839 2.688c.323.215.86.107 1.183-.108l4.516-2.795c.43-.108.43-.431.108-.646zm-75.381-33.87l-12.903-6.99c-.323-.215-.86-.107-1.183.108l-4.517 2.796c-.322.215-.322.537-.107.645l12.903 6.989c.323.215.86.108 1.183-.107l4.516-2.796c.323-.215.323-.43.108-.645zm6.556 3.656l-4.838-2.689c-.323-.215-.86-.107-1.183.108l-4.517 2.796c-.322.215-.322.537-.107.645l4.839 2.688c.322.215.86.107 1.183-.108l4.516-2.795c.322-.215.43-.538.107-.645zm6.563 3.546l-4.839-2.688c-.322-.215-.86-.107-1.183.108l-4.516 2.795c-.322.216-.323.538-.108.646l4.84 2.688c.322.215.86.107 1.182-.108l4.516-2.795c.43-.215.43-.431.108-.646zm6.559 3.657l-4.84-2.689c-.322-.215-.86-.107-1.182.108l-4.516 2.796c-.323.215-.323.537-.108.645l4.839 2.688c.322.215.86.108 1.183-.107l4.516-2.796c.43-.215.43-.538.108-.645zm6.558 3.55l-4.839-2.688c-.322-.215-.86-.107-1.183.108l-4.516 2.795c-.322.216-.322.538-.107.646l4.838 2.688c.323.215.86.107 1.183-.108l4.516-2.795c.43-.215.43-.538.108-.646zm6.668 3.547l-4.839-2.688c-.322-.215-.86-.107-1.183.108l-4.516 2.795c-.322.215-.322.538-.107.646l4.839 2.688c.322.215.86.107 1.182-.108l4.517-2.796c.322-.107.322-.43.107-.645zm6.559 3.657l-4.839-2.689c-.323-.215-.86-.107-1.183.108l-4.516 2.796c-.323.215-.323.537-.108.645l4.839 2.688c.323.215.86.108 1.183-.108l4.516-2.795c.323-.215.323-.538.108-.645zm6.558 3.55l-4.839-2.688c-.322-.215-.86-.107-1.182.108l-4.517 2.795c-.322.215-.322.538-.107.646l4.839 2.688c.322.215.86.107 1.182-.108l4.517-2.796c.322-.215.43-.43.107-.645zm6.563 3.657l-4.839-2.689c-.323-.215-.86-.107-1.183.108l-4.516 2.796c-.323.215-.323.537-.108.645l4.839 2.688c.323.215.86.108 1.183-.108l4.516-2.795c.43-.215.43-.538.108-.645zm6.558 3.546l-4.838-2.688c-.323-.215-.861-.107-1.183.108l-4.517 2.796c-.322.215-.322.537-.107.645l4.839 2.688c.322.215.86.107 1.183-.108l4.516-2.795c.43-.215.43-.43.107-.646zm6.559 3.657l-4.839-2.689c-.323-.215-.86-.107-1.183.108l-4.516 2.796c-.323.215-.323.537-.107.645l4.838 2.688c.323.215.861.108 1.183-.107l4.516-2.796c.43-.215.43-.538.108-.645zm14.733 7.955l-12.904-7.097c-.323-.215-.86-.107-1.183.108l-4.516 2.796c-.323.215-.323.537-.107.645l12.903 7.097c.323.215.86.107 1.183-.108l4.516-2.796c.323-.215.323-.537.108-.645zm-34.197-11.291l-31.183-16.989c-.323-.215-.86-.108-1.183.107l-4.517 2.796c-.322.215-.322.538-.107.645l31.183 16.99c.323.215.861.107 1.183-.108l4.516-2.795c.323-.216.431-.538.108-.646zm-40.86-22.364l-4.84-2.688c-.322-.215-.86-.107-1.182.108l-4.516 2.796c-.323.215-.323.537-.108.645l4.84 2.688c.322.215.86.107 1.182-.108l4.516-2.795c.323-.215.323-.538.108-.646zm7.958 4.409l-6.344-3.44c-.323-.216-.86-.108-1.183.107l-4.516 2.796c-.323.215-.323.537-.108.645l6.345 3.441c.322.215.86.107 1.182-.108l4.517-2.795c.43-.215.43-.538.107-.646zm42.58 23.224l4.839 2.688c.322.215.215.43-.108.645l-4.516 2.796c-.323.215-.86.215-1.183.108l-4.839-2.689c-.322-.215-.215-.43.108-.645l4.516-2.796c.43-.215.968-.215 1.183-.107zm-7.953-4.406l6.344 3.441c.322.215.215.43-.108.645l-4.516 2.795c-.322.216-.86.216-1.183.108l-6.344-3.441c-.322-.215-.215-.43.108-.645l4.516-2.796c.322-.215.86-.215 1.183-.107zm-62.371-33.98l-4.838-2.689c-.323-.215-.86-.107-1.183.108l-4.516 2.796c-.323.215-.323.537-.108.645l4.839 2.688c.323.215.86.108 1.183-.107l4.516-2.796c.43-.215.43-.538.107-.645zm6.563 3.546l-4.839-2.688c-.322-.215-.86-.107-1.183.108l-4.516 2.795c-.322.216-.322.538-.107.646l4.838 2.688c.323.215.86.107 1.183-.108l4.517-2.795c.43-.215.43-.538.107-.646zm6.555 3.551l-4.84-2.688c-.322-.215-.86-.108-1.182.108l-4.516 2.795c-.323.215-.323.538-.108.645l4.84 2.689c.322.215.86.107 1.182-.108l4.516-2.796c.43-.107.43-.43.108-.645zm75.272 41.181l-11.506-6.236c-.322-.215-.86-.108-1.182.107l-4.517 2.796c-.322.215-.322.538-.107.645l11.613 6.129c.323.215.86.108 1.183-.107l4.516-2.796c.323-.107.323-.43 0-.538zm21.291-18.496l4.839 2.688c.323.216.86.108 1.183-.107l2.258-1.398c.323-.215.323-.538.108-.645l-4.839-2.688c-.323-.215-.86-.108-1.183.107l-2.258 1.398c-.323.215-.43.43-.108.645zm-6.558-3.656l4.839 2.688c.322.215.86.108 1.182-.107l2.258-1.398c.323-.215.323-.538.108-.645l-4.839-2.689c-.322-.215-.86-.107-1.183.108l-2.258 1.398c-.43.215-.43.537-.107.645zm-6.559-3.547l4.839 2.688c.323.215.86.108 1.183-.107l2.258-1.398c.322-.215.322-.538.107-.645l-4.838-2.688c-.323-.216-.861-.108-1.183.107l-2.258 1.398c-.43.215-.43.43-.108.645zm-6.558-3.547l4.838 2.688c.323.216.861.108 1.183-.107l2.258-1.398c.323-.215.323-.538.108-.645l-4.839-2.688c-.323-.215-.86-.108-1.183.107l-2.258 1.398c-.43.108-.43.43-.107.645zm-6.67-3.656l4.838 2.688c.323.215.861.108 1.183-.107l2.258-1.398c.323-.215.323-.538.108-.645l-4.839-2.689c-.322-.215-.86-.107-1.183.108l-2.258 1.398c-.322.215-.322.537-.107.645zm-6.557-3.551l4.839 2.688c.322.215.86.108 1.183-.107l2.258-1.398c.322-.215.322-.538.107-.645l-4.839-2.688c-.322-.215-.86-.108-1.182.107l-2.259 1.398c-.322.108-.43.43-.107.645zm-6.559-3.656l4.839 2.688c.323.215.86.108 1.183-.107l2.258-1.398c.323-.215.323-.538.108-.645l-4.839-2.689c-.323-.215-.86-.107-1.183.108l-2.258 1.398c-.323.215-.43.537-.108.645zm-6.562-3.547l4.839 2.688c.322.215.86.108 1.183-.107l2.258-1.398c.322-.215.322-.538.107-.645l-4.839-2.688c-.322-.216-.86-.108-1.182.107l-2.259 1.398c-.43.215-.43.43-.107.645zm-6.559-3.656l4.839 2.688c.323.215.86.108 1.183-.107l2.258-1.398c.323-.215.323-.538.108-.646l-4.839-2.688c-.323-.215-.86-.107-1.183.108l-2.258 1.398c-.43.215-.43.537-.108.645zm-6.558-3.547l4.838 2.688c.323.215.861.108 1.183-.107l2.258-1.398c.323-.215.323-.538.108-.645l-4.839-2.689c-.322-.215-.86-.107-1.183.108l-2.258 1.398c-.43.215-.43.43-.107.645zm-6.666-3.551l4.838 2.688c.323.215.861.108 1.183-.107l2.258-1.398c.323-.215.323-.538.108-.645l-4.839-2.688c-.322-.215-.86-.108-1.183.107l-2.258 1.398c-.322.108-.322.43-.107.645zm-6.561-3.656l4.839 2.688c.322.215.86.108 1.183-.107l2.258-1.398c.322-.215.322-.538.107-.645l-4.838-2.689c-.323-.215-.86-.107-1.183.108l-2.258 1.398c-.323.215-.43.537-.108.645zm-6.559-3.547l4.84 2.688c.322.215.86.108 1.182-.107l2.258-1.398c.323-.215.323-.538.108-.645l-4.839-2.689c-.323-.215-.86-.107-1.183.108l-2.258 1.398c-.323.107-.43.43-.108.645zm-9.57-5.27l7.85 4.302c.322.215.86.107 1.183-.108l2.258-1.398c.322-.215.322-.537.107-.645l-7.85-4.301c-.322-.215-.86-.108-1.182.108l-2.258 1.397c-.323.215-.43.538-.108.645z" fill="#524C7C"/><path d="M184.185 141.715v-.008l-1.64-72.073v-.002c-.055-2.08-.439-3.65-1.178-4.9-.74-1.252-1.817-2.151-3.195-2.923l-.004-.002L80.718 8.77s0 0 0 0c-.547-.304-1.155-.37-1.673-.322a9.85 9.85 0 01.671-.68c.23-.206.401-.321.496-.354.268-.092.617-.086 1.038.023.418.108.877.31 1.346.57h0l.003.001 97.316 52.972.001.001c1.31.734 2.276 1.555 2.933 2.668.659 1.115 1.028 2.556 1.081 4.562 0 0 0 0 0 0l1.72 72.466v.004c0 .938-.122 1.593-.322 2.077a2.574 2.574 0 01-.829 1.08l-.005.004-.284.207c.004-.066.007-.131.009-.197.009-.289 0-.616-.011-.969l-.002-.065c-.01-.339-.021-.705-.021-1.103z" fill="#fff" stroke="#3C3C3C" stroke-width=".7"/><path d="M181.978 148.391l.061 2.093v.323c0 .39-.151.805-.461 1.252-.308.442-.758.898-1.327 1.365l-61.91 37.727-.003.001c-1.236.72-2.766 1.137-4.264 1.229-1.502.091-2.938-.146-3.994-.699l-.003-.001-97.08-53.109c-.92-.618-1.336-1.275-1.336-1.851h0v-.01l-.065-2.402c.26.249.58.473.943.675h0l.001.001 96.986 53.116.003.002c1.208.689 2.814.933 4.415.823 1.606-.111 3.248-.581 4.54-1.368h0l61.937-37.742.006-.004.006-.004c.664-.443 1.179-.923 1.545-1.417z" fill="#FFE604" stroke="#3C3C3C" stroke-width=".7"/><path d="M38.736 114.885l104.377 57.108.012.075-25.063 15.251-.003.001c-1.236.72-2.766 1.137-4.264 1.229-1.502.091-2.938-.146-3.994-.699l-.003-.001-97.091-53.116s0 0 0 0c-.899-.499-1.31-1.134-1.353-1.761-.043-.621.268-1.34 1.042-2.035.175-.067.32-.157.45-.248.072-.051.13-.094.185-.135.071-.053.14-.104.232-.166l25.473-15.503zm.308-.184l104.561 57.14 36.495-22.26v-.001c1.184-.72 1.758-1.579 1.837-2.331.076-.727-.301-1.467-1.285-2.009L39.044 114.701zm0 0l36.251-22.047.003-.002c1.235-.72 2.765-1.137 4.264-1.228 1.502-.092 2.938.146 3.994.698l.003.002 97.092 53.116-141.607-30.539z" fill="#fff" stroke="#3C3C3C" stroke-width=".7"/><path d="M54.043 156.869l15.806 8.709c.43.216.43.646 0 .861l-17.42-9.463c.43-.322 1.183-.322 1.614-.107z" fill="#524C7C"/><path d="M89.957 96.653l82.152 44.84 1.076-.646-82.045-44.84-1.183.646z" fill="#403F47"/><path d="M178.322 66.975l.001.009 1.612 68.165v.003c-.002.289-.274.418-.456.331L84.107 83.335h0l-.011-.006a.241.241 0 01-.13-.224v-.009l-1.612-68.165v-.003c.002-.289.274-.418.457-.331l95.371 52.148h0l.011.006c.08.04.13.122.129.224z" fill="#fff" stroke="#3C3C3C" stroke-width=".7"/><path d="M104.212 155.265l-.013.007-.013.008-12.839 7.851L56.68 144.27l12.49-7.638c.318-.181.77-.304 1.25-.328.48-.025.952.05 1.313.229l32.465 17.738c.315.181.42.386.426.517.005.109-.056.299-.412.477zM65.6 159.754l7.812-4.845 16.709 9.18-6.575 3.984c-.318.181-.771.304-1.251.329-.48.025-.951-.051-1.312-.23L65.6 159.754zm-16.99-10.421l.012-.006.013-.008 6.924-4.196 16.603 9.074-7.804 4.742-15.734-8.612c-.316-.181-.42-.385-.426-.517-.005-.109.056-.299.412-.477z" stroke="#3C3C3C" stroke-width=".7"/><path d="M158.996 150.416l4.838 2.688c.323.215.861.107 1.183-.108l4.516-2.795c.323-.215.323-.538.108-.646l-4.839-2.688c-.322-.215-.86-.107-1.183.108l-4.516 2.796c-.43.215-.43.43-.107.645zm-6.559-3.657l4.839 2.689c.322.215.86.107 1.183-.108l4.516-2.796c.322-.215.322-.537.107-.645l-4.838-2.688c-.323-.215-.861-.108-1.183.108l-4.516 2.795c-.431.215-.431.538-.108.645zm-6.563-3.546l4.839 2.688c.323.215.861.107 1.183-.108l4.516-2.796c.323-.215.323-.537.108-.645l-4.839-2.688c-.323-.215-.86-.107-1.183.108l-4.516 2.795c-.43.215-.43.538-.108.646zm-6.666-3.547l4.839 2.688c.323.215.861.107 1.183-.108l4.516-2.795c.323-.215.323-.538.108-.646l-4.839-2.688c-.323-.215-.86-.107-1.183.108l-4.516 2.796c-.323.107-.323.43-.108.645zm-6.556-3.657l4.839 2.689c.322.215.86.107 1.182-.108l4.517-2.796c.322-.215.322-.537.107-.645l-4.839-2.688c-.322-.215-.86-.108-1.182.108l-4.517 2.795c-.322.215-.43.538-.107.645zm-6.563-3.55l4.839 2.688c.323.215.86.107 1.183-.108l4.516-2.795c.323-.215.323-.538.108-.646l-4.839-2.688c-.323-.215-.86-.107-1.183.108l-4.516 2.795c-.323.108-.43.431-.108.646zm-6.558-3.657l4.839 2.689c.322.215.86.107 1.182-.108l4.517-2.796c.322-.215.322-.537.107-.645l-4.839-2.688c-.322-.215-.86-.108-1.183.107l-4.516 2.796c-.43.215-.43.538-.107.645zm-6.559-3.546l4.839 2.688c.323.215.86.107 1.183-.108l4.516-2.796c.323-.215.323-.537.107-.645l-4.838-2.688c-.323-.215-.861-.107-1.183.108l-4.516 2.795c-.43.215-.43.43-.108.646zm-6.558-3.657l4.838 2.688c.323.216.861.108 1.183-.107l4.516-2.796c.323-.215.323-.537.108-.645l-4.839-2.688c-.322-.215-.86-.108-1.183.107l-4.516 2.796c-.43.215-.43.538-.107.645zm-6.666-3.55l4.838 2.688c.323.215.861.107 1.183-.108l4.516-2.796c.323-.215.323-.537.108-.645l-4.839-2.688c-.322-.215-.86-.107-1.183.108l-4.516 2.795c-.323.215-.323.538-.108.646zm-6.561-3.547l4.839 2.688c.322.215.86.107 1.183-.108l4.516-2.795c.322-.215.322-.538.107-.646l-4.838-2.688c-.323-.215-.86-.107-1.183.108l-4.517 2.795c-.322.108-.43.431-.107.646zm-6.559-3.657l4.84 2.689c.322.215.86.107 1.182-.108l4.516-2.796c.323-.215.323-.537.108-.645l-4.84-2.688c-.322-.215-.86-.108-1.182.107l-4.516 2.796c-.323.215-.43.538-.108.645zm-6.558-3.546l4.839 2.688c.322.215.86.107 1.182-.108l4.517-2.796c.322-.215.322-.537.107-.645l-4.839-2.688c-.322-.215-.86-.107-1.182.108l-4.517 2.795c-.43.108-.43.43-.107.646zm-9.57-5.27l7.85 4.301c.322.215.86.108 1.182-.107l4.516-2.796c.323-.215.323-.538.108-.645l-7.85-4.301c-.323-.216-.86-.108-1.183.107l-4.516 2.796c-.323.215-.43.537-.108.645zm4.3 3.011l-4.84-2.688c-.322-.215-.86-.108-1.182.107l-4.517 2.796c-.322.215-.322.538-.107.645l4.839 2.688c.322.215.86.108 1.182-.107l4.517-2.796c.322-.108.322-.43.107-.645zm6.562 3.656l-4.84-2.688c-.322-.215-.86-.108-1.182.107l-4.516 2.796c-.323.215-.323.538-.108.645l4.84 2.689c.322.215.86.107 1.182-.108l4.516-2.796c.323-.215.323-.537.108-.645zm6.554 3.547l-4.838-2.688c-.323-.215-.86-.108-1.183.107l-4.516 2.796c-.323.215-.323.538-.108.645l4.839 2.688c.322.215.86.108 1.183-.107l4.516-2.796c.322-.107.43-.43.107-.645zm6.563 3.656l-4.839-2.688c-.323-.215-.86-.108-1.183.108l-4.516 2.795c-.323.215-.323.538-.108.645l4.84 2.689c.322.215.86.107 1.182-.108l4.516-2.796c.43-.215.43-.537.108-.645zm6.558 3.551l-4.838-2.688c-.323-.215-.86-.108-1.183.107l-4.516 2.796c-.323.215-.323.538-.108.645l4.839 2.688c.323.216.86.108 1.183-.107l4.516-2.796c.43-.215.43-.43.107-.645zm6.559 3.652l-4.839-2.688c-.322-.215-.86-.107-1.183.108l-4.516 2.795c-.322.215-.322.538-.107.646l4.838 2.688c.323.215.861.107 1.183-.108l4.516-2.795c.431-.216.431-.538.108-.646zm6.664 3.551l-4.839-2.688c-.322-.215-.86-.108-1.183.107l-4.516 2.796c-.322.215-.322.538-.107.645l4.839 2.689c.322.215.86.107 1.182-.108l4.517-2.796c.322-.215.322-.43.107-.645zm6.563 3.547l-4.839-2.688c-.323-.215-.86-.108-1.183.107l-4.516 2.796c-.323.215-.323.538-.108.645l4.839 2.688c.323.216.86.108 1.183-.107l4.516-2.796c.323-.107.323-.43.108-.645zm6.558 3.656l-4.839-2.688c-.322-.215-.86-.108-1.182.108l-4.517 2.795c-.322.215-.322.538-.107.645l4.839 2.689c.322.215.86.107 1.182-.108l4.517-2.796c.322-.215.43-.537.107-.645zm6.559 3.551l-4.839-2.688c-.323-.215-.86-.108-1.183.107l-4.516 2.796c-.323.215-.323.538-.108.645l4.839 2.688c.323.216.86.108 1.183-.107l4.516-2.796c.43-.107.43-.43.108-.645zm6.558 3.656l-4.838-2.688c-.323-.215-.861-.107-1.183.108l-4.516 2.795c-.323.215-.323.538-.108.645l4.839 2.689c.322.215.86.107 1.183-.108l4.516-2.796c.43-.215.43-.537.107-.645zm6.559 3.547l-4.839-2.688c-.322-.215-.86-.108-1.183.107l-4.516 2.796c-.322.215-.322.538-.107.645l4.838 2.689c.323.215.861.107 1.183-.108l4.516-2.796c.431-.215.431-.43.108-.645zm6.672 3.656l-4.839-2.688c-.323-.215-.86-.107-1.183.108l-4.516 2.795c-.323.215-.323.538-.108.646l4.839 2.688c.323.215.861.107 1.183-.108l4.516-2.795c.323-.216.323-.538.108-.646zm9.46 5.16l-7.85-4.301c-.322-.215-.86-.107-1.183.108l-4.516 2.795c-.322.215-.322.538-.107.645l7.849 4.302c.323.215.861.107 1.183-.108l4.516-2.796c.43-.215.43-.43.108-.645zm-90.002-41.825l-9.57-5.269c-.323-.215-.86-.107-1.183.108l-4.516 2.795c-.323.215-.323.538-.108.646l9.57 5.268c.323.215.86.108 1.183-.107l4.516-2.796c.323-.215.323-.537.108-.645zm83.66 45.699l-9.57-5.269c-.323-.215-.86-.107-1.183.108l-4.516 2.796c-.323.215-.323.537-.108.645l9.57 5.269c.323.215.861.107 1.183-.108l4.516-2.796c.323-.215.323-.537.108-.645zm-77.099-42.151l-4.838-2.688c-.323-.215-.86-.108-1.183.108l-4.517 2.795c-.322.215-.322.538-.107.645l4.839 2.689c.322.215.86.107 1.183-.108l4.516-2.796c.322-.215.322-.43.107-.645zm6.559 3.547l-4.839-2.688c-.322-.215-.86-.108-1.183.107l-4.516 2.796c-.323.215-.322.538-.107.645l4.838 2.689c.323.215.86.107 1.183-.108l4.516-2.796c.323-.107.43-.43.108-.645zm6.559 3.656l-4.84-2.688c-.322-.215-.86-.107-1.182.108l-4.516 2.795c-.323.215-.323.538-.108.646l4.839 2.688c.323.215.86.107 1.183-.108l4.516-2.795c.323-.216.43-.538.108-.646zm6.558 3.551l-4.839-2.688c-.322-.215-.86-.108-1.182.107l-4.517 2.796c-.322.215-.322.538-.107.645l4.839 2.689c.322.215.86.107 1.182-.108l4.517-2.796c.43-.107.43-.43.107-.645zm6.559 3.656l-4.839-2.688c-.323-.215-.86-.107-1.183.108l-4.516 2.795c-.323.215-.323.538-.108.646l4.839 2.688c.323.215.86.107 1.183-.108l4.516-2.795c.43-.216.43-.538.108-.646zm6.668 3.547l-4.839-2.688c-.323-.215-.86-.108-1.183.108l-4.516 2.795c-.323.215-.323.538-.108.645l4.839 2.689c.323.215.86.107 1.183-.108l4.516-2.796c.323-.215.323-.43.108-.645zm6.558 3.656l-4.838-2.688c-.323-.215-.861-.107-1.183.108l-4.517 2.796c-.322.215-.322.537-.107.645l4.839 2.688c.322.215.86.107 1.183-.108l4.516-2.795c.322-.215.322-.538.107-.646zm6.559 3.551l-4.839-2.688c-.322-.215-.86-.107-1.183.108l-4.516 2.795c-.323.215-.323.538-.107.646l4.838 2.688c.323.215.861.107 1.183-.108l4.516-2.796c.323-.215.43-.43.108-.645zm6.562 3.547l-4.838-2.688c-.323-.215-.861-.108-1.183.107l-4.516 2.796c-.323.215-.323.538-.108.645l4.839 2.689c.322.215.86.107 1.183-.108l4.516-2.796c.322-.107.43-.43.107-.645zm6.555 3.656l-4.839-2.688c-.322-.215-.86-.107-1.182.108l-4.517 2.795c-.322.216-.322.538-.107.646l4.839 2.688c.322.215.86.107 1.182-.108l4.517-2.795c.43-.215.43-.538.107-.646zm6.563 3.547l-4.839-2.688c-.323-.215-.86-.107-1.183.108l-4.516 2.795c-.323.215-.323.538-.108.646l4.839 2.688c.323.215.86.107 1.183-.108l4.516-2.796c.43-.107.43-.43.108-.645zm-75.381-33.87l-12.903-6.99c-.323-.215-.86-.107-1.183.108l-4.517 2.795c-.322.216-.322.538-.107.646l12.903 6.989c.323.215.86.108 1.183-.108l4.516-2.795c.323-.215.323-.43.108-.645zm6.556 3.655l-4.838-2.688c-.323-.215-.86-.107-1.183.108l-4.517 2.795c-.322.216-.322.538-.107.646l4.839 2.688c.322.215.86.107 1.183-.108l4.516-2.795c.322-.215.43-.538.107-.646zm6.563 3.551l-4.839-2.688c-.322-.215-.86-.108-1.183.108l-4.516 2.795c-.322.215-.323.538-.108.645l4.84 2.689c.322.215.86.107 1.182-.108l4.516-2.796c.43-.215.43-.43.108-.645zm6.559 3.653l-4.84-2.689c-.322-.215-.86-.107-1.182.108l-4.516 2.796c-.323.215-.323.537-.108.645l4.839 2.688c.322.215.86.108 1.183-.108l4.516-2.795c.43-.215.43-.538.108-.645zm6.558 3.55l-4.839-2.688c-.322-.215-.86-.107-1.183.108l-4.516 2.795c-.322.215-.322.538-.107.646l4.838 2.688c.323.215.86.107 1.183-.108l4.516-2.796c.43-.215.43-.537.108-.645zm6.668 3.547l-4.839-2.688c-.322-.215-.86-.108-1.183.108l-4.516 2.795c-.322.215-.322.538-.107.645l4.839 2.689c.322.215.86.107 1.182-.108l4.517-2.796c.322-.107.322-.43.107-.645zm6.559 3.656l-4.839-2.688c-.323-.215-.86-.107-1.183.108l-4.516 2.796c-.323.215-.323.537-.108.645l4.839 2.688c.323.215.86.107 1.183-.108l4.516-2.795c.323-.215.323-.538.108-.646zm6.558 3.547l-4.839-2.688c-.322-.215-.86-.107-1.182.108l-4.517 2.795c-.322.215-.322.538-.107.646l4.839 2.688c.322.215.86.107 1.182-.108l4.517-2.796c.322-.215.43-.43.107-.645zm6.563 3.657l-4.839-2.689c-.323-.215-.86-.107-1.183.108l-4.516 2.796c-.323.215-.323.537-.108.645l4.839 2.688c.323.215.86.108 1.183-.108l4.516-2.795c.43-.215.43-.538.108-.645zm6.558 3.55l-4.838-2.688c-.323-.215-.861-.107-1.183.108l-4.517 2.795c-.322.215-.322.538-.107.646l4.839 2.688c.322.215.86.107 1.183-.108l4.516-2.795c.43-.216.43-.431.107-.646zm6.559 3.657l-4.839-2.689c-.323-.215-.86-.107-1.183.108l-4.516 2.796c-.323.215-.323.537-.107.645l4.838 2.688c.323.215.861.108 1.183-.107l4.516-2.796c.43-.215.43-.538.108-.645zm14.733 7.955l-12.904-7.097c-.323-.215-.86-.107-1.183.108l-4.516 2.796c-.323.215-.323.537-.107.645l12.903 7.097c.323.215.86.107 1.183-.108l4.516-2.796c.323-.215.323-.537.108-.645zm-34.197-11.291l-31.183-16.989c-.323-.215-.86-.108-1.183.107l-4.517 2.796c-.322.215-.322.538-.107.645l31.183 16.99c.323.215.861.107 1.183-.108l4.516-2.796c.323-.215.431-.537.108-.645zm-40.86-22.364l-4.84-2.688c-.322-.215-.86-.107-1.182.108l-4.516 2.795c-.323.216-.323.538-.108.646l4.84 2.688c.322.215.86.107 1.182-.108l4.516-2.795c.323-.215.323-.538.108-.646zm7.958 4.409l-6.344-3.441c-.323-.215-.86-.107-1.183.108l-4.516 2.796c-.323.215-.323.537-.108.645l6.345 3.441c.322.215.86.107 1.182-.108l4.517-2.795c.43-.216.43-.538.107-.646zm42.58 23.224l4.839 2.688c.322.215.215.43-.108.645l-4.516 2.796c-.323.215-.86.215-1.183.107l-4.839-2.688c-.322-.215-.215-.43.108-.645l4.516-2.796c.43-.215.968-.215 1.183-.107zm-7.953-4.406l6.344 3.44c.322.216.215.431-.108.646l-4.516 2.795c-.322.215-.86.215-1.183.108l-6.344-3.441c-.322-.215-.215-.43.108-.645l4.516-2.796c.322-.215.86-.215 1.183-.107zm-62.371-33.981l-4.838-2.688c-.323-.215-.86-.107-1.183.108l-4.516 2.796c-.323.215-.323.537-.108.645l4.839 2.688c.323.215.86.107 1.183-.108l4.516-2.795c.43-.215.43-.538.107-.646zm6.563 3.547l-4.839-2.688c-.322-.215-.86-.107-1.183.108l-4.516 2.795c-.322.215-.322.538-.107.646l4.838 2.688c.323.215.86.107 1.183-.108l4.517-2.795c.43-.216.43-.538.107-.646zm6.555 3.551l-4.84-2.688c-.322-.215-.86-.108-1.182.107l-4.516 2.796c-.323.215-.323.538-.108.645l4.84 2.689c.322.215.86.107 1.182-.108l4.516-2.796c.43-.107.43-.43.108-.645zm75.272 41.181l-11.506-6.236c-.322-.215-.86-.108-1.182.107l-4.517 2.796c-.322.215-.322.538-.107.645l11.613 6.129c.323.215.86.108 1.183-.107l4.516-2.796c.323-.107.323-.43 0-.538zm21.291-18.496l4.839 2.688c.323.215.86.108 1.183-.107l2.258-1.398c.323-.215.323-.538.108-.645l-4.839-2.688c-.323-.215-.86-.108-1.183.107l-2.258 1.398c-.323.215-.43.43-.108.645zm-6.558-3.652l4.839 2.688c.322.215.86.108 1.182-.107l2.258-1.398c.323-.215.323-.538.108-.646l-4.839-2.688c-.322-.215-.86-.107-1.183.108l-2.258 1.398c-.43.215-.43.537-.107.645zm-6.559-3.551l4.839 2.688c.323.215.86.108 1.183-.107l2.258-1.398c.322-.215.322-.538.107-.645l-4.838-2.689c-.323-.215-.861-.107-1.183.108l-2.258 1.398c-.43.215-.43.43-.108.645zm-6.558-3.547l4.838 2.688c.323.215.861.108 1.183-.107l2.258-1.398c.323-.215.323-.538.108-.645l-4.839-2.688c-.323-.215-.86-.108-1.183.107l-2.258 1.398c-.43.107-.43.43-.107.645z" fill="#403F47"/><path d="M138.994 132.139l4.838 2.688c.323.215.861.108 1.183-.107l2.258-1.398c.323-.215.323-.538.108-.645l-4.839-2.689c-.322-.215-.86-.107-1.183.108l-2.258 1.398c-.322.215-.322.537-.107.645zm-6.557-3.551l4.839 2.688c.322.215.86.108 1.183-.107l2.258-1.398c.322-.215.322-.538.107-.645l-4.839-2.688c-.322-.216-.86-.108-1.182.107l-2.259 1.398c-.322.107-.43.43-.107.645zm-6.559-3.656l4.839 2.688c.323.215.86.108 1.183-.107l2.258-1.398c.323-.215.323-.538.108-.645l-4.839-2.689c-.323-.215-.86-.107-1.183.108l-2.258 1.398c-.323.215-.43.537-.108.645zm-6.562-3.547l4.839 2.688c.322.215.86.108 1.183-.107l2.258-1.398c.322-.215.322-.538.107-.645l-4.839-2.689c-.322-.215-.86-.107-1.182.108l-2.259 1.398c-.43.215-.43.43-.107.645zm-6.559-3.656l4.839 2.688c.323.215.86.108 1.183-.108l2.258-1.397c.323-.215.323-.538.108-.646l-4.839-2.688c-.323-.215-.86-.107-1.183.108l-2.258 1.398c-.43.215-.43.537-.108.645zm-6.558-3.547l4.838 2.688c.323.215.861.108 1.183-.107l2.258-1.398c.323-.215.323-.538.108-.645l-4.839-2.689c-.322-.215-.86-.107-1.183.108l-2.258 1.398c-.43.215-.43.43-.107.645zm-6.666-3.551l4.838 2.688c.323.215.861.108 1.183-.107l2.258-1.398c.323-.215.323-.538.108-.645l-4.839-2.688c-.322-.216-.86-.108-1.183.107l-2.258 1.398c-.322.107-.322.43-.107.645zm-6.561-3.656l4.839 2.688c.322.215.86.108 1.183-.107l2.258-1.398c.322-.215.322-.538.107-.646l-4.838-2.688c-.323-.215-.86-.107-1.183.108l-2.258 1.398c-.323.215-.43.537-.108.645zm-6.559-3.547l4.84 2.688c.322.215.86.108 1.182-.107l2.258-1.398c.323-.215.323-.538.108-.645l-4.839-2.689c-.323-.215-.86-.107-1.183.108l-2.258 1.398c-.323.107-.43.43-.108.645zm-9.57-5.27l7.85 4.302c.322.215.86.107 1.183-.108l2.258-1.398c.322-.215.322-.537.107-.645l-7.85-4.301c-.322-.215-.86-.108-1.182.107l-2.258 1.398c-.323.215-.43.538-.108.645z" fill="#524C7C"/><path d="M98.758 36.285l-.009-.006-.01-.006-5.996-3.475c-.218-.168-.323-.346-.323-.528v-1.3c0-.502.534-.766.892-.528l.009.006.01.005 6.014 3.487.01.005.01.005c.144.072.284.286.284.507v1.299c0 .503-.534.767-.89.529z" fill="#14E731" stroke="#3C3C3C" stroke-width=".7"/><path d="M123.688 63.285l-.009-.006-.01-.006-5.996-3.475c-.218-.168-.323-.346-.323-.528v-1.3c0-.502.534-.766.891-.528l.009.006.01.005 6.015 3.486.009.006.01.005c.144.072.285.286.285.507v1.299c0 .503-.534.767-.891.529z" fill="#FF625B" stroke="#3C3C3C" stroke-width=".7"/><path d="M123.688 87.57l-.009-.006-.01-.006-5.996-3.475c-.218-.168-.323-.346-.323-.528v-1.299c0-.503.534-.767.891-.529l.009.006.01.006 6.015 3.486.009.005.01.005c.144.072.285.286.285.507v1.299c0 .503-.534.767-.891.529z" fill="#FFA9BB" stroke="#3C3C3C" stroke-width=".7"/><path d="M133.688 69.285l-.009-.006-.01-.006-5.996-3.475c-.218-.168-.323-.346-.323-.528v-1.3c0-.502.534-.766.891-.528l.009.006.01.005 6.015 3.486.009.006.01.005c.144.072.285.286.285.507v1.299c0 .503-.534.767-.891.529z" fill="#FFE604" stroke="#3C3C3C" stroke-width=".7"/><path d="M156.688 75.285l-.009-.006-.01-.006-5.996-3.475c-.218-.168-.323-.346-.323-.528v-1.3c0-.502.534-.766.891-.528l.009.006.01.005 6.015 3.486.009.006.01.005c.144.072.285.286.285.507v1.299c0 .503-.534.767-.891.529zm-6 16l-.009-.006-.01-.006-5.996-3.475c-.218-.168-.323-.346-.323-.528v-1.3c0-.502.534-.766.891-.528l.009.006.01.005 6.015 3.486.009.006.01.005c.144.072.285.286.285.507v1.299c0 .503-.534.767-.891.529z" fill="#14E731" stroke="#3C3C3C" stroke-width=".7"/><path d="M117.759 53.579l-.01-.007-.011-.006-25.066-14.343c-.217-.168-.322-.345-.322-.528v-1.298c0-.504.534-.768.891-.53l.01.007.01.006 25.087 14.355.021.012.023.009a.35.35 0 01.192.154.7.7 0 01.066.341v1.299c0 .503-.534.767-.891.529z" stroke="#3C3C3C" stroke-width=".7"/><path d="M117.759 90.153l-.01-.007-.011-.005-25.066-14.344c-.217-.167-.322-.345-.322-.527v-1.3c0-.502.534-.766.891-.528l.01.007.01.005 25.087 14.355.021.012.023.009a.35.35 0 01.192.154.701.701 0 01.066.341v1.299c0 .503-.534.767-.891.53z" fill="#FFE604" stroke="#3C3C3C" stroke-width=".7"/><path d="M140.237 85.148l-.009-.006-.011-.006-47.545-27.338c-.217-.168-.322-.346-.322-.528v-1.3c0-.502.534-.766.891-.528l.01.006.01.006 47.565 27.35.021.012.023.009a.35.35 0 01.192.154c.038.067.066.172.066.341v1.299c0 .503-.534.767-.891.529z" stroke="#3C3C3C" stroke-width=".7"/><path d="M146.759 70.153l-.01-.007-.011-.005-25.066-14.344c-.217-.167-.322-.345-.322-.527v-1.3c0-.502.534-.766.891-.528l.01.007.011.005 25.086 14.355.021.012.023.009a.35.35 0 01.192.154.701.701 0 01.066.341v1.299c0 .503-.534.767-.891.53z" fill="#FFA9BB" stroke="#3C3C3C" stroke-width=".7"/><path d="M146.759 106.727l-.01-.006-.011-.006-25.066-14.343c-.217-.168-.322-.346-.322-.528v-1.299c0-.503.534-.767.891-.529l.01.007.011.006 25.086 14.354.021.012.023.009a.356.356 0 01.192.154.706.706 0 01.066.342v1.298c0 .504-.534.767-.891.529zm-39.322-46.448l-.01-.007-.01-.006-14.745-8.465c-.217-.167-.322-.345-.322-.528v-1.298c0-.504.534-.767.891-.53l.01.007.01.006 14.762 8.474a.632.632 0 01.239.229.574.574 0 01.066.29v1.298c0 .504-.533.768-.891.53z" stroke="#3C3C3C" stroke-width=".7"/><path d="M113.933 57.68l-.01-.006-.01-.006-21.17-12.156c-.218-.167-.323-.345-.323-.528v-1.298c0-.504.534-.767.892-.53l.01.007.01.006 21.189 12.167.009.005.009.005c.144.072.285.285.285.507v1.298c0 .504-.534.768-.891.53z" fill="#FF625B" stroke="#3C3C3C" stroke-width=".7"/><path d="M113.933 81.966l-.01-.007-.01-.006-21.17-12.155c-.218-.168-.323-.346-.323-.528v-1.3c0-.502.534-.766.892-.528l.01.006.01.006 21.189 12.167.009.005.009.005c.144.072.285.286.285.507v1.299c0 .503-.534.767-.891.529z" stroke="#3C3C3C" stroke-width=".7"/><path d="M113.933 75.966l-.01-.007-.01-.006-21.17-12.155c-.218-.168-.323-.346-.323-.528v-1.3c0-.502.534-.766.892-.528l.01.006.01.006 21.189 12.167.009.005.009.005c.144.072.285.286.285.507v1.299c0 .503-.534.767-.891.529z" fill="#14E731" stroke="#3C3C3C" stroke-width=".7"/><defs><linearGradient id="paint0_linear" x1="106.625" y1="292.569" x2="58.458" y2="62.656" gradientUnits="userSpaceOnUse"><stop stop-color="#1AE5FF"/><stop offset=".259" stop-color="#64E8F9"/><stop offset=".704" stop-color="#EAEEEE"/></linearGradient><linearGradient id="paint1_linear" x1="167.094" y1="166.07" x2="107.749" y2="15.728" gradientUnits="userSpaceOnUse"><stop stop-color="#00EBFF"/><stop offset=".133" stop-color="#25D0F8"/><stop offset=".565" stop-color="#997AE0"/><stop offset=".863" stop-color="#E244D2"/><stop offset="1" stop-color="#FF2FCC"/></linearGradient></defs></svg>