<svg width="200" height="200" fill="none" xmlns="http://www.w3.org/2000/svg"><path d="M41.778 130.136v-.009L38.85 13.97v-.004c.001-.094.038-.22.14-.377.102-.16.258-.332.463-.511.41-.359.983-.713 1.607-1.008a8.378 8.378 0 011.85-.637 3.65 3.65 0 01.755-.083c.215.003.367.037.464.084l74.682 40.624.003.001c.535.306.836.832.836 1.441v117.267c0 .108-.042.252-.153.433-.11.178-.276.372-.492.574-.432.404-1.032.807-1.682 1.146-.649.338-1.331.603-1.919.738a3.382 3.382 0 01-.772.1c-.219-.002-.367-.04-.457-.091l-.002-.001-71.552-42.085-.004-.003a1.618 1.618 0 01-.839-1.442z" fill="#fff" stroke="#3C3C3C" stroke-width=".7"/><path d="M113.332 173.408l-.006-.003L39.182 132.9l-.003-.001a1.615 1.615 0 01-.829-1.436V14.918c0-1.195 1.272-1.955 2.33-1.431l74.138 40.501.003.002c.53.304.829.828.829 1.436V171.97c0 1.305-1.282 2.029-2.318 1.437z" fill="#fff" stroke="#3C3C3C" stroke-width=".7"/><path d="M25.778 137.136v-.009L22.85 20.97v-.004c.001-.094.038-.22.14-.377.102-.16.258-.332.463-.511.41-.359.983-.713 1.607-1.008a8.378 8.378 0 011.85-.637 3.65 3.65 0 01.755-.083c.215.003.367.037.464.084l74.682 40.624.003.001c.535.306.836.832.836 1.441v117.267c0 .108-.042.252-.153.433-.11.178-.276.372-.492.574-.432.404-1.032.807-1.682 1.146-.649.338-1.331.603-1.919.738a3.383 3.383 0 01-.772.1c-.219-.002-.367-.04-.457-.091l-.002-.001-71.552-42.085-.004-.003a1.618 1.618 0 01-.839-1.442z" fill="#fff" stroke="#3C3C3C" stroke-width=".7"/><path d="M97.332 180.408l-.006-.003L23.182 139.9l-.003-.001a1.615 1.615 0 01-.829-1.436V21.918c0-1.195 1.272-1.955 2.33-1.431l74.138 40.501.003.002c.53.304.829.828.829 1.436V178.97c0 1.305-1.282 2.029-2.318 1.437z" fill="#fff" stroke="#3C3C3C" stroke-width=".7"/><path d="M11.778 145.167v-.008L8.85 29.001v-.003c.001-.095.038-.22.14-.378a2.53 2.53 0 01.463-.511c.41-.359.983-.713 1.607-1.008a8.373 8.373 0 011.85-.637c.284-.058.54-.086.755-.082.215.002.367.036.464.083L88.811 67.09l.003.002c.535.305.836.831.836 1.44v117.267c0 .109-.042.253-.153.433a2.9 2.9 0 01-.492.574c-.432.404-1.032.807-1.682 1.146-.65.338-1.331.603-1.919.739a3.376 3.376 0 01-.772.099c-.219-.002-.367-.04-.457-.091l-.002-.001-71.552-42.085-.004-.002a1.62 1.62 0 01-.839-1.443z" fill="#fff" stroke="#3C3C3C" stroke-width=".7"/><path d="M83.332 188.439l-.006-.003-74.144-40.504-.003-.002a1.615 1.615 0 01-.829-1.436V29.949c0-1.195 1.272-1.955 2.33-1.43l74.138 40.5.003.002c.53.304.829.828.829 1.436v116.545c0 1.306-1.282 2.029-2.318 1.437z" fill="#fff" stroke="#3C3C3C" stroke-width=".7"/><path transform="matrix(.8614 .50792 0 1 35.042 66.847)" fill="#FFA9BB" stroke="#3C3C3C" stroke-width=".7" d="M.301.528h53.862v37.186H.301z"/><path d="M45.873 61.008l-.01-.007-.01-.006-32.048-18.338c-.294-.225-.455-.479-.455-.756v-1.66c0-.712.762-1.11 1.29-.757l.01.006.011.006 32.067 18.35.021.011.023.01a.53.53 0 01.294.24c.06.104.098.256.098.483v1.66c0 .713-.763 1.11-1.291.758z" fill="#FF625B" stroke="#3C3C3C" stroke-width=".7"/><path d="M45.873 119.007l-.01-.006-.01-.006-32.048-18.338c-.294-.225-.455-.479-.455-.756v-1.66c0-.713.762-1.11 1.29-.757l.01.006.011.006 32.067 18.349.021.012.023.009c.154.062.24.143.294.24.06.105.098.257.098.484v1.66c0 .713-.763 1.11-1.291.757z" stroke="#3C3C3C" stroke-width=".7"/><path d="M45.873 145.007l-.01-.006-.01-.006-32.048-18.338c-.294-.225-.455-.479-.455-.756v-1.66c0-.712.762-1.11 1.29-.757l.01.006.011.006 32.067 18.349.021.012.023.009c.154.062.24.143.294.24.06.105.098.257.098.484v1.66c0 .713-.763 1.11-1.291.757z" fill="#FFE604" stroke="#3C3C3C" stroke-width=".7"/><path d="M45.873 69.007l-.01-.006-.01-.006-32.048-18.338c-.294-.225-.455-.479-.455-.756v-1.66c0-.712.762-1.11 1.29-.757l.01.006.011.006 32.067 18.35.021.011.023.01a.53.53 0 01.294.24c.06.104.098.256.098.483v1.66c0 .713-.763 1.11-1.291.757zm0 58l-.01-.006-.01-.006-32.048-18.338c-.294-.225-.455-.479-.455-.756v-1.66c0-.712.762-1.11 1.29-.757l.01.006.011.006 32.067 18.349.021.012.023.009c.154.062.24.143.294.24.06.105.098.257.098.484v1.66c0 .713-.763 1.11-1.291.757zm0 26l-.01-.006-.01-.006-32.048-18.338c-.294-.225-.455-.479-.455-.756v-1.66c0-.712.762-1.11 1.29-.757l.01.006.011.006 32.067 18.349.021.012.023.009c.154.062.24.143.294.24.06.105.098.257.098.484v1.66c0 .713-.763 1.11-1.291.757zm0 7l-.01-.006-.01-.006-32.048-18.338c-.294-.225-.455-.479-.455-.756v-1.66c0-.712.762-1.11 1.29-.757l.01.006.011.006 32.067 18.349.021.012.023.009c.154.062.24.143.294.24.06.105.098.257.098.484v1.66c0 .713-.763 1.11-1.291.757zM31.694 68.209l-.008-.006-.008-.005-17.871-10.54c-.296-.225-.457-.48-.457-.757v-1.66c0-.712.762-1.11 1.29-.757l.009.005.008.005 17.888 10.55.023.014.025.01c.154.061.24.143.295.24.059.104.097.257.097.483v1.66c0 .713-.762 1.11-1.29.758zm0 21l-.008-.006-.008-.005-17.871-10.54c-.296-.225-.457-.48-.457-.757v-1.66c0-.713.762-1.11 1.29-.757l.009.005.008.005 17.888 10.55.023.014.025.01c.154.061.24.143.295.24.059.104.097.257.097.483v1.66c0 .713-.762 1.11-1.29.758zm0-14l-.008-.006-.008-.005-17.871-10.54c-.296-.225-.457-.48-.457-.757v-1.66c0-.712.762-1.11 1.29-.757l.009.005.008.005 17.888 10.55.023.014.025.01c.154.061.24.143.295.24.059.104.097.257.097.483v1.66c0 .713-.762 1.11-1.29.758zm0 21l-.008-.006-.008-.005-17.871-10.54c-.296-.225-.457-.48-.457-.757v-1.66c0-.713.762-1.11 1.29-.757l.009.005.008.005 17.888 10.55.023.014.025.01c.154.061.24.143.295.24.059.104.097.257.097.483v1.66c0 .713-.762 1.11-1.29.758zm37 36l-.008-.006-.008-.004-17.871-10.541c-.296-.225-.457-.479-.457-.757v-1.66c0-.712.762-1.11 1.29-.757l.009.005.008.005 17.889 10.55.022.014.025.01c.154.061.24.143.295.24.059.104.097.257.097.483v1.66c0 .713-.762 1.11-1.29.758zm0 34l-.008-.006-.008-.004-17.871-10.541c-.296-.225-.457-.479-.457-.757v-1.66c0-.712.762-1.11 1.29-.757l.009.005.008.005 17.889 10.55.022.014.025.01c.154.061.24.143.295.24.059.104.097.257.097.483v1.66c0 .713-.762 1.11-1.29.758zm-37-84l-.008-.006-.008-.005-17.871-10.54c-.296-.225-.457-.48-.457-.757v-1.66c0-.713.762-1.11 1.29-.757l.009.005.008.005 17.888 10.55.023.014.025.01c.154.061.24.143.295.24.059.104.097.257.097.483v1.66c0 .713-.762 1.11-1.29.758zm0 21l-.008-.006-.008-.004-17.871-10.54c-.296-.226-.457-.48-.457-.758v-1.66c0-.713.762-1.11 1.29-.757l.009.005.008.005 17.888 10.55.023.014.025.01c.154.061.24.143.295.24.059.104.097.257.097.483v1.66c0 .713-.762 1.11-1.29.758zm37 36l-.008-.006-.008-.004-17.871-10.541c-.296-.225-.457-.479-.457-.757v-1.66c0-.712.762-1.11 1.29-.757l.009.005.008.005 17.889 10.55.022.014.025.01c.154.061.24.143.295.24.059.104.097.257.097.483v1.66c0 .713-.762 1.11-1.29.758zm0 34l-.008-.006-.008-.004-17.871-10.541c-.296-.225-.457-.479-.457-.757v-1.66c0-.712.762-1.11 1.29-.757l.009.005.008.005 17.889 10.55.022.014.025.01c.154.061.24.143.295.24.059.104.097.257.097.483v1.66c0 .713-.762 1.11-1.29.758z" stroke="#3C3C3C" stroke-width=".7"/></svg>