<svg width="200" height="200" fill="none" xmlns="http://www.w3.org/2000/svg"><path d="M89.352 8.478l.007-.004.006-.004c.215-.129.594-.14 1.132.038.52.174 1.107.5 1.664.911a7.427 7.427 0 011.429 1.368c.373.485.559.908.56 1.21v.004l-2.616 128.194v.007c0 .663-.424 1.12-.99 1.687L10.321 189.7l-.001.001c-.26.156-.674.229-1.187.17a4.254 4.254 0 01-1.604-.551c-1.064-.617-1.966-1.71-2.046-3.255L4.35 55.586v-.001c0-.369.133-.677.35-.976.174-.24.393-.462.634-.704L89.352 8.478z" fill="#fff" stroke="#3C3C3C" stroke-width=".7"/><path d="M8.493 188.402h0L8.42 58.007s0 0 0 0c0-.661.421-1.118.985-1.683l82.496-45.176h0l.012-.007a1.568 1.568 0 011.7.03c.498.321.858.913.858 1.635v0l.072 130.396c0 .66-.42 1.117-.984 1.682l-82.495 44.895-.007.004-.006.003c-.612.367-1.257.38-1.733.141-.467-.235-.825-.738-.825-1.525z" fill="#fff" stroke="#3C3C3C" stroke-width=".7"/><path d="M33.465 88.353l.011-.006.01-.007c.604-.402 1.422-.02 1.422.831v1.685c0 .39-.168.583-.426.842l-8.38 4.749-.012.006-.01.007c-.603.402-1.421.02-1.421-.831v-1.685c0-.303.005-.437.045-.537.026-.066.084-.154.323-.273l.008-.004.008-.004 8.422-4.773zm0 7.187l.011-.006.01-.007c.604-.402 1.422-.02 1.422.832v1.684c0 .391-.168.583-.426.842l-8.38 4.75-.012.006-.01.007c-.603.402-1.421.019-1.421-.832v-1.684c0-.304.005-.438.045-.537.026-.067.084-.154.323-.273l.008-.004.008-.005 8.422-4.773z" stroke="#3C3C3C" stroke-width=".7"/><path d="M33.465 103.462l.011-.006.01-.007c.604-.402 1.422-.02 1.422.832v1.684c0 .391-.168.583-.426.842l-8.38 4.749-.012.007-.01.007c-.603.402-1.421.019-1.421-.832v-1.685c0-.303.005-.437.045-.536.026-.067.084-.154.323-.273l.008-.005.008-.004 8.422-4.773zm0 7.918l.011-.006.01-.007c.604-.402 1.422-.02 1.422.832v1.684c0 .391-.168.583-.426.842l-8.38 4.749-.012.007-.01.007c-.603.402-1.421.019-1.421-.832v-1.685c0-.303.005-.437.045-.536.026-.067.084-.154.323-.273l.008-.005.008-.004 8.422-4.773z" fill="#FFA9BB" stroke="#3C3C3C" stroke-width=".7"/><path d="M60.133 64.212l.01-.006.01-.007c.603-.402 1.421-.02 1.421.832v1.684c0 .056-.038.205-.138.405a2.025 2.025 0 01-.29.44L25.814 87.748l-.01.006-.01.007c-.604.402-1.422.02-1.422-.832v-1.685c0-.303.006-.437.046-.536.026-.067.084-.154.322-.273l.01-.005.008-.005 35.374-20.213zm0 41.886l.01-.006.01-.006c.603-.402 1.421-.02 1.421.831v1.685c0 .055-.038.205-.138.405a2.023 2.023 0 01-.29.439l-35.331 20.189-.01.006-.01.006c-.604.402-1.422.02-1.422-.831v-1.685c0-.303.006-.437.046-.537.026-.066.084-.154.322-.273l.01-.004.008-.005 35.374-20.214z" fill="#FFE604" stroke="#3C3C3C" stroke-width=".7"/><path d="M60.133 115.337l.01-.006.01-.007c.603-.402 1.421-.02 1.421.832v1.684c0 .056-.038.205-.138.405a1.999 1.999 0 01-.29.439l-35.331 20.189-.01.006-.01.007c-.604.402-1.422.019-1.422-.832v-1.685c0-.303.006-.437.046-.536.026-.067.084-.154.322-.273l.01-.005.008-.005 35.374-20.213z" fill="#FFA9BB" stroke="#3C3C3C" stroke-width=".7"/><path d="M60.133 124.579l.01-.006.01-.007c.603-.402 1.421-.019 1.421.832v1.684c0 .056-.038.206-.138.405a2.031 2.031 0 01-.29.44l-35.331 20.188-.01.006-.01.007c-.604.402-1.422.019-1.422-.832v-1.684c0-.304.006-.438.046-.537.026-.067.084-.154.322-.273l.01-.005.008-.004 35.374-20.214zm0 7.918l.01-.006.01-.007c.603-.402 1.421-.019 1.421.832V135c0 .056-.038.206-.138.405a2.031 2.031 0 01-.29.44l-35.331 20.188-.01.006-.01.007c-.604.402-1.422.019-1.422-.832v-1.684c0-.304.006-.438.046-.537.026-.067.084-.154.322-.273l.01-.005.008-.004 35.374-20.214z" stroke="#3C3C3C" stroke-width=".7"/><path d="M45.537 54.665l.01-.006.011-.007c.603-.402 1.421-.02 1.421.832v1.684c0 .298-.016.635-.368.81l-.008.005-.008.004-10.387 5.896-10.388 5.895-.011.006-.01.007c-.604.403-1.422.02-1.422-.831v-1.685c0-.303.006-.437.046-.537.026-.066.084-.153.322-.273l.009-.004.008-.004 20.775-11.792z" fill="#FF625B" stroke="#3C3C3C" stroke-width=".7"/><path d="M54.8 58.313l.01-.006.01-.006c.602-.403 1.42-.02 1.42.831v1.685c0 .391-.167.583-.426.843L26.095 78.762l-.01.006-.01.006c-.602.402-1.42.02-1.42-.832v-1.684c0-.304.005-.438.045-.537.026-.066.085-.154.323-.273l.009-.005.009-.005L54.8 58.313z" stroke="#3C3C3C" stroke-width=".7"/><path fill="#FFE604" d="M51.336 80.32l34.29-19.797v26.035l-34.29 19.797z"/><path fill-rule="evenodd" clip-rule="evenodd" d="M59.125 82.007c1.141-1.684 2.036-4.082 3.414-4.776 1.513-.762 3.195-.547 4.102.99.893 1.513.428 4.303.407 6.65-.018 2.025.037 4.016-.52 6.061-.59 2.164-1.394 4.502-2.684 5.703-1.26 1.173-2.538.405-3.816.346-1.167-.054-2.36.12-3.313-.674-1.096-.912-2.431-1.95-2.454-4.128-.024-2.18 1.394-4.203 2.344-6.19.733-1.532 1.632-2.67 2.52-3.982z" fill="#14E731"/><path fill-rule="evenodd" clip-rule="evenodd" d="M78.695 66.597c1.285-.79 2.102.294 3.094.653.918.331 2.156.239 2.476 1.358.317 1.11-.58 2.834-.859 4.298-.311 1.638.102 3.204-.867 4.78-.977 1.59-2.517 2.191-3.844 2.886-1.267.663-2.64 1.415-3.59 1.008-.92-.393-1.098-1.807-1.275-3.089-.15-1.094.009-2.344.345-3.669.333-1.308.868-2.585 1.567-3.858.87-1.582 1.666-3.576 2.953-4.367z" fill="#FFA9BB"/><path fill-rule="evenodd" clip-rule="evenodd" d="M70.495 74.952c1.378-.756 3.003-2.409 4.024-1.99 1.028.423.37 2.675.717 3.939.313 1.143 1.405 1.618 1.206 3.083-.208 1.541-1.254 3.21-2.263 4.722-1.08 1.621-2.279 3.192-3.684 4.196-1.53 1.093-3.224 1.953-4.427 1.598-1.185-.35-1.287-2.128-1.76-3.426-.475-1.302-1.383-2.325-1.002-4.15.389-1.865 1.607-3.91 3.005-5.46 1.285-1.424 2.754-1.728 4.183-2.512z" fill="#FF625B"/></svg>