<svg width="81" height="82" fill="none" xmlns="http://www.w3.org/2000/svg"><path d="M77.847 25.113a40.988 40.988 0 00-8.706-13.115 40.12 40.12 0 00-12.955-8.813A39.864 39.864 0 0040.496 0h-.181c-5.481.028-10.781 1.126-15.773 3.286a40.216 40.216 0 00-12.837 8.831A40.759 40.759 0 003.1 25.186 41.54 41.54 0 00.001 41.192a41.584 41.584 0 004.34 18.295L.181 77.79C.182 80.115 2.048 82 4.34 82l17.91-4.393A40.227 40.227 0 0040.324 82h.19a40.078 40.078 0 0015.609-3.14 40.126 40.126 0 0012.91-8.712 40.729 40.729 0 008.724-12.995C79.885 52.1 80.973 46.729 81 41.183a41.536 41.536 0 00-3.153-16.07zm-55.434 20.28c-2.391 0-4.339-1.968-4.339-4.393s1.948-4.393 4.34-4.393c2.391 0 4.339 1.968 4.339 4.393s-1.939 4.393-4.34 4.393zm18.083 0c-2.392 0-4.34-1.968-4.34-4.393s1.948-4.393 4.34-4.393c2.391 0 4.34 1.968 4.34 4.393s-1.949 4.393-4.34 4.393zm18.082 0c-2.392 0-4.34-1.968-4.34-4.393s1.948-4.393 4.34-4.393 4.34 1.968 4.34 4.393-1.948 4.393-4.34 4.393z" fill="#fff"/></svg>