<svg width="140" height="140" fill="none" xmlns="http://www.w3.org/2000/svg"><path d="M72.417 116.228l-.02.008-.018.01c-6.4 3.483-15.279 1.904-24.235-3.588-8.94-5.481-17.87-14.814-24.303-26.65-6.437-11.84-9.605-23.989-9.536-34.048.068-10.073 3.374-17.964 9.776-21.448.764-.416 1.618-.947 2.56-1.534 3.13-1.95 7.24-4.508 12.302-5.462 8.642-1.628 28.656 2.945 44.766 30.2C97.766 77.5 95.884 96.95 87.6 106.994c-.387.47-1.355 1.221-2.68 2.118-1.308.886-2.925 1.89-4.572 2.862-3.302 1.95-6.687 3.756-7.932 4.254z" fill="#FFA9BB" stroke="#3C3C3C" stroke-width=".7"/><path d="M72.362 116.089l-.027.011-.026.014c-6.33 3.446-15.147 1.898-24.086-3.583-8.914-5.467-17.827-14.78-24.25-26.594-6.427-11.823-9.586-23.946-9.517-33.975.068-10.05 3.365-17.871 9.697-21.317 6.335-3.448 15.607-1.97 25.002 3.442 9.367 5.395 18.725 14.634 25.143 26.438 6.427 11.822 9.638 24.287 9.373 34.52-.266 10.252-4.002 18.121-11.309 21.044z" fill="#FFE604" stroke="#3C3C3C"/><path d="M68.16 108.567l-.019.008-.018.01c-5.24 2.859-12.518 1.574-19.877-2.944-7.343-4.508-14.679-12.189-19.962-21.933-5.287-9.75-7.883-19.753-7.822-28.033.061-8.294 2.782-14.772 8.022-17.631 5.243-2.861 12.896-1.635 20.63 2.826 7.715 4.448 15.419 12.068 20.698 21.805 5.286 9.75 7.926 20.034 7.703 28.483-.224 8.462-3.308 14.983-9.355 17.409z" fill="#fff" stroke="#3C3C3C" stroke-width=".7"/><path d="M38.417 81.514l-1.663-2.836L47.73 72.17V53.508l2.494.635V74.84l-11.808 6.674z" fill="#2C2C2C" stroke="#3C3C3C" stroke-width=".7"/><ellipse rx="1.498" ry="2.334" transform="rotate(-26.906 122.16 -78.954) skewX(-.15)" fill="#2C2C2C"/><ellipse rx="1.498" ry="2.334" transform="rotate(-26.906 149.603 -98.121) skewX(-.15)" fill="#2C2C2C"/><ellipse rx="1.498" ry="2.334" transform="rotate(-26.906 183.591 -107.626) skewX(-.15)" fill="#2C2C2C"/><ellipse rx="1.498" ry="2.334" transform="rotate(-26.906 216.475 -106.38) skewX(-.15)" fill="#2C2C2C"/><ellipse rx="1.498" ry="2.334" transform="rotate(-26.906 237.993 -94.612) skewX(-.15)" fill="#2C2C2C"/><ellipse rx="1.498" ry="2.334" transform="rotate(-26.906 244.47 -75.428) skewX(-.15)" fill="#2C2C2C"/><ellipse rx="1.498" ry="2.334" transform="rotate(-26.906 233.063 -52.424) skewX(-.15)" fill="#2C2C2C"/><ellipse rx="1.498" ry="2.334" transform="rotate(-26.906 205.789 -33.96) skewX(-.15)" fill="#2C2C2C"/><ellipse rx="1.498" ry="2.334" transform="rotate(-26.906 171.633 -23.752) skewX(-.15)" fill="#2C2C2C"/><ellipse rx="1.498" ry="2.334" transform="rotate(-26.845 139.052 -25.143) skewX(-.027)" fill="#2C2C2C"/><ellipse rx="1.498" ry="2.334" transform="rotate(-26.906 116.537 -36.932) skewX(-.15)" fill="#2C2C2C"/><ellipse rx="1.498" ry="2.334" transform="rotate(-26.893 110.276 -56.86) skewX(-.123)" fill="#2C2C2C"/></svg>