<svg width="140" height="140" fill="none" xmlns="http://www.w3.org/2000/svg"><path transform="matrix(.88285 .46965 0 1 55.036 9.855)" fill="#fff" stroke="#3C3C3C" stroke-width=".7" d="M.309.514h52.025v74.538H.309z"/><path transform="matrix(.88285 .46965 0 1 51.036 12.855)" fill="#fff" stroke="#3C3C3C" stroke-width=".7" d="M.309.514h52.025v74.538H.309z"/><path transform="matrix(.88285 .46965 0 1 47.036 15.855)" fill="#fff" stroke="#3C3C3C" stroke-width=".7" d="M.309.514h52.025v74.538H.309z"/><path transform="matrix(.88285 .46965 0 1 43.036 18.855)" fill="#fff" stroke="#3C3C3C" stroke-width=".7" d="M.309.514h52.025v74.538H.309z"/><path transform="matrix(.88285 .46965 0 1 39.036 21.855)" fill="#fff" stroke="#3C3C3C" stroke-width=".7" d="M.309.514h52.025v74.538H.309z"/><path transform="matrix(.88285 .46965 0 1 34.036 24.855)" fill="#fff" stroke="#3C3C3C" stroke-width=".7" d="M.309.514h52.025v74.538H.309z"/><path transform="matrix(.88285 .46965 0 1 29.036 27.855)" fill="#fff" stroke="#3C3C3C" stroke-width=".7" d="M.309.514h52.025v74.538H.309z"/><path transform="matrix(.88285 .46965 0 1 24.036 30.238)" fill="#fff" stroke="#3C3C3C" stroke-width=".7" d="M.309.514h52.025v74.538H.309z"/><path d="M34.055 54.234a.6.6 0 01.88-.53l25.686 13.6a.6.6 0 01.32.53v2.04a.6.6 0 01-.874.533L34.38 57.214a.6.6 0 01-.326-.534v-2.446z" fill="#FFA9BB"/><path d="M34.38 57.214l-.16.311.16-.311zm26.56 12.66h-.35.35zm-.873.533l.16-.311-.16.311zm.554-3.103l.164-.31-.163.31zm.32.53h-.35.35zM34.77 54.013l25.687 13.6.327-.619-25.686-13.6-.327.619zm25.82 13.82v2.04h.7v-2.04h-.7zm-.364 2.263L34.54 56.903l-.32.622 25.686 13.193.32-.622zM34.404 56.68v-2.446h-.7v2.446h.7zm.136.223a.25.25 0 01-.136-.223h-.7c0 .356.199.683.516.845l.32-.622zm26.05 12.97a.25.25 0 01-.364.223l-.32.622a.95.95 0 001.384-.845h-.7zm-.133-2.26a.25.25 0 01.133.22h.7a.95.95 0 00-.506-.839l-.327.619zM35.099 53.394a.95.95 0 00-1.394.84h.7c0-.189.2-.31.367-.221l.327-.619z" fill="#3C3C3C"/><path fill-rule="evenodd" clip-rule="evenodd" d="M34.19 62.808a.6.6 0 01.882-.53l18.21 9.642a.6.6 0 01.319.53v1.067a.6.6 0 01-.882.53l-18.21-9.685a.6.6 0 01-.318-.53v-1.024zm0 5.086a.6.6 0 01.882-.53l18.21 9.641a.6.6 0 01.319.53v1.068a.6.6 0 01-.882.53l-18.21-9.686a.6.6 0 01-.318-.53v-1.023zM53.602 82.62a.6.6 0 00-.32-.53l-18.21-9.642a.6.6 0 00-.88.53v1.024a.6.6 0 00.318.53l18.21 9.685a.6.6 0 00.882-.53V82.62zm-19.41-4.556a.6.6 0 01.88-.53l18.21 9.641a.6.6 0 01.32.53v1.068a.6.6 0 01-.882.53l-18.21-9.686a.6.6 0 01-.318-.53v-1.023zM53.6 92.792a.6.6 0 00-.32-.53L35.07 82.62a.6.6 0 00-.88.53v1.024a.6.6 0 00.318.53l18.21 9.685a.6.6 0 00.882-.53v-1.067zm-19.75 4.957a.6.6 0 01.854-.358l7.59 4.018a.601.601 0 01.294.704l-.277.919a.6.6 0 01-.857.356l-7.58-4.053a.6.6 0 01-.29-.702l.265-.884zm8.738 9.125a.6.6 0 00-.294-.703l-7.59-4.018a.6.6 0 00-.855.357l-.266.885a.6.6 0 00.292.702l7.579 4.053a.6.6 0 00.857-.356l.277-.92z" fill="#fff"/><path d="M41.455 108.15l.165-.308-.165.308zm.857-.356l-.335-.101.335.101zm-8.728-4.399l.335.101-.335-.101zm.292.702l.165-.309-.165.309zm8.419 2.074l.164-.309-.164.309zm.294.703l.335.101-.335-.101zm-7.884-4.721l-.163.309.163-.309zm-.855.357l.335.101-.335-.101zm.026-3.175l.165-.309-.165.309zm-.292-.702l-.335-.1.335.1zm8.728 4.399l.335.101-.335-.101zm-.857.356l.165-.308-.165.308zm-6.75-5.997l-.163.31.163-.31zm-.855.358l.335.1-.335-.1zm8.445 3.66l.164-.309-.164.309zm.294.704l-.335-.101.335.101zm10.13-7.724l-.164.31.164-.31zm-18.21-9.685l-.164.309.164-.31zm18.773 7.558l.164-.31-.164.31zm-18.21-9.642l.163-.31-.163.31zm17.647 6.684l.165-.31-.165.31zm-17.647-11.77l-.164.31.164-.31zm18.21 9.642l.164-.309-.164.31zm-.563-2.958l.165-.309-.165.309zM34.191 74.003h-.35.35zm.318.53l-.164.309.164-.31zm18.773 7.558l.164-.31-.164.31zm-18.21-9.642l-.164.31.164-.31zm17.647 6.684l.165-.31-.165.31zm.563-2.128l.164-.31-.164.31zm-.563-2.958l-.164.309.164-.31zm.563-2.127l-.164.309.164-.31zm.164-.31l-18.21-9.642-.328.619 18.21 9.642.328-.619zm.505 1.907V72.45h-.7v1.067h.7zm-19.606-8.846l18.21 9.685.329-.618-18.21-9.686-.33.618zm-.504-1.863v1.024h.7v-1.024h-.7zm19.605 13.888l-18.21-9.642-.328.619 18.21 9.641.328-.618zm.505 1.907v-1.068h-.7v1.068h.7zm-19.606-8.847l18.21 9.686.329-.618-18.21-9.686-.33.618zm-.504-1.862v1.023h.7v-1.023h-.7zm1.067 4.864l18.21 9.642.328-.619-18.21-9.642-.328.62zm-.367 1.245v-1.024h-.7v1.024h.7zm18.343 9.906l-18.21-9.685-.33.618 18.21 9.685.33-.618zm.367-1.288v1.067h.7v-1.067h-.7zm.195 4.246l-18.21-9.642-.328.619 18.21 9.642.328-.619zm.505 1.907v-1.067h-.7v1.067h.7zm-19.606-8.847l18.21 9.686.329-.618-18.21-9.686-.33.618zm-.504-1.862v1.024h.7v-1.024h-.7zm1.067 4.864l18.21 9.642.328-.618-18.21-9.642-.328.618zm-.367 1.245V83.15h-.7v1.024h.7zm18.343 9.906l-18.21-9.685-.33.618 18.21 9.685.33-.618zm.367-1.288v1.067h.7v-1.067h-.7zM42.459 101.1l-7.59-4.018-.327.618 7.589 4.019.328-.619zm.188 2.033l.277-.92-.67-.201-.277.919.67.202zm-8.936-3.49l7.578 4.054.33-.617-7.578-4.054-.33.618zm-.196-1.995l-.266.884.67.202.266-.885-.67-.201zm1.027 4.814l7.589 4.019.328-.619-7.59-4.018-.327.618zm-.623 1.034l.266-.885-.67-.202-.266.885.67.202zm7.7 4.346l-7.578-4.054-.33.617 7.578 4.054.33-.617zm.635-1.069l-.277.92.67.202.277-.92-.67-.202zm-.965 1.686a.95.95 0 001.358-.564l-.67-.202a.25.25 0 01-.357.149l-.33.617zm-8.04-5.165a.95.95 0 00.462 1.111l.33-.617a.25.25 0 01-.122-.292l-.67-.202zm8.882 3.187a.248.248 0 01.123.292l.67.202a.95.95 0 00-.465-1.113l-.328.619zm-7.262-4.637a.95.95 0 00-1.354.565l.67.202a.25.25 0 01.357-.149l.327-.618zm-.828-2.818a.25.25 0 01-.122-.292l-.67-.202a.95.95 0 00.462 1.112l.33-.618zm7.936 3.905a.25.25 0 01-.357.149l-.33.617a.95.95 0 001.357-.564l-.67-.202zm-7.108-5.85a.95.95 0 00-1.354.567l.67.201a.25.25 0 01.357-.149l.327-.618zm7.262 4.638a.25.25 0 01.123.293l.67.201a.95.95 0 00-.465-1.113l-.328.619zm10.424-7.02a.95.95 0 001.396-.84h-.7c0 .189-.2.31-.367.221l-.33.618zM33.84 84.173a.95.95 0 00.504.839l.328-.618a.25.25 0 01-.132-.221h-.7zm19.277 8.397a.25.25 0 01.133.221h.7a.95.95 0 00-.505-.84l-.328.62zM35.234 82.31a.95.95 0 00-1.394.84h.7c0-.19.2-.31.367-.222l.327-.618zm-.562-3.002a.25.25 0 01-.132-.22h-.7a.95.95 0 00.504.838l.328-.618zm18.578 9.465c0 .189-.2.31-.367.22l-.33.619a.95.95 0 001.397-.839h-.7zM35.235 77.225a.95.95 0 00-1.394.84h.7c0-.189.2-.31.367-.221l.327-.619zm17.883 10.26a.25.25 0 01.133.222h.7a.95.95 0 00-.505-.84l-.328.619zm-.563-2.958a.95.95 0 001.396-.839h-.7c0 .189-.2.31-.367.221l-.33.618zM33.84 74.003a.95.95 0 00.504.839l.328-.618a.25.25 0 01-.132-.221h-.7zM53.118 82.4a.25.25 0 01.133.22h.7a.95.95 0 00-.505-.839l-.328.619zM35.235 72.14a.95.95 0 00-1.394.839h.7c0-.188.2-.31.367-.22l.327-.62zm-.562-3.002a.25.25 0 01-.132-.22h-.7a.95.95 0 00.504.838l.328-.618zm18.578 9.465c0 .189-.2.31-.367.22l-.33.619a.95.95 0 001.397-.84h-.7zM35.235 67.054a.95.95 0 00-1.394.84h.7c0-.189.2-.31.367-.221l.327-.619zm17.883 10.26a.25.25 0 01.133.221h.7a.95.95 0 00-.505-.84l-.328.62zM34.673 64.053a.25.25 0 01-.132-.221h-.7a.95.95 0 00.504.839l.328-.619zm18.578 9.464c0 .189-.2.31-.367.22l-.33.619a.95.95 0 001.397-.839h-.7zM35.235 61.968a.95.95 0 00-1.394.84h.7c0-.188.2-.31.367-.221l.327-.619zm17.883 10.26a.25.25 0 01.133.222h.7a.95.95 0 00-.505-.84l-.328.619z" fill="#3C3C3C"/></svg>