<svg width="140" height="140" fill="none" xmlns="http://www.w3.org/2000/svg"><path d="M39.386 33.14v10.602l20.202 11.535v5.453L33.727 45.556l-.786-14.55 6.445 2.133z" fill="#FFE604"/><path d="M33.727 45.557l5.659-1.816m-5.66 1.816l-.785-14.55 6.445 2.133v10.602m-5.66 1.815L59.589 60.73v-5.452L39.386 43.742" stroke="#3C3C3C" stroke-width=".7"/><path d="M32.5 19.25l39.17 22.694v28.038l-5.353 1.883-1.033-.617-.37-27.488L27.27 22.242l-.184-1.272 5.414-1.72z" fill="#FFE604"/><path d="M66.012 43.76l5.659-1.816m0 0L32.5 19.25l-5.415 1.72.184 1.272L64.914 43.76l.37 27.488 1.033.617 5.354-1.883V41.944z" stroke="#3C3C3C" stroke-width=".7"/><path d="M56.555 110.435l-5.174 1.826-1.21-.696-.94-50.432 7.324 1.894v47.408zm-16.232-19.74l-4.92 1.759v2.744l9.2 4.201v-7.895l-4.28-.809zm-.003-7.531l-4.875 1.646.088.382 6.083 4.147 5.167-2.504-6.462-3.67z" fill="#FFA9BB" stroke="#3C3C3C" stroke-width=".7"/><path fill-rule="evenodd" clip-rule="evenodd" d="M41.938 57.839V88.91l-6.593-3.806v4.855l6.593 3.806v2.816l-6.593-3.807v8.06l6.593 3.806v2.233l9.096 5.252V63.09l14.937 8.625V43.75L27 21.25v27.965l14.938 8.624zM33.675 31.9l25.536 14.743v13.789L33.676 45.69V31.9z" fill="#fff"/><path d="M41.938 88.91v.35l.303.176v-.35l-.303-.175zm0-31.071l.303.175v-.35l-.303-.175v.35zm-6.593 27.266v-.35l-.303-.175v.35l.303.175zm0 4.855l-.303-.175v.35l.303.174v-.35zm6.593 3.806l.303.175v-.35l-.303-.175v.35zm0 2.816v.35l.303.175v-.35l-.303-.175zm-6.593-3.807v-.35l-.303-.175v.35l.303.175zm0 8.06l-.303-.175v.35l.303.175v-.35zm6.593 3.806l.303.175v-.35l-.303-.175v.35zm0 2.233l-.304-.175v.35l.303.175v-.35zm9.096 5.252v.35l.303.175v-.35l-.303-.175zm0-49.036v-.35l-.303-.175v.35l.303.175zm14.937 8.625v.35l.303.175v-.35l-.303-.175zm0-27.965l.303.175v-.35l-.303-.175v.35zM27 21.25v-.35l-.303-.175v.35l.303.175zm0 27.965l-.303-.175v.35l.303.175v-.35zm32.212-2.57l.303.174v-.35l-.303-.175v.35zM33.676 31.9v-.35l-.303-.175v.35l.303.175zm25.536 28.532v.35l.303.175v-.35l-.303-.175zM33.676 45.69l-.303-.175v.35l.303.174v-.35zm8.565 43.396V58.014l-.607-.35v31.072l.607.35zm-6.896-3.631l6.593 3.806v-.7l-6.593-3.806v.7zm.303 4.68V85.28l-.606-.35v4.854l.606.35zm6.29 3.28l-6.593-3.806v.7l6.593 3.807v-.7zm.303 3.342V93.94l-.607-.35v2.816l.607.35zm-6.896-3.632l6.593 3.807v-.7l-6.593-3.807v.7zm.303 7.885v-8.06l-.606-.35v8.06l.606.35zm6.29 3.281l-6.593-3.806v.7l6.593 3.806v-.7zm.303 2.758v-2.233l-.607-.35v2.233l.607.35zm8.793 4.727l-9.096-5.252v.7l9.096 5.252v-.7zm-.303-48.86v49.035l.606.35V63.266l-.607-.35zm15.24 8.449L51.034 62.74v.7l14.937 8.624v-.7zm-.303-27.79V71.54l.606.35V43.925l-.606-.35zM27 21.6l38.971 22.5v-.7L27 20.9v.7zm.303 27.79V21.425l-.606-.35V49.04l.606.35zm14.634 8.099L27 48.865v.7l14.938 8.624v-.7zm17.275-11.195L33.676 31.551v.7l25.536 14.743v-.7zm.303 14.314V46.819l-.606-.35v13.789l.606.35zM33.676 46.039l25.536 14.744v-.7L33.676 45.34v.7zm-.303-14.313v13.788l.606.35V32.076l-.606-.35z" fill="#3C3C3C"/></svg>