<svg width="140" height="140" fill="none" xmlns="http://www.w3.org/2000/svg"><path transform="matrix(.88285 .46965 0 1 52.036 17.855)" fill="#fff" stroke="#3C3C3C" stroke-width=".7" d="M.309.514h52.025v38.318H.309z"/><path transform="matrix(.88285 .46965 0 1 56.036 34.472)" fill="#FFE604" stroke="#3C3C3C" stroke-width=".7" d="M.309.514h23.598v17.282H.309z"/><path transform="matrix(.88285 .46965 0 1 79.036 46.472)" fill="#fff" stroke="#3C3C3C" stroke-width=".7" d="M.309.514h9.494v17.282H.309z"/><path d="M57 27.223l26.886 14.235v3.384L57 31.032v-3.81z" fill="#C4C4C4"/><path transform="matrix(.88285 .46965 0 1 52.036 57.472)" fill="#fff" stroke="#3C3C3C" stroke-width=".7" d="M.309.514h52.025v38.318H.309z"/><path transform="matrix(.88285 .46965 0 1 56.036 74.093)" fill="#FFA9BB" stroke="#3C3C3C" stroke-width=".7" d="M.309.514h23.598v17.282H.309z"/><path transform="matrix(.88285 .46965 0 1 79.036 86.093)" fill="#fff" stroke="#3C3C3C" stroke-width=".7" d="M.309.514h9.494v17.282H.309z"/><path d="M57 66.844l26.886 14.235v3.384L57 70.653v-3.81z" fill="#C4C4C4"/><path transform="matrix(.88285 .46965 0 1 43.036 17.855)" fill="#fff" stroke="#3C3C3C" stroke-width=".7" d="M.309.514h52.025v38.318H.309z"/><path transform="matrix(.88285 .46965 0 1 47.036 34.472)" fill="#FFE604" stroke="#3C3C3C" stroke-width=".7" d="M.309.514h23.598v17.282H.309z"/><path transform="matrix(.88285 .46965 0 1 70.036 46.472)" fill="#fff" stroke="#3C3C3C" stroke-width=".7" d="M.309.514h9.494v17.282H.309z"/><path d="M48 27.223l26.886 14.235v3.384L48 31.032v-3.81z" fill="#C4C4C4"/><path transform="matrix(.88285 .46965 0 1 43.036 57.472)" fill="#fff" stroke="#3C3C3C" stroke-width=".7" d="M.309.514h52.025v38.318H.309z"/><path transform="matrix(.88285 .46965 0 1 47.036 74.093)" fill="#FFA9BB" stroke="#3C3C3C" stroke-width=".7" d="M.309.514h23.598v17.282H.309z"/><path transform="matrix(.88285 .46965 0 1 70.036 86.093)" fill="#fff" stroke="#3C3C3C" stroke-width=".7" d="M.309.514h9.494v17.282H.309z"/><path d="M48 66.844l26.886 14.235v3.384L48 70.653v-3.81z" fill="#C4C4C4"/><path transform="matrix(.88285 .46965 0 1 34.036 17.855)" fill="#fff" stroke="#3C3C3C" stroke-width=".7" d="M.309.514h52.025v38.318H.309z"/><path transform="matrix(.88285 .46965 0 1 38.036 34.472)" fill="#FFE604" stroke="#3C3C3C" stroke-width=".7" d="M.309.514h23.598v17.282H.309z"/><path transform="matrix(.88285 .46965 0 1 61.036 46.472)" fill="#fff" stroke="#3C3C3C" stroke-width=".7" d="M.309.514h9.494v17.282H.309z"/><path d="M39 27.223l26.886 14.235v3.384L39 31.032v-3.81z" fill="#C4C4C4"/><path transform="matrix(.88285 .46965 0 1 34.036 57.472)" fill="#fff" stroke="#3C3C3C" stroke-width=".7" d="M.309.514h52.025v38.318H.309z"/><path transform="matrix(.88285 .46965 0 1 38.036 74.093)" fill="#FFA9BB" stroke="#3C3C3C" stroke-width=".7" d="M.309.514h23.598v17.282H.309z"/><path transform="matrix(.88285 .46965 0 1 61.036 86.093)" fill="#fff" stroke="#3C3C3C" stroke-width=".7" d="M.309.514h9.494v17.282H.309z"/><path d="M39 66.844l26.886 14.235v3.384L39 70.653v-3.81z" fill="#C4C4C4"/><path transform="matrix(.88285 .46965 0 1 25.036 17.855)" fill="#fff" stroke="#3C3C3C" stroke-width=".7" d="M.309.514h52.025v38.318H.309z"/><path transform="matrix(.88285 .46965 0 1 29.036 34.472)" fill="#FFE604" stroke="#3C3C3C" stroke-width=".7" d="M.309.514h23.598v17.282H.309z"/><path transform="matrix(.88285 .46965 0 1 52.036 46.472)" fill="#fff" stroke="#3C3C3C" stroke-width=".7" d="M.309.514h9.494v17.282H.309z"/><path d="M30 27.223l26.886 14.235v3.384L30 31.032v-3.81z" fill="#C4C4C4"/><path transform="matrix(.88285 .46965 0 1 25.036 57.472)" fill="#fff" stroke="#3C3C3C" stroke-width=".7" d="M.309.514h52.025v38.318H.309z"/><path transform="matrix(.88285 .46965 0 1 29.036 74.093)" fill="#FFA9BB" stroke="#3C3C3C" stroke-width=".7" d="M.309.514h23.598v17.282H.309z"/><path transform="matrix(.88285 .46965 0 1 52.036 86.093)" fill="#fff" stroke="#3C3C3C" stroke-width=".7" d="M.309.514h9.494v17.282H.309z"/><path d="M30 66.844l26.886 14.235v3.384L30 70.653v-3.81z" fill="#C4C4C4"/><path transform="matrix(.88285 .46965 0 1 16.036 17.855)" fill="#fff" stroke="#3C3C3C" stroke-width=".7" d="M.309.514h52.025v38.318H.309z"/><path transform="matrix(.88285 .46965 0 1 20.036 34.472)" fill="#FFE604" stroke="#3C3C3C" stroke-width=".7" d="M.309.514h23.598v17.282H.309z"/><path transform="matrix(.88285 .46965 0 1 43.036 46.472)" fill="#fff" stroke="#3C3C3C" stroke-width=".7" d="M.309.514h9.494v17.282H.309z"/><path d="M21 27.223l26.886 14.235v3.384L21 31.032v-3.81z" fill="#FF625B"/><path transform="matrix(.88285 .46965 0 1 16.036 57.472)" fill="#fff" stroke="#3C3C3C" stroke-width=".7" d="M.309.514h52.025v38.318H.309z"/><path transform="matrix(.88285 .46965 0 1 20.036 74.093)" fill="#FFA9BB" stroke="#3C3C3C" stroke-width=".7" d="M.309.514h23.598v17.282H.309z"/><path transform="matrix(.88285 .46965 0 1 43.036 86.093)" fill="#fff" stroke="#3C3C3C" stroke-width=".7" d="M.309.514h9.494v17.282H.309z"/><path d="M21 66.844l26.886 14.235v3.384L21 70.653v-3.81z" fill="#14E731"/></svg>