<svg width="141" height="140" fill="none" xmlns="http://www.w3.org/2000/svg"><path d="M26.637 33.964l25.84-10.726L62.8 43.6l20.4-8.166 16.708 17.683v63.642L83.2 99.076l-20.4 8.166L52.476 86.88l-12.92 5.363-12.92 5.363V33.964z" fill="#fff"/><path d="M52.476 23.238l-25.84 10.726v63.642l12.92-5.363 12.92-5.363m0-63.642V86.88m0-63.642L62.801 43.6M52.476 86.88l10.325 20.362m0 0V43.6m0 63.642l20.4-8.166M62.8 43.6l20.4-8.166m0 63.642V35.434m0 63.642l16.708 17.683M83.2 35.434l16.708 17.683m0 0v63.642m0-63.642v63.642" stroke="#3C3C3C" stroke-width=".7"/><path d="M91.287 76.506l-1.998-2.21V77.2l1.998 1.83v-2.524z" stroke="#3C3C3C" stroke-width=".7" stroke-linecap="round" stroke-linejoin="round"/><path d="M35.719 55.972l1.514 3.13m0-3.746l-1.514 4.36" stroke="#3C3C3C" stroke-width=".7"/><path d="M52.44 76.154l-.285.204.183.257.275-.157-.173-.304zm10.495-5.98l.238-.257-.188-.175-.224.127.174.305zm20.122 18.684l-.238.257.304.282.227-.348-.293-.19zM38.84 57.738l.555.776.57-.407-.555-.775-.57.407zm1.665 2.328l1.11 1.552.569-.407-1.11-1.552-.57.407zm2.219 3.103l1.11 1.552.569-.407-1.11-1.552-.57.407zm2.219 3.103l1.11 1.552.569-.407-1.11-1.552-.57.407zm2.219 3.104l1.11 1.551.569-.407-1.11-1.551-.57.407zm2.219 3.103l1.11 1.552.569-.408-1.11-1.551-.57.407zm2.219 3.103l.555.776.57-.407-.556-.776-.569.407zm1.013.876l.874-.498-.346-.608-.875.498.347.608zm2.624-1.495l1.749-.997-.347-.608-1.749.997.347.608zm3.498-1.993l1.75-.997-.347-.608-1.75.996.347.609zm3.498-1.994l.875-.498-.346-.609-.875.499.346.608zm.464-.546l.718.667.477-.513-.72-.667-.475.513zm2.156 2.002l1.437 1.335.476-.513-1.437-1.335-.476.513zm2.874 2.67l1.437 1.334.477-.513-1.438-1.335-.476.513zm2.875 2.668l1.437 1.335.476-.513-1.437-1.335-.476.513zm2.874 2.67l1.438 1.334.476-.513-1.437-1.334-.477.513zm2.875 2.669l1.437 1.335.476-.513-1.437-1.335-.476.513zm2.874 2.67l1.438 1.334.476-.513-1.437-1.335-.477.513zm2.875 2.668l.719.668.476-.513-.719-.668-.476.513zm1.25.602l.542-.833-.586-.382-.543.833.587.382zm1.627-2.499l1.085-1.666-.587-.382-1.084 1.666.586.382zm2.17-3.332l1.085-1.666-.587-.382-1.085 1.666.587.382zm2.17-3.332l.542-.833-.587-.382-.542.833.587.382z" fill="#3C3C3C"/><path d="M36.475 36.164c-2.392 1.381-4.33 4.73-4.33 7.49 0 4.774 4.33 8.5 4.33 8.5s4.33-8.727 4.33-13.5c0-2.76-1.938-3.87-4.33-2.49zm0 7.751c-.62.358-1.215.417-1.654.164-.438-.253-.685-.798-.685-1.514s.247-1.545.685-2.304c.439-.76 1.034-1.388 1.654-1.746.62-.358 1.215-.417 1.653-.164.439.254.685.798.685 1.514s-.246 1.545-.685 2.305c-.438.76-1.033 1.387-1.653 1.745z" fill="#FFA9BB" stroke="#3C3C3C" stroke-width=".7"/></svg>