<svg width="140" height="140" fill="none" xmlns="http://www.w3.org/2000/svg"><path d="M37.959 56.188l26.569 3.368-40.863-22.911-6.122 2.686.123.14L37.96 56.189z" fill="#FFE604" stroke="#3C3C3C" stroke-width=".7"/><path d="M50.048 29.771l6.035-2.712 7.594 32.186L88.89 73.7l-5.898 2.713-.836.202-24.98-14.371-7.568-31.216.439-1.258zm12.129 51.974l6.227-1.577 6.28 28.897-5.897 2.713-9.61-30.533 3 .5z" fill="#FFE604"/><path d="M57.177 62.245l6.5-3m-6.5 3l-7.568-31.216.439-1.258 6.035-2.712 7.594 32.186m-6.5 3l24.98 14.371.836-.202L88.89 73.7 63.677 59.245m4.727 20.923l-6.227 1.577-3-.5 9.61 30.533 5.898-2.713-6.28-28.897zm0 0l4.496-2.263" stroke="#3C3C3C" stroke-width=".7"/><path d="M49.752 30.628l7.586 31.34.068.281.22.127 24.55 14.174-19.861 5.196-.175.045.063.275 6.774 29.638h-.393L49.93 85.284l-.178-.252-.179.047-19.86 5.195 7.585-22.58.069-.204-.18-.252-19.603-27.636h.262L41.88 53.285l.219.124.067-.201 7.587-22.58z" fill="#fff" stroke="#3C3C3C" stroke-width=".7"/></svg>